<svg width="264" height="88" viewBox="0 0 264 88" fill="none" xmlns="http://www.w3.org/2000/svg">
<path d="M154.288 64.6044V60.1269H125.296V16.3867H120.453V64.6044H154.288Z" fill="white"/>
<path d="M170.655 65.2911C176.743 65.2911 181.517 62.2609 182.902 59.0922C182.902 60.9522 182.971 63.087 183.247 64.6028H187.399C187.053 62.1916 187.053 59.0922 187.053 57.0259V42.5603C187.053 35.5345 182.694 29.4727 173.699 29.4727C166.296 29.4727 160.83 33.6745 160.414 39.8049H164.911C165.397 35.4652 169.133 33.2611 173.561 33.2611H173.907C179.235 33.2611 182.556 36.6362 182.556 42.5603V43.9383L171.623 44.7643C166.296 45.1778 159.723 47.5197 159.723 55.0966C159.723 60.9522 164.566 65.2911 170.655 65.2911ZM171.139 61.5026C167.195 61.5026 164.22 58.6095 164.22 54.821C164.22 51.0325 167.611 48.6221 172.523 48.2772L182.556 47.589V52.2035C182.556 57.3007 176.605 61.5026 171.831 61.5026H171.139Z" fill="white"/>
<path d="M213.455 65.2927C222.45 65.2927 228.884 58.4047 228.884 47.3835C228.884 36.3622 222.45 29.4742 213.455 29.4742C208.957 29.4742 203.975 31.8854 201.9 35.6739V16.3867H197.402V64.6044H201.9V59.0938C203.975 62.8822 208.957 65.2927 213.455 65.2927ZM212.97 61.5042C205.498 61.5042 201.9 54.8226 201.9 47.3835C201.9 39.9443 205.498 33.2627 212.97 33.2627H213.317C220.72 33.2627 224.318 39.9443 224.318 47.3835C224.318 54.8226 220.72 61.5042 213.317 61.5042H212.97Z" fill="white"/>
<path d="M248.874 65.2911C256.485 65.2911 261.536 61.5026 261.536 54.9588C261.536 49.104 257.592 46.8999 252.68 45.8668L247.283 44.6958C242.855 43.7312 240.986 42.2846 240.986 39.1852C240.986 36.1543 243.685 33.2611 248.528 33.2611H249.22C253.995 33.2611 256.969 36.7055 257.384 40.494H261.882C261.536 34.8455 257.523 29.4727 248.874 29.4727C242.301 29.4727 236.489 33.0548 236.489 39.5986C236.489 45.4534 240.779 47.7953 245.899 48.8977L250.95 49.9994C255.586 51.0325 257.039 52.6169 257.039 55.3037C257.039 59.0922 254.063 61.5026 249.22 61.5026H248.528C243.754 61.5026 240.087 59.0229 239.603 54.2706H235.105C235.451 60.6073 239.949 65.2911 248.874 65.2911Z" fill="white"/>
<path opacity="0.4" d="M91.6959 10.4531H89.707V72.5281H91.6959V10.4531Z" fill="white"/>
<path d="M37.5094 21.2487L27.9531 15.8606L37.5094 10.4727L47.0649 15.8606L37.5094 21.2487Z" fill="white"/>
<path d="M21.582 44.5866V33.8109L27.9526 30.2188L37.5081 35.6062L21.582 44.5866Z" fill="white"/>
<path d="M66.1727 37.4241L56.6172 32.0367L66.1727 26.6484L75.7289 32.0367L66.1727 37.4241Z" fill="white"/>
<path d="M12.0242 35.6038L2.46875 30.2164L12.0242 24.8281L21.5805 30.2164L12.0242 35.6038Z" fill="white"/>
<path d="M12.0242 35.6062L2.46875 30.2188V48.178L12.0242 53.5662V35.6062Z" fill="white"/>
<path d="M40.6852 51.782L31.1289 46.3945V64.3538L40.6852 69.742V51.782Z" fill="white"/>
<path d="M37.5094 21.2473L27.9531 15.8594V33.8191L37.5094 35.6152V21.2473Z" fill="white"/>
<path d="M50.2461 60.7624V49.9859L56.6167 46.3945L66.1722 51.782L50.2461 60.7624Z" fill="white"/>
<path d="M66.1727 37.4234L56.6172 32.0352V46.403L66.1727 51.7913V37.4234Z" fill="white"/>
<path d="M40.6852 51.7796L31.1289 46.3914L40.6852 41.0039L50.2406 46.3914L40.6852 51.7796Z" fill="white"/>
<path d="M2.46875 55.3812V44.6055L40.6922 66.1577V76.9334L2.46875 55.3812Z" fill="white"/>
</svg>
