<svg width="139" height="24" viewBox="0 0 139 24" fill="none" xmlns="http://www.w3.org/2000/svg">
<path d="M46.9757 7.54688H48.4375L44.783 19.4504H42.7958L40.2148 9.18953L37.6338 19.4504H35.6695L31.9922 7.54688H33.5225L36.6973 18.0696L39.2784 7.54688H41.1741L43.8693 18.2124L46.9757 7.54688Z" fill="white"/>
<path d="M49.4531 16.1648C49.4531 13.5461 51.623 12.7366 53.3817 12.5938L56.9905 12.3081V11.8319C56.9905 9.78454 55.8942 8.61797 54.1354 8.61797H54.0213C52.5595 8.61797 51.326 9.37985 51.1662 10.8796H49.6815C49.8185 8.76084 51.623 7.30859 54.0669 7.30859C57.0362 7.30859 58.4752 9.4036 58.4752 11.8319V16.8314C58.4752 17.5456 58.4752 18.617 58.5893 19.4502H57.2189C57.1275 18.9264 57.1047 18.1884 57.1047 17.5456C56.6479 18.6408 55.0719 19.6883 53.062 19.6883C51.0519 19.6883 49.4531 18.1884 49.4531 16.1648ZM53.4502 18.3789C55.0262 18.3789 56.9905 16.9266 56.9905 15.1649V13.5699L53.6786 13.8079C52.0569 13.9269 50.9378 14.7602 50.9378 16.0695C50.9378 17.379 51.9199 18.3789 53.2218 18.3789H53.4502Z" fill="white"/>
<path d="M64.6208 19.4516C63.1361 19.4516 62.4509 18.8564 62.4509 17.309V8.85757H59.8242V7.54813H62.4509L62.4506 4.58672L63.9355 3.69141V7.54813H66.7906V8.85757H63.9355V17.19C63.9355 17.9042 64.1639 18.1423 64.8492 18.1423H67.1332V19.4516H64.6208Z" fill="white"/>
<path d="M67.9297 13.4984C67.9297 9.99881 69.8026 7.30859 73.183 7.30859C75.6498 7.30859 77.4085 8.8561 77.637 11.3558H76.1523C75.901 9.76074 74.8275 8.61797 73.2972 8.61797H73.0688C70.5792 8.61797 69.4143 10.9035 69.4143 13.4984C69.4143 16.0934 70.5792 18.3789 73.0688 18.3789H73.2972C74.8275 18.3789 75.8554 17.1647 76.1523 15.6411H77.637C77.2258 18.0932 75.6498 19.6883 73.183 19.6883C69.8026 19.6883 67.9297 16.9981 67.9297 13.4984Z" fill="white"/>
<path d="M80.0039 19.4501V2.78516H81.4886V9.57017C82.2652 8.16559 83.6813 7.3085 85.5999 7.3085C88.1352 7.3085 89.4828 9.09403 89.4828 11.5938V19.4501H87.9981V12.0699C87.9981 9.78444 87.0846 8.61788 85.2573 8.61788H85.0289C83.2701 8.61788 81.4886 10.2606 81.4886 13.0222V19.4501H80.0039Z" fill="white"/>
<path d="M95.0022 19.4501V5.33256H89.4062V2.78516H103.362V5.33256H97.7431V19.4501H95.0022Z" fill="white"/>
<path d="M101.898 13.4984C101.898 9.87974 104.228 7.30859 107.494 7.30859C110.783 7.30859 113.113 9.87974 113.113 13.4984C113.113 17.1171 110.783 19.6883 107.494 19.6883C104.228 19.6883 101.898 17.1171 101.898 13.4984ZM107.586 17.4504C109.299 17.4504 110.464 15.9982 110.464 13.4984C110.464 10.9987 109.299 9.54646 107.586 9.54646H107.403C105.713 9.54646 104.525 10.9987 104.525 13.4984C104.525 15.9982 105.713 17.4504 107.403 17.4504H107.586Z" fill="white"/>
<path d="M128.167 7.54688H130.771L127.391 19.4504H124.467L122.252 10.7132L120.082 19.4504H117.135L113.641 7.54688H116.313L118.688 16.665L120.835 7.54688H123.622L125.883 16.6174L128.167 7.54688Z" fill="white"/>
<path d="M132.332 19.4522V7.5487H134.913V10.0246C135.37 8.38198 136.626 7.42969 138.225 7.42969H139.001V10.0008H138.019C136.032 10.0008 134.959 11.1674 134.959 13.3338V19.4522H132.332Z" fill="white"/>
<path d="M10.9296 4.7754L7.94922 2.98731L10.9296 1.19922L13.9099 2.98731L10.9296 4.7754Z" fill="white"/>
<path d="M5.96094 12.5222V8.94597L7.94785 7.75391L10.9282 9.542L5.96094 12.5222Z" fill="white"/>
<path d="M19.871 10.1426L16.8906 8.3545L19.871 6.56641L22.8513 8.3545L19.871 10.1426Z" fill="white"/>
<path d="M2.98036 9.54493L0 7.75684L2.98036 5.96875L5.96073 7.75684L2.98036 9.54493Z" fill="white"/>
<path d="M2.98036 9.542L0 7.75391V13.7142L2.98036 15.5023V9.542Z" fill="white"/>
<path d="M11.9218 14.9092L8.94141 13.1211V19.0814L11.9218 20.8695V14.9092Z" fill="white"/>
<path d="M10.9296 4.77637L7.94922 2.98828V8.94859L10.9296 9.54462V4.77637Z" fill="white"/>
<path d="M14.9023 17.8893V14.3132L16.8893 13.1211L19.8696 14.9092L14.9023 17.8893Z" fill="white"/>
<path d="M19.871 10.1397L16.8906 8.35156V13.1198L19.871 14.9079V10.1397Z" fill="white"/>
<path d="M11.9218 14.9082L8.94141 13.1201L11.9218 11.332L14.9021 13.1201L11.9218 14.9082Z" fill="white"/>
<path d="M0 16.1035V12.5273L11.9215 19.6797V23.2559L0 16.1035Z" fill="white"/>
</svg>
