<svg width="28" height="25" viewBox="0 0 28 25" fill="none" xmlns="http://www.w3.org/2000/svg">
<path d="M13.0515 4.17498L9.49219 2.23788L13.0515 0.300781L16.6108 2.23788L13.0515 4.17498Z" fill="white"/>
<path d="M7.11719 12.5679V8.69374L9.49004 7.40234L13.0493 9.33944L7.11719 12.5679Z" fill="white"/>
<path d="M23.7273 9.98748L20.168 8.05038L23.7273 6.11328L27.2865 8.05038L23.7273 9.98748Z" fill="white"/>
<path d="M3.55928 9.33904L0 7.40194L3.55928 5.46484L7.11857 7.40194L3.55928 9.33904Z" fill="white"/>
<path d="M3.55928 9.33944L0 7.40234V13.8593L3.55928 15.7964V9.33944Z" fill="white"/>
<path d="M14.239 15.1519L10.6797 13.2148V19.6718L14.239 21.6089V15.1519Z" fill="white"/>
<path d="M13.0515 4.17538L9.49219 2.23828V8.69528L13.0515 9.34098V4.17538Z" fill="white"/>
<path d="M17.7969 18.3804V14.5062L20.1697 13.2148L23.729 15.1519L17.7969 18.3804Z" fill="white"/>
<path d="M23.7272 9.98788L20.168 8.05078V13.2164L23.7272 15.1535V9.98788Z" fill="white"/>
<path d="M14.239 15.1515L10.6797 13.2144L14.239 11.2773L17.7983 13.2144L14.239 15.1515Z" fill="white"/>
<path d="M0 16.4445V12.5703L14.2371 20.3187V24.1929L0 16.4445Z" fill="white"/>
</svg>
