<svg width="128" height="19" viewBox="0 0 128 19" fill="none" xmlns="http://www.w3.org/2000/svg">
<path d="M18.0971 5.17578H19.8428L15.4784 18.0713H13.1053L10.023 6.95533L6.94061 18.0713H4.59476L0.203125 5.17578H2.03069L5.82223 16.5753L8.90459 5.17578H11.1686L14.3873 16.7301L18.0971 5.17578Z" fill="white"/>
<path d="M21.0547 14.5122C21.0547 11.6752 23.646 10.7983 25.7464 10.6436L30.0562 10.3341V9.81826C30.0562 7.60024 28.7469 6.33646 26.6465 6.33646H26.5102C24.7644 6.33646 23.2914 7.16183 23.1005 8.78661H21.3275C21.4911 6.49123 23.646 4.91797 26.5647 4.91797C30.1107 4.91797 31.8292 7.18756 31.8292 9.81826V15.2344C31.8292 16.0081 31.8292 17.1687 31.9656 18.0714H30.329C30.2198 17.504 30.1926 16.7044 30.1926 16.0081C29.647 17.1945 27.7649 18.3293 25.3645 18.3293C22.9641 18.3293 21.0547 16.7044 21.0547 14.5122ZM25.8282 16.9108C27.7104 16.9108 30.0562 15.3375 30.0562 13.429V11.701L26.101 11.9589C24.1643 12.0878 22.8277 12.9905 22.8277 14.409C22.8277 15.8276 24.0006 16.9108 25.5554 16.9108H25.8282Z" fill="white"/>
<path d="M39.1697 18.0736C37.3966 18.0736 36.5783 17.4288 36.5783 15.7524V6.59667H33.4414V5.17812H36.5783L36.5779 1.96992L38.3513 1V5.17812H41.761V6.59667H38.3513V15.6235C38.3513 16.3972 38.6241 16.6551 39.4424 16.6551H42.1701V18.0736H39.1697Z" fill="white"/>
<path d="M43.1211 11.6236C43.1211 7.83237 45.3578 4.91797 49.3948 4.91797C52.3408 4.91797 54.4412 6.59443 54.7139 9.30243H52.9409C52.6408 7.57446 51.3588 6.33646 49.5313 6.33646H49.2585C46.2853 6.33646 44.8941 8.81245 44.8941 11.6236C44.8941 14.4348 46.2853 16.9108 49.2585 16.9108H49.5313C51.3588 16.9108 52.5863 15.5954 52.9409 13.9448H54.7139C54.2229 16.6013 52.3408 18.3293 49.3948 18.3293C45.3578 18.3293 43.1211 15.4149 43.1211 11.6236Z" fill="white"/>
<path d="M57.5391 18.0693V0.015625H59.3121V7.36606C60.2396 5.84443 61.9308 4.91592 64.222 4.91592C67.2498 4.91592 68.8591 6.85023 68.8591 9.55829V18.0693H67.0861V10.0741C67.0861 7.59819 65.9951 6.33441 63.8129 6.33441H63.5401C61.4398 6.33441 59.3121 8.11401 59.3121 11.1057V18.0693H57.5391Z" fill="white"/>
<path d="M75.4486 18.0693V2.77531H68.7656V0.015625H85.432V2.77531H78.7218V18.0693H75.4486Z" fill="white"/>
<path d="M83.6875 11.6236C83.6875 7.70338 86.4697 4.91797 90.3704 4.91797C94.2983 4.91797 97.0806 7.70338 97.0806 11.6236C97.0806 15.5439 94.2983 18.3293 90.3704 18.3293C86.4697 18.3293 83.6875 15.5439 83.6875 11.6236ZM90.4795 15.9049C92.5253 15.9049 93.9165 14.3317 93.9165 11.6236C93.9165 8.91559 92.5253 7.34233 90.4795 7.34233H90.2613C88.2428 7.34233 86.8244 8.91559 86.8244 11.6236C86.8244 14.3317 88.2428 15.9049 90.2613 15.9049H90.4795Z" fill="white"/>
<path d="M115.059 5.17578H118.169L114.132 18.0713H110.64L107.994 8.60595L105.403 18.0713H101.884L97.7109 5.17578H100.902L103.739 15.0537L106.303 5.17578H109.631L112.332 15.0021L115.059 5.17578Z" fill="white"/>
<path d="M120.035 18.0713V5.1758H123.117V7.85807C123.663 6.07853 125.163 5.04688 127.073 5.04688H128V7.83229H126.827C124.454 7.83229 123.172 9.09607 123.172 11.443V18.0713H120.035Z" fill="white"/>
</svg>
