<svg width="240" height="241" viewBox="0 0 240 241" fill="none" xmlns="http://www.w3.org/2000/svg">
<rect width="240" height="240" transform="translate(0 0.00390625)" fill="#040C25"/>
<path d="M116.577 70.3024L95.9883 58.4286L116.577 46.5547L137.165 58.4286L116.577 70.3024Z" fill="white"/>
<path d="M82.2578 121.75V98.0018L95.9835 90.0859L116.572 101.96L82.2578 121.75Z" fill="white"/>
<path d="M178.335 105.927L157.746 94.0536L178.335 82.1797L198.923 94.0536L178.335 105.927Z" fill="white"/>
<path d="M61.6666 101.959L41.0781 90.0848L61.6666 78.2109L82.2552 90.0848L61.6666 101.959Z" fill="white"/>
<path d="M61.6666 101.96L41.0781 90.0859V129.666L61.6666 141.539V101.96Z" fill="white"/>
<path d="M123.44 137.585L102.852 125.711V165.291L123.44 177.164V137.585Z" fill="white"/>
<path d="M116.577 70.3036L95.9883 58.4297V98.0093L116.577 101.967V70.3036Z" fill="white"/>
<path d="M144.016 157.375V133.627L157.741 125.711L178.33 137.585L144.016 157.375Z" fill="white"/>
<path d="M178.335 105.929L157.746 94.0547V125.718L178.335 137.592V105.929Z" fill="white"/>
<path d="M123.44 137.584L102.852 125.71L123.44 113.836L144.029 125.71L123.44 137.584Z" fill="white"/>
<path d="M41.0781 145.506V121.758L123.432 169.253V193.001L41.0781 145.506Z" fill="white"/>
</svg>
