<svg width="80" height="80" viewBox="0 0 80 80" fill="none" xmlns="http://www.w3.org/2000/svg">
<path fill-rule="evenodd" clip-rule="evenodd" d="M40.0005 10.6562L40.4364 10.8674L70.554 25.4556L71.1181 25.7289V26.3556V30.8262V31.8262H70.1181H9.88281H8.88281V30.8262V26.3556V25.7289L9.44688 25.4556L39.5645 10.8674L40.0005 10.6562ZM10.8828 26.9824V29.8262H69.1181V26.9824L40.0005 12.8785L10.8828 26.9824ZM17.3516 34.6026L18.8064 35.3456L25.3946 38.7103L25.9398 38.9887V39.6008V61.9979H29.5898V36.2361V34.6026L31.0447 35.3456L37.6329 38.7103L38.1781 38.9887V39.6008V61.9979H41.8242V36.2361V34.6026L43.279 35.3456L49.8673 38.7103L50.4125 38.9887V39.6008V54.1993C49.6161 55.18 48.9417 56.2638 48.4125 57.4275V40.213L43.8242 37.8697V61.5891H47.215C47.1267 62.2457 47.0811 62.916 47.0811 63.5968C47.0811 63.7309 47.0828 63.8646 47.0863 63.9979H14V67.9979H47.7408C47.9534 68.6872 48.2145 69.3552 48.5203 69.9979H13H12V68.9979V62.9979V61.9979H13H17.3516V36.2361V34.6026ZM62.6468 48.6925V39.6008V38.9887L62.1017 38.7103L55.5134 35.3456L54.0586 34.6026V36.2361V50.9653C54.6945 50.5647 55.3628 50.2108 56.0586 49.9084V37.8697L60.6468 40.213V48.7392C61.0923 48.6992 61.5433 48.6787 61.9992 48.6787C62.2162 48.6787 62.4321 48.6833 62.6468 48.6925ZM19.3516 37.8697V61.5891H23.9398V40.213L19.3516 37.8697ZM31.5898 61.5891V37.8697L36.1781 40.213V61.5891H31.5898Z" fill="white"/>
<circle cx="61.9992" cy="63.5969" r="12.8" fill="#1D32F4"/>
<path d="M62.5 69.5326C61.6222 69.5326 60.8444 69.3804 60.1667 69.0759C59.4889 68.7715 58.9556 68.3257 58.5667 67.7386C58.1889 67.1406 58 66.4176 58 65.5695V65.1618H59.7833V65.5695C59.7833 66.3741 60.0278 66.9775 60.5167 67.3798C61.0167 67.7821 61.6778 67.9832 62.5 67.9832C63.3333 67.9832 63.9611 67.8147 64.3833 67.4776C64.8056 67.1297 65.0167 66.6839 65.0167 66.1403C65.0167 65.7815 64.9167 65.4879 64.7167 65.2596C64.5278 65.0313 64.25 64.8519 63.8833 64.7214C63.5167 64.5801 63.0778 64.4496 62.5667 64.33L61.95 64.1832C61.2056 64.0093 60.5611 63.7972 60.0167 63.5472C59.4722 63.2862 59.05 62.9437 58.75 62.5197C58.45 62.0957 58.3 61.552 58.3 60.8888C58.3 60.2147 58.4667 59.6384 58.8 59.16C59.1333 58.6816 59.6 58.312 60.2 58.051C60.8 57.7901 61.5056 57.6596 62.3167 57.6596C63.1278 57.6596 63.85 57.7955 64.4833 58.0673C65.1278 58.3392 65.6333 58.7414 66 59.2742C66.3778 59.807 66.5667 60.4756 66.5667 61.2802V61.8673H64.7833V61.2802C64.7833 60.7909 64.6778 60.3941 64.4667 60.0897C64.2667 59.7852 63.9778 59.5623 63.6 59.421C63.2333 59.2796 62.8056 59.209 62.3167 59.209C61.6056 59.209 61.0556 59.3558 60.6667 59.6493C60.2778 59.932 60.0833 60.3289 60.0833 60.8399C60.0833 61.1878 60.1667 61.4759 60.3333 61.7042C60.5111 61.9217 60.7667 62.1011 61.1 62.2424C61.4333 62.3838 61.8444 62.5088 62.3333 62.6176L62.95 62.7643C63.7056 62.9274 64.3722 63.1394 64.95 63.4004C65.5278 63.6505 65.9778 63.9929 66.3 64.4279C66.6333 64.8628 66.8 65.4227 66.8 66.1077C66.8 66.7927 66.6222 67.3907 66.2667 67.9017C65.9222 68.4127 65.4278 68.815 64.7833 69.1085C64.1389 69.3912 63.3778 69.5326 62.5 69.5326ZM61.6667 71.1961V55.9961H63.3167V71.1961H61.6667Z" fill="white"/>
</svg>
