<svg width="32" height="32" viewBox="0 0 32 32" fill="none" xmlns="http://www.w3.org/2000/svg">
<g clip-path="url(#clip0_15803_7706)">
<path fill-rule="evenodd" clip-rule="evenodd" d="M5 4C4.46957 4 3.96086 4.21071 3.58579 4.58579C3.21071 4.96086 3 5.46957 3 6V22L4.62852 22.7778L9 19.2453V23C9 23.5304 9.21071 24.0391 9.58579 24.4142C9.96086 24.7893 10.4696 25 11 25H22.6965L27.3715 28.7778L29 28V12C29 11.4696 28.7893 10.9609 28.4142 10.5858C28.0391 10.2107 27.5304 10 27 10H23V6C23 5.46957 22.7893 4.96086 22.4142 4.58579C22.0391 4.21071 21.5304 4 21 4H5ZM21 11V6L5 6L5 19.9062L8.32148 17.2222L8.95 17H10H21V11ZM11 19H21C21.5304 19 22.0391 18.7893 22.4142 18.4142C22.7893 18.0391 23 17.5304 23 17V12H27V25.9062L23.6785 23.2222L23.05 23H11V19Z" fill="white"/>
</g>
<defs>
<clipPath id="clip0_15803_7706">
<rect width="32" height="32" fill="white"/>
</clipPath>
</defs>
</svg>
