<svg width="32" height="32" viewBox="0 0 32 32" fill="none" xmlns="http://www.w3.org/2000/svg">
<path fill-rule="evenodd" clip-rule="evenodd" d="M5 2.99609H4V3.99609V10.9961V11.9961H5H7V16.0111V17.0111H9V17.0039H15V20H12.5H11.5V21V28V29H12.5H19.5H20.5V28V21V20H19.5H17V17.0039H23.4883H24.4883V17H24.5V16V11.9961H27H28V10.9961V3.99609V2.99609H27H20H19V3.99609V10.9961V11.9961H20H22.5V15.0039H9V11.9961H12H13V10.9961V3.99609V2.99609H12H5ZM6 9.99609V4.99609H11V9.99609H6ZM21 4.99609V9.99609H26V4.99609H21ZM13.5 22V27H18.5V22H13.5Z" fill="white"/>
</svg>
