<svg width="24" height="24" viewBox="0 0 24 24" fill="none" xmlns="http://www.w3.org/2000/svg">
<mask id="path-1-inside-1_16202_10433" fill="white">
<path fill-rule="evenodd" clip-rule="evenodd" d="M21.1009 15.0731H2.89453C4.17616 18.8708 7.76761 21.6052 11.9977 21.6052C16.2278 21.6052 19.8193 18.8708 21.1009 15.0731ZM21.0994 8.92229H2.896C4.1789 5.12687 7.76922 2.39453 11.9977 2.39453C16.2262 2.39453 19.8165 5.12687 21.0994 8.92229Z"/>
</mask>
<path d="M21.1009 15.0731L22.9959 15.7126L23.8867 13.0731H21.1009V15.0731ZM2.89453 15.0731V13.0731H0.108759L0.999533 15.7126L2.89453 15.0731ZM2.896 8.92229L1.00131 8.28186L0.108811 10.9223H2.896V8.92229ZM21.0994 8.92229V10.9223H23.8866L22.9941 8.28186L21.0994 8.92229ZM21.1009 13.0731H2.89453V17.0731H21.1009V13.0731ZM11.9977 19.6052C8.65148 19.6052 5.80509 17.4429 4.78953 14.4336L0.999533 15.7126C2.54723 20.2987 6.88373 23.6052 11.9977 23.6052V19.6052ZM19.2059 14.4336C18.1903 17.4429 15.3439 19.6052 11.9977 19.6052V23.6052C17.1117 23.6052 21.4482 20.2987 22.9959 15.7126L19.2059 14.4336ZM2.896 10.9223H21.0994V6.92229H2.896V10.9223ZM4.79069 9.56272C5.80727 6.55521 8.65276 4.39453 11.9977 4.39453V0.394531C6.88568 0.394531 2.55054 3.69852 1.00131 8.28186L4.79069 9.56272ZM11.9977 4.39453C15.3427 4.39453 18.1882 6.55521 19.2047 9.56272L22.9941 8.28186C21.4449 3.69852 17.1097 0.394531 11.9977 0.394531V4.39453Z" fill="white" mask="url(#path-1-inside-1_16202_10433)"/>
<path d="M6.59467 10.0254L5.91248 12.6246L5.23717 10.0256L5.21772 9.95078H5.14038H4.1895H4.11108L4.09239 10.0269L3.45197 12.6363L2.74279 10.0246L2.72275 9.95078H2.64628H1.73438H1.5992L1.63875 10.08L2.83124 13.9771L2.85289 14.0478H2.92687H3.9323H4.00971L4.02911 13.9729L4.67374 11.4825L5.33208 13.9734L5.35176 14.0478H5.42876H6.4264H6.50109L6.52229 13.9762L7.67581 10.0792L7.71381 9.95078H7.57992H6.6914H6.61426L6.59467 10.0254Z" fill="white" stroke="white" stroke-width="0.2"/>
<path d="M13.9384 10.0254L13.2562 12.6246L12.5809 10.0256L12.5615 9.95078H12.4841H11.5333H11.4548L11.4361 10.0269L10.7957 12.6363L10.0865 10.0246L10.0665 9.95078H9.99003H9.07812H8.94295L8.9825 10.08L10.175 13.9771L10.1966 14.0478H10.2706H11.2761H11.3535L11.3729 13.9729L12.0175 11.4825L12.6758 13.9734L12.6955 14.0478H12.7725H13.7702H13.8448L13.866 13.9762L15.0196 10.0792L15.0576 9.95078H14.9237H14.0351H13.958L13.9384 10.0254Z" fill="white" stroke="white" stroke-width="0.2"/>
<path d="M21.2822 10.0254L20.6 12.6246L19.9247 10.0256L19.9052 9.95078H19.8279H18.877H18.7986L18.7799 10.0269L18.1395 12.6363L17.4303 10.0246L17.4102 9.95078H17.3338H16.4219H16.2867L16.3263 10.08L17.5187 13.9771L17.5404 14.0478H17.6144H18.6198H18.6972L18.7166 13.9729L19.3612 11.4825L20.0196 13.9734L20.0393 14.0478H20.1163H21.1139H21.1886L21.2098 13.9762L22.3633 10.0792L22.4013 9.95078H22.2674H21.3789H21.3018L21.2822 10.0254Z" fill="white" stroke="white" stroke-width="0.2"/>
</svg>
