<svg width="24" height="24" viewBox="0 0 24 24" fill="none" xmlns="http://www.w3.org/2000/svg">
<path d="M12.3037 2.02063C12.1735 2.01593 12.0407 2.02622 11.9072 2.05286L4.30859 3.57239C3.26142 3.78213 2.5 4.71065 2.5 5.77845V18.2199C2.5 19.2873 3.26151 20.2165 4.30859 20.4259L11.9072 21.9454C12.8794 22.1397 13.7783 21.4446 13.9375 20.4991H18.75C20.2599 20.4991 21.5 19.259 21.5 17.7491V6.74915C21.5 5.23926 20.2599 3.99915 18.75 3.99915H14V3.76868C14 2.81615 13.215 2.05358 12.3037 2.02063ZM12.2012 3.52356C12.3708 3.4897 12.5 3.59529 12.5 3.76868V20.2296C12.5 20.403 12.3706 20.5087 12.2012 20.4747C12.2012 20.4744 12.2012 20.4741 12.2012 20.4738L4.60352 18.9542C4.60319 18.9542 4.60286 18.9542 4.60254 18.9542C4.2471 18.8833 4 18.5821 4 18.2199V5.77845C4 5.41624 4.24769 5.11436 4.60352 5.04309L12.2012 3.52356ZM14 5.49915H18.75C19.4491 5.49915 20 6.05004 20 6.74915V17.7491C20 18.4483 19.4491 18.9991 18.75 18.9991H14V5.49915ZM15.75 7.49915C15.6506 7.49774 15.5519 7.51611 15.4597 7.55317C15.3675 7.59023 15.2836 7.64525 15.2128 7.71503C15.142 7.78481 15.0858 7.86797 15.0474 7.95966C15.0091 8.05135 14.9893 8.14976 14.9893 8.24915C14.9893 8.34854 15.0091 8.44695 15.0474 8.53864C15.0858 8.63033 15.142 8.71349 15.2128 8.78327C15.2836 8.85305 15.3675 8.90807 15.4597 8.94513C15.5519 8.98219 15.6506 9.00056 15.75 8.99915H17.75C17.8494 9.00056 17.9481 8.98219 18.0403 8.94513C18.1325 8.90807 18.2164 8.85305 18.2872 8.78327C18.358 8.71349 18.4142 8.63033 18.4526 8.53864C18.4909 8.44695 18.5107 8.34854 18.5107 8.24915C18.5107 8.14976 18.4909 8.05135 18.4526 7.95966C18.4142 7.86797 18.358 7.78481 18.2872 7.71503C18.2164 7.64525 18.1325 7.59023 18.0403 7.55317C17.9481 7.51611 17.8494 7.49774 17.75 7.49915H15.75ZM6.49902 8.57825C6.3546 8.5744 6.20705 8.61238 6.07617 8.69544C5.72717 8.91794 5.62468 9.38109 5.84668 9.7306L7.34082 12.0783L5.84668 14.4259C5.62468 14.7754 5.72717 15.2386 6.07617 15.4611C6.20117 15.5401 6.34052 15.5783 6.47852 15.5783C6.72602 15.5783 6.9693 15.4561 7.1123 15.2316L8.22949 13.4757L9.34668 15.2306C9.49018 15.4551 9.73297 15.5783 9.98047 15.5783C10.1185 15.5783 10.2568 15.5411 10.3818 15.4611C10.7308 15.2386 10.8343 14.7744 10.6123 14.4249L9.11914 12.0783L10.6123 9.73157C10.8343 9.38207 10.7308 8.91794 10.3818 8.69544C10.0333 8.47344 9.56968 8.57591 9.34668 8.92591L8.22949 10.6808L7.1123 8.92493C6.97324 8.70618 6.73972 8.58467 6.49902 8.57825ZM15.75 11.4991C15.6506 11.4977 15.5519 11.5161 15.4597 11.5532C15.3675 11.5902 15.2836 11.6452 15.2128 11.715C15.142 11.7848 15.0858 11.868 15.0474 11.9597C15.0091 12.0514 14.9893 12.1498 14.9893 12.2491C14.9893 12.3485 15.0091 12.4469 15.0474 12.5386C15.0858 12.6303 15.142 12.7135 15.2128 12.7833C15.2836 12.8531 15.3675 12.9081 15.4597 12.9451C15.5519 12.9822 15.6506 13.0006 15.75 12.9991H17.75C17.8494 13.0006 17.9481 12.9822 18.0403 12.9451C18.1325 12.9081 18.2164 12.8531 18.2872 12.7833C18.358 12.7135 18.4142 12.6303 18.4526 12.5386C18.4909 12.4469 18.5107 12.3485 18.5107 12.2491C18.5107 12.1498 18.4909 12.0514 18.4526 11.9597C18.4142 11.868 18.358 11.7848 18.2872 11.715C18.2164 11.6452 18.1325 11.5902 18.0403 11.5532C17.9481 11.5161 17.8494 11.4977 17.75 11.4991H15.75ZM15.75 15.4991C15.6506 15.4977 15.5519 15.5161 15.4597 15.5532C15.3675 15.5902 15.2836 15.6452 15.2128 15.715C15.142 15.7848 15.0858 15.868 15.0474 15.9597C15.0091 16.0514 14.9893 16.1498 14.9893 16.2491C14.9893 16.3485 15.0091 16.4469 15.0474 16.5386C15.0858 16.6303 15.142 16.7135 15.2128 16.7833C15.2836 16.8531 15.3675 16.9081 15.4597 16.9451C15.5519 16.9822 15.6506 17.0006 15.75 16.9991H17.75C17.8494 17.0006 17.9481 16.9822 18.0403 16.9451C18.1325 16.9081 18.2164 16.8531 18.2872 16.7833C18.358 16.7135 18.4142 16.6303 18.4526 16.5386C18.4909 16.4469 18.5107 16.3485 18.5107 16.2491C18.5107 16.1498 18.4909 16.0514 18.4526 15.9597C18.4142 15.868 18.358 15.7848 18.2872 15.715C18.2164 15.6452 18.1325 15.5902 18.0403 15.5532C17.9481 15.5161 17.8494 15.4977 17.75 15.4991H15.75Z" fill="white"/>
</svg>
