<svg width="32" height="32" viewBox="0 0 32 32" fill="none" xmlns="http://www.w3.org/2000/svg">
<path fill-rule="evenodd" clip-rule="evenodd" d="M5 4H4V5V6V13.3375C4 24.5235 13.4971 28.2256 15.3594 28.8447C15.4099 28.8628 15.4609 28.8787 15.5123 28.8923L15.7061 28.9519L16 29.0423L16.2939 28.9519L16.4877 28.8923C16.5391 28.8787 16.5901 28.8628 16.6406 28.8447C18.5029 28.2256 28 24.5235 28 13.3375V6V5V4H27H26H16H6H5ZM26 13.3375C26 23.1048 17.7512 26.3684 16.0082 26.9474L16 26.9499L15.9918 26.9474C14.2488 26.3684 6 23.1048 6 13.3375V6H16H26V13.3375ZM20.7071 13.7032L21.4142 12.9961L20 11.5819L19.2929 12.289L15 16.5819L13.2071 14.789L12.5 14.0819L11.0858 15.4961L11.7929 16.2032L14.2929 18.7032L15 19.4103L15.7071 18.7032L20.7071 13.7032Z" fill="white"/>
</svg>
