<svg width="80" height="80" viewBox="0 0 80 80" fill="none" xmlns="http://www.w3.org/2000/svg">
<path fill-rule="evenodd" clip-rule="evenodd" d="M12 10.9961H11V11.9961V17.9961V18.9961H12H14V26.9961V27.9961H15H27V34.1445L29 32.1445V19.9961H51V31.5156L53 33.5156V27.9961H65H66V26.9961V18.9961H68H69V17.9961V11.9961V10.9961H68H62H61V11.9961V17.9961V18.9961H62H64V25.9961H53V18.9961V17.9961H52H28H27V18.9961V25.9961H16V18.9961H18H19V17.9961V11.9961V10.9961H18H12ZM58.4805 38.9961L59.4805 39.9961L58.4805 40.9961H62V42.9961V43.9961H63H69H70V42.9961V36.9961V35.9961H69H63H62V36.9961V38.9961H58.4805ZM53 46.4766L51 48.4766V59.9961H29V47.8477L27 45.8477V51.9961H15H14V52.9961V60.9961H12H11V61.9961V67.9961V68.9961H12H18H19V67.9961V61.9961V60.9961H18H16V53.9961H27V60.9961V61.9961H28H52H53V60.9961V53.9961H64V60.9961H62H61V61.9961V67.9961V68.9961H62H68H69V67.9961V61.9961V60.9961H68H66V52.9961V51.9961H65H53V46.4766ZM22.1484 40.9961L21.1484 39.9961L22.1484 38.9961H19V36.9961V35.9961H18H12H11V36.9961V42.9961V43.9961H12H18H19V42.9961V40.9961H22.1484ZM13 16.9961V12.9961H17V16.9961H13ZM63 62.9961H64H66H67V66.9961H63V62.9961ZM14 62.9961H13V66.9961H17V62.9961H16H14ZM13 41.9961V37.9961H17V41.9961H13ZM63 12.9961V16.9961H67V12.9961H63ZM64 37.9961V41.9961H68V37.9961H64Z" fill="white"/>
<rect x="23.6289" y="39.9961" width="23.598" height="23.598" transform="rotate(-45 23.6289 39.9961)" fill="#1D32F4"/>
</svg>
