<svg width="32" height="32" viewBox="0 0 32 32" fill="none" xmlns="http://www.w3.org/2000/svg">
<path fill-rule="evenodd" clip-rule="evenodd" d="M4 3.99609H5H6H7V4H9.5H10.5V6H9.5L6 6L6 9.5V10.5H4V9.5V6V4.99609V3.99609ZM21.5 4H22.5H26H27H28V5V6V9.5V10.5H26V9.5V6H22.5H21.5V4ZM28 21.5V22.5V26V27V28H27H26H22.5H21.5V26H22.5H26V22.5V21.5H28ZM6 22.5V21.5H4V22.5V25.9961V26V27V28H5H6H9.5H10.5V26H9.5H6V25.9961V22.5ZM13 13.3621C13 12.1485 13.3694 11.4956 13.8143 11.1224C14.2911 10.7223 15.0252 10.5 16 10.5C16.9293 10.5 17.672 10.7582 18.1682 11.1944C18.6443 11.6129 19 12.2875 19 13.3621C19 14.1349 18.4018 14.84 17.4632 15.4372C17.0255 15.7156 16.5804 15.9263 16.2403 16.0681C16.0718 16.1383 15.9327 16.1901 15.8381 16.2236C15.7909 16.2403 15.7551 16.2523 15.7324 16.2598L15.7087 16.2675L15.7056 16.2685L15.705 16.2686L15.705 16.2686L15.7049 16.2687L15 16.4851V17.2241V18.5V19.5H17V18.5V17.9182L17.0097 17.9141C17.4196 17.7433 17.9745 17.4824 18.5368 17.1246C19.5982 16.4492 21 15.2232 21 13.3621C21 11.8027 20.4602 10.5462 19.4886 9.69219C18.5371 8.8558 17.2798 8.5 16 8.5C14.7657 8.5 13.4997 8.7757 12.5289 9.59019C11.526 10.4315 11 11.7096 11 13.3621V14.3621H13V13.3621ZM17 22.0172V21.0172H15V22.0172V22.5V23.5H17V22.5V22.0172Z" fill="white"/>
</svg>
