<svg width="64" height="64" viewBox="0 0 64 64" fill="none" xmlns="http://www.w3.org/2000/svg">
<path fill-rule="evenodd" clip-rule="evenodd" d="M31.9987 9.60156C31.9987 9.60156 19.3865 14.3073 12.234 16.9427C9.08938 33.107 19.7634 52.5192 31.9987 54.4016C34.6675 53.991 37.2273 52.7499 39.5775 50.8916C39.0519 50.4673 38.5623 50 38.1142 49.4952C36.1543 50.9979 34.0857 51.9925 31.9987 52.3737C26.8728 51.4384 21.708 46.8023 18.1122 40.0841C14.6571 33.6286 12.9016 25.6819 14.0074 18.4203C17.4589 17.1462 21.8427 15.5177 25.496 14.1583C27.52 13.4052 29.3204 12.7345 30.6148 12.2521L31.9797 11.7432C32.2785 11.8603 32.6644 12.0109 33.1253 12.1897C34.2982 12.6447 35.9579 13.2826 37.9068 14.0149C41.4588 15.3496 45.987 17.0039 50.2865 18.4372C50.5958 22.0648 50.2965 25.8435 49.5024 29.5136C50.1663 29.6411 50.811 29.8227 51.4317 30.0536C52.3821 25.7188 52.6774 21.223 52.1399 16.9427C42.9159 13.931 31.9987 9.60156 31.9987 9.60156ZM45.955 29.3582C46.4278 26.6539 46.5404 23.8902 46.2112 21.2421C39.6887 19.0909 31.969 15.9984 31.969 15.9984C31.969 15.9984 23.0506 19.3597 17.993 21.2421C15.7693 32.788 23.3172 46.6539 31.969 47.9984C33.4009 47.7759 34.7885 47.2118 36.1006 46.3727C35.822 45.7472 35.5947 45.0937 35.4242 44.4176C34.2932 45.2071 33.1277 45.7351 31.9689 45.9675C28.6344 45.2999 25.15 42.1901 22.6699 37.5094C20.3251 33.0841 19.1184 27.6711 19.7797 22.7106C22.1673 21.8196 25.1107 20.715 27.5812 19.7865C29.0126 19.2485 30.2858 18.7694 31.2011 18.4248L31.9503 18.1426C32.1223 18.2105 32.3222 18.2891 32.5474 18.3774C33.3784 18.703 34.5539 19.1594 35.9344 19.6834C38.349 20.5999 41.4047 21.7286 44.345 22.7265C44.502 25.0346 44.3155 27.4265 43.8435 29.7647C44.5247 29.5693 45.2304 29.4319 45.955 29.3582Z" fill="white"/>
<circle cx="47.199" cy="41.4353" r="10.24" fill="#1D32F4"/>
<path d="M42.2402 42.6651L45.7849 46.0784L53.7602 38.3984" stroke="white" stroke-width="2"/>
</svg>
