<svg width="32" height="32" viewBox="0 0 32 32" fill="none" xmlns="http://www.w3.org/2000/svg">
<path fill-rule="evenodd" clip-rule="evenodd" d="M3 15.9961C3 8.81639 8.8203 2.99609 16 2.99609C23.1797 2.99609 29 8.81639 29 15.9961C29 23.1758 23.1797 28.9961 16 28.9961C8.8203 28.9961 3 23.1758 3 15.9961ZM16 0.996094C7.71573 0.996094 1 7.71182 1 15.9961C1 24.2804 7.71573 30.9961 16 30.9961C24.2843 30.9961 31 24.2804 31 15.9961C31 7.71182 24.2843 0.996094 16 0.996094ZM15.0021 16.8034V7.99609H17.0021V16.8034L19.2805 14.7528L20.6184 16.2394L16.671 19.792L16.0021 20.3941L15.3331 19.792L11.3857 16.2394L12.7237 14.7528L15.0021 16.8034ZM12.0547 23.9961V21.9961H19.9494V23.9961H12.0547Z" fill="white"/>
</svg>
