<svg width="24" height="24" viewBox="0 0 24 24" fill="none" xmlns="http://www.w3.org/2000/svg">
<path d="M19.1973 10.2002C19.1973 14.7484 12.001 20.9947 12.001 20.9947C12.001 20.9947 4.80469 14.7788 4.80469 10.2002C4.80469 5.62167 8.02658 3.00391 12.001 3.00391C15.9754 3.00391 19.1973 5.65206 19.1973 10.2002Z" stroke="white" stroke-width="2"/>
<path d="M9.84563 13.2844V6.98438H8.76562V13.2844H9.84563Z" fill="white"/>
<path d="M12.4648 13.2844V10.8904H14.1478C15.3448 10.8904 16.1728 10.1704 16.1728 8.93738C16.1728 7.69538 15.3448 6.98438 14.1478 6.98438H11.3848V13.2844H12.4648ZM12.4648 7.94738H14.0128C14.7148 7.94738 15.0928 8.31638 15.0928 8.93738C15.0928 9.54938 14.7148 9.92738 14.0128 9.92738H12.4648V7.94738Z" fill="white"/>
<path fill-rule="evenodd" clip-rule="evenodd" d="M10.0464 13.4852H8.56641V6.78516H10.0464V13.4852ZM9.84641 6.98516V13.2852H8.76641V6.98516H9.84641ZM12.6655 13.4852H11.1855V6.78516H14.1485C14.786 6.78516 15.345 6.9749 15.7464 7.34973C16.1497 7.7263 16.3735 8.27076 16.3735 8.93816C16.3735 9.60138 16.1495 10.1456 15.7467 10.523C15.3455 10.8988 14.7866 11.0912 14.1485 11.0912H12.6655V13.4852ZM12.4655 13.2852H11.3855V6.98516H14.1485C15.3455 6.98516 16.1735 7.69616 16.1735 8.93816C16.1735 10.1712 15.3455 10.8912 14.1485 10.8912H12.4655V13.2852ZM14.0135 8.14816H12.6655V9.72816H14.0135C14.33 9.72816 14.5451 9.64329 14.6799 9.5168C14.8131 9.39187 14.8935 9.20226 14.8935 8.93816C14.8935 8.66888 14.8127 8.47989 14.6804 8.35658C14.5461 8.23141 14.3312 8.14816 14.0135 8.14816ZM12.4655 7.94816V9.92816H14.0135C14.7155 9.92816 15.0935 9.55016 15.0935 8.93816C15.0935 8.31716 14.7155 7.94816 14.0135 7.94816H12.4655Z" fill="white"/>
</svg>
