<svg width="32" height="32" viewBox="0 0 32 32" fill="none" xmlns="http://www.w3.org/2000/svg">
<path fill-rule="evenodd" clip-rule="evenodd" d="M17 4V3H15V4V8V9H17V8V4ZM25.1962 8.21883L25.9033 7.51172L24.4891 6.09751L23.782 6.80461L20.957 9.62961L20.2498 10.3367L21.6641 11.7509L22.3712 11.0438L25.1962 8.21883ZM23 15H24H28H29V17H28H24H23V15ZM22.3712 20.957L21.6641 20.2498L20.2498 21.6641L20.957 22.3712L23.782 25.1962L24.4891 25.9033L25.9033 24.4891L25.1962 23.782L22.3712 20.957ZM17 23V24V28V29H15V28V24V23H17ZM11.0438 22.3712L11.7509 21.6641L10.3367 20.2498L9.62961 20.957L6.80461 23.782L6.09751 24.4891L7.51172 25.9033L8.21883 25.1962L11.0438 22.3712ZM3 15H4H8H9V17H8H4H3V15ZM8.21883 6.80461L7.51172 6.09751L6.09751 7.51172L6.80461 8.21883L9.62961 11.0438L10.3367 11.7509L11.7509 10.3367L11.0438 9.62961L8.21883 6.80461Z" fill="white"/>
</svg>
