<svg width="64" height="64" viewBox="0 0 64 64" fill="none" xmlns="http://www.w3.org/2000/svg">
<path fill-rule="evenodd" clip-rule="evenodd" d="M9.60156 8.59766H8.60156V9.59766V14.3977V15.3977H9.60156H11.0013V27.5984V28.5984H12.0013H19.4485C19.6322 27.9182 19.8697 27.26 20.1562 26.6287V26.5984H13.0013V15.3977H14.4016H15.4016V14.3977V9.59766V8.59766H14.4016H9.60156ZM44.5515 28.5984C44.3649 27.9073 44.1226 27.2389 43.8299 26.5984H51.0025V15.3977H49.6016H48.6016V14.3977V9.59766V8.59766H49.6016H54.4016H55.4016V9.59766V14.3977V15.3977H54.4016H53.0025V27.5984V28.5984H52.0025H44.5515ZM43.8278 37.3984C44.1208 36.758 44.3633 36.0896 44.5502 35.3984H52.0025H53.0025V36.3984V48.5977H54.4016H55.4016V49.5977V54.3977V55.3977H54.4016H49.6016H48.6016V54.3977V49.5977V48.5977H49.6016H51.0025V37.3984H43.8278ZM19.4498 35.3984C19.6333 36.0771 19.8704 36.7337 20.1562 37.3634V37.3984H13.0013V48.5977H14.4016H15.4016V49.5977V54.3977V55.3977H14.4016H9.60156H8.60156V54.3977V49.5977V48.5977H9.60156H11.0013V36.3984V35.3984H12.0013H19.4498ZM10.6016 13.3977V10.5977H13.4016V13.3977H10.6016ZM10.6016 53.3977V50.5977H13.4016V53.3977H10.6016ZM50.6016 50.5977V53.3977H53.4016V50.5977H50.6016ZM50.6016 10.5977V13.3977H53.4016V10.5977H50.6016Z" fill="white"/>
<circle cx="32" cy="31.9961" r="10" fill="#1D32F4"/>
<path d="M26.1035 32.5133H31.4113M31.4113 32.5133L33.9823 26.9961M31.4113 32.5133L36.1035 36.9961" stroke="white" stroke-width="2"/>
</svg>
