<svg width="32" height="32" viewBox="0 0 32 32" fill="none" xmlns="http://www.w3.org/2000/svg">
<path fill-rule="evenodd" clip-rule="evenodd" d="M29.7073 3.70726L30.4144 3.00015L29.0002 1.58594L28.293 2.29304L22.0033 8.5828L21.3317 7.91123C19.7696 6.34913 17.237 6.34913 15.6749 7.91123L12.5002 11.0859L12.2073 10.793L11.5002 10.0859L10.0859 11.5002L10.793 12.2073L11.0859 12.5002L7.91436 15.6717C6.35227 17.2338 6.35227 19.7665 7.91436 21.3286L8.58594 22.0002L2.29304 28.293L1.58594 29.0002L3.00015 30.4144L3.70726 29.7073L10.0002 23.4144L10.6721 24.0863C12.2342 25.6484 14.7668 25.6484 16.3289 24.0863L19.5005 20.9147L19.793 21.2073L20.5002 21.9144L21.9144 20.5002L21.2073 19.793L20.9147 19.5005L24.0894 16.3258C25.6515 14.7637 25.6515 12.231 24.0894 10.6689L23.4175 9.99701L29.7073 3.70726ZM19.5005 18.0863L22.6752 14.9116C23.4563 14.1305 23.4563 12.8642 22.6752 12.0832L22.0033 11.4112L22.0002 11.4144L20.5859 10.0002L20.5891 9.99701L19.9175 9.32544C19.1365 8.54439 17.8701 8.54439 17.0891 9.32544L13.9144 12.5002L19.5005 18.0863ZM12.5002 13.9144L9.32858 17.0859C8.54753 17.867 8.54753 19.1333 9.32858 19.9144L10.0002 20.5859L11.4144 22.0002L12.0863 22.6721C12.8673 23.4531 14.1337 23.4531 14.9147 22.6721L18.0863 19.5005L12.5002 13.9144ZM24.3677 17.7352L25.3164 18.0515L28.3164 19.0515L29.2651 19.3677L28.6326 21.2651L27.6839 20.9488L24.6839 19.9488L23.7352 19.6326L24.3677 17.7352ZM4.31638 11.0515L3.3677 10.7352L2.73524 12.6326L3.68392 12.9488L6.68392 13.9488L7.63261 14.2651L8.26506 12.3677L7.31638 12.0515L4.31638 11.0515ZM12.6326 2.73524L12.9488 3.68392L13.9488 6.68392L14.2651 7.63261L12.3677 8.26506L12.0515 7.31638L11.0515 4.31638L10.7352 3.3677L12.6326 2.73524ZM19.9488 24.6839L19.6326 23.7352L17.7352 24.3677L18.0515 25.3164L19.0515 28.3164L19.3677 29.2651L21.2651 28.6326L20.9488 27.6839L19.9488 24.6839Z" fill="white"/>
</svg>
