<svg width="80" height="80" viewBox="0 0 80 80" fill="none" xmlns="http://www.w3.org/2000/svg">
<path fill-rule="evenodd" clip-rule="evenodd" d="M63.9337 21.83C57.5745 14.2745 44.7633 16.1275 40.9183 25.1159L39.9989 27.2652L39.0795 25.1159C35.2345 16.1275 22.4233 14.2745 16.0641 21.83C12.9622 25.5155 12.1626 29.4342 12.8581 33.386C13.5621 37.3861 15.8106 41.4703 18.9083 45.3583C24.9421 52.9315 33.9754 59.4852 39.9989 62.8529C41.1548 62.2066 42.4216 61.443 43.7567 60.5774C44.0718 61.168 44.4225 61.7366 44.806 62.2805C43.2513 63.2872 41.7876 64.1588 40.4778 64.8732L39.9989 65.1344L39.5201 64.8732C33.3468 61.5059 23.7526 54.648 17.3441 46.6046C14.1396 42.5826 11.6731 38.1916 10.8884 33.7327C10.0951 29.2256 11.033 24.7016 14.534 20.5421C21.3905 12.3957 34.723 13.7328 39.9989 22.5279C45.2748 13.7328 58.6074 12.3957 65.4638 20.5421C68.9648 24.7016 69.9027 29.2256 69.1095 33.7327C68.7563 35.7393 68.0626 37.7321 67.1142 39.6838C66.5635 39.3059 65.9881 38.9613 65.3909 38.6529C66.2299 36.8968 66.8322 35.1334 67.1397 33.386C67.8353 29.4342 67.0357 25.5155 63.9337 21.83ZM61.6165 37.2705C62.4113 35.676 62.9463 34.1425 63.2011 32.6945C63.7012 29.8534 63.1782 27.145 60.8742 24.4076C56.3975 19.0887 49.2481 20.4931 44.5968 26.691L41.2374 31.2984L39.9998 32.9957L38.7622 31.2984L35.4027 26.691C30.7514 20.4931 23.6021 19.0887 19.1253 24.4076C16.8213 27.145 16.2983 29.8534 16.7984 32.6945C17.3409 35.7769 19.1534 39.2475 22.0377 42.8676C27.0509 49.1599 34.4166 54.8078 39.9998 58.2198C40.7404 57.7672 41.5123 57.2752 42.306 56.7477C42.1379 56.0421 42.0161 55.3185 41.9441 54.5804C41.2817 55.032 40.6317 55.4601 39.9998 55.8624C34.6951 52.4852 28.1206 47.2929 23.6019 41.6214C20.8244 38.1352 19.2299 34.9714 18.7681 32.3479C18.366 30.0631 18.7498 27.9596 20.6554 25.6955C22.4514 23.5617 24.664 22.8561 26.8875 23.2062C29.1864 23.568 31.7075 25.1038 33.7951 27.8808L38.3837 34.1741L39.9998 36.3904L41.6158 34.1741L46.2045 27.8807C48.2921 25.1038 50.8132 23.568 53.112 23.2062C55.3355 22.8561 57.5481 23.5617 59.3441 25.6955C61.2498 27.9596 61.6335 30.0631 61.2314 32.3479C60.987 33.7366 60.4252 35.2767 59.5386 36.9358C60.2455 37.0028 60.9391 37.1153 61.6165 37.2705Z" fill="white"/>
<circle cx="58" cy="52.9961" r="14" fill="#1D32F4"/>
<path d="M48 53.1072L51.8462 56.9961L57.4017 49.9961L63.3846 56.9954H68" stroke="white" stroke-width="2"/>
</svg>
