<svg width="32" height="32" viewBox="0 0 32 32" fill="none" xmlns="http://www.w3.org/2000/svg">
<path fill-rule="evenodd" clip-rule="evenodd" d="M6.03736 23.9878C5.99282 24.8064 6.18868 25.2806 6.45402 25.5459C6.71936 25.8112 7.19352 26.0071 8.01212 25.9626C8.83009 25.9181 9.87468 25.6348 11.0896 25.088C12.1008 24.633 13.1952 24.0113 14.3286 23.24C13.3461 22.4422 12.3638 21.5576 11.4038 20.5975C10.4432 19.6369 9.55817 18.6542 8.76003 17.6712C7.98871 18.8046 7.36693 19.8991 6.91188 20.9103C6.36517 22.1252 6.08187 23.1698 6.03736 23.9878ZM11.9103 26.9119C13.2032 26.3301 14.5883 25.5193 15.999 24.5136C17.4104 25.5199 18.7961 26.3312 20.0896 26.9132C21.4339 27.5182 22.7289 27.8984 23.8791 27.961C25.0288 28.0235 26.1515 27.7701 26.9601 26.9615C27.7687 26.1529 28.0222 25.0301 27.9596 23.8805C27.897 22.7302 27.5168 21.4353 26.9119 20.091C26.3298 18.7975 25.5186 17.4119 24.5124 16.0006C25.5186 14.5893 26.3298 13.2037 26.9119 11.9103C27.5168 10.566 27.897 9.27106 27.9596 8.12079C28.0222 6.97116 27.7687 5.84841 26.9601 5.03981C26.1515 4.23121 25.0288 3.97776 23.8791 4.04032C22.7289 4.10291 21.4339 4.4831 20.0896 5.08804C18.7961 5.67011 17.4104 6.48139 15.999 7.48771C14.5883 6.48202 13.2032 5.67121 11.9103 5.0894C10.566 4.48446 9.27106 4.10427 8.12079 4.04168C6.97116 3.97912 5.84841 4.23257 5.03981 5.04117C4.23121 5.84976 3.97776 6.97252 4.04032 8.12215C4.10291 9.27242 4.4831 10.5674 5.08804 11.9117C5.66989 13.2047 6.48077 14.5898 7.48654 16.0006C6.48077 17.4115 5.66989 18.7966 5.08804 20.0896C4.4831 21.4339 4.10291 22.7289 4.04032 23.8791C3.97776 25.0288 4.23121 26.1515 5.03981 26.9601C5.84841 27.7687 6.97116 28.0222 8.12079 27.9596C9.27106 27.897 10.566 27.5168 11.9103 26.9119ZM25.088 20.9117C24.6328 19.9 24.0107 18.805 23.2389 17.6711C22.441 18.6536 21.5563 19.636 20.5962 20.5962C19.6355 21.5568 18.6526 22.4419 17.6696 23.2401C18.8035 24.012 19.8986 24.6341 20.9103 25.0894C22.1252 25.6361 23.1698 25.9194 23.9878 25.9639C24.8064 26.0085 25.2806 25.8126 25.5459 25.5473C25.8112 25.2819 26.0071 24.8078 25.9626 23.9892C25.9181 23.1712 25.6348 22.1266 25.088 20.9117ZM19.1819 19.1819C20.2343 18.1295 21.1826 17.0579 22.0137 16.0006C21.1826 14.9434 20.2343 13.8717 19.1819 12.8193C18.129 11.7664 17.0569 10.8178 15.9991 9.98638C14.9419 10.8174 13.8703 11.7656 12.818 12.818C11.7651 13.8708 10.8165 14.9429 9.98517 16.0006C10.8165 17.0584 11.7651 18.1305 12.818 19.1833C13.8703 20.2356 14.9419 21.1838 15.9991 22.0149C17.0569 21.1835 18.129 20.2349 19.1819 19.1819ZM25.088 11.0896C24.6328 12.1013 24.0107 13.1963 23.2389 14.3302C22.441 13.3477 21.5563 12.3653 20.5962 11.4051C19.6355 10.4445 18.6526 9.55936 17.6696 8.76115C18.8035 7.98932 19.8986 7.36715 20.9103 6.91188C22.1252 6.36517 23.1698 6.08187 23.9878 6.03736C24.8064 5.99282 25.2806 6.18868 25.5459 6.45402C25.8112 6.71936 26.0071 7.19352 25.9626 8.01212C25.9181 8.83009 25.6348 9.87468 25.088 11.0896ZM11.0896 6.91324C12.1008 7.36827 13.1952 7.99001 14.3285 8.76127C13.3461 9.55909 12.3638 10.4437 11.4038 11.4038C10.4432 12.3643 9.55817 13.3471 8.76003 14.3301C7.98871 13.1967 7.36693 12.1022 6.91188 11.091C6.36517 9.87604 6.08187 8.83145 6.03736 8.01348C5.99282 7.19488 6.18868 6.72072 6.45402 6.45538C6.71936 6.19004 7.19352 5.99418 8.01212 6.03872C8.83009 6.08323 9.87468 6.36653 11.0896 6.91324ZM17.4985 16.0006C17.4985 16.8291 16.8269 17.5006 15.9985 17.5006C15.17 17.5006 14.4985 16.8291 14.4985 16.0006C14.4985 15.1722 15.17 14.5006 15.9985 14.5006C16.8269 14.5006 17.4985 15.1722 17.4985 16.0006Z" fill="white"/>
</svg>
