<svg width="32" height="32" viewBox="0 0 32 32" fill="none" xmlns="http://www.w3.org/2000/svg">
<path fill-rule="evenodd" clip-rule="evenodd" d="M16.5041 2.13767L16.0003 1.84375L15.4964 2.13767L3.49639 9.13767L2.01562 10.0015L3.49639 10.8652L7.15513 12.9995L3.49639 15.1338L2.01562 15.9975L3.49639 16.8613L7.15848 18.9975L3.49639 21.1338L2.01562 21.9975L3.49639 22.8613L15.4964 29.8613L16.0003 30.1553L16.5041 29.8613L28.5041 22.8613L29.9849 21.9975L28.5041 21.1338L24.842 18.9975L28.5041 16.8613L29.9849 15.9975L28.5041 15.1338L24.8454 12.9995L28.5041 10.8652L29.9849 10.0015L28.5041 9.13767L16.5041 2.13767ZM22.8607 14.1572L16.5041 17.8652L16.0003 18.1592L15.4964 17.8652L9.13977 14.1572L5.98489 15.9975L16.0003 21.8398L26.0156 15.9975L22.8607 14.1572ZM16.0003 15.8438L5.98489 10.0015L16.0003 4.15916L26.0156 10.0015L16.0003 15.8438ZM5.98489 21.9975L9.14312 20.1553L15.4964 23.8613L16.0003 24.1553L16.5041 23.8613L22.8574 20.1553L26.0156 21.9975L16.0003 27.8398L5.98489 21.9975Z" fill="white"/>
</svg>
