<svg width="32" height="32" viewBox="0 0 32 32" fill="none" xmlns="http://www.w3.org/2000/svg">
<path fill-rule="evenodd" clip-rule="evenodd" d="M5.00179 4.99639L4.00171 4.99609L4.00149 5.99617L5.00149 5.99639L4.00149 5.99625L4.00149 5.99649L4.00149 5.99744L4.00149 6.0012L4.00149 6.01611L4.00148 6.07441L4.00143 6.29694L4.00126 7.10188L4.00075 9.63994C4.00037 11.5497 4 13.6355 4 14.339C4 25.5251 13.4971 29.2272 15.3594 29.8463C15.5665 29.9205 15.7833 29.9575 16 29.9575C16.2167 29.9575 16.4335 29.9205 16.6406 29.8463C18.5029 29.2272 28 25.5251 28 14.339V14.3307V14.3223V14.3138V14.3051V14.2963V14.2874V14.2783V14.2692V14.2599V14.2505V14.2409V14.2313V14.2215V14.2116V14.2016V14.1915V14.1812V14.1709V14.1604V14.1498V14.1391V14.1282V14.1173V14.1062V14.0951V14.0838V14.0724V14.0609V14.0493V14.0375V14.0257V14.0138V14.0017V13.9895V13.9773V13.9649V13.9524V13.9398V13.9271V13.9143V13.9014V13.8884V13.8753V13.8621V13.8488V13.8353V13.8218V13.8082V13.7945V13.7807V13.7667V13.7527V13.7386V13.7244V13.7101V13.6957V13.6812V13.6666V13.6519V13.6371V13.6223V13.6073V13.5922V13.5771V13.5618V13.5465V13.5311V13.5156V13.5V13.4843V13.4685V13.4527V13.4367V13.4207V13.4045V13.3883V13.3721V13.3557V13.3392V13.3227V13.3061V13.2894V13.2726V13.2557V13.2388V13.2217V13.2046V13.1875V13.1702V13.1529V13.1355V13.118V13.1004V13.0828V13.0651V13.0473V13.0294V13.0115V12.9935V12.9754V12.9573V12.9391V12.9208V12.9024V12.884V12.8655V12.8469V12.8283V12.8096V12.7909V12.7721V12.7532V12.7342V12.7152V12.6961V12.677V12.6578V12.6385V12.6192V12.5998V12.5804V12.5609V12.5413V12.5217V12.502V12.4823V12.4625V12.4426V12.4227V12.4028V12.3827V12.3627V12.3426V12.3224V12.3022V12.2819V12.2616V12.2412V12.2208V12.2003V12.1798V12.1592V12.1386V12.1179V12.0972V12.0765V12.0557V12.0348V12.0139V11.993V11.972V11.951V11.9299V11.9088V11.8877V11.8665V11.8453V11.824V11.8027V11.7814V11.76V11.7386V11.7171V11.6956V11.6741V11.6526V11.631V11.6093V11.5877V11.566V11.5443V11.5225V11.5007V11.4789V11.4571V11.4352V11.4133V11.3914V11.3694V11.3475V11.3254V11.3034V11.2813V11.2593V11.2372V11.215V11.1929V11.1707V11.1485V11.1263V11.104V11.0818V11.0595V11.0372V11.0149V10.9925V10.9702V10.9478V10.9254V10.903V10.8806V10.8582V10.8357V10.8133V10.7908V10.7683V10.7458V10.7233V10.7008V10.6783V10.6557V10.6332V10.6106V10.5881V10.5655V10.5429V10.5203V10.4977V10.4752V10.4526V10.43V10.4073V10.3847V10.3621V10.3395V10.3169V10.2943V10.2717V10.2491V10.2264V10.2038V10.1812V10.1586V10.136V10.1134V10.0908V10.0682V10.0456V10.0231V10.0005V9.97792V9.95536V9.93281V9.91027V9.88774V9.86522V9.84271V9.82021V9.79772V9.77525V9.75278V9.73033V9.7079V9.68548V9.66307V9.64068V9.6183V9.59594V9.5736V9.55128V9.52898V9.50669V9.48442V9.46218V9.43995V9.41774V9.39556V9.3734V9.35126V9.32915V9.30706V9.28499V9.26295V9.24093V9.21894V9.19698V9.17504V9.15313V9.13125V9.1094V9.08758V9.06579V9.04403V9.0223V9.0006V8.97893V8.9573V8.9357V8.91413V8.8926V8.87111V8.84965V8.82822V8.80683V8.78548V8.76417V8.7429V8.72166V8.70046V8.67931V8.65819V8.63712V8.61609V8.5951V8.57415V8.55324V8.53238V8.51157V8.4908V8.47007V8.44939V8.42876V8.40818V8.38764V8.36715V8.34671V8.32632V8.30598V8.2857V8.26546V8.24527V8.22514V8.20506V8.18503V8.16506V8.14514V8.12527V8.10546V8.08571V8.06602V8.04638V8.0268V8.00728V7.98782V7.96841V7.94907V7.92979V7.91057V7.89141V7.87231V7.85328V7.83431V7.8154V7.79656V7.77778V7.75907V7.74043V7.72185V7.70334V7.68489V7.66652V7.64821V7.62998V7.61181V7.59372V7.5757V7.55774V7.53987V7.52206V7.50433V7.48667V7.46908V7.45157V7.43414V7.41678V7.3995V7.3823V7.36518V7.34813V7.33116V7.31428V7.29747V7.28074V7.2641V7.24753V7.23105V7.21465V7.19834V7.18211V7.16596V7.1499V7.13393V7.11804V7.10224V7.08652V7.0709V7.05536V7.03991V7.02455V7.00928V6.99411V6.97902V6.96403V6.94912V6.93431V6.9196V6.90498V6.89045V6.87602V6.86168V6.84744V6.8333V6.81926V6.80531V6.79146V6.77771V6.76406V6.75051V6.73706V6.72372V6.71047V6.69733V6.68429V6.67135V6.65852V6.64579V6.63317V6.62066V6.60825V6.59594V6.58375V6.57166V6.55968V6.54781V6.53605V6.5244V6.51287V6.50144V6.49012V6.47892V6.46783V6.45685V6.44599V6.43525V6.42461V6.4141V6.4037V6.39342V6.38325V6.3732V6.36328V6.35347V6.34378V6.33421V6.32476V6.31543V6.30623V6.29715V6.28819V6.27935V6.27064V6.26206V6.25359V6.24526V6.23705V6.22897V6.22102V6.21319V6.20549V6.19792V6.19049V6.18318V6.176V6.16896V6.16204V6.15526V6.14861V6.1421V6.13572V6.12948V6.12337V6.11739V6.11156V6.10586V6.10029V6.09487V6.08958V6.08444V6.07943V6.07456V6.06984V6.06526V6.06081V6.05652V6.05236V6.04835V6.04448V6.04076V6.03718V6.03375V6.03046V6.02732V6.02433V6.02149V6.0188V6.01626V6.01386V6.01162V6.00952V6.00758V6.00579V6.00416V6.00267V6.00134V6.00017V5.99915V5.99828V5.99758V5.99702V5.99663V5.99639L27 5.99631H28V4.99624L26.9999 4.99631L27 5.99631C26.9999 4.99631 26.9999 4.99631 26.9997 4.99631L26.9991 4.99631L26.9966 4.99631L26.9868 4.99631L26.9477 4.99631L26.7951 4.99632L26.2124 4.99636L24.1035 4.99648L17.4429 4.99677C12.4239 4.99693 6.92452 4.99695 5.00179 4.99639ZM6.00126 7.10229L6.00128 6.99659C8.44619 6.99694 13.1228 6.99691 17.443 6.99677L24.1036 6.99648L26 6.99637V7.00928V7.02455V7.03991V7.05536V7.0709V7.08652V7.10224V7.11804V7.13393V7.1499V7.16596V7.18211V7.19834V7.21465V7.23105V7.24753V7.2641V7.28074V7.29747V7.31428V7.33116V7.34813V7.36518V7.3823V7.3995V7.41678V7.43414V7.45157V7.46908V7.48667V7.50433V7.52206V7.53987V7.55774V7.5757V7.59372V7.61181V7.62998V7.64821V7.66652V7.68489V7.70334V7.72185V7.74043V7.75907V7.77778V7.79656V7.8154V7.83431V7.85328V7.87231V7.89141V7.91057V7.92979V7.94907V7.96841V7.98782V8.00728V8.0268V8.04638V8.06602V8.08571V8.10546V8.12527V8.14514V8.16506V8.18503V8.20506V8.22514V8.24527V8.26546V8.2857V8.30598V8.32632V8.34671V8.36715V8.38764V8.40818V8.42876V8.44939V8.47007V8.4908V8.51157V8.53238V8.55324V8.57415V8.5951V8.61609V8.63712V8.65819V8.67931V8.70046V8.72166V8.7429V8.76417V8.78548V8.80683V8.82822V8.84965V8.87111V8.8926V8.91413V8.9357V8.9573V8.97893V9.0006V9.0223V9.04403V9.06579V9.08758V9.1094V9.13125V9.15313V9.17504V9.19698V9.21894V9.24093V9.26295V9.28499V9.30706V9.32915V9.35126V9.3734V9.39556V9.41774V9.43995V9.46218V9.48442V9.50669V9.52898V9.55128V9.5736V9.59594V9.6183V9.64068V9.66307V9.68548V9.7079V9.73033V9.75278V9.77525V9.79772V9.82021V9.84271V9.86522V9.88774V9.91027V9.93281V9.95536V9.97792V10.0005V10.0231V10.0456V10.0682V10.0908V10.1134V10.136V10.1586V10.1812V10.2038V10.2264V10.2491V10.2717V10.2943V10.3169V10.3395V10.3621V10.3847V10.4073V10.43V10.4526V10.4752V10.4977V10.5203V10.5429V10.5655V10.5881V10.6106V10.6332V10.6557V10.6783V10.7008V10.7233V10.7458V10.7683V10.7908V10.8133V10.8357V10.8582V10.8806V10.903V10.9254V10.9478V10.9702V10.9925V11.0149V11.0372V11.0595V11.0818V11.104V11.1263V11.1485V11.1707V11.1929V11.215V11.2372V11.2593V11.2813V11.3034V11.3254V11.3475V11.3694V11.3914V11.4133V11.4352V11.4571V11.4789V11.5007V11.5225V11.5443V11.566V11.5877V11.6093V11.631V11.6526V11.6741V11.6956V11.7171V11.7386V11.76V11.7814V11.8027V11.824V11.8453V11.8665V11.8877V11.9088V11.9299V11.951V11.972V11.993V12.0139V12.0348V12.0557V12.0765V12.0972V12.1179V12.1386V12.1592V12.1798V12.2003V12.2208V12.2412V12.2616V12.2819V12.3022V12.3224V12.3426V12.3627V12.3827V12.4028V12.4227V12.4426V12.4625V12.4823V12.502V12.5217V12.5413V12.5609V12.5804V12.5998V12.6192V12.6385V12.6578V12.677V12.6961V12.7152V12.7342V12.7532V12.7721V12.7909V12.8096V12.8283V12.8469V12.8655V12.884V12.9024V12.9208V12.9391V12.9573V12.9754V12.9935V13.0115V13.0294V13.0473V13.0651V13.0828V13.1004V13.118V13.1355V13.1529V13.1702V13.1875V13.2046V13.2217V13.2388V13.2557V13.2726V13.2894V13.3061V13.3227V13.3392V13.3557V13.3721V13.3883V13.4045V13.4207V13.4367V13.4527V13.4685V13.4843V13.5V13.5156V13.5311V13.5465V13.5618V13.5771V13.5922V13.6073V13.6223V13.6371V13.6519V13.6666V13.6812V13.6957V13.7101V13.7244V13.7386V13.7527V13.7667V13.7807V13.7945V13.8082V13.8218V13.8353V13.8488V13.8621V13.8753V13.8884V13.9014V13.9143V13.9271V13.9398V13.9524V13.9649V13.9773V13.9895V14.0017V14.0138V14.0257V14.0375V14.0493V14.0609V14.0724V14.0838V14.0951V14.1062V14.1173V14.1282V14.1391V14.1498V14.1604V14.1709V14.1812V14.1915V14.2016V14.2116V14.2215V14.2313V14.2409V14.2505V14.2599V14.2692V14.2783V14.2874V14.2963V14.3051V14.3138V14.3223V14.3307V14.339C26 24.1217 17.7253 27.3802 16 27.9516C14.2747 27.3802 6 24.1217 6 14.339C6 13.6357 6.00037 11.5502 6.00075 9.64033L6.00126 7.10229ZM17 11V10H15V11V14.621L11.5602 13.4986L10.6096 13.1883L9.98912 15.0897L10.9398 15.3999L14.3846 16.524L12.253 19.4629L11.6659 20.2724L13.2849 21.4466L13.872 20.6371L16 17.7032L18.128 20.6371L18.7151 21.4466L20.3341 20.2724L19.747 19.4629L17.6154 16.524L21.0602 15.3999L22.0109 15.0897L21.3904 13.1883L20.4398 13.4986L17 14.621V11Z" fill="white"/>
</svg>
