<svg width="32" height="32" viewBox="0 0 32 32" fill="none" xmlns="http://www.w3.org/2000/svg">
<path fill-rule="evenodd" clip-rule="evenodd" d="M4 3.99609H5H12H13V4.99609V11.9961V12.9961H12H9.5V19H12H13V20V27V28H12H5H4V27V20V19H5H7.5V12.9961H5H4V11.9961V4.99609V3.99609ZM7.5 21H6V26H11V21H9.5H7.5ZM6 5.99609V10.9961H11V5.99609H6ZM20 19H19V20V27V28H20H27H28V27V20V19H27H24.5905V12.9875C24.5905 12.7348 24.4948 12.4914 24.3226 12.3064L19.3865 7H22H23V5H22H17.0931C17.0912 4.99999 17.0893 4.99999 17.0874 5H17H16V6V11V12H18V11V8.44597L22.5905 13.3807V19H20ZM21 21H23.5905H26V26H21V21Z" fill="white"/>
</svg>
