<svg width="64" height="64" viewBox="0 0 64 64" fill="none" xmlns="http://www.w3.org/2000/svg">
<path d="M6 13.5H58M58 13.5L51.5 7M58 13.5L51.5 20" stroke="white" stroke-width="2"/>
<path d="M58 50.5H6M6 50.5L12.5 44M6 50.5L12.5 57" stroke="white" stroke-width="2"/>
<circle cx="32" cy="31.9961" r="12" fill="#1D32F4"/>
<path fill-rule="evenodd" clip-rule="evenodd" d="M43.6803 29.2306L38.2492 34.6617C38.722 35.3187 39.0006 36.1249 39.0006 36.9961C39.0006 39.2052 37.2097 40.9961 35.0006 40.9961C32.7914 40.9961 31.0006 39.2052 31.0006 36.9961C31.0006 34.787 32.7914 32.9961 35.0006 32.9961C35.6105 32.9961 36.1885 33.1326 36.7058 33.3767L42.9666 27.1159C43.2672 27.7902 43.5074 28.4974 43.6803 29.2306ZM20.6582 35.9243C20.8936 36.6041 21.1884 37.2563 21.5365 37.8744L27.7954 31.6155C28.3127 31.8596 28.8907 31.9961 29.5006 31.9961C31.7097 31.9961 33.5006 30.2052 33.5006 27.9961C33.5006 25.787 31.7097 23.9961 29.5006 23.9961C27.2914 23.9961 25.5006 25.787 25.5006 27.9961C25.5006 28.8673 25.7791 29.6735 26.252 30.3304L20.6582 35.9243ZM27.5006 27.9961C27.5006 26.8915 28.396 25.9961 29.5006 25.9961C30.6052 25.9961 31.5006 26.8915 31.5006 27.9961C31.5006 29.1007 30.6052 29.9961 29.5006 29.9961C28.396 29.9961 27.5006 29.1007 27.5006 27.9961ZM35.0006 38.9961C36.1052 38.9961 37.0006 38.1007 37.0006 36.9961C37.0006 35.8915 36.1052 34.9961 35.0006 34.9961C33.896 34.9961 33.0006 35.8915 33.0006 36.9961C33.0006 38.1007 33.896 38.9961 35.0006 38.9961Z" fill="white"/>
</svg>
