<svg width="64" height="64" viewBox="0 0 64 64" fill="none" xmlns="http://www.w3.org/2000/svg">
<path fill-rule="evenodd" clip-rule="evenodd" d="M47.7062 18.2503C47.7268 17.9207 47.7373 17.5883 47.7373 17.2534C47.7373 16.9165 47.7267 16.582 47.7058 16.2503L54.251 16.25L55.251 16.25V17.25V35.8074L53.251 35.8074V18.2501L47.7062 18.2503ZM32.9986 32.96C32.6682 32.9807 32.3351 32.9912 31.9995 32.9912C31.6633 32.9912 31.3295 32.9806 30.9986 32.9599V47.5193H32.9986V32.96ZM16.2929 18.2518L10.7461 18.2521L10.7461 35.8074H8.74609V17.2521V16.2521L9.74605 16.2521L16.2931 16.2518C16.2723 16.583 16.2617 16.917 16.2617 17.2534C16.2617 17.5887 16.2722 17.9217 16.2929 18.2518Z" fill="white"/>
<circle cx="32.0013" cy="17.2571" r="12.0892" fill="#1D32F4"/>
<path d="M33.9131 12.4171L26.5156 17.2539L33.9131 22.0907L33.9131 12.4171Z" stroke="white" stroke-width="2"/>
<rect x="5.0625" y="35.8086" width="9.37" height="9.37" stroke="white" stroke-width="2"/>
<rect x="27.3203" y="47.5195" width="9.37" height="9.37" stroke="white" stroke-width="2"/>
<rect x="49.5645" y="35.8086" width="9.37" height="9.37" stroke="white" stroke-width="2"/>
</svg>
