<svg width="32" height="32" viewBox="0 0 32 32" fill="none" xmlns="http://www.w3.org/2000/svg">
<path fill-rule="evenodd" clip-rule="evenodd" d="M13 2H12V4H13H19H20V2H19H13ZM16 8C10.4772 8 6 12.4772 6 18C6 23.5228 10.4772 28 16 28C21.5228 28 26 23.5228 26 18C26 12.4772 21.5228 8 16 8ZM4 18C4 11.3726 9.37258 6 16 6C22.6274 6 28 11.3726 28 18C28 24.6274 22.6274 30 16 30C9.37258 30 4 24.6274 4 18ZM21.4142 14.0008L20.7071 14.7079L16.7071 18.7079L16 19.415L14.5858 18.0008L15.2929 17.2937L19.2929 13.2937L20 12.5866L21.4142 14.0008Z" fill="white"/>
</svg>
