<svg width="32" height="32" viewBox="0 0 32 32" fill="none" xmlns="http://www.w3.org/2000/svg">
<path fill-rule="evenodd" clip-rule="evenodd" d="M10 1.73047H11H16H17V2.73047V3.73047H21H22V4.73047V6.49824V11.2305H26H27V12.2305V13.9961V13.9982V18.9982C27 21.9156 25.8411 24.7135 23.7782 26.7764C21.7153 28.8393 18.9174 29.9982 16 29.9982C13.0826 29.9982 10.2847 28.8393 8.22183 26.7764C6.15893 24.7135 5 21.9156 5 18.9982V8.49824V6.73047V5.73047H6H10V4.49824V2.73047V1.73047ZM22 13.9982V13.2305H25V13.9961V13.9982V18.9982C25 21.3852 24.0518 23.6744 22.364 25.3622C20.6761 27.05 18.3869 27.9982 16 27.9982C13.6131 27.9982 11.3239 27.05 9.63604 25.3622C7.94821 23.6744 7 21.3852 7 18.9982V8.49824V7.73047H10V8.49824V9.49824V13.9982V14.9982H12V13.9982V9.49824V8.49824V6.73047V5.73047V4.49824V3.73047H15V4.49824V4.73047V6.49824V7.49824V12.9982V13.9982H17V12.9982V7.49824V6.49824V5.73047H20V6.49824V11.2305V12.2305V13.9982V14.4982V14.9982V15.4982H22V14.9982V14.4982V13.9982ZM10.8594 18.3062C11.9322 17.1872 13.6346 15.9982 15.9991 15.9982C18.3637 15.9982 20.0661 17.1872 21.1389 18.3062C21.6766 18.8671 22.0716 19.4251 22.333 19.8431C22.4642 20.053 22.5633 20.2301 22.6311 20.3581C22.6651 20.4221 22.6913 20.4741 22.7099 20.5119C22.7192 20.5309 22.7267 20.5463 22.7322 20.5579L22.7391 20.5726L22.7415 20.5777L22.7424 20.5798L22.7428 20.5806C22.743 20.581 22.7432 20.5814 21.8342 20.9982C22.7432 21.415 22.743 21.4154 22.7428 21.4158L22.7424 21.4167L22.7415 21.4187L22.7391 21.4239L22.7322 21.4385C22.7267 21.4502 22.7192 21.4656 22.7099 21.4845C22.6913 21.5224 22.6651 21.5743 22.6311 21.6384C22.5633 21.7664 22.4642 21.9435 22.333 22.1534C22.0716 22.5714 21.6766 23.1294 21.1389 23.6903C20.0661 24.8093 18.3637 25.9982 15.9991 25.9982C13.6346 25.9982 11.9322 24.8093 10.8594 23.6903C10.3217 23.1294 9.92662 22.5714 9.66526 22.1534C9.53402 21.9435 9.43494 21.7664 9.36711 21.6384C9.33316 21.5743 9.30693 21.5224 9.28832 21.4845C9.27901 21.4656 9.27159 21.4502 9.26606 21.4385L9.25916 21.4239L9.25677 21.4187L9.25583 21.4167L9.25543 21.4158C9.25525 21.4154 9.25507 21.415 10.1641 20.9982C9.25507 20.5814 9.25525 20.581 9.25543 20.5806L9.25583 20.5798L9.25677 20.5777L9.25916 20.5726L9.26606 20.5579C9.27159 20.5463 9.27901 20.5309 9.28832 20.5119C9.30693 20.4741 9.33316 20.4221 9.36711 20.3581C9.43494 20.2301 9.53402 20.053 9.66526 19.8431C9.92662 19.4251 10.3217 18.8671 10.8594 18.3062ZM10.1641 20.9982L9.25507 21.415L9.06394 20.9982L9.25507 20.5814L10.1641 20.9982ZM21.8342 20.9982L22.7432 20.5814L22.9343 20.9982L22.7432 21.415L21.8342 20.9982ZM11.3611 21.0931C11.5686 21.4251 11.8822 21.8671 12.3031 22.3062C13.1477 23.1872 14.3628 23.9982 15.9991 23.9982C17.6355 23.9982 18.8506 23.1872 19.6951 22.3062C20.1161 21.8671 20.4296 21.4251 20.6372 21.0931C20.6577 21.0603 20.6771 21.0286 20.6955 20.9982C20.6771 20.9679 20.6577 20.9362 20.6372 20.9034C20.4296 20.5714 20.1161 20.1294 19.6951 19.6903C18.8506 18.8093 17.6355 17.9982 15.9991 17.9982C14.3628 17.9982 13.1477 18.8093 12.3031 19.6903C11.8822 20.1294 11.5686 20.5714 11.3611 20.9034C11.3405 20.9362 11.3211 20.9679 11.3028 20.9982C11.3211 21.0286 11.3405 21.0603 11.3611 21.0931ZM17.5 20.9982C17.5 21.8267 16.8284 22.4982 16 22.4982C15.1716 22.4982 14.5 21.8267 14.5 20.9982C14.5 20.1698 15.1716 19.4982 16 19.4982C16.8284 19.4982 17.5 20.1698 17.5 20.9982Z" fill="white"/>
</svg>
