<svg width="584" height="524" viewBox="0 0 584 524" fill="none" xmlns="http://www.w3.org/2000/svg">
<g clip-path="url(#clip0_15417_4074)">
<path d="M330.724 98V81.396H337.612V78.4H320.504V81.396H327.364V98H330.724ZM343.361 98.28C347.393 98.28 350.249 95.256 350.249 91C350.249 86.744 347.393 83.72 343.361 83.72C339.357 83.72 336.501 86.744 336.501 91C336.501 95.256 339.357 98.28 343.361 98.28ZM343.249 95.648C341.177 95.648 339.721 93.94 339.721 91C339.721 88.06 341.177 86.352 343.249 86.352H343.473C345.573 86.352 347.001 88.06 347.001 91C347.001 93.94 345.573 95.648 343.473 95.648H343.249ZM362.049 98V95.228H359.781C358.689 95.228 358.409 94.948 358.409 93.856V86.66H361.629V84H358.409V79.464H355.189V84H352.221V86.66H355.189V94.612C355.189 96.796 356.393 98 358.577 98H362.049ZM369.201 98.28C371.217 98.28 372.785 97.3 373.513 96.068C373.513 96.488 373.541 97.468 373.653 98H376.677C376.537 97.02 376.537 95.76 376.537 94.92V88.872C376.537 85.792 374.353 83.72 370.741 83.72C367.409 83.72 365.113 85.624 364.889 88.228H368.109C368.221 87.164 369.229 86.352 370.629 86.352H370.853C372.421 86.352 373.401 87.388 373.401 88.956V89.348L369.733 89.656C367.157 89.852 364.609 91.056 364.609 94.164C364.609 96.6 366.625 98.28 369.201 98.28ZM369.761 95.648C368.641 95.648 367.801 94.948 367.801 93.968C367.801 92.764 368.949 92.148 370.153 92.036L373.401 91.728V92.568C373.401 94.332 371.637 95.648 369.985 95.648H369.761ZM384.131 98V78.4H380.911V98H384.131ZM412.74 98L405.124 78.4H401.064L393.308 98H396.808L398.656 93.212H407.364L409.212 98H412.74ZM402.996 81.9L406.188 90.188H399.804L402.996 81.9ZM420.386 98.28C423.942 98.28 426.014 96.46 426.014 94.024C426.014 91.672 424.558 90.44 422.122 89.88L420.106 89.404C418.846 89.124 418.202 88.676 418.202 87.836C418.202 86.856 419.098 86.268 420.33 86.268H420.554C422.066 86.268 422.794 87.192 422.934 88.424H426.154C426.154 85.596 424.138 83.72 420.498 83.72C417.306 83.72 415.01 85.4 415.01 88.032C415.01 90.356 416.606 91.56 419.238 92.176L421.17 92.596C422.346 92.848 422.822 93.352 422.822 94.164C422.822 95.116 421.898 95.732 420.61 95.732H420.386C418.902 95.732 417.782 94.948 417.726 93.492H414.45C414.45 96.404 416.634 98.28 420.386 98.28ZM434.755 98.28C438.311 98.28 440.383 96.46 440.383 94.024C440.383 91.672 438.927 90.44 436.491 89.88L434.475 89.404C433.215 89.124 432.571 88.676 432.571 87.836C432.571 86.856 433.467 86.268 434.699 86.268H434.923C436.435 86.268 437.163 87.192 437.303 88.424H440.523C440.523 85.596 438.507 83.72 434.867 83.72C431.675 83.72 429.379 85.4 429.379 88.032C429.379 90.356 430.975 91.56 433.607 92.176L435.539 92.596C436.715 92.848 437.191 93.352 437.191 94.164C437.191 95.116 436.267 95.732 434.979 95.732H434.755C433.271 95.732 432.151 94.948 432.095 93.492H428.819C428.819 96.404 431.003 98.28 434.755 98.28ZM450.047 98.28C453.267 98.28 455.563 96.488 456.151 93.688H452.959C452.679 94.864 451.643 95.648 450.271 95.648H450.047C448.451 95.648 446.715 94.304 446.547 91.84H456.151C456.179 91.364 456.207 90.888 456.207 90.412C456.207 86.548 453.967 83.72 449.991 83.72C446.183 83.72 443.411 86.52 443.411 91C443.411 95.732 446.547 98.28 450.047 98.28ZM446.631 89.348C446.883 87.304 448.311 86.352 449.823 86.352H450.047C451.587 86.352 452.931 87.332 453.043 89.348H446.631ZM468.084 98V95.228H465.816C464.724 95.228 464.444 94.948 464.444 93.856V86.66H467.664V84H464.444V79.464H461.224V84H458.256V86.66H461.224V94.612C461.224 96.796 462.428 98 464.612 98H468.084ZM476.384 98.28C479.94 98.28 482.012 96.46 482.012 94.024C482.012 91.672 480.556 90.44 478.12 89.88L476.104 89.404C474.844 89.124 474.2 88.676 474.2 87.836C474.2 86.856 475.096 86.268 476.328 86.268H476.552C478.064 86.268 478.792 87.192 478.932 88.424H482.152C482.152 85.596 480.136 83.72 476.496 83.72C473.304 83.72 471.008 85.4 471.008 88.032C471.008 90.356 472.604 91.56 475.236 92.176L477.168 92.596C478.344 92.848 478.82 93.352 478.82 94.164C478.82 95.116 477.896 95.732 476.608 95.732H476.384C474.9 95.732 473.78 94.948 473.724 93.492H470.448C470.448 96.404 472.632 98.28 476.384 98.28Z" fill="white"/>
<path d="M341.197 158.2C341.197 162.748 334.001 168.995 334.001 168.995C334.001 168.995 326.805 162.779 326.805 158.2C326.805 153.622 330.027 151.004 334.001 151.004C337.975 151.004 341.197 153.652 341.197 158.2Z" stroke="white" stroke-width="2"/>
<path d="M331.846 161.284V154.984H330.766V161.284H331.846Z" fill="white"/>
<path d="M334.465 161.284V158.89H336.148C337.345 158.89 338.173 158.17 338.173 156.937C338.173 155.695 337.345 154.984 336.148 154.984H333.385V161.284H334.465ZM334.465 155.947H336.013C336.715 155.947 337.093 156.316 337.093 156.937C337.093 157.549 336.715 157.927 336.013 157.927H334.465V155.947Z" fill="white"/>
<path fill-rule="evenodd" clip-rule="evenodd" d="M332.044 161.485H330.564V154.785H332.044V161.485ZM331.844 154.985V161.285H330.764V154.985H331.844ZM334.664 161.485H333.184V154.785H336.147C336.784 154.785 337.343 154.975 337.744 155.35C338.148 155.726 338.372 156.271 338.372 156.938C338.372 157.601 338.148 158.146 337.745 158.523C337.344 158.899 336.785 159.091 336.147 159.091H334.664V161.485ZM334.464 161.285H333.384V154.985H336.147C337.344 154.985 338.172 155.696 338.172 156.938C338.172 158.171 337.344 158.891 336.147 158.891H334.464V161.285ZM336.012 156.148H334.664V157.728H336.012C336.328 157.728 336.543 157.643 336.678 157.517C336.811 157.392 336.892 157.202 336.892 156.938C336.892 156.669 336.811 156.48 336.678 156.357C336.544 156.231 336.329 156.148 336.012 156.148ZM334.464 155.948V157.928H336.012C336.714 157.928 337.092 157.55 337.092 156.938C337.092 156.317 336.714 155.948 336.012 155.948H334.464Z" fill="white"/>
<path fill-rule="evenodd" clip-rule="evenodd" d="M334.504 229.388L334 229.094L333.496 229.388L324.496 234.638L323.016 235.501L324.496 236.365L326.87 237.75L324.496 239.135L323.016 239.999L324.496 240.862L326.873 242.249L324.496 243.635L323.016 244.499L324.496 245.362L333.496 250.612L334 250.906L334.504 250.612L343.504 245.362L344.985 244.499L343.504 243.635L341.128 242.249L343.504 240.862L344.985 239.999L343.504 239.135L341.13 237.75L343.504 236.365L344.985 235.501L343.504 234.638L334.504 229.388ZM339.146 238.908L334.504 241.615L334 241.909L333.496 241.615L328.855 238.908L326.985 239.999L334 244.091L341.016 239.999L339.146 238.908ZM334 239.594L326.985 235.501L334 231.409L341.016 235.501L334 239.594ZM326.985 244.499L328.857 243.406L333.496 246.112L334 246.406L334.504 246.112L339.143 243.406L341.016 244.499L334 248.591L326.985 244.499Z" fill="#F43838"/>
<g clip-path="url(#clip1_15417_4074)">
<path fill-rule="evenodd" clip-rule="evenodd" d="M337.939 312.092L338.281 311.152L336.401 310.469L336.06 311.409L330.06 327.909L329.718 328.848L331.598 329.532L331.939 328.592L337.939 312.092ZM329.408 316.378L328.64 317.019L325.062 320L328.64 322.982L329.408 323.622L328.128 325.159L327.359 324.519L322.859 320.769L321.938 320L322.859 319.232L327.359 315.482L328.128 314.842L329.408 316.378ZM339.872 314.842L340.64 315.482L345.14 319.232L346.062 320L345.14 320.769L340.64 324.519L339.872 325.159L338.591 323.622L339.359 322.982L342.938 320L339.359 317.019L338.591 316.378L339.872 314.842Z" fill="white"/>
</g>
<g clip-path="url(#clip2_15417_4074)">
<path d="M334 409C338.971 409 343 404.971 343 400C343 395.029 338.971 391 334 391C329.029 391 325 395.029 325 400C325 404.971 329.029 409 334 409Z" stroke="white" stroke-width="2" stroke-miterlimit="10"/>
<path d="M325 400H343" stroke="white" stroke-width="2" stroke-linecap="round" stroke-linejoin="round"/>
<path d="M334 408.755C336.071 408.755 337.75 404.834 337.75 399.998C337.75 395.162 336.071 391.242 334 391.242C331.929 391.242 330.25 395.162 330.25 399.998C330.25 404.834 331.929 408.755 334 408.755Z" stroke="white" stroke-width="2" stroke-miterlimit="10"/>
</g>
<rect x="322" y="188" width="181" height="8" fill="#1D294E"/>
<rect x="322" y="188" width="42" height="8" fill="#BCC2D2"/>
<rect x="322" y="268" width="181" height="8" fill="#1D294E"/>
<rect x="322" y="268" width="181" height="8" fill="#1D294E"/>
<rect x="322" y="268" width="104" height="8" fill="#F43838"/>
<rect x="322" y="348" width="181" height="8" fill="#1D294E"/>
<rect x="322" y="348" width="59" height="8" fill="#BCC2D2"/>
<rect x="322" y="428" width="181" height="8" fill="#1D294E"/>
<rect x="322" y="428" width="127" height="8" fill="#BCC2D2"/>
<rect x="280" y="32" width="532" height="543" stroke="#1D294E" stroke-width="2"/>
<rect width="225" height="224" transform="translate(32 148)" fill="#061030"/>
<rect x="64" y="259" width="163" height="6" fill="#1E2742"/>
<rect x="64" y="277" width="109" height="6" fill="#1E2742"/>
<rect x="64" y="315" width="145" height="6" fill="#1E2742"/>
<rect x="64" y="334" width="68" height="6" fill="#1E2742"/>
<path d="M69.328 231C72.576 231 74.752 229.016 74.752 225.4C74.752 221.784 72.528 219.8 69.28 219.8H65.36V231H69.328ZM67.28 221.512H69.12C71.376 221.512 72.832 222.632 72.832 225.4C72.832 228.168 71.376 229.288 69.12 229.288H67.28V221.512ZM79.6284 231.16C81.4684 231.16 82.7804 230.136 83.1164 228.536H81.2924C81.1324 229.208 80.5404 229.656 79.7564 229.656H79.6284C78.7164 229.656 77.7244 228.888 77.6284 227.48H83.1164C83.1324 227.208 83.1484 226.936 83.1484 226.664C83.1484 224.456 81.8684 222.84 79.5964 222.84C77.4204 222.84 75.8364 224.44 75.8364 227C75.8364 229.704 77.6284 231.16 79.6284 231.16ZM77.6764 226.056C77.8204 224.888 78.6364 224.344 79.5004 224.344H79.6284C80.5084 224.344 81.2764 224.904 81.3404 226.056H77.6764ZM87.4679 231.16C89.4999 231.16 90.6839 230.12 90.6839 228.728C90.6839 227.384 89.8519 226.68 88.4599 226.36L87.3079 226.088C86.5879 225.928 86.2199 225.672 86.2199 225.192C86.2199 224.632 86.7319 224.296 87.4359 224.296H87.5639C88.4279 224.296 88.8439 224.824 88.9239 225.528H90.7639C90.7639 223.912 89.6119 222.84 87.5319 222.84C85.7079 222.84 84.3959 223.8 84.3959 225.304C84.3959 226.632 85.3079 227.32 86.8119 227.672L87.9159 227.912C88.5879 228.056 88.8599 228.344 88.8599 228.808C88.8599 229.352 88.3319 229.704 87.5959 229.704H87.4679C86.6199 229.704 85.9799 229.256 85.9479 228.424H84.0759C84.0759 230.088 85.3239 231.16 87.4679 231.16ZM95.6145 231.16C97.5825 231.16 98.9105 230.152 99.0705 228.264H97.2305C97.1025 229.096 96.5585 229.656 95.6785 229.656H95.5505C94.2065 229.656 93.6145 228.424 93.6145 227C93.6145 225.576 94.2065 224.344 95.5505 224.344H95.6785C96.5585 224.344 97.1025 224.904 97.2305 225.736H99.0705C98.9105 223.848 97.5825 222.84 95.6145 222.84C93.3105 222.84 91.7745 224.536 91.7745 227C91.7745 229.464 93.3105 231.16 95.6145 231.16ZM102.321 231V226.888C102.321 225.432 103.073 224.648 104.465 224.648H105.153V222.92H104.609C103.489 222.92 102.609 223.56 102.289 224.664V223H100.481V231H102.321ZM108.206 221.784V219.8H106.206V221.784H108.206ZM108.126 231V223H106.286V231H108.126ZM111.899 234.2V229.928C112.267 230.552 113.163 231.16 114.283 231.16C116.475 231.16 117.851 229.368 117.851 227C117.851 224.632 116.539 222.84 114.347 222.84C113.227 222.84 112.267 223.448 111.899 224.072V223H110.059V234.2H111.899ZM113.915 229.656C112.875 229.656 111.899 228.696 111.899 227C111.899 225.304 112.875 224.344 113.915 224.344H114.043C115.163 224.344 116.011 225.304 116.011 227C116.011 228.696 115.163 229.656 114.043 229.656H113.915ZM123.96 231V229.416H122.664C122.04 229.416 121.88 229.256 121.88 228.632V224.52H123.72V223H121.88V220.408H120.04V223H118.344V224.52H120.04V229.064C120.04 230.312 120.728 231 121.976 231H123.96ZM127.167 221.784V219.8H125.167V221.784H127.167ZM127.087 231V223H125.247V231H127.087ZM132.477 231.16C134.781 231.16 136.413 229.432 136.413 227C136.413 224.568 134.781 222.84 132.477 222.84C130.189 222.84 128.557 224.568 128.557 227C128.557 229.432 130.189 231.16 132.477 231.16ZM132.413 229.656C131.229 229.656 130.397 228.68 130.397 227C130.397 225.32 131.229 224.344 132.413 224.344H132.541C133.741 224.344 134.557 225.32 134.557 227C134.557 228.68 133.741 229.656 132.541 229.656H132.413ZM139.713 231V226.536C139.713 225.24 140.609 224.344 141.633 224.344H141.761C142.705 224.344 143.185 224.984 143.185 226.056V231H145.025V225.784C145.025 224.056 144.081 222.84 142.193 222.84C141.057 222.84 140.193 223.384 139.713 224.152V223H137.873V231H139.713Z" fill="white"/>
<path fill-rule="evenodd" clip-rule="evenodd" d="M76.5041 181.388L76.0003 181.094L75.4964 181.388L66.4964 186.638L65.0156 187.501L66.4964 188.365L68.8703 189.75L66.4964 191.135L65.0156 191.999L66.4964 192.862L68.8728 194.249L66.4964 195.635L65.0156 196.499L66.4964 197.362L75.4964 202.612L76.0003 202.906L76.5041 202.612L85.5041 197.362L86.9849 196.499L85.5041 195.635L83.1278 194.249L85.5041 192.862L86.9849 191.999L85.5041 191.135L83.1303 189.75L85.5041 188.365L86.9849 187.501L85.5041 186.638L76.5041 181.388ZM81.1456 190.908L76.5041 193.615L76.0003 193.909L75.4964 193.615L70.8549 190.908L68.9849 191.999L76.0003 196.091L83.0156 191.999L81.1456 190.908ZM76.0003 191.594L68.9849 187.501L76.0003 183.409L83.0156 187.501L76.0003 191.594ZM68.9849 196.499L70.8574 195.406L75.4964 198.112L76.0003 198.406L76.5041 198.112L81.1431 195.406L83.0156 196.499L76.0003 200.591L68.9849 196.499Z" fill="white"/>
<rect x="32" y="384" width="225" height="58" fill="#061030"/>
<path d="M98.191 418.196C97.4536 418.196 96.8003 418.065 96.231 417.804C95.6616 417.543 95.2136 417.16 94.887 416.656C94.5696 416.143 94.411 415.522 94.411 414.794V414.444H95.909V414.794C95.909 415.485 96.1143 416.003 96.525 416.348C96.945 416.693 97.5003 416.866 98.191 416.866C98.891 416.866 99.4183 416.721 99.773 416.432C100.128 416.133 100.305 415.751 100.305 415.284C100.305 414.976 100.221 414.724 100.053 414.528C99.885 414.332 99.647 414.178 99.339 414.066C99.031 413.945 98.6623 413.833 98.233 413.73L97.715 413.604C97.0896 413.455 96.5436 413.273 96.077 413.058C95.6196 412.834 95.265 412.54 95.013 412.176C94.761 411.812 94.635 411.345 94.635 410.776C94.635 410.197 94.775 409.703 95.055 409.292C95.3443 408.881 95.741 408.564 96.245 408.34C96.749 408.116 97.3416 408.004 98.023 408.004C98.7043 408.004 99.311 408.121 99.843 408.354C100.384 408.587 100.809 408.933 101.117 409.39C101.425 409.847 101.579 410.421 101.579 411.112V411.616H100.081V411.112C100.081 410.692 99.9923 410.351 99.815 410.09C99.647 409.829 99.409 409.637 99.101 409.516C98.793 409.395 98.4336 409.334 98.023 409.334C97.4256 409.334 96.959 409.46 96.623 409.712C96.2963 409.955 96.133 410.295 96.133 410.734C96.133 411.033 96.203 411.28 96.343 411.476C96.4923 411.663 96.707 411.817 96.987 411.938C97.267 412.059 97.617 412.167 98.037 412.26L98.555 412.386C99.1896 412.526 99.7496 412.708 100.235 412.932C100.72 413.147 101.103 413.441 101.383 413.814C101.663 414.187 101.803 414.668 101.803 415.256C101.803 415.844 101.654 416.357 101.355 416.796C101.066 417.235 100.65 417.58 100.109 417.832C99.5676 418.075 98.9283 418.196 98.191 418.196ZM103.67 418V408.2H105.182V412.4H109.298V408.2H110.81V418H109.298V413.772H105.182V418H103.67ZM112.41 418L115.21 408.2H117.87L120.656 418H119.102L118.458 415.69H114.622L113.978 418H112.41ZM115 414.29H118.08L116.652 409.138H116.428L115 414.29ZM122.263 418V408.2H126.379C126.986 408.2 127.518 408.307 127.975 408.522C128.442 408.727 128.801 409.026 129.053 409.418C129.315 409.81 129.445 410.277 129.445 410.818V410.972C129.445 411.588 129.296 412.083 128.997 412.456C128.708 412.82 128.353 413.077 127.933 413.226V413.45C128.288 413.469 128.573 413.59 128.787 413.814C129.002 414.029 129.109 414.341 129.109 414.752V418H127.583V414.962C127.583 414.71 127.518 414.509 127.387 414.36C127.257 414.211 127.047 414.136 126.757 414.136H123.775V418H122.263ZM123.775 412.764H126.211C126.753 412.764 127.173 412.629 127.471 412.358C127.77 412.078 127.919 411.7 127.919 411.224V411.112C127.919 410.636 127.77 410.263 127.471 409.992C127.182 409.712 126.762 409.572 126.211 409.572H123.775V412.764ZM131.389 418V408.2H137.563V409.572H132.901V412.386H137.171V413.758H132.901V416.628H137.633V418H131.389ZM143.338 418V408.2H147.454C148.06 408.2 148.592 408.307 149.05 408.522C149.516 408.727 149.876 409.026 150.128 409.418C150.389 409.81 150.52 410.277 150.52 410.818V410.972C150.52 411.588 150.37 412.083 150.072 412.456C149.782 412.82 149.428 413.077 149.008 413.226V413.45C149.362 413.469 149.647 413.59 149.862 413.814C150.076 414.029 150.184 414.341 150.184 414.752V418H148.658V414.962C148.658 414.71 148.592 414.509 148.462 414.36C148.331 414.211 148.121 414.136 147.832 414.136H144.85V418H143.338ZM144.85 412.764H147.286C147.827 412.764 148.247 412.629 148.546 412.358C148.844 412.078 148.994 411.7 148.994 411.224V411.112C148.994 410.636 148.844 410.263 148.546 409.992C148.256 409.712 147.836 409.572 147.286 409.572H144.85V412.764ZM152.463 418V408.2H158.637V409.572H153.975V412.386H158.245V413.758H153.975V416.628H158.707V418H152.463ZM160.564 418V408.2H164.456C165.053 408.2 165.585 408.321 166.052 408.564C166.528 408.797 166.896 409.133 167.158 409.572C167.428 410.001 167.564 410.519 167.564 411.126V411.308C167.564 411.915 167.424 412.437 167.144 412.876C166.873 413.315 166.504 413.651 166.038 413.884C165.571 414.117 165.044 414.234 164.456 414.234H162.076V418H160.564ZM162.076 412.862H164.302C164.834 412.862 165.258 412.722 165.576 412.442C165.893 412.162 166.052 411.779 166.052 411.294V411.154C166.052 410.659 165.893 410.272 165.576 409.992C165.258 409.712 164.834 409.572 164.302 409.572H162.076V412.862ZM172.961 418.196C171.757 418.196 170.801 417.86 170.091 417.188C169.382 416.507 169.027 415.527 169.027 414.248V411.952C169.027 410.673 169.382 409.698 170.091 409.026C170.801 408.345 171.757 408.004 172.961 408.004C174.165 408.004 175.122 408.345 175.831 409.026C176.55 409.698 176.909 410.673 176.909 411.952V414.248C176.909 415.527 176.55 416.507 175.831 417.188C175.122 417.86 174.165 418.196 172.961 418.196ZM172.961 416.838C173.736 416.838 174.333 416.614 174.753 416.166C175.173 415.709 175.383 415.088 175.383 414.304V411.896C175.383 411.112 175.173 410.496 174.753 410.048C174.333 409.591 173.736 409.362 172.961 409.362C172.205 409.362 171.613 409.591 171.183 410.048C170.754 410.496 170.539 411.112 170.539 411.896V414.304C170.539 415.088 170.754 415.709 171.183 416.166C171.613 416.614 172.205 416.838 172.961 416.838ZM178.979 418V408.2H183.095C183.702 408.2 184.234 408.307 184.691 408.522C185.158 408.727 185.517 409.026 185.769 409.418C186.031 409.81 186.161 410.277 186.161 410.818V410.972C186.161 411.588 186.012 412.083 185.713 412.456C185.424 412.82 185.069 413.077 184.649 413.226V413.45C185.004 413.469 185.289 413.59 185.503 413.814C185.718 414.029 185.825 414.341 185.825 414.752V418H184.299V414.962C184.299 414.71 184.234 414.509 184.103 414.36C183.973 414.211 183.763 414.136 183.473 414.136H180.491V418H178.979ZM180.491 412.764H182.927C183.469 412.764 183.889 412.629 184.187 412.358C184.486 412.078 184.635 411.7 184.635 411.224V411.112C184.635 410.636 184.486 410.263 184.187 409.992C183.898 409.712 183.478 409.572 182.927 409.572H180.491V412.764ZM190.293 418V409.572H187.283V408.2H194.815V409.572H191.805V418H190.293Z" fill="white"/>
<rect x="32" y="384" width="225" height="58" stroke="url(#paint0_linear_15417_4074)" stroke-width="2"/>
</g>
<defs>
<linearGradient id="paint0_linear_15417_4074" x1="32" y1="379.257" x2="66.1911" y2="525.72" gradientUnits="userSpaceOnUse">
<stop stop-color="#1D32F4" stop-opacity="0"/>
<stop offset="1" stop-color="#1D32F4"/>
</linearGradient>
<clipPath id="clip0_15417_4074">
<rect width="584" height="524" fill="white"/>
</clipPath>
<clipPath id="clip1_15417_4074">
<rect width="24" height="24" fill="white" transform="translate(322 308)"/>
</clipPath>
<clipPath id="clip2_15417_4074">
<rect width="24" height="24" fill="white" transform="translate(322 388)"/>
</clipPath>
</defs>
</svg>
