<svg width="1208" height="504" viewBox="0 0 1208 504" fill="none" xmlns="http://www.w3.org/2000/svg">
<g clip-path="url(#clip0_15805_7731)">
<path d="M349 99L349 504" stroke="url(#paint0_linear_15805_7731)" stroke-width="2"/>
<path d="M403.568 124V121.432H393.92V107.2H391.04V124H403.568ZM409.377 124.24C411.105 124.24 412.449 123.4 413.073 122.344C413.073 122.704 413.097 123.544 413.193 124H415.785C415.665 123.16 415.665 122.08 415.665 121.36V116.176C415.665 113.536 413.793 111.76 410.697 111.76C407.841 111.76 405.873 113.392 405.681 115.624H408.441C408.537 114.712 409.401 114.016 410.601 114.016H410.793C412.137 114.016 412.977 114.904 412.977 116.248V116.584L409.833 116.848C407.625 117.016 405.441 118.048 405.441 120.712C405.441 122.8 407.169 124.24 409.377 124.24ZM409.857 121.984C408.897 121.984 408.177 121.384 408.177 120.544C408.177 119.512 409.161 118.984 410.193 118.888L412.977 118.624V119.344C412.977 120.856 411.465 121.984 410.049 121.984H409.857ZM428.581 114.256V112H418.813V114.424H425.197L418.693 121.744V124H428.941V121.576H422.077L428.581 114.256ZM435.204 124.24C436.932 124.24 438.276 123.4 438.9 122.344C438.9 122.704 438.924 123.544 439.02 124H441.612C441.492 123.16 441.492 122.08 441.492 121.36V116.176C441.492 113.536 439.62 111.76 436.524 111.76C433.668 111.76 431.7 113.392 431.508 115.624H434.268C434.364 114.712 435.228 114.016 436.428 114.016H436.62C437.964 114.016 438.804 114.904 438.804 116.248V116.584L435.66 116.848C433.452 117.016 431.268 118.048 431.268 120.712C431.268 122.8 432.996 124.24 435.204 124.24ZM435.684 121.984C434.724 121.984 434.004 121.384 434.004 120.544C434.004 119.512 434.988 118.984 436.02 118.888L438.804 118.624V119.344C438.804 120.856 437.292 121.984 435.876 121.984H435.684ZM448.001 124V117.832C448.001 115.648 449.129 114.472 451.217 114.472H452.249V111.88H451.433C449.753 111.88 448.433 112.84 447.953 114.496V112H445.241V124H448.001ZM458.868 124.24C460.62 124.24 461.916 123.28 462.516 122.032V124H465.276V112H462.516V118.6C462.516 120.568 461.244 121.984 459.804 121.984H459.612C458.268 121.984 457.548 121.096 457.548 119.368V112H454.788V119.776C454.788 122.368 456.108 124.24 458.868 124.24ZM473.346 124.24C476.394 124.24 478.17 122.68 478.17 120.592C478.17 118.576 476.922 117.52 474.834 117.04L473.106 116.632C472.026 116.392 471.474 116.008 471.474 115.288C471.474 114.448 472.242 113.944 473.298 113.944H473.49C474.786 113.944 475.41 114.736 475.53 115.792H478.29C478.29 113.368 476.562 111.76 473.442 111.76C470.706 111.76 468.738 113.2 468.738 115.456C468.738 117.448 470.106 118.48 472.362 119.008L474.018 119.368C475.026 119.584 475.434 120.016 475.434 120.712C475.434 121.528 474.642 122.056 473.538 122.056H473.346C472.074 122.056 471.114 121.384 471.066 120.136H468.258C468.258 122.632 470.13 124.24 473.346 124.24ZM495.029 124.24C497.573 124.24 499.157 123.16 499.925 122.248V124H502.445V117.376C502.445 116.056 501.725 115.336 500.405 115.336H495.269V117.904H499.949L499.925 118.192C499.613 120.232 497.861 121.672 495.389 121.672H495.149C491.933 121.672 489.917 119.344 489.917 115.6C489.917 111.856 491.933 109.528 495.149 109.528H495.389C497.837 109.528 499.205 110.848 499.445 112.864H502.325C502.085 109.48 499.589 106.96 495.269 106.96C490.229 106.96 487.037 110.632 487.037 115.6C487.037 120.568 490.157 124.24 495.029 124.24ZM508.713 124V117.832C508.713 115.648 509.841 114.472 511.929 114.472H512.961V111.88H512.145C510.465 111.88 509.145 112.84 508.665 114.496V112H505.953V124H508.713ZM520.477 124.24C523.933 124.24 526.381 121.648 526.381 118C526.381 114.352 523.933 111.76 520.477 111.76C517.045 111.76 514.597 114.352 514.597 118C514.597 121.648 517.045 124.24 520.477 124.24ZM520.381 121.984C518.605 121.984 517.357 120.52 517.357 118C517.357 115.48 518.605 114.016 520.381 114.016H520.573C522.373 114.016 523.597 115.48 523.597 118C523.597 120.52 522.373 121.984 520.573 121.984H520.381ZM533.49 124.24C535.242 124.24 536.538 123.28 537.138 122.032V124H539.898V112H537.138V118.6C537.138 120.568 535.866 121.984 534.426 121.984H534.234C532.89 121.984 532.17 121.096 532.17 119.368V112H529.41V119.776C529.41 122.368 530.73 124.24 533.49 124.24ZM546.505 128.8V122.392C547.057 123.328 548.401 124.24 550.081 124.24C553.369 124.24 555.433 121.552 555.433 118C555.433 114.448 553.465 111.76 550.177 111.76C548.497 111.76 547.057 112.672 546.505 113.608V112H543.745V128.8H546.505ZM549.529 121.984C547.969 121.984 546.505 120.544 546.505 118C546.505 115.456 547.969 114.016 549.529 114.016H549.721C551.401 114.016 552.673 115.456 552.673 118C552.673 120.544 551.401 121.984 549.721 121.984H549.529ZM571.623 124V109.768H577.527V107.2H562.863V109.768H568.743V124H571.623ZM587.642 124V109.768H593.546V107.2H578.882V109.768H584.762V124H587.642ZM599.389 124V117.616H603.877C607.069 117.616 609.277 115.696 609.277 112.408C609.277 109.096 607.069 107.2 603.877 107.2H596.509V124H599.389ZM599.389 109.768H603.517C605.389 109.768 606.397 110.752 606.397 112.408C606.397 114.04 605.389 115.048 603.517 115.048H599.389V109.768ZM616.228 124.24C619.276 124.24 621.052 122.68 621.052 120.592C621.052 118.576 619.804 117.52 617.716 117.04L615.988 116.632C614.908 116.392 614.356 116.008 614.356 115.288C614.356 114.448 615.124 113.944 616.18 113.944H616.372C617.668 113.944 618.292 114.736 618.412 115.792H621.172C621.172 113.368 619.444 111.76 616.324 111.76C613.588 111.76 611.62 113.2 611.62 115.456C611.62 117.448 612.988 118.48 615.244 119.008L616.9 119.368C617.908 119.584 618.316 120.016 618.316 120.712C618.316 121.528 617.524 122.056 616.42 122.056H616.228C614.956 122.056 613.996 121.384 613.948 120.136H611.14C611.14 122.632 613.012 124.24 616.228 124.24ZM644.727 111.184H642.303L643.143 107.2H640.551L639.711 111.184H636.687L637.551 107.2H634.983L634.119 111.184H630.831V113.656H633.591L632.775 117.544H629.799V120.016H632.247L631.383 124H633.951L634.815 120.016H637.863L637.023 124H639.591L640.431 120.016H643.719V117.544H640.959L641.775 113.656H644.727V111.184ZM635.343 117.544L636.159 113.656H639.207L638.367 117.544H635.343ZM657.762 124V120.424H660.33V117.976H657.762V107.2H655.002L646.866 117.64V120.424H655.05V124H657.762ZM655.05 111.016V117.976H649.626L655.05 111.016ZM668.468 124.24C672.02 124.24 674.444 121.96 674.444 118.648C674.444 115.672 672.308 113.488 669.188 113.488C668.06 113.488 666.836 113.92 666.092 114.664L667.148 109.696H674.276V107.2H665.012L662.948 117.304H665.612C666.356 116.344 667.508 115.936 668.42 115.936H668.66C670.316 115.936 671.612 117.016 671.612 118.768C671.612 120.592 670.34 121.792 668.612 121.792H668.372C666.74 121.792 665.468 120.928 665.204 119.416H662.372C662.66 122.392 665.156 124.24 668.468 124.24ZM685.193 117.424C687.281 115.504 688.721 113.968 688.721 111.592C688.721 108.784 686.417 106.96 683.249 106.96C679.961 106.96 677.513 109.024 677.489 112.36H680.345C680.369 110.584 681.545 109.408 683.153 109.408H683.393C684.833 109.408 685.889 110.344 685.889 111.712C685.889 113.296 684.689 114.28 682.913 115.96L677.321 121.24V124H688.961V121.504H680.777L685.193 117.424Z" fill="white"/>
<path d="M219.438 65.1094H220.448L217.924 72.8306H216.551L214.769 66.1749L212.986 72.8306H211.63L209.09 65.1094H210.147L212.339 71.9349L214.122 65.1094H215.431L217.293 72.0276L219.438 65.1094Z" fill="white"/>
<path d="M221.152 70.7016C221.152 69.003 222.651 68.4779 223.866 68.3852L226.358 68.1999V67.8911C226.358 66.563 225.601 65.8064 224.386 65.8064H224.307C223.298 65.8064 222.446 66.3005 222.335 67.2734H221.31C221.405 65.899 222.651 64.957 224.339 64.957C226.39 64.957 227.383 66.316 227.383 67.8911V71.134C227.383 71.5972 227.383 72.2922 227.462 72.8327H226.516C226.453 72.4929 226.437 72.0142 226.437 71.5972C226.121 72.3076 225.033 72.9871 223.645 72.9871C222.257 72.9871 221.152 72.0142 221.152 70.7016ZM223.913 72.1378C225.001 72.1378 226.358 71.1958 226.358 70.053V69.0184L224.071 69.1728C222.951 69.25 222.178 69.7905 222.178 70.6398C222.178 71.4892 222.856 72.1378 223.755 72.1378H223.913Z" fill="white"/>
<path d="M231.627 72.8322C230.602 72.8322 230.129 72.4462 230.129 71.4424V65.9604H228.314V65.111H230.129L230.128 63.1901L231.154 62.6094V65.111H233.126V65.9604H231.154V71.3652C231.154 71.8285 231.312 71.9829 231.785 71.9829H233.362V72.8322H231.627Z" fill="white"/>
<path d="M233.912 68.972C233.912 66.702 235.206 64.957 237.54 64.957C239.244 64.957 240.459 65.9608 240.616 67.5822H239.591C239.417 66.5476 238.676 65.8064 237.619 65.8064H237.461C235.742 65.8064 234.937 67.2889 234.937 68.972C234.937 70.6553 235.742 72.1378 237.461 72.1378H237.619C238.676 72.1378 239.386 71.3502 239.591 70.3619H240.616C240.332 71.9525 239.244 72.9871 237.54 72.9871C235.206 72.9871 233.912 71.2421 233.912 68.972Z" fill="white"/>
<path d="M242.252 72.8292V62.0195H243.277V66.4206C243.814 65.5095 244.792 64.9536 246.117 64.9536C247.868 64.9536 248.799 66.1118 248.799 67.7332V72.8292H247.773V68.0421C247.773 66.5596 247.142 65.8029 245.88 65.8029H245.722C244.508 65.8029 243.277 66.8685 243.277 68.6597V72.8292H242.252Z" fill="white"/>
<path d="M252.607 72.8292V63.6719H248.742V62.0195H258.381V63.6719H254.5V72.8292H252.607Z" fill="white"/>
<path d="M257.373 68.972C257.373 66.6248 258.982 64.957 261.238 64.957C263.509 64.957 265.118 66.6248 265.118 68.972C265.118 71.3193 263.509 72.9871 261.238 72.9871C258.982 72.9871 257.373 71.3193 257.373 68.972ZM261.301 71.5355C262.484 71.5355 263.289 70.5935 263.289 68.972C263.289 67.3506 262.484 66.4086 261.301 66.4086H261.175C260.007 66.4086 259.187 67.3506 259.187 68.972C259.187 70.5935 260.007 71.5355 261.175 71.5355H261.301Z" fill="white"/>
<path d="M275.513 65.1094H277.312L274.977 72.8306H272.958L271.428 67.1632L269.929 72.8306H267.894L265.48 65.1094H267.326L268.967 71.0238L270.45 65.1094H272.374L273.936 70.9929L275.513 65.1094Z" fill="white"/>
<path d="M278.391 72.8336V65.1124H280.173V66.7184C280.489 65.6529 281.356 65.0352 282.461 65.0352H282.997V66.7029H282.319C280.946 66.7029 280.205 67.4596 280.205 68.8649V72.8336H278.391Z" fill="white"/>
<path d="M194.549 63.3119L192.49 62.152L194.549 60.9922L196.607 62.152L194.549 63.3119Z" fill="white"/>
<path d="M191.117 68.339V66.0193L192.489 65.2461L194.548 66.4059L191.117 68.339Z" fill="white"/>
<path d="M200.722 66.7923L198.664 65.6325L200.722 64.4727L202.781 65.6325L200.722 66.7923Z" fill="white"/>
<path d="M189.058 66.4056L187 65.2458L189.058 64.0859L191.117 65.2458L189.058 66.4056Z" fill="white"/>
<path d="M189.058 66.4059L187 65.2461V69.1122L189.058 70.2721V66.4059Z" fill="white"/>
<path d="M195.234 69.8864L193.176 68.7266V72.5927L195.234 73.7526V69.8864Z" fill="white"/>
<path d="M194.549 63.3122L192.49 62.1523V66.0185L194.549 66.4051V63.3122Z" fill="white"/>
<path d="M197.291 71.8195V69.4998L198.663 68.7266L200.722 69.8864L197.291 71.8195Z" fill="white"/>
<path d="M200.722 66.7927L198.664 65.6328V68.7257L200.722 69.8856V66.7927Z" fill="white"/>
<path d="M195.234 69.8861L193.176 68.7262L195.234 67.5664L197.293 68.7262L195.234 69.8861Z" fill="white"/>
<path d="M187 70.6595V68.3398L195.234 72.9792V75.2989L187 70.6595Z" fill="white"/>
<rect opacity="0.2" width="138" height="2" transform="matrix(1 0 0 -1 188 135)" fill="#1E2742"/>
<rect opacity="0.2" width="138" height="2" transform="matrix(1 0 0 -1 188 169)" fill="#1E2742"/>
<rect opacity="0.2" width="138" height="2" transform="matrix(1 0 0 -1 188 203)" fill="#1E2742"/>
<rect width="63" height="10" transform="matrix(1 0 0 -1 188 127)" fill="#1E2742"/>
<rect opacity="0.3" width="89" height="10" transform="matrix(1 0 0 -1 188 161)" fill="#1E2742"/>
<rect opacity="0.3" width="51" height="10" transform="matrix(1 0 0 -1 188 195)" fill="#1E2742"/>
<mask id="mask0_15805_7731" style="mask-type:alpha" maskUnits="userSpaceOnUse" x="431" y="195" width="212" height="212">
<circle cx="537" cy="301" r="105" stroke="#E00000" stroke-width="1.5"/>
</mask>
<g mask="url(#mask0_15805_7731)">
<circle cx="537" cy="301" r="105" fill="#040C25" stroke="#FF4D35" stroke-opacity="0.1" stroke-width="1.5"/>
<g filter="url(#filter0_f_15805_7731)">
<circle cx="448.5" cy="302.5" r="85.5" fill="#E00000"/>
</g>
</g>
<path d="M536.992 289.56C534.885 289.56 533.019 289.187 531.392 288.44C529.765 287.693 528.485 286.627 527.552 285.24C526.645 283.827 526.192 282.16 526.192 280.24V279.52H531.312V280.08C531.312 281.573 531.832 282.773 532.872 283.68C533.912 284.56 535.285 285 536.992 285C538.725 285 540.059 284.587 540.992 283.76C541.952 282.933 542.432 281.893 542.432 280.64V280.24C542.432 279.387 542.219 278.693 541.792 278.16C541.365 277.627 540.792 277.24 540.072 277C539.352 276.733 538.539 276.6 537.632 276.6H532.032V271L541.072 266.2V265.56H526.912V261H546.752V267.8L538.312 272.28V272.92H539.792C541.045 272.92 542.259 273.173 543.432 273.68C544.632 274.187 545.619 274.973 546.392 276.04C547.165 277.08 547.552 278.44 547.552 280.12V280.6C547.552 282.413 547.112 284 546.232 285.36C545.352 286.693 544.112 287.733 542.512 288.48C540.939 289.2 539.099 289.56 536.992 289.56Z" fill="white"/>
<path d="M505.931 325.224C504.597 325.224 503.536 324.84 502.747 324.072C501.957 323.293 501.563 322.163 501.563 320.68V318.12C501.563 316.637 501.957 315.512 502.747 314.744C503.536 313.965 504.597 313.576 505.931 313.576C507.253 313.576 508.267 313.944 508.971 314.68C509.685 315.416 510.043 316.424 510.043 317.704V317.784H508.715V317.656C508.715 316.813 508.485 316.125 508.027 315.592C507.579 315.048 506.88 314.776 505.931 314.776C504.981 314.776 504.24 315.069 503.707 315.656C503.173 316.232 502.907 317.043 502.907 318.088V320.712C502.907 321.757 503.173 322.573 503.707 323.16C504.24 323.736 504.981 324.024 505.931 324.024C506.88 324.024 507.579 323.757 508.027 323.224C508.485 322.68 508.715 321.987 508.715 321.144V320.888H510.043V321.096C510.043 322.376 509.685 323.384 508.971 324.12C508.267 324.856 507.253 325.224 505.931 325.224ZM512.468 325V313.8H516.996C517.69 313.8 518.298 313.923 518.82 314.168C519.354 314.403 519.77 314.744 520.068 315.192C520.367 315.629 520.516 316.157 520.516 316.776V316.952C520.516 317.688 520.34 318.269 519.988 318.696C519.636 319.123 519.22 319.411 518.74 319.56V319.784C519.124 319.795 519.439 319.923 519.684 320.168C519.94 320.403 520.068 320.76 520.068 321.24V325H518.74V321.4C518.74 321.08 518.65 320.835 518.468 320.664C518.298 320.493 518.036 320.408 517.684 320.408H513.812V325H512.468ZM513.812 319.192H516.868C517.604 319.192 518.17 319.016 518.564 318.664C518.97 318.301 519.172 317.8 519.172 317.16V317.048C519.172 316.408 518.975 315.912 518.58 315.56C518.186 315.197 517.615 315.016 516.868 315.016H513.812V319.192ZM522.882 325V313.8H524.226V325H522.882ZM529.86 325V315.016H526.26V313.8H534.804V315.016H531.204V325H529.86ZM536.835 325V313.8H538.179V325H536.835ZM545.109 325.224C543.776 325.224 542.714 324.84 541.925 324.072C541.136 323.293 540.741 322.163 540.741 320.68V318.12C540.741 316.637 541.136 315.512 541.925 314.744C542.714 313.965 543.776 313.576 545.109 313.576C546.432 313.576 547.445 313.944 548.149 314.68C548.864 315.416 549.221 316.424 549.221 317.704V317.784H547.893V317.656C547.893 316.813 547.664 316.125 547.205 315.592C546.757 315.048 546.058 314.776 545.109 314.776C544.16 314.776 543.418 315.069 542.885 315.656C542.352 316.232 542.085 317.043 542.085 318.088V320.712C542.085 321.757 542.352 322.573 542.885 323.16C543.418 323.736 544.16 324.024 545.109 324.024C546.058 324.024 546.757 323.757 547.205 323.224C547.664 322.68 547.893 321.987 547.893 321.144V320.888H549.221V321.096C549.221 322.376 548.864 323.384 548.149 324.12C547.445 324.856 546.432 325.224 545.109 325.224ZM550.657 325L554.113 313.8H556.481L559.937 325H558.545L557.681 322.168H552.913L552.049 325H550.657ZM553.249 320.952H557.329L555.409 314.616H555.185L553.249 320.952ZM561.935 325V313.8H563.279V323.784H568.943V325H561.935ZM502.816 346V334.8H509.584V336.016H504.16V339.776H509.152V340.992H504.16V346H502.816ZM511.777 346V334.8H513.121V346H511.777ZM516.003 346V334.8H518.611L522.515 345.152H522.723V334.8H524.051V346H521.443L517.555 335.632H517.331V346H516.003ZM526.42 346V344.8H527.988V336H526.42V334.8H530.788C532.26 334.8 533.396 335.173 534.196 335.92C535.007 336.667 535.412 337.813 535.412 339.36V341.44C535.412 342.997 535.007 344.149 534.196 344.896C533.396 345.632 532.26 346 530.788 346H526.42ZM529.332 344.784H530.788C531.876 344.784 532.697 344.517 533.252 343.984C533.807 343.451 534.084 342.624 534.084 341.504V339.312C534.084 338.171 533.807 337.339 533.252 336.816C532.697 336.293 531.876 336.032 530.788 336.032H529.332V344.784ZM537.878 346V334.8H539.222V346H537.878ZM542.104 346V334.8H544.712L548.616 345.152H548.824V334.8H550.152V346H547.544L543.656 335.632H543.432V346H542.104ZM556.953 346.224C556.121 346.224 555.385 346.053 554.745 345.712C554.115 345.36 553.619 344.848 553.257 344.176C552.905 343.504 552.729 342.672 552.729 341.68V339.12C552.729 337.637 553.123 336.512 553.913 335.744C554.702 334.965 555.763 334.576 557.097 334.576C558.419 334.576 559.427 334.939 560.121 335.664C560.814 336.389 561.161 337.36 561.161 338.576V338.656H559.833V338.544C559.833 338.011 559.737 337.536 559.545 337.12C559.353 336.704 559.054 336.379 558.649 336.144C558.243 335.899 557.726 335.776 557.097 335.776C556.147 335.776 555.406 336.069 554.873 336.656C554.339 337.232 554.073 338.043 554.073 339.088V341.712C554.073 342.757 554.339 343.573 554.873 344.16C555.406 344.736 556.153 345.024 557.113 345.024C558.051 345.024 558.739 344.757 559.177 344.224C559.625 343.691 559.849 342.981 559.849 342.096V341.824H556.457V340.672H561.161V346H559.945V344.784H559.721C559.603 345.019 559.438 345.248 559.225 345.472C559.011 345.696 558.723 345.877 558.361 346.016C557.998 346.155 557.529 346.224 556.953 346.224ZM567.659 346.224C566.849 346.224 566.123 346.08 565.483 345.792C564.843 345.504 564.337 345.072 563.963 344.496C563.601 343.909 563.419 343.179 563.419 342.304V341.968H564.747V342.304C564.747 343.232 565.019 343.925 565.563 344.384C566.107 344.832 566.806 345.056 567.659 345.056C568.534 345.056 569.201 344.859 569.659 344.464C570.118 344.069 570.347 343.573 570.347 342.976C570.347 342.56 570.241 342.229 570.027 341.984C569.825 341.739 569.537 341.541 569.163 341.392C568.79 341.232 568.353 341.093 567.851 340.976L567.019 340.768C566.369 340.597 565.793 340.389 565.291 340.144C564.79 339.899 564.395 339.579 564.107 339.184C563.83 338.779 563.691 338.261 563.691 337.632C563.691 337.003 563.846 336.459 564.155 336C564.475 335.541 564.918 335.189 565.483 334.944C566.059 334.699 566.721 334.576 567.467 334.576C568.225 334.576 568.902 334.709 569.499 334.976C570.107 335.232 570.582 335.616 570.923 336.128C571.275 336.629 571.451 337.264 571.451 338.032V338.704H570.123V338.032C570.123 337.488 570.006 337.051 569.771 336.72C569.547 336.389 569.233 336.144 568.827 335.984C568.433 335.824 567.979 335.744 567.467 335.744C566.731 335.744 566.139 335.909 565.691 336.24C565.243 336.56 565.019 337.019 565.019 337.616C565.019 338.011 565.115 338.331 565.307 338.576C565.499 338.821 565.771 339.024 566.123 339.184C566.475 339.333 566.897 339.467 567.387 339.584L568.219 339.792C568.87 339.931 569.451 340.123 569.963 340.368C570.486 340.603 570.902 340.928 571.211 341.344C571.521 341.749 571.675 342.283 571.675 342.944C571.675 343.605 571.51 344.181 571.179 344.672C570.849 345.163 570.379 345.547 569.771 345.824C569.174 346.091 568.47 346.224 567.659 346.224Z" fill="white"/>
<g clip-path="url(#clip1_15805_7731)">
<path d="M710.008 259.068L714.424 245.477H705.592L710.008 259.068Z" fill="#E24329"/>
<path d="M710.007 259.068L705.591 245.477H699.402L710.007 259.068Z" fill="#FC6D26"/>
<path d="M699.402 245.477L698.06 249.607C697.938 249.983 698.072 250.396 698.393 250.629L710.007 259.068L699.402 245.477Z" fill="#FCA326"/>
<path d="M699.402 245.478H705.591L702.931 237.292C702.795 236.871 702.199 236.871 702.062 237.292L699.402 245.478Z" fill="#E24329"/>
<path d="M710.008 259.068L714.424 245.477H720.613L710.008 259.068Z" fill="#FC6D26"/>
<path d="M720.613 245.477L721.955 249.607C722.077 249.983 721.943 250.396 721.623 250.629L710.008 259.068L720.613 245.477Z" fill="#FCA326"/>
<path d="M720.613 245.478H714.424L717.084 237.292C717.22 236.871 717.816 236.871 717.953 237.292L720.613 245.478Z" fill="#E24329"/>
</g>
<g clip-path="url(#clip2_15805_7731)">
<path d="M738.759 238.375C738.648 238.374 738.538 238.396 738.437 238.442C738.336 238.487 738.247 238.554 738.174 238.638C738.102 238.722 738.049 238.821 738.019 238.927C737.989 239.034 737.982 239.146 738 239.255L741.224 258.806C741.264 259.045 741.388 259.262 741.572 259.42C741.757 259.577 741.991 259.665 742.233 259.667H757.687C757.869 259.669 758.046 259.606 758.185 259.489C758.324 259.372 758.417 259.209 758.446 259.029L761.67 239.263C761.688 239.153 761.681 239.042 761.651 238.935C761.621 238.828 761.568 238.73 761.496 238.646C761.423 238.562 761.334 238.495 761.233 238.45C761.132 238.404 761.022 238.381 760.911 238.383L738.759 238.375ZM752.32 252.501H747.388L746.053 245.522H753.514L752.32 252.501Z" fill="#2684FF"/>
<path d="M760.635 245.527H753.515L752.32 252.507H747.389L741.566 259.414C741.751 259.574 741.986 259.663 742.23 259.665H757.688C757.87 259.667 758.046 259.604 758.186 259.487C758.325 259.37 758.417 259.207 758.446 259.028L760.635 245.527Z" fill="url(#paint1_linear_15805_7731)"/>
</g>
<path d="M797.197 246.2C797.197 250.748 790.001 256.995 790.001 256.995C790.001 256.995 782.805 250.779 782.805 246.2C782.805 241.622 786.027 239.004 790.001 239.004C793.975 239.004 797.197 241.652 797.197 246.2Z" stroke="white" stroke-width="2"/>
<path d="M787.846 249.284V242.984H786.766V249.284H787.846Z" fill="white"/>
<path d="M790.465 249.284V246.89H792.148C793.345 246.89 794.173 246.17 794.173 244.937C794.173 243.695 793.345 242.984 792.148 242.984H789.385V249.284H790.465ZM790.465 243.947H792.013C792.715 243.947 793.093 244.316 793.093 244.937C793.093 245.549 792.715 245.927 792.013 245.927H790.465V243.947Z" fill="white"/>
<path fill-rule="evenodd" clip-rule="evenodd" d="M788.044 249.485H786.564V242.785H788.044V249.485ZM787.844 242.985V249.285H786.764V242.985H787.844ZM790.664 249.485H789.184V242.785H792.147C792.784 242.785 793.343 242.975 793.744 243.35C794.148 243.726 794.372 244.271 794.372 244.938C794.372 245.601 794.148 246.146 793.745 246.523C793.344 246.899 792.785 247.091 792.147 247.091H790.664V249.485ZM790.464 249.285H789.384V242.985H792.147C793.344 242.985 794.172 243.696 794.172 244.938C794.172 246.171 793.344 246.891 792.147 246.891H790.464V249.285ZM792.012 244.148H790.664V245.728H792.012C792.328 245.728 792.543 245.643 792.678 245.517C792.811 245.392 792.892 245.202 792.892 244.938C792.892 244.669 792.811 244.48 792.678 244.357C792.544 244.231 792.329 244.148 792.012 244.148ZM790.464 243.948V245.928H792.012C792.714 245.928 793.092 245.55 793.092 244.938C793.092 244.317 792.714 243.948 792.012 243.948H790.464Z" fill="white"/>
<mask id="path-47-inside-1_15805_7731" fill="white">
<path fill-rule="evenodd" clip-rule="evenodd" d="M839.101 251.073H820.895C822.176 254.871 825.768 257.605 829.998 257.605C834.228 257.605 837.819 254.871 839.101 251.073ZM839.099 244.922H820.896C822.179 241.127 825.769 238.395 829.998 238.395C834.226 238.395 837.817 241.127 839.099 244.922Z"/>
</mask>
<path d="M839.101 251.073L840.996 251.713L841.887 249.073H839.101V251.073ZM820.895 251.073V249.073H818.109L819 251.713L820.895 251.073ZM820.896 244.922L819.001 244.282L818.109 246.922H820.896V244.922ZM839.099 244.922V246.922H841.887L840.994 244.282L839.099 244.922ZM839.101 249.073H820.895V253.073H839.101V249.073ZM829.998 255.605C826.651 255.605 823.805 253.443 822.79 250.434L819 251.713C820.547 256.299 824.884 259.605 829.998 259.605V255.605ZM837.206 250.434C836.19 253.443 833.344 255.605 829.998 255.605V259.605C835.112 259.605 839.448 256.299 840.996 251.713L837.206 250.434ZM820.896 246.922H839.099V242.922H820.896V246.922ZM822.791 245.563C823.807 242.555 826.653 240.395 829.998 240.395V236.395C824.886 236.395 820.551 239.699 819.001 244.282L822.791 245.563ZM829.998 240.395C833.343 240.395 836.188 242.555 837.205 245.563L840.994 244.282C839.445 239.699 835.11 236.395 829.998 236.395V240.395Z" fill="white" mask="url(#path-47-inside-1_15805_7731)"/>
<path d="M824.593 246.025L823.911 248.625L823.235 246.026L823.216 245.951H823.138H822.188H822.109L822.09 246.027L821.45 248.636L820.741 246.025L820.721 245.951H820.644H819.732H819.597L819.637 246.08L820.829 249.977L820.851 250.048H820.925H821.93H822.008L822.027 249.973L822.672 247.483L823.33 249.973L823.35 250.048H823.427H824.424H824.499L824.52 249.976L825.674 246.079L825.712 245.951H825.578H824.689H824.612L824.593 246.025Z" fill="white" stroke="white" stroke-width="0.2"/>
<path d="M831.938 246.025L831.256 248.625L830.581 246.026L830.561 245.951H830.484H829.533H829.455L829.436 246.027L828.796 248.636L828.087 246.025L828.066 245.951H827.99H827.078H826.943L826.983 246.08L828.175 249.977L828.197 250.048H828.271H829.276H829.353L829.373 249.973L830.017 247.483L830.676 249.973L830.696 250.048H830.773H831.77H831.845L831.866 249.976L833.02 246.079L833.058 245.951H832.924H832.035H831.958L831.938 246.025Z" fill="white" stroke="white" stroke-width="0.2"/>
<path d="M839.284 246.025L838.602 248.625L837.927 246.026L837.907 245.951H837.83H836.879H836.801L836.782 246.027L836.141 248.636L835.432 246.025L835.412 245.951H835.336H834.424H834.289L834.328 246.08L835.521 249.977L835.542 250.048H835.616H836.622H836.699L836.719 249.973L837.363 247.483L838.022 249.973L838.041 250.048H838.118H839.116H839.191L839.212 249.976L840.365 246.079L840.403 245.951H840.269H839.381H839.304L839.284 246.025Z" fill="white" stroke="white" stroke-width="0.2"/>
<path d="M698.464 284.648V285.96L701.168 283.4V293H702.208V281.8H701.392L698.464 284.648ZM710.037 287.832C711.013 286.856 711.685 285.976 711.685 284.616C711.685 282.904 710.277 281.64 708.229 281.64C706.149 281.64 704.725 283.048 704.709 285.064H705.797C705.829 283.624 706.741 282.68 708.181 282.68H708.341C709.621 282.68 710.597 283.576 710.597 284.616C710.597 285.56 710.357 286.04 709.093 287.32L704.597 291.88V293H711.845V291.928H705.957L710.037 287.832ZM717.136 293.16C719.056 293.16 720.816 292.104 720.816 290.024C720.816 288.632 719.92 287.736 718.896 287.4C719.92 286.968 720.736 285.944 720.736 284.712C720.736 282.712 719.152 281.64 717.152 281.64C715.2 281.64 713.776 282.936 713.68 284.68H714.768C714.88 283.544 715.792 282.68 717.072 282.68H717.232C718.592 282.68 719.648 283.48 719.648 284.84C719.648 285.96 718.8 286.888 717.44 286.888H716.576V287.928H717.296C718.656 287.928 719.728 288.696 719.728 289.976C719.728 291.368 718.576 292.12 717.216 292.12H717.056C715.696 292.12 714.8 291.4 714.56 290.152H713.472C713.696 292.072 714.976 293.16 717.136 293.16ZM724.533 293V291.4H722.933V293H724.533ZM725.323 284.648V285.96L728.027 283.4V293H729.067V281.8H728.251L725.323 284.648ZM736.897 287.832C737.873 286.856 738.545 285.976 738.545 284.616C738.545 282.904 737.137 281.64 735.089 281.64C733.009 281.64 731.585 283.048 731.569 285.064H732.657C732.689 283.624 733.601 282.68 735.041 282.68H735.201C736.481 282.68 737.457 283.576 737.457 284.616C737.457 285.56 737.217 286.04 735.953 287.32L731.457 291.88V293H738.705V291.928H732.817L736.897 287.832ZM743.995 293.16C745.915 293.16 747.675 292.104 747.675 290.024C747.675 288.632 746.779 287.736 745.755 287.4C746.779 286.968 747.595 285.944 747.595 284.712C747.595 282.712 746.011 281.64 744.011 281.64C742.059 281.64 740.635 282.936 740.539 284.68H741.627C741.739 283.544 742.651 282.68 743.931 282.68H744.091C745.451 282.68 746.507 283.48 746.507 284.84C746.507 285.96 745.659 286.888 744.299 286.888H743.435V287.928H744.155C745.515 287.928 746.587 288.696 746.587 289.976C746.587 291.368 745.435 292.12 744.075 292.12H743.915C742.555 292.12 741.659 291.4 741.419 290.152H740.331C740.555 292.072 741.835 293.16 743.995 293.16ZM751.392 293V291.4H749.792V293H751.392ZM752.183 284.648V285.96L754.887 283.4V293H755.927V281.8H755.111L752.183 284.648ZM763.756 287.832C764.732 286.856 765.404 285.976 765.404 284.616C765.404 282.904 763.996 281.64 761.948 281.64C759.868 281.64 758.444 283.048 758.428 285.064H759.516C759.548 283.624 760.46 282.68 761.9 282.68H762.06C763.34 282.68 764.316 283.576 764.316 284.616C764.316 285.56 764.076 286.04 762.812 287.32L758.316 291.88V293H765.564V291.928H759.676L763.756 287.832ZM770.855 293.16C772.775 293.16 774.535 292.104 774.535 290.024C774.535 288.632 773.639 287.736 772.615 287.4C773.639 286.968 774.455 285.944 774.455 284.712C774.455 282.712 772.871 281.64 770.871 281.64C768.919 281.64 767.495 282.936 767.399 284.68H768.487C768.599 283.544 769.511 282.68 770.791 282.68H770.951C772.311 282.68 773.367 283.48 773.367 284.84C773.367 285.96 772.519 286.888 771.159 286.888H770.295V287.928H771.015C772.375 287.928 773.447 288.696 773.447 289.976C773.447 291.368 772.295 292.12 770.935 292.12H770.775C769.415 292.12 768.519 291.4 768.279 290.152H767.191C767.415 292.072 768.695 293.16 770.855 293.16ZM778.251 293V291.4H776.651V293H778.251ZM779.042 284.648V285.96L781.746 283.4V293H782.786V281.8H781.97L779.042 284.648ZM790.615 287.832C791.591 286.856 792.263 285.976 792.263 284.616C792.263 282.904 790.855 281.64 788.807 281.64C786.727 281.64 785.303 283.048 785.287 285.064H786.375C786.407 283.624 787.319 282.68 788.759 282.68H788.919C790.199 282.68 791.175 283.576 791.175 284.616C791.175 285.56 790.935 286.04 789.671 287.32L785.175 291.88V293H792.423V291.928H786.535L790.615 287.832ZM797.714 293.16C799.634 293.16 801.394 292.104 801.394 290.024C801.394 288.632 800.498 287.736 799.474 287.4C800.498 286.968 801.314 285.944 801.314 284.712C801.314 282.712 799.73 281.64 797.73 281.64C795.778 281.64 794.354 282.936 794.258 284.68H795.346C795.458 283.544 796.37 282.68 797.65 282.68H797.81C799.17 282.68 800.226 283.48 800.226 284.84C800.226 285.96 799.378 286.888 798.018 286.888H797.154V287.928H797.874C799.234 287.928 800.306 288.696 800.306 289.976C800.306 291.368 799.154 292.12 797.794 292.12H797.634C796.274 292.12 795.378 291.4 795.138 290.152H794.05C794.274 292.072 795.554 293.16 797.714 293.16ZM813.479 293V290.296H815.319V289.288H813.479V281.8H812.263L806.855 289.112V290.296H812.439V293H813.479ZM812.439 283.08V289.288H807.879L812.439 283.08ZM822.916 293V290.296H824.756V289.288H822.916V281.8H821.7L816.292 289.112V290.296H821.876V293H822.916ZM821.876 283.08V289.288H817.316L821.876 283.08ZM829.73 293.16C831.65 293.16 833.41 292.104 833.41 290.024C833.41 288.632 832.514 287.736 831.49 287.4C832.514 286.968 833.33 285.944 833.33 284.712C833.33 282.712 831.746 281.64 829.746 281.64C827.794 281.64 826.37 282.936 826.274 284.68H827.362C827.474 283.544 828.386 282.68 829.666 282.68H829.826C831.186 282.68 832.242 283.48 832.242 284.84C832.242 285.96 831.394 286.888 830.034 286.888H829.17V287.928H829.89C831.25 287.928 832.322 288.696 832.322 289.976C832.322 291.368 831.17 292.12 829.81 292.12H829.65C828.29 292.12 827.394 291.4 827.154 290.152H826.066C826.29 292.072 827.57 293.16 829.73 293.16ZM836.07 293L840.39 281.8H839.27L834.95 293H836.07ZM846.503 293V282.84H850.583V281.8H841.303V282.84H845.383V293H846.503ZM856.109 293.16C858.589 293.16 860.301 291.64 860.429 289.56H859.309C859.149 290.888 858.189 292.12 856.189 292.12H856.029C853.469 292.12 852.109 289.976 852.109 287.4C852.109 284.824 853.469 282.68 856.029 282.68H856.189C858.189 282.68 859.149 283.912 859.309 285.24H860.429C860.301 283.16 858.589 281.64 856.109 281.64C852.925 281.64 850.989 284.12 850.989 287.4C850.989 290.68 852.925 293.16 856.109 293.16ZM863.906 293V288.392H867.266C869.186 288.392 870.786 287.272 870.786 285.112C870.786 282.952 869.186 281.8 867.266 281.8H862.786V293H863.906ZM863.906 282.84H867.026C868.594 282.84 869.666 283.592 869.666 285.112C869.666 286.632 868.594 287.352 867.026 287.352H863.906V282.84Z" fill="white"/>
<circle cx="886" cy="248" r="2" fill="#6A7390"/>
<path d="M897.864 252.14C899.712 252.14 901.154 250.782 901.154 248.85C901.154 247.17 899.978 245.868 898.158 245.868C897.346 245.868 896.604 246.148 896.114 246.638L896.87 243.138H901.056V242.2H896.086L894.91 247.898H895.848C896.324 247.156 897.22 246.778 897.948 246.778H898.088C899.334 246.778 900.202 247.66 900.202 248.92C900.202 250.236 899.278 251.23 897.934 251.23H897.794C896.632 251.23 895.652 250.628 895.498 249.48H894.546C894.686 251.23 896.142 252.14 897.864 252.14ZM907.473 252V248.5C907.473 246.988 908.145 245.63 909.559 245.63H909.643C910.721 245.63 911.253 246.302 911.253 247.702V252H912.163V248.5C912.163 246.988 912.835 245.63 914.249 245.63H914.333C915.411 245.63 915.943 246.302 915.943 247.702V252H916.853V247.422C916.853 245.742 915.831 244.86 914.473 244.86C913.339 244.86 912.485 245.378 911.995 246.33C911.645 245.364 910.805 244.86 909.783 244.86C908.705 244.86 907.893 245.392 907.473 246.12V245H906.563V252H907.473ZM919.998 243.74V242.55H918.948V243.74H919.998ZM919.928 252V245H919.018V252H919.928ZM923.073 252V248.5C923.073 246.988 923.787 245.63 925.299 245.63H925.383C926.503 245.63 927.063 246.302 927.063 247.702V252H927.973V247.422C927.973 245.742 926.923 244.86 925.523 244.86C924.375 244.86 923.479 245.406 923.073 246.176V245H922.163V252H923.073ZM935.453 252.14C936.685 252.14 937.651 251.524 937.931 250.88C937.931 251.258 937.945 251.692 938.001 252H938.841C938.771 251.51 938.771 250.88 938.771 250.46V247.52C938.771 246.092 937.889 244.86 936.069 244.86C934.571 244.86 933.465 245.714 933.381 246.96H934.291C934.389 246.078 935.145 245.63 936.041 245.63H936.111C937.189 245.63 937.861 246.316 937.861 247.52V247.8L935.649 247.968C934.571 248.052 933.241 248.528 933.241 250.068C933.241 251.258 934.221 252.14 935.453 252.14ZM935.551 251.37C934.753 251.37 934.151 250.782 934.151 250.012C934.151 249.242 934.837 248.752 935.831 248.682L937.861 248.542V249.48C937.861 250.516 936.657 251.37 935.691 251.37H935.551ZM943.552 255.08C945.582 255.08 946.786 253.764 946.786 251.944V245H945.876V246.12C945.456 245.35 944.672 244.86 943.552 244.86C941.802 244.86 940.528 246.26 940.528 248.5C940.528 250.74 941.802 252 943.552 252C944.672 252 945.456 251.51 945.876 250.74V251.874C945.876 253.624 944.812 254.31 943.622 254.31H943.482C942.292 254.31 941.48 253.862 941.298 252.98H940.388C940.528 254.198 941.522 255.08 943.552 255.08ZM943.58 251.23C942.32 251.23 941.438 250.25 941.438 248.5C941.438 246.75 942.32 245.63 943.58 245.63H943.72C944.98 245.63 945.876 246.75 945.876 248.5C945.876 250.25 944.98 251.23 943.72 251.23H943.58ZM951.814 252.14C953.62 252.14 955.034 250.67 955.034 248.5C955.034 246.33 953.62 244.86 951.814 244.86C950.008 244.86 948.594 246.33 948.594 248.5C948.594 250.67 950.008 252.14 951.814 252.14ZM951.744 251.37C950.484 251.37 949.518 250.292 949.518 248.5C949.518 246.708 950.484 245.63 951.744 245.63H951.884C953.144 245.63 954.11 246.708 954.11 248.5C954.11 250.292 953.144 251.37 951.884 251.37H951.744Z" fill="#6A7390"/>
<path d="M699.311 346V337.6H702.839C703.359 337.6 703.815 337.692 704.207 337.876C704.607 338.052 704.915 338.308 705.131 338.644C705.355 338.98 705.467 339.38 705.467 339.844V339.976C705.467 340.504 705.339 340.928 705.083 341.248C704.835 341.56 704.531 341.78 704.171 341.908V342.1C704.475 342.116 704.719 342.22 704.903 342.412C705.087 342.596 705.179 342.864 705.179 343.216V346H703.871V343.396C703.871 343.18 703.815 343.008 703.703 342.88C703.591 342.752 703.411 342.688 703.163 342.688H700.607V346H699.311ZM700.607 341.512H702.695C703.159 341.512 703.519 341.396 703.775 341.164C704.031 340.924 704.159 340.6 704.159 340.192V340.096C704.159 339.688 704.031 339.368 703.775 339.136C703.527 338.896 703.167 338.776 702.695 338.776H700.607V341.512ZM707.134 346V337.6H712.426V338.776H708.43V341.188H712.09V342.364H708.43V344.824H712.486V346H707.134ZM717.233 346.168C716.201 346.168 715.381 345.88 714.773 345.304C714.165 344.72 713.861 343.88 713.861 342.784V340.816C713.861 339.72 714.165 338.884 714.773 338.308C715.381 337.724 716.201 337.432 717.233 337.432C718.265 337.432 719.085 337.724 719.693 338.308C720.309 338.884 720.617 339.72 720.617 340.816V342.784C720.617 343.88 720.309 344.72 719.693 345.304C719.085 345.88 718.265 346.168 717.233 346.168ZM717.233 345.004C717.897 345.004 718.409 344.812 718.769 344.428C719.129 344.036 719.309 343.504 719.309 342.832V340.768C719.309 340.096 719.129 339.568 718.769 339.184C718.409 338.792 717.897 338.596 717.233 338.596C716.585 338.596 716.077 338.792 715.709 339.184C715.341 339.568 715.157 340.096 715.157 340.768V342.832C715.157 343.504 715.341 344.036 715.709 344.428C716.077 344.812 716.585 345.004 717.233 345.004ZM717.749 348.052C717.405 348.052 717.125 347.944 716.909 347.728C716.701 347.52 716.597 347.236 716.597 346.876V346H717.869V346.66C717.869 346.9 717.981 347.02 718.205 347.02H718.949V348.052H717.749ZM725.535 346.168C724.871 346.168 724.299 346.048 723.819 345.808C723.347 345.568 722.979 345.224 722.715 344.776C722.459 344.32 722.331 343.768 722.331 343.12V337.6H723.639V343.156C723.639 343.748 723.803 344.204 724.131 344.524C724.459 344.844 724.927 345.004 725.535 345.004C726.143 345.004 726.611 344.844 726.939 344.524C727.267 344.204 727.431 343.748 727.431 343.156V337.6H728.727V343.12C728.727 343.768 728.599 344.32 728.343 344.776C728.087 345.224 727.719 345.568 727.239 345.808C726.759 346.048 726.191 346.168 725.535 346.168ZM730.658 346V337.6H735.95V338.776H731.954V341.188H735.614V342.364H731.954V344.824H736.01V346H730.658ZM740.457 346.168C739.825 346.168 739.265 346.056 738.777 345.832C738.289 345.608 737.905 345.28 737.625 344.848C737.353 344.408 737.217 343.876 737.217 343.252V342.952H738.501V343.252C738.501 343.844 738.677 344.288 739.029 344.584C739.389 344.88 739.865 345.028 740.457 345.028C741.057 345.028 741.509 344.904 741.813 344.656C742.117 344.4 742.269 344.072 742.269 343.672C742.269 343.408 742.197 343.192 742.053 343.024C741.909 342.856 741.705 342.724 741.441 342.628C741.177 342.524 740.861 342.428 740.493 342.34L740.049 342.232C739.513 342.104 739.045 341.948 738.645 341.764C738.253 341.572 737.949 341.32 737.733 341.008C737.517 340.696 737.409 340.296 737.409 339.808C737.409 339.312 737.529 338.888 737.769 338.536C738.017 338.184 738.357 337.912 738.789 337.72C739.221 337.528 739.729 337.432 740.313 337.432C740.897 337.432 741.417 337.532 741.873 337.732C742.337 337.932 742.701 338.228 742.965 338.62C743.229 339.012 743.361 339.504 743.361 340.096V340.528H742.077V340.096C742.077 339.736 742.001 339.444 741.849 339.22C741.705 338.996 741.501 338.832 741.237 338.728C740.973 338.624 740.665 338.572 740.313 338.572C739.801 338.572 739.401 338.68 739.113 338.896C738.833 339.104 738.693 339.396 738.693 339.772C738.693 340.028 738.753 340.24 738.873 340.408C739.001 340.568 739.185 340.7 739.425 340.804C739.665 340.908 739.965 341 740.325 341.08L740.769 341.188C741.313 341.308 741.793 341.464 742.209 341.656C742.625 341.84 742.953 342.092 743.193 342.412C743.433 342.732 743.553 343.144 743.553 343.648C743.553 344.152 743.425 344.592 743.169 344.968C742.921 345.344 742.565 345.64 742.101 345.856C741.637 346.064 741.089 346.168 740.457 346.168ZM746.841 346V338.776H744.261V337.6H750.717V338.776H748.137V346H746.841ZM754.315 346L756.715 337.6H758.995L761.383 346H760.051L759.499 344.02H756.211L755.659 346H754.315ZM756.535 342.82H759.175L757.951 338.404H757.759L756.535 342.82ZM765.907 346V337.6H769.435C769.955 337.6 770.411 337.692 770.803 337.876C771.203 338.052 771.511 338.308 771.727 338.644C771.951 338.98 772.063 339.38 772.063 339.844V339.976C772.063 340.504 771.935 340.928 771.679 341.248C771.431 341.56 771.127 341.78 770.767 341.908V342.1C771.071 342.116 771.315 342.22 771.499 342.412C771.683 342.596 771.775 342.864 771.775 343.216V346H770.467V343.396C770.467 343.18 770.411 343.008 770.299 342.88C770.187 342.752 770.007 342.688 769.759 342.688H767.203V346H765.907ZM767.203 341.512H769.291C769.755 341.512 770.115 341.396 770.371 341.164C770.627 340.924 770.755 340.6 770.755 340.192V340.096C770.755 339.688 770.627 339.368 770.371 339.136C770.123 338.896 769.763 338.776 769.291 338.776H767.203V341.512ZM773.729 346V337.6H779.021V338.776H775.025V341.188H778.685V342.364H775.025V344.824H779.081V346H773.729ZM782.676 346V338.776H780.096V337.6H786.552V338.776H783.972V346H782.676ZM787.967 346V337.6H793.259V338.776H789.263V341.188H792.923V342.364H789.263V344.824H793.319V346H787.967ZM797.766 346.168C797.134 346.168 796.574 346.056 796.086 345.832C795.598 345.608 795.214 345.28 794.934 344.848C794.662 344.408 794.526 343.876 794.526 343.252V342.952H795.81V343.252C795.81 343.844 795.986 344.288 796.338 344.584C796.698 344.88 797.174 345.028 797.766 345.028C798.366 345.028 798.818 344.904 799.122 344.656C799.426 344.4 799.578 344.072 799.578 343.672C799.578 343.408 799.506 343.192 799.362 343.024C799.218 342.856 799.014 342.724 798.75 342.628C798.486 342.524 798.17 342.428 797.802 342.34L797.358 342.232C796.822 342.104 796.354 341.948 795.954 341.764C795.562 341.572 795.258 341.32 795.042 341.008C794.826 340.696 794.718 340.296 794.718 339.808C794.718 339.312 794.838 338.888 795.078 338.536C795.326 338.184 795.666 337.912 796.098 337.72C796.53 337.528 797.038 337.432 797.622 337.432C798.206 337.432 798.726 337.532 799.182 337.732C799.646 337.932 800.01 338.228 800.274 338.62C800.538 339.012 800.67 339.504 800.67 340.096V340.528H799.386V340.096C799.386 339.736 799.31 339.444 799.158 339.22C799.014 338.996 798.81 338.832 798.546 338.728C798.282 338.624 797.974 338.572 797.622 338.572C797.11 338.572 796.71 338.68 796.422 338.896C796.142 339.104 796.002 339.396 796.002 339.772C796.002 340.028 796.062 340.24 796.182 340.408C796.31 340.568 796.494 340.7 796.734 340.804C796.974 340.908 797.274 341 797.634 341.08L798.078 341.188C798.622 341.308 799.102 341.464 799.518 341.656C799.934 341.84 800.262 342.092 800.502 342.412C800.742 342.732 800.862 343.144 800.862 343.648C800.862 344.152 800.734 344.592 800.478 344.968C800.23 345.344 799.874 345.64 799.41 345.856C798.946 346.064 798.398 346.168 797.766 346.168ZM804.15 346V338.776H801.57V337.6H808.026V338.776H805.446V346H804.15Z" fill="white"/>
<path d="M698 358H809" stroke="#1D32F4" stroke-width="1.5"/>
<path d="M861.187 350.168C860.555 350.168 859.995 350.056 859.507 349.832C859.019 349.608 858.635 349.28 858.355 348.848C858.083 348.408 857.947 347.876 857.947 347.252V346.952H859.231V347.252C859.231 347.844 859.407 348.288 859.759 348.584C860.119 348.88 860.595 349.028 861.187 349.028C861.787 349.028 862.239 348.904 862.543 348.656C862.847 348.4 862.999 348.072 862.999 347.672C862.999 347.408 862.927 347.192 862.783 347.024C862.639 346.856 862.435 346.724 862.171 346.628C861.907 346.524 861.591 346.428 861.223 346.34L860.779 346.232C860.243 346.104 859.775 345.948 859.375 345.764C858.983 345.572 858.679 345.32 858.463 345.008C858.247 344.696 858.139 344.296 858.139 343.808C858.139 343.312 858.259 342.888 858.499 342.536C858.747 342.184 859.087 341.912 859.519 341.72C859.951 341.528 860.459 341.432 861.043 341.432C861.627 341.432 862.147 341.532 862.603 341.732C863.067 341.932 863.431 342.228 863.695 342.62C863.959 343.012 864.091 343.504 864.091 344.096V344.528H862.807V344.096C862.807 343.736 862.731 343.444 862.579 343.22C862.435 342.996 862.231 342.832 861.967 342.728C861.703 342.624 861.395 342.572 861.043 342.572C860.531 342.572 860.131 342.68 859.843 342.896C859.563 343.104 859.423 343.396 859.423 343.772C859.423 344.028 859.483 344.24 859.603 344.408C859.731 344.568 859.915 344.7 860.155 344.804C860.395 344.908 860.695 345 861.055 345.08L861.499 345.188C862.043 345.308 862.523 345.464 862.939 345.656C863.355 345.84 863.683 346.092 863.923 346.412C864.163 346.732 864.283 347.144 864.283 347.648C864.283 348.152 864.155 348.592 863.899 348.968C863.651 349.344 863.295 349.64 862.831 349.856C862.367 350.064 861.819 350.168 861.187 350.168ZM865.883 350V341.6H867.179V345.2H870.707V341.6H872.003V350H870.707V346.376H867.179V350H865.883ZM873.374 350L875.774 341.6H878.054L880.442 350H879.11L878.558 348.02H875.27L874.718 350H873.374ZM875.594 346.82H878.234L877.01 342.404H876.818L875.594 346.82ZM881.82 350V341.6H885.348C885.868 341.6 886.324 341.692 886.716 341.876C887.116 342.052 887.424 342.308 887.64 342.644C887.864 342.98 887.976 343.38 887.976 343.844V343.976C887.976 344.504 887.848 344.928 887.592 345.248C887.344 345.56 887.04 345.78 886.68 345.908V346.1C886.984 346.116 887.228 346.22 887.412 346.412C887.596 346.596 887.688 346.864 887.688 347.216V350H886.38V347.396C886.38 347.18 886.324 347.008 886.212 346.88C886.1 346.752 885.92 346.688 885.672 346.688H883.116V350H881.82ZM883.116 345.512H885.204C885.668 345.512 886.028 345.396 886.284 345.164C886.54 344.924 886.668 344.6 886.668 344.192V344.096C886.668 343.688 886.54 343.368 886.284 343.136C886.036 342.896 885.676 342.776 885.204 342.776H883.116V345.512ZM889.642 350V341.6H894.934V342.776H890.938V345.188H894.598V346.364H890.938V348.824H894.994V350H889.642ZM899.884 350V341.6H903.412C903.932 341.6 904.388 341.692 904.78 341.876C905.18 342.052 905.488 342.308 905.704 342.644C905.928 342.98 906.04 343.38 906.04 343.844V343.976C906.04 344.504 905.912 344.928 905.656 345.248C905.408 345.56 905.104 345.78 904.744 345.908V346.1C905.048 346.116 905.292 346.22 905.476 346.412C905.66 346.596 905.752 346.864 905.752 347.216V350H904.444V347.396C904.444 347.18 904.388 347.008 904.276 346.88C904.164 346.752 903.984 346.688 903.736 346.688H901.18V350H899.884ZM901.18 345.512H903.268C903.732 345.512 904.092 345.396 904.348 345.164C904.604 344.924 904.732 344.6 904.732 344.192V344.096C904.732 343.688 904.604 343.368 904.348 343.136C904.1 342.896 903.74 342.776 903.268 342.776H901.18V345.512ZM907.706 350V341.6H912.998V342.776H909.002V345.188H912.662V346.364H909.002V348.824H913.058V350H907.706ZM914.649 350V341.6H917.985C918.497 341.6 918.953 341.704 919.353 341.912C919.761 342.112 920.077 342.4 920.301 342.776C920.533 343.144 920.649 343.588 920.649 344.108V344.264C920.649 344.784 920.529 345.232 920.289 345.608C920.057 345.984 919.741 346.272 919.341 346.472C918.941 346.672 918.489 346.772 917.985 346.772H915.945V350H914.649ZM915.945 345.596H917.853C918.309 345.596 918.673 345.476 918.945 345.236C919.217 344.996 919.353 344.668 919.353 344.252V344.132C919.353 343.708 919.217 343.376 918.945 343.136C918.673 342.896 918.309 342.776 917.853 342.776H915.945V345.596ZM925.275 350.168C924.243 350.168 923.423 349.88 922.815 349.304C922.207 348.72 921.903 347.88 921.903 346.784V344.816C921.903 343.72 922.207 342.884 922.815 342.308C923.423 341.724 924.243 341.432 925.275 341.432C926.307 341.432 927.127 341.724 927.735 342.308C928.351 342.884 928.659 343.72 928.659 344.816V346.784C928.659 347.88 928.351 348.72 927.735 349.304C927.127 349.88 926.307 350.168 925.275 350.168ZM925.275 349.004C925.939 349.004 926.451 348.812 926.811 348.428C927.171 348.036 927.351 347.504 927.351 346.832V344.768C927.351 344.096 927.171 343.568 926.811 343.184C926.451 342.792 925.939 342.596 925.275 342.596C924.627 342.596 924.119 342.792 923.751 343.184C923.383 343.568 923.199 344.096 923.199 344.768V346.832C923.199 347.504 923.383 348.036 923.751 348.428C924.119 348.812 924.627 349.004 925.275 349.004ZM930.434 350V341.6H933.962C934.482 341.6 934.938 341.692 935.33 341.876C935.73 342.052 936.038 342.308 936.254 342.644C936.478 342.98 936.59 343.38 936.59 343.844V343.976C936.59 344.504 936.462 344.928 936.206 345.248C935.958 345.56 935.654 345.78 935.294 345.908V346.1C935.598 346.116 935.842 346.22 936.026 346.412C936.21 346.596 936.302 346.864 936.302 347.216V350H934.994V347.396C934.994 347.18 934.938 347.008 934.826 346.88C934.714 346.752 934.534 346.688 934.286 346.688H931.73V350H930.434ZM931.73 345.512H933.818C934.282 345.512 934.642 345.396 934.898 345.164C935.154 344.924 935.282 344.6 935.282 344.192V344.096C935.282 343.688 935.154 343.368 934.898 343.136C934.65 342.896 934.29 342.776 933.818 342.776H931.73V345.512ZM940.131 350V342.776H937.551V341.6H944.007V342.776H941.427V350H940.131Z" fill="white"/>
<rect x="841" y="326" width="120" height="40" stroke="#1D32F4"/>
<rect x="163" y="32" width="882" height="472" stroke="url(#paint2_linear_15805_7731)" stroke-width="2"/>
</g>
<defs>
<filter id="filter0_f_15805_7731" x="291" y="145" width="315" height="315" filterUnits="userSpaceOnUse" color-interpolation-filters="sRGB">
<feFlood flood-opacity="0" result="BackgroundImageFix"/>
<feBlend mode="normal" in="SourceGraphic" in2="BackgroundImageFix" result="shape"/>
<feGaussianBlur stdDeviation="36" result="effect1_foregroundBlur_15805_7731"/>
</filter>
<linearGradient id="paint0_linear_15805_7731" x1="349.5" y1="99" x2="349.5" y2="504" gradientUnits="userSpaceOnUse">
<stop offset="0.397701" stop-color="#1D284E"/>
<stop offset="1" stop-color="#1D284E" stop-opacity="0"/>
</linearGradient>
<linearGradient id="paint1_linear_15805_7731" x1="762.281" y1="247.481" x2="750.515" y2="256.664" gradientUnits="userSpaceOnUse">
<stop offset="0.18" stop-color="#0052CC"/>
<stop offset="1" stop-color="#2684FF"/>
</linearGradient>
<linearGradient id="paint2_linear_15805_7731" x1="604" y1="268" x2="604" y2="504" gradientUnits="userSpaceOnUse">
<stop stop-color="#1D294E"/>
<stop offset="1" stop-color="#1D294E" stop-opacity="0"/>
</linearGradient>
<clipPath id="clip0_15805_7731">
<rect width="1208" height="504" fill="white"/>
</clipPath>
<clipPath id="clip1_15805_7731">
<rect width="24" height="24" fill="white" transform="translate(698 236)"/>
</clipPath>
<clipPath id="clip2_15805_7731">
<rect width="24" height="24" fill="white" transform="translate(738 236)"/>
</clipPath>
</defs>
</svg>
