<svg width="584" height="524" viewBox="0 0 584 524" fill="none" xmlns="http://www.w3.org/2000/svg">
<rect x="177" y="225" width="230" height="74" fill="#061030"/>
<path d="M265.093 257.176H266.839L262.475 270.071H260.101L257.019 258.955L253.937 270.071H251.591L247.199 257.176H249.027L252.818 268.575L255.901 257.176H258.165L261.383 268.73L265.093 257.176Z" fill="white"/>
<path d="M268.055 266.512C268.055 263.675 270.646 262.798 272.746 262.644L277.056 262.334V261.818C277.056 259.6 275.747 258.336 273.647 258.336H273.51C271.764 258.336 270.291 259.162 270.1 260.787H268.327C268.491 258.491 270.646 256.918 273.565 256.918C277.111 256.918 278.829 259.188 278.829 261.818V267.234C278.829 268.008 278.829 269.169 278.966 270.071H277.329C277.22 269.504 277.193 268.704 277.193 268.008C276.647 269.194 274.765 270.329 272.365 270.329C269.964 270.329 268.055 268.704 268.055 266.512ZM272.828 268.911C274.71 268.911 277.056 267.338 277.056 265.429V263.701L273.101 263.959C271.164 264.088 269.828 264.991 269.828 266.409C269.828 267.828 271.001 268.911 272.555 268.911H272.828Z" fill="white"/>
<path d="M286.168 270.074C284.395 270.074 283.576 269.429 283.576 267.752V258.597H280.439V257.178H283.576L283.576 253.97L285.349 253V257.178H288.759V258.597H285.349V267.623C285.349 268.397 285.622 268.655 286.44 268.655H289.168V270.074H286.168Z" fill="white"/>
<path d="M290.121 263.624C290.121 259.832 292.358 256.918 296.395 256.918C299.341 256.918 301.441 258.594 301.714 261.302H299.941C299.641 259.574 298.359 258.336 296.531 258.336H296.258C293.285 258.336 291.894 260.812 291.894 263.624C291.894 266.435 293.285 268.911 296.258 268.911H296.531C298.359 268.911 299.586 267.595 299.941 265.945H301.714C301.223 268.601 299.341 270.329 296.395 270.329C292.358 270.329 290.121 267.415 290.121 263.624Z" fill="white"/>
<path d="M304.539 270.069V252.016H306.312V259.366C307.24 257.844 308.931 256.916 311.222 256.916C314.25 256.916 315.859 258.85 315.859 261.558V270.069H314.086V262.074C314.086 259.598 312.995 258.334 310.813 258.334H310.54C308.44 258.334 306.312 260.114 306.312 263.106V270.069H304.539Z" fill="white"/>
<path d="M322.447 270.069V254.775H315.764V252.016H332.43V254.775H325.72V270.069H322.447Z" fill="white"/>
<path d="M330.686 263.624C330.686 259.703 333.468 256.918 337.368 256.918C341.296 256.918 344.079 259.703 344.079 263.624C344.079 267.544 341.296 270.329 337.368 270.329C333.468 270.329 330.686 267.544 330.686 263.624ZM337.478 267.905C339.523 267.905 340.915 266.332 340.915 263.624C340.915 260.916 339.523 259.342 337.478 259.342H337.259C335.241 259.342 333.822 260.916 333.822 263.624C333.822 266.332 335.241 267.905 337.259 267.905H337.478Z" fill="white"/>
<path d="M362.055 257.176H365.165L361.128 270.071H357.636L354.991 260.606L352.399 270.071H348.88L344.707 257.176H347.898L350.735 267.054L353.299 257.176H356.627L359.328 267.002L362.055 257.176Z" fill="white"/>
<path d="M367.031 270.071V257.176H370.114V259.858C370.659 258.079 372.159 257.047 374.069 257.047H374.996V259.832H373.823C371.45 259.832 370.168 261.096 370.168 263.443V270.071H367.031Z" fill="white"/>
<path d="M222.051 254.175L218.492 252.238L222.051 250.301L225.611 252.238L222.051 254.175Z" fill="white"/>
<path d="M216.119 262.568V258.694L218.492 257.402L222.051 259.339L216.119 262.568Z" fill="white"/>
<path d="M232.727 259.987L229.168 258.05L232.727 256.113L236.287 258.05L232.727 259.987Z" fill="white"/>
<path d="M212.559 259.339L209 257.402L212.559 255.465L216.119 257.402L212.559 259.339Z" fill="white"/>
<path d="M212.559 259.339L209 257.402V263.859L212.559 265.796V259.339Z" fill="white"/>
<path d="M223.239 265.152L219.68 263.215V269.672L223.239 271.609V265.152Z" fill="white"/>
<path d="M222.051 254.175L218.492 252.238V258.695L222.051 259.341V254.175Z" fill="white"/>
<path d="M226.795 268.38V264.506L229.168 263.215L232.727 265.152L226.795 268.38Z" fill="white"/>
<path d="M232.727 259.988L229.168 258.051V263.216L232.727 265.153V259.988Z" fill="white"/>
<path d="M223.239 265.152L219.68 263.214L223.239 261.277L226.798 263.214L223.239 265.152Z" fill="white"/>
<path d="M209 266.445V262.57L223.237 270.319V274.193L209 266.445Z" fill="white"/>
<rect x="177" y="225" width="230" height="74" stroke="url(#paint0_linear_15417_4073)" stroke-width="2"/>
<path d="M292 168.725L477 168.725L477 119M292 168.725L107 168.726L107 119M292 168.725L292 226M292 168.725L292 119" stroke="#1D294E" stroke-width="2"/>
<path d="M292 356.275L477 356.275L477 406M292 356.275L107 356.274L107 406M292 356.275L292 299M292 356.275L292 406" stroke="#1D294E" stroke-width="2"/>
<rect x="75" y="55" width="64" height="64" fill="#040C25"/>
<path d="M114.197 85.2002C114.197 89.7484 107.001 95.9947 107.001 95.9947C107.001 95.9947 99.8047 89.7788 99.8047 85.2002C99.8047 80.6217 103.027 78.0039 107.001 78.0039C110.975 78.0039 114.197 80.6521 114.197 85.2002Z" stroke="white" stroke-width="2"/>
<path d="M104.846 88.2844V81.9844H103.766V88.2844H104.846Z" fill="white"/>
<path d="M107.465 88.2844V85.8904H109.148C110.345 85.8904 111.173 85.1704 111.173 83.9374C111.173 82.6954 110.345 81.9844 109.148 81.9844H106.385V88.2844H107.465ZM107.465 82.9474H109.013C109.715 82.9474 110.093 83.3164 110.093 83.9374C110.093 84.5494 109.715 84.9274 109.013 84.9274H107.465V82.9474Z" fill="white"/>
<path fill-rule="evenodd" clip-rule="evenodd" d="M105.044 88.4852H103.564V81.7852H105.044V88.4852ZM104.844 81.9852V88.2852H103.764V81.9852H104.844ZM107.664 88.4852H106.184V81.7852H109.147C109.784 81.7852 110.343 81.9749 110.744 82.3497C111.148 82.7263 111.372 83.2708 111.372 83.9382C111.372 84.6014 111.148 85.1456 110.745 85.523C110.344 85.8988 109.785 86.0912 109.147 86.0912H107.664V88.4852ZM107.464 88.2852H106.384V81.9852H109.147C110.344 81.9852 111.172 82.6962 111.172 83.9382C111.172 85.1712 110.344 85.8912 109.147 85.8912H107.464V88.2852ZM109.012 83.1482H107.664V84.7282H109.012C109.328 84.7282 109.543 84.6433 109.678 84.5168C109.811 84.3919 109.892 84.2023 109.892 83.9382C109.892 83.6689 109.811 83.4799 109.678 83.3566C109.544 83.2314 109.329 83.1482 109.012 83.1482ZM107.464 82.9482V84.9282H109.012C109.714 84.9282 110.092 84.5502 110.092 83.9382C110.092 83.3172 109.714 82.9482 109.012 82.9482H107.464Z" fill="white"/>
<rect x="75" y="55" width="64" height="64" stroke="#1D294E" stroke-width="2"/>
<rect x="75" y="406" width="64" height="64" fill="#040C25"/>
<path fill-rule="evenodd" clip-rule="evenodd" d="M98.5 429.836H99.5H114.5H115.5V430.836V441.219V442.219H114.5H108V444.168H112V446.168H102V444.168H106V442.219H99.5H98.5V441.219V430.836V429.836ZM100.5 431.836V440.219H113.5V431.836H100.5Z" fill="white"/>
<rect x="75" y="406" width="64" height="64" stroke="#1D294E" stroke-width="2"/>
<rect x="260" y="55" width="64" height="64" fill="#040C25"/>
<path fill-rule="evenodd" clip-rule="evenodd" d="M284.78 93.0044C284.748 93.577 284.888 93.8515 285.019 93.9826C285.15 94.1137 285.425 94.2534 285.997 94.2223C286.569 94.1911 287.322 93.9908 288.217 93.588C288.878 93.2904 289.59 92.8946 290.33 92.4092C289.673 91.8623 289.019 91.2655 288.378 90.6249C287.737 89.9839 287.14 89.3292 286.593 88.6722C286.107 89.4116 285.711 90.1238 285.414 90.7853C285.011 91.6803 284.811 92.4325 284.78 93.0044ZM289.037 95.4119C289.979 94.9882 290.981 94.407 292.001 93.6914C293.022 94.4075 294.025 94.989 294.967 95.4129C295.991 95.8739 296.993 96.1711 297.898 96.2203C298.801 96.2695 299.724 96.0722 300.399 95.3979C301.073 94.7235 301.27 93.8004 301.221 92.8968C301.172 91.9925 300.875 90.99 300.414 89.9656C299.99 89.0238 299.408 88.021 298.692 87.0005C299.408 85.9799 299.99 84.9771 300.414 84.0353C300.875 83.0109 301.172 82.0084 301.221 81.1041C301.27 80.2006 301.073 79.2774 300.399 78.6031C299.724 77.9287 298.801 77.7314 297.898 77.7806C296.993 77.8298 295.991 78.127 294.967 78.588C294.025 79.0119 293.022 79.5934 292.001 80.3095C290.981 79.5939 289.979 79.0127 289.037 78.589C288.013 78.1281 287.01 77.8308 286.106 77.7816C285.203 77.7324 284.279 77.9297 283.605 78.6041C282.931 79.2784 282.733 80.2016 282.783 81.1052C282.832 82.0094 283.129 83.0119 283.59 84.0363C284.014 84.9778 284.595 85.9803 285.311 87.0005C284.595 88.0206 284.014 89.0231 283.59 89.9646C283.129 90.989 282.832 91.9915 282.783 92.8957C282.733 93.7993 282.931 94.7225 283.605 95.3968C284.279 96.0712 285.203 96.2685 286.106 96.2193C287.01 96.1701 288.013 95.8728 289.037 95.4119ZM298.59 90.7863C298.292 90.1245 297.896 89.4119 297.41 88.6721C296.863 89.3288 296.266 89.9832 295.626 90.6239C294.985 91.2649 294.33 91.8621 293.673 92.4093C294.413 92.8951 295.125 93.2912 295.787 93.589C296.682 93.9918 297.434 94.1922 298.006 94.2233C298.579 94.2544 298.853 94.1147 298.985 93.9836C299.116 93.8525 299.255 93.578 299.224 93.0054C299.193 92.4335 298.993 91.6813 298.59 90.7863ZM294.212 89.2097C294.943 88.4779 295.606 87.7346 296.193 87.0005C295.606 86.2663 294.943 85.523 294.212 84.7913C293.479 84.0591 292.736 83.3958 292.001 82.8088C291.267 83.3955 290.524 84.0585 289.792 84.7902C289.06 85.5223 288.397 86.2659 287.81 87.0005C288.397 87.735 289.06 88.4786 289.792 89.2107C290.524 89.9424 291.267 90.6054 292.001 91.1921C292.736 90.6051 293.479 89.9418 294.212 89.2097ZM298.59 83.2146C298.292 83.8764 297.896 84.589 297.41 85.3289C296.863 84.6721 296.266 84.0177 295.626 83.377C294.985 82.736 294.33 82.1388 293.673 81.5916C294.413 81.1058 295.125 80.7097 295.787 80.4119C296.682 80.0091 297.434 79.8087 298.006 79.7776C298.579 79.7465 298.853 79.8862 298.985 80.0173C299.116 80.1484 299.255 80.4229 299.224 80.9955C299.193 81.5674 298.993 82.3196 298.59 83.2146ZM288.217 80.4129C288.878 80.7105 289.59 81.1063 290.33 81.5917C289.673 82.1386 289.019 82.7354 288.378 83.376C287.737 84.017 287.14 84.6717 286.593 85.3287C286.107 84.5893 285.711 83.8771 285.414 83.2156C285.011 82.3206 284.811 81.5684 284.78 80.9965C284.748 80.4239 284.888 80.1494 285.019 80.0183C285.15 79.8872 285.425 79.7475 285.997 79.7786C286.569 79.8098 287.322 80.0101 288.217 80.4129ZM293.126 87.0005C293.126 87.6218 292.622 88.1255 292.001 88.1255C291.379 88.1255 290.876 87.6218 290.876 87.0005C290.876 86.3791 291.379 85.8755 292.001 85.8755C292.622 85.8755 293.126 86.3791 293.126 87.0005Z" fill="white"/>
<rect x="260" y="55" width="64" height="64" stroke="#1D294E" stroke-width="2"/>
<rect x="260" y="406" width="64" height="64" fill="#040C25"/>
<path fill-rule="evenodd" clip-rule="evenodd" d="M292.504 427.388L292 427.094L291.496 427.388L282.496 432.638L281.016 433.501L282.496 434.365L284.87 435.75L282.496 437.135L281.016 437.999L282.496 438.862L284.873 440.249L282.496 441.635L281.016 442.499L282.496 443.362L291.496 448.612L292 448.906L292.504 448.612L301.504 443.362L302.985 442.499L301.504 441.635L299.128 440.249L301.504 438.862L302.985 437.999L301.504 437.135L299.13 435.75L301.504 434.365L302.985 433.501L301.504 432.638L292.504 427.388ZM297.146 436.908L292.504 439.615L292 439.909L291.496 439.615L286.855 436.908L284.985 437.999L292 442.091L299.016 437.999L297.146 436.908ZM292 437.594L284.985 433.501L292 429.409L299.016 433.501L292 437.594ZM284.985 442.499L286.857 441.406L291.496 444.112L292 444.406L292.504 444.112L297.143 441.406L299.016 442.499L292 446.591L284.985 442.499Z" fill="white"/>
<rect x="260" y="406" width="64" height="64" stroke="#1D294E" stroke-width="2"/>
<rect x="445" y="55" width="64" height="64" fill="#040C25"/>
<g clip-path="url(#clip0_15417_4073)">
<path fill-rule="evenodd" clip-rule="evenodd" d="M480.939 79.092L481.281 78.1522L479.401 77.4688L479.06 78.4085L473.06 94.9085L472.718 95.8483L474.598 96.5318L474.939 95.592L480.939 79.092ZM472.408 83.3783L471.64 84.0185L468.062 87.0003L471.64 89.9821L472.408 90.6222L471.128 92.1587L470.359 91.5185L465.859 87.7685L464.938 87.0003L465.859 86.2321L470.359 82.4821L471.128 81.8419L472.408 83.3783ZM482.872 81.8419L483.64 82.4821L488.14 86.2321L489.062 87.0003L488.14 87.7685L483.64 91.5185L482.872 92.1587L481.591 90.6222L482.359 89.9821L485.938 87.0003L482.359 84.0185L481.591 83.3783L482.872 81.8419Z" fill="white"/>
</g>
<rect x="445" y="55" width="64" height="64" stroke="#1D294E" stroke-width="2"/>
<rect x="445" y="406" width="64" height="64" fill="#040C25"/>
<g clip-path="url(#clip1_15417_4073)">
<path d="M477 447C481.971 447 486 442.971 486 438C486 433.029 481.971 429 477 429C472.029 429 468 433.029 468 438C468 442.971 472.029 447 477 447Z" stroke="white" stroke-width="2" stroke-miterlimit="10"/>
<path d="M468 438H486" stroke="white" stroke-width="2" stroke-linecap="round" stroke-linejoin="round"/>
<path d="M477 446.755C479.071 446.755 480.75 442.834 480.75 437.998C480.75 433.162 479.071 429.242 477 429.242C474.929 429.242 473.25 433.162 473.25 437.998C473.25 442.834 474.929 446.755 477 446.755Z" stroke="white" stroke-width="2" stroke-miterlimit="10"/>
</g>
<rect x="445" y="406" width="64" height="64" stroke="#1D294E" stroke-width="2"/>
<rect width="28" height="28" transform="translate(93 154)" fill="#040C25"/>
<rect width="12" height="12" transform="matrix(-1 0 0 1 113 162)" stroke="#1D32F4" stroke-width="2"/>
<rect width="28" height="28" transform="translate(93 343)" fill="#040C25"/>
<rect width="12" height="12" transform="matrix(-1 0 0 1 113 351)" stroke="#1D32F4" stroke-width="2"/>
<rect width="28" height="28" transform="translate(278 154)" fill="#040C25"/>
<rect width="12" height="12" transform="matrix(-1 0 0 1 298 162)" stroke="#1D32F4" stroke-width="2"/>
<rect width="28" height="28" transform="translate(278 343)" fill="#040C25"/>
<rect width="12" height="12" transform="matrix(-1 0 0 1 298 351)" stroke="#1D32F4" stroke-width="2"/>
<rect width="28" height="28" transform="translate(463 154)" fill="#040C25"/>
<rect width="12" height="12" transform="matrix(-1 0 0 1 483 162)" stroke="#1D32F4" stroke-width="2"/>
<rect width="28" height="28" transform="translate(463 343)" fill="#040C25"/>
<rect width="12" height="12" transform="matrix(-1 0 0 1 483 351)" stroke="#1D32F4" stroke-width="2"/>
<defs>
<linearGradient id="paint0_linear_15417_4073" x1="177" y1="218.948" x2="229.922" y2="400.579" gradientUnits="userSpaceOnUse">
<stop stop-color="#1D32F4" stop-opacity="0"/>
<stop offset="1" stop-color="#1D32F4"/>
</linearGradient>
<clipPath id="clip0_15417_4073">
<rect width="24" height="24" fill="white" transform="translate(465 75)"/>
</clipPath>
<clipPath id="clip1_15417_4073">
<rect width="24" height="24" fill="white" transform="translate(465 426)"/>
</clipPath>
</defs>
</svg>
