<svg width="584" height="524" viewBox="0 0 584 524" fill="none" xmlns="http://www.w3.org/2000/svg">
<g clip-path="url(#clip0_15417_4072)">
<rect x="58" y="348" width="64" height="64" fill="#040C25"/>
<rect x="80" y="370" width="6" height="6" stroke="white" stroke-width="2"/>
<rect x="87" y="384" width="6" height="6" stroke="white" stroke-width="2"/>
<path d="M83 377V380H90M97 377V380H90M90 380V383" stroke="white" stroke-width="2"/>
<rect x="94" y="370" width="6" height="6" stroke="white" stroke-width="2"/>
<rect x="58" y="348" width="64" height="64" stroke="#E00000" stroke-width="2"/>
<rect x="201" y="65" width="497" height="54" fill="#1D294E"/>
<circle cx="226.5" cy="43.5" r="5.5" fill="#1D32F4"/>
<circle cx="246.5" cy="43.5" r="5" stroke="#D9D9D9"/>
<circle cx="267.5" cy="43.5" r="5" stroke="#D9D9D9"/>
<rect x="293" y="31" width="240" height="34" fill="#1D294E"/>
<path d="M555 41V52.5" stroke="white" stroke-width="2"/>
<path d="M510.684 42.6836L518.815 50.8153" stroke="white" stroke-width="2"/>
<path d="M549.25 46.75L560.75 46.75" stroke="white" stroke-width="2"/>
<path d="M510.684 50.8164L518.815 42.6847" stroke="white" stroke-width="2"/>
<path d="M234.5 92.5H223M223 92.5L228.5 87M223 92.5L228.5 98" stroke="white" stroke-width="2"/>
<path d="M248 91.5L259.5 91.5M259.5 91.5L254 97M259.5 91.5L254 86" stroke="white" stroke-width="2"/>
<rect x="293.5" y="77.5" width="404" height="29" fill="#1D284E" stroke="#283563"/>
<path d="M307.761 96.1449C307.347 96.1449 306.972 96.0682 306.636 95.9148C306.301 95.7585 306.036 95.5327 305.839 95.2372C305.646 94.9418 305.55 94.5795 305.55 94.1506C305.55 93.7812 305.621 93.4773 305.763 93.2386C305.905 93 306.097 92.8111 306.338 92.6719C306.58 92.5327 306.849 92.4276 307.148 92.3565C307.446 92.2855 307.75 92.2315 308.06 92.1946C308.452 92.1491 308.77 92.1122 309.014 92.0838C309.259 92.0526 309.436 92.0028 309.547 91.9347C309.658 91.8665 309.713 91.7557 309.713 91.6023V91.5724C309.713 91.2003 309.608 90.9119 309.398 90.7074C309.19 90.5028 308.881 90.4006 308.469 90.4006C308.04 90.4006 307.702 90.4957 307.455 90.6861C307.21 90.8736 307.041 91.0824 306.947 91.3125L305.75 91.0398C305.892 90.642 306.099 90.321 306.372 90.0767C306.648 89.8295 306.964 89.6506 307.322 89.5398C307.68 89.4261 308.057 89.3693 308.452 89.3693C308.713 89.3693 308.99 89.4006 309.283 89.4631C309.578 89.5227 309.854 89.6335 310.109 89.7955C310.368 89.9574 310.58 90.1889 310.744 90.4901C310.909 90.7884 310.991 91.1761 310.991 91.6534V96H309.747V95.1051H309.696C309.614 95.2699 309.49 95.4318 309.325 95.5909C309.161 95.75 308.949 95.8821 308.69 95.9872C308.432 96.0923 308.122 96.1449 307.761 96.1449ZM308.038 95.1222C308.391 95.1222 308.692 95.0526 308.942 94.9134C309.195 94.7741 309.386 94.5923 309.517 94.3679C309.651 94.1406 309.717 93.8977 309.717 93.6392V92.7955C309.672 92.8409 309.584 92.8835 309.453 92.9233C309.325 92.9602 309.179 92.9929 309.014 93.0213C308.849 93.0469 308.689 93.071 308.533 93.0938C308.376 93.1136 308.246 93.1307 308.141 93.1449C307.893 93.1761 307.668 93.2287 307.463 93.3026C307.261 93.3764 307.099 93.483 306.977 93.6222C306.858 93.7585 306.798 93.9403 306.798 94.1676C306.798 94.483 306.915 94.7216 307.148 94.8835C307.381 95.0426 307.678 95.1222 308.038 95.1222ZM315.686 96.1321C315.052 96.1321 314.507 95.9886 314.049 95.7017C313.595 95.4119 313.245 95.0128 313.001 94.5043C312.757 93.9957 312.635 93.4134 312.635 92.7571C312.635 92.0923 312.76 91.5057 313.01 90.9972C313.26 90.4858 313.612 90.0866 314.066 89.7997C314.521 89.5128 315.056 89.3693 315.673 89.3693C316.17 89.3693 316.613 89.4616 317.002 89.6463C317.392 89.8281 317.706 90.0838 317.944 90.4134C318.186 90.7429 318.329 91.1278 318.375 91.5682H317.135C317.066 91.2614 316.91 90.9972 316.666 90.7756C316.424 90.554 316.1 90.4432 315.694 90.4432C315.339 90.4432 315.028 90.5369 314.761 90.7244C314.497 90.9091 314.291 91.1733 314.143 91.517C313.995 91.858 313.921 92.2614 313.921 92.7273C313.921 93.2045 313.994 93.6165 314.139 93.9631C314.284 94.3097 314.488 94.5781 314.752 94.7685C315.019 94.9588 315.333 95.054 315.694 95.054C315.936 95.054 316.154 95.0099 316.35 94.9219C316.549 94.831 316.715 94.7017 316.849 94.5341C316.985 94.3665 317.081 94.1648 317.135 93.929H318.375C318.329 94.3523 318.191 94.7301 317.961 95.0625C317.731 95.3949 317.423 95.6562 317.037 95.8466C316.653 96.0369 316.203 96.1321 315.686 96.1321ZM319.977 96V89.4545H321.2V90.5199H321.281C321.417 90.1591 321.641 89.8778 321.95 89.6761C322.26 89.4716 322.631 89.3693 323.062 89.3693C323.5 89.3693 323.866 89.4716 324.162 89.6761C324.46 89.8807 324.68 90.1619 324.822 90.5199H324.891C325.047 90.1705 325.295 89.892 325.636 89.6847C325.977 89.4744 326.383 89.3693 326.855 89.3693C327.449 89.3693 327.933 89.5554 328.308 89.9276C328.686 90.2997 328.875 90.8608 328.875 91.6108V96H327.601V91.7301C327.601 91.2869 327.48 90.9659 327.239 90.767C326.997 90.5682 326.709 90.4688 326.373 90.4688C325.959 90.4688 325.636 90.5966 325.406 90.8523C325.176 91.1051 325.061 91.4304 325.061 91.8281V96H323.791V91.6491C323.791 91.294 323.68 91.0085 323.459 90.7926C323.237 90.5767 322.949 90.4688 322.594 90.4688C322.352 90.4688 322.129 90.5327 321.925 90.6605C321.723 90.7855 321.56 90.9602 321.435 91.1847C321.312 91.4091 321.251 91.669 321.251 91.9645V96H319.977ZM333.644 96.1321C332.999 96.1321 332.443 95.9943 331.977 95.7188C331.514 95.4403 331.156 95.0497 330.904 94.5469C330.654 94.0412 330.529 93.4489 330.529 92.7699C330.529 92.0994 330.654 91.5085 330.904 90.9972C331.156 90.4858 331.509 90.0866 331.96 89.7997C332.415 89.5128 332.946 89.3693 333.554 89.3693C333.923 89.3693 334.281 89.4304 334.628 89.5526C334.975 89.6747 335.286 89.8665 335.561 90.1278C335.837 90.3892 336.054 90.7287 336.213 91.1463C336.372 91.5611 336.452 92.0653 336.452 92.6591V93.1108H331.249V92.1562H335.203C335.203 91.821 335.135 91.5241 334.999 91.2656C334.862 91.0043 334.671 90.7983 334.423 90.6477C334.179 90.4972 333.892 90.4219 333.563 90.4219C333.205 90.4219 332.892 90.5099 332.625 90.6861C332.361 90.8594 332.156 91.0866 332.012 91.3679C331.87 91.6463 331.798 91.9489 331.798 92.2756V93.0213C331.798 93.4588 331.875 93.831 332.029 94.1378C332.185 94.4446 332.402 94.679 332.681 94.8409C332.959 95 333.284 95.0795 333.656 95.0795C333.898 95.0795 334.118 95.0455 334.317 94.9773C334.516 94.9062 334.688 94.8011 334.833 94.6619C334.977 94.5227 335.088 94.3509 335.165 94.1463L336.371 94.3636C336.274 94.7187 336.101 95.0298 335.851 95.2969C335.604 95.5611 335.293 95.767 334.918 95.9148C334.546 96.0597 334.121 96.1321 333.644 96.1321ZM338.945 96.081C338.712 96.081 338.512 95.9986 338.344 95.8338C338.177 95.6662 338.093 95.4645 338.093 95.2287C338.093 94.9957 338.177 94.7969 338.344 94.6321C338.512 94.4645 338.712 94.3807 338.945 94.3807C339.178 94.3807 339.378 94.4645 339.546 94.6321C339.714 94.7969 339.797 94.9957 339.797 95.2287C339.797 95.3849 339.758 95.5284 339.678 95.6591C339.601 95.7869 339.499 95.8892 339.371 95.9659C339.243 96.0426 339.101 96.081 338.945 96.081ZM344.501 96.1321C343.868 96.1321 343.322 95.9886 342.865 95.7017C342.41 95.4119 342.061 95.0128 341.816 94.5043C341.572 93.9957 341.45 93.4134 341.45 92.7571C341.45 92.0923 341.575 91.5057 341.825 90.9972C342.075 90.4858 342.427 90.0866 342.882 89.7997C343.336 89.5128 343.872 89.3693 344.488 89.3693C344.986 89.3693 345.429 89.4616 345.818 89.6463C346.207 89.8281 346.521 90.0838 346.76 90.4134C347.001 90.7429 347.145 91.1278 347.19 91.5682H345.95C345.882 91.2614 345.726 90.9972 345.481 90.7756C345.24 90.554 344.916 90.4432 344.51 90.4432C344.155 90.4432 343.843 90.5369 343.576 90.7244C343.312 90.9091 343.106 91.1733 342.959 91.517C342.811 91.858 342.737 92.2614 342.737 92.7273C342.737 93.2045 342.809 93.6165 342.954 93.9631C343.099 94.3097 343.304 94.5781 343.568 94.7685C343.835 94.9588 344.149 95.054 344.51 95.054C344.751 95.054 344.97 95.0099 345.166 94.9219C345.365 94.831 345.531 94.7017 345.664 94.5341C345.801 94.3665 345.896 94.1648 345.95 93.929H347.19C347.145 94.3523 347.007 94.7301 346.777 95.0625C346.547 95.3949 346.238 95.6562 345.852 95.8466C345.468 96.0369 345.018 96.1321 344.501 96.1321ZM351.55 96.1321C350.936 96.1321 350.401 95.9915 349.943 95.7102C349.486 95.429 349.131 95.0355 348.878 94.5298C348.625 94.0241 348.499 93.4332 348.499 92.7571C348.499 92.0781 348.625 91.4844 348.878 90.9759C349.131 90.4673 349.486 90.0724 349.943 89.7912C350.401 89.5099 350.936 89.3693 351.55 89.3693C352.163 89.3693 352.699 89.5099 353.156 89.7912C353.614 90.0724 353.969 90.4673 354.222 90.9759C354.474 91.4844 354.601 92.0781 354.601 92.7571C354.601 93.4332 354.474 94.0241 354.222 94.5298C353.969 95.0355 353.614 95.429 353.156 95.7102C352.699 95.9915 352.163 96.1321 351.55 96.1321ZM351.554 95.0625C351.952 95.0625 352.281 94.9574 352.543 94.7472C352.804 94.5369 352.997 94.2571 353.122 93.9077C353.25 93.5582 353.314 93.1733 353.314 92.7528C353.314 92.3352 353.25 91.9517 353.122 91.6023C352.997 91.25 352.804 90.9673 352.543 90.7543C352.281 90.5412 351.952 90.4347 351.554 90.4347C351.153 90.4347 350.821 90.5412 350.557 90.7543C350.295 90.9673 350.101 91.25 349.973 91.6023C349.848 91.9517 349.786 92.3352 349.786 92.7528C349.786 93.1733 349.848 93.5582 349.973 93.9077C350.101 94.2571 350.295 94.5369 350.557 94.7472C350.821 94.9574 351.153 95.0625 351.554 95.0625ZM356.263 96V89.4545H357.486V90.5199H357.567C357.703 90.1591 357.926 89.8778 358.236 89.6761C358.546 89.4716 358.917 89.3693 359.348 89.3693C359.786 89.3693 360.152 89.4716 360.448 89.6761C360.746 89.8807 360.966 90.1619 361.108 90.5199H361.176C361.333 90.1705 361.581 89.892 361.922 89.6847C362.263 89.4744 362.669 89.3693 363.141 89.3693C363.735 89.3693 364.219 89.5554 364.594 89.9276C364.972 90.2997 365.161 90.8608 365.161 91.6108V96H363.887V91.7301C363.887 91.2869 363.766 90.9659 363.524 90.767C363.283 90.5682 362.995 90.4688 362.659 90.4688C362.245 90.4688 361.922 90.5966 361.692 90.8523C361.462 91.1051 361.347 91.4304 361.347 91.8281V96H360.077V91.6491C360.077 91.294 359.966 91.0085 359.745 90.7926C359.523 90.5767 359.235 90.4688 358.88 90.4688C358.638 90.4688 358.415 90.5327 358.211 90.6605C358.009 90.7855 357.845 90.9602 357.72 91.1847C357.598 91.4091 357.537 91.669 357.537 91.9645V96H356.263Z" fill="white"/>
<a href="https://www.bankofamerica.com/">
<rect fill="black" fill-opacity="0" y="0.738636" width="6.83097" height="14.5227"/>
</a>
<path d="M332.696 52H331.298L334.439 43.2727H335.96L339.101 52H337.703L335.236 44.858H335.168L332.696 52ZM332.93 48.5824H337.464V49.6903H332.93V48.5824ZM347.44 46.1108H346.11C346.059 45.8267 345.964 45.5767 345.825 45.3608C345.685 45.1449 345.515 44.9616 345.313 44.8111C345.111 44.6605 344.886 44.5469 344.636 44.4702C344.388 44.3935 344.126 44.3551 343.847 44.3551C343.344 44.3551 342.894 44.4815 342.496 44.7344C342.102 44.9872 341.789 45.358 341.559 45.8466C341.332 46.3352 341.218 46.9318 341.218 47.6364C341.218 48.3466 341.332 48.946 341.559 49.4347C341.789 49.9233 342.103 50.2926 342.501 50.5426C342.898 50.7926 343.346 50.9176 343.843 50.9176C344.119 50.9176 344.38 50.8807 344.627 50.8068C344.877 50.7301 345.103 50.6179 345.305 50.4702C345.506 50.3224 345.677 50.142 345.816 49.929C345.958 49.7131 346.056 49.4659 346.11 49.1875L347.44 49.1918C347.369 49.6207 347.231 50.0156 347.026 50.3764C346.825 50.7344 346.565 51.044 346.246 51.3054C345.931 51.5639 345.57 51.7642 345.164 51.9062C344.758 52.0483 344.315 52.1193 343.834 52.1193C343.079 52.1193 342.405 51.9403 341.815 51.5824C341.224 51.2216 340.758 50.706 340.417 50.0355C340.079 49.3651 339.91 48.5653 339.91 47.6364C339.91 46.7045 340.08 45.9048 340.421 45.2372C340.762 44.5668 341.228 44.0526 341.819 43.6946C342.41 43.3338 343.082 43.1534 343.834 43.1534C344.298 43.1534 344.729 43.2202 345.13 43.3537C345.533 43.4844 345.896 43.6776 346.217 43.9332C346.538 44.1861 346.803 44.4957 347.013 44.8622C347.224 45.2259 347.366 45.642 347.44 46.1108ZM349.255 43.2727H350.853L353.632 50.0568H353.734L356.512 43.2727H358.11V52H356.857V45.6847H356.777L354.203 51.9872H353.163L350.589 45.6804H350.508V52H349.255V43.2727ZM360.265 52V43.2727H365.736V44.4062H361.582V47.0653H365.451V48.1946H361.582V50.8665H365.787V52H360.265ZM378.732 47.6364C378.732 48.5682 378.562 49.3693 378.221 50.0398C377.88 50.7074 377.412 51.2216 376.819 51.5824C376.228 51.9403 375.556 52.1193 374.803 52.1193C374.047 52.1193 373.373 51.9403 372.779 51.5824C372.188 51.2216 371.722 50.706 371.381 50.0355C371.04 49.3651 370.87 48.5653 370.87 47.6364C370.87 46.7045 371.04 45.9048 371.381 45.2372C371.722 44.5668 372.188 44.0526 372.779 43.6946C373.373 43.3338 374.047 43.1534 374.803 43.1534C375.556 43.1534 376.228 43.3338 376.819 43.6946C377.412 44.0526 377.88 44.5668 378.221 45.2372C378.562 45.9048 378.732 46.7045 378.732 47.6364ZM377.428 47.6364C377.428 46.9261 377.313 46.3281 377.083 45.8423C376.856 45.3537 376.543 44.9844 376.145 44.7344C375.75 44.4815 375.303 44.3551 374.803 44.3551C374.3 44.3551 373.851 44.4815 373.456 44.7344C373.062 44.9844 372.749 45.3537 372.519 45.8423C372.292 46.3281 372.178 46.9261 372.178 47.6364C372.178 48.3466 372.292 48.946 372.519 49.4347C372.749 49.9205 373.062 50.2898 373.456 50.5426C373.851 50.7926 374.3 50.9176 374.803 50.9176C375.303 50.9176 375.75 50.7926 376.145 50.5426C376.543 50.2898 376.856 49.9205 377.083 49.4347C377.313 48.946 377.428 48.3466 377.428 47.6364ZM380.511 52V45.4545H381.743V46.4943H381.811C381.93 46.142 382.141 45.8651 382.442 45.6634C382.746 45.4588 383.09 45.3565 383.473 45.3565C383.553 45.3565 383.646 45.3594 383.754 45.3651C383.865 45.3707 383.952 45.3778 384.014 45.3864V46.6051C383.963 46.5909 383.872 46.5753 383.741 46.5582C383.611 46.5384 383.48 46.5284 383.349 46.5284C383.048 46.5284 382.78 46.5923 382.544 46.7202C382.311 46.8452 382.126 47.0199 381.99 47.2443C381.854 47.4659 381.786 47.7187 381.786 48.0028V52H380.511ZM387.867 54.5909C387.347 54.5909 386.899 54.5227 386.524 54.3864C386.152 54.25 385.848 54.0696 385.613 53.8452C385.377 53.6207 385.201 53.375 385.084 53.108L386.179 52.6562C386.256 52.7812 386.358 52.9134 386.486 53.0526C386.617 53.1946 386.793 53.3153 387.015 53.4148C387.239 53.5142 387.527 53.5639 387.88 53.5639C388.363 53.5639 388.762 53.446 389.077 53.2102C389.392 52.9773 389.55 52.6051 389.55 52.0938V50.8068H389.469C389.392 50.946 389.282 51.1009 389.137 51.2713C388.995 51.4418 388.799 51.5895 388.549 51.7145C388.299 51.8395 387.973 51.902 387.573 51.902C387.056 51.902 386.59 51.7812 386.175 51.5398C385.763 51.2955 385.436 50.9361 385.195 50.4616C384.956 49.9844 384.837 49.3977 384.837 48.7017C384.837 48.0057 384.955 47.4091 385.191 46.9119C385.429 46.4148 385.756 46.0341 386.171 45.7699C386.586 45.5028 387.056 45.3693 387.581 45.3693C387.988 45.3693 388.316 45.4375 388.566 45.5739C388.816 45.7074 389.01 45.8636 389.149 46.0426C389.292 46.2216 389.401 46.3793 389.478 46.5156H389.571V45.4545H390.82V52.1449C390.82 52.7074 390.689 53.169 390.428 53.5298C390.167 53.8906 389.813 54.1577 389.367 54.331C388.924 54.5043 388.424 54.5909 387.867 54.5909ZM387.854 50.8452C388.22 50.8452 388.53 50.7599 388.783 50.5895C389.039 50.4162 389.232 50.169 389.363 49.848C389.496 49.5241 389.563 49.1364 389.563 48.6847C389.563 48.2443 389.497 47.8565 389.367 47.5213C389.236 47.1861 389.044 46.9247 388.792 46.7372C388.539 46.5469 388.226 46.4517 387.854 46.4517C387.47 46.4517 387.151 46.5511 386.895 46.75C386.64 46.946 386.446 47.2131 386.316 47.5511C386.188 47.8892 386.124 48.267 386.124 48.6847C386.124 49.1136 386.189 49.4901 386.32 49.8139C386.451 50.1378 386.644 50.3906 386.899 50.5724C387.158 50.7543 387.476 50.8452 387.854 50.8452ZM394.674 52.1449C394.259 52.1449 393.884 52.0682 393.549 51.9148C393.213 51.7585 392.948 51.5327 392.752 51.2372C392.558 50.9418 392.462 50.5795 392.462 50.1506C392.462 49.7812 392.533 49.4773 392.675 49.2386C392.817 49 393.009 48.8111 393.25 48.6719C393.492 48.5327 393.762 48.4276 394.06 48.3565C394.358 48.2855 394.662 48.2315 394.972 48.1946C395.364 48.1491 395.682 48.1122 395.926 48.0838C396.171 48.0526 396.348 48.0028 396.459 47.9347C396.57 47.8665 396.625 47.7557 396.625 47.6023V47.5724C396.625 47.2003 396.52 46.9119 396.31 46.7074C396.103 46.5028 395.793 46.4006 395.381 46.4006C394.952 46.4006 394.614 46.4957 394.367 46.6861C394.122 46.8736 393.953 47.0824 393.86 47.3125L392.662 47.0398C392.804 46.642 393.012 46.321 393.284 46.0767C393.56 45.8295 393.877 45.6506 394.235 45.5398C394.593 45.4261 394.969 45.3693 395.364 45.3693C395.625 45.3693 395.902 45.4006 396.195 45.4631C396.49 45.5227 396.766 45.6335 397.022 45.7955C397.28 45.9574 397.492 46.1889 397.657 46.4901C397.821 46.7884 397.904 47.1761 397.904 47.6534V52H396.659V51.1051H396.608C396.526 51.2699 396.402 51.4318 396.237 51.5909C396.073 51.75 395.861 51.8821 395.603 51.9872C395.344 52.0923 395.034 52.1449 394.674 52.1449ZM394.951 51.1222C395.303 51.1222 395.604 51.0526 395.854 50.9134C396.107 50.7741 396.299 50.5923 396.429 50.3679C396.563 50.1406 396.63 49.8977 396.63 49.6392V48.7955C396.584 48.8409 396.496 48.8835 396.365 48.9233C396.237 48.9602 396.091 48.9929 395.926 49.0213C395.762 49.0469 395.601 49.071 395.445 49.0938C395.289 49.1136 395.158 49.1307 395.053 49.1449C394.806 49.1761 394.58 49.2287 394.375 49.3026C394.174 49.3764 394.012 49.483 393.889 49.6222C393.77 49.7585 393.71 49.9403 393.71 50.1676C393.71 50.483 393.827 50.7216 394.06 50.8835C394.293 51.0426 394.59 51.1222 394.951 51.1222ZM401.115 48.1136V52H399.841V45.4545H401.064V46.5199H401.145C401.295 46.1733 401.531 45.8949 401.852 45.6847C402.176 45.4744 402.584 45.3693 403.075 45.3693C403.521 45.3693 403.912 45.4631 404.247 45.6506C404.582 45.8352 404.842 46.1108 405.027 46.4773C405.211 46.8437 405.304 47.2969 405.304 47.8366V52H404.03V47.9901C404.03 47.5156 403.906 47.1449 403.659 46.8778C403.412 46.608 403.072 46.473 402.64 46.473C402.345 46.473 402.082 46.5369 401.852 46.6648C401.625 46.7926 401.444 46.9801 401.311 47.2273C401.18 47.4716 401.115 47.767 401.115 48.1136ZM407.253 52V45.4545H408.527V52H407.253ZM407.896 44.4446C407.675 44.4446 407.484 44.3707 407.325 44.223C407.169 44.0724 407.091 43.8935 407.091 43.6861C407.091 43.4759 407.169 43.2969 407.325 43.1491C407.484 42.9986 407.675 42.9233 407.896 42.9233C408.118 42.9233 408.307 42.9986 408.463 43.1491C408.622 43.2969 408.701 43.4759 408.701 43.6861C408.701 43.8935 408.622 44.0724 408.463 44.223C408.307 44.3707 408.118 44.4446 407.896 44.4446ZM415.386 47.0526L414.231 47.2571C414.183 47.1094 414.106 46.9687 414.001 46.8352C413.899 46.7017 413.759 46.5923 413.583 46.5071C413.407 46.4219 413.187 46.3793 412.923 46.3793C412.562 46.3793 412.261 46.4602 412.019 46.6222C411.778 46.7812 411.657 46.9872 411.657 47.2401C411.657 47.4588 411.738 47.6349 411.9 47.7685C412.062 47.902 412.323 48.0114 412.684 48.0966L413.724 48.3352C414.326 48.4744 414.775 48.6889 415.07 48.9787C415.366 49.2685 415.514 49.6449 415.514 50.108C415.514 50.5 415.4 50.8494 415.173 51.1562C414.948 51.4602 414.634 51.6989 414.231 51.8722C413.83 52.0455 413.366 52.1321 412.837 52.1321C412.104 52.1321 411.506 51.9759 411.043 51.6634C410.58 51.348 410.296 50.9006 410.191 50.321L411.423 50.1335C411.499 50.4545 411.657 50.6974 411.896 50.8622C412.134 51.0241 412.445 51.1051 412.829 51.1051C413.247 51.1051 413.58 51.0185 413.83 50.8452C414.08 50.669 414.205 50.4545 414.205 50.2017C414.205 49.9972 414.129 49.8253 413.975 49.6861C413.825 49.5469 413.593 49.4418 413.281 49.3707L412.173 49.1278C411.562 48.9886 411.11 48.767 410.818 48.4631C410.528 48.1591 410.383 47.7741 410.383 47.3082C410.383 46.9219 410.491 46.5838 410.707 46.294C410.923 46.0043 411.221 45.7784 411.602 45.6165C411.982 45.4517 412.418 45.3693 412.91 45.3693C413.617 45.3693 414.174 45.5227 414.58 45.8295C414.987 46.1335 415.255 46.5412 415.386 47.0526ZM419.059 52.1449C418.645 52.1449 418.27 52.0682 417.934 51.9148C417.599 51.7585 417.333 51.5327 417.137 51.2372C416.944 50.9418 416.848 50.5795 416.848 50.1506C416.848 49.7812 416.919 49.4773 417.061 49.2386C417.203 49 417.395 48.8111 417.636 48.6719C417.878 48.5327 418.147 48.4276 418.446 48.3565C418.744 48.2855 419.048 48.2315 419.358 48.1946C419.75 48.1491 420.068 48.1122 420.312 48.0838C420.556 48.0526 420.734 48.0028 420.845 47.9347C420.956 47.8665 421.011 47.7557 421.011 47.6023V47.5724C421.011 47.2003 420.906 46.9119 420.696 46.7074C420.488 46.5028 420.179 46.4006 419.767 46.4006C419.338 46.4006 419 46.4957 418.753 46.6861C418.508 46.8736 418.339 47.0824 418.245 47.3125L417.048 47.0398C417.19 46.642 417.397 46.321 417.67 46.0767C417.946 45.8295 418.262 45.6506 418.62 45.5398C418.978 45.4261 419.355 45.3693 419.75 45.3693C420.011 45.3693 420.288 45.4006 420.581 45.4631C420.876 45.5227 421.152 45.6335 421.407 45.7955C421.666 45.9574 421.878 46.1889 422.042 46.4901C422.207 46.7884 422.289 47.1761 422.289 47.6534V52H421.045V51.1051H420.994C420.912 51.2699 420.788 51.4318 420.623 51.5909C420.458 51.75 420.247 51.8821 419.988 51.9872C419.73 52.0923 419.42 52.1449 419.059 52.1449ZM419.336 51.1222C419.689 51.1222 419.99 51.0526 420.24 50.9134C420.493 50.7741 420.684 50.5923 420.815 50.3679C420.949 50.1406 421.015 49.8977 421.015 49.6392V48.7955C420.97 48.8409 420.882 48.8835 420.751 48.9233C420.623 48.9602 420.477 48.9929 420.312 49.0213C420.147 49.0469 419.987 49.071 419.831 49.0938C419.674 49.1136 419.544 49.1307 419.439 49.1449C419.191 49.1761 418.966 49.2287 418.761 49.3026C418.559 49.3764 418.397 49.483 418.275 49.6222C418.156 49.7585 418.096 49.9403 418.096 50.1676C418.096 50.483 418.213 50.7216 418.446 50.8835C418.679 51.0426 418.976 51.1222 419.336 51.1222ZM427.282 45.4545V46.4773H423.707V45.4545H427.282ZM424.665 43.8864H425.94V50.0781C425.94 50.3253 425.977 50.5114 426.05 50.6364C426.124 50.7585 426.219 50.8423 426.336 50.8878C426.455 50.9304 426.584 50.9517 426.724 50.9517C426.826 50.9517 426.915 50.9446 426.992 50.9304C427.069 50.9162 427.129 50.9048 427.171 50.8963L427.401 51.9489C427.327 51.9773 427.222 52.0057 427.086 52.0341C426.95 52.0653 426.779 52.0824 426.575 52.0852C426.239 52.0909 425.927 52.0312 425.637 51.9062C425.347 51.7812 425.113 51.5881 424.934 51.3267C424.755 51.0653 424.665 50.7372 424.665 50.3423V43.8864ZM428.931 52V45.4545H430.206V52H428.931ZM429.575 44.4446C429.353 44.4446 429.163 44.3707 429.004 44.223C428.848 44.0724 428.769 43.8935 428.769 43.6861C428.769 43.4759 428.848 43.2969 429.004 43.1491C429.163 42.9986 429.353 42.9233 429.575 42.9233C429.796 42.9233 429.985 42.9986 430.142 43.1491C430.301 43.2969 430.38 43.4759 430.38 43.6861C430.38 43.8935 430.301 44.0724 430.142 44.223C429.985 44.3707 429.796 44.4446 429.575 44.4446ZM434.917 52.1321C434.303 52.1321 433.768 51.9915 433.31 51.7102C432.853 51.429 432.498 51.0355 432.245 50.5298C431.992 50.0241 431.866 49.4332 431.866 48.7571C431.866 48.0781 431.992 47.4844 432.245 46.9759C432.498 46.4673 432.853 46.0724 433.31 45.7912C433.768 45.5099 434.303 45.3693 434.917 45.3693C435.53 45.3693 436.066 45.5099 436.523 45.7912C436.981 46.0724 437.336 46.4673 437.589 46.9759C437.841 47.4844 437.968 48.0781 437.968 48.7571C437.968 49.4332 437.841 50.0241 437.589 50.5298C437.336 51.0355 436.981 51.429 436.523 51.7102C436.066 51.9915 435.53 52.1321 434.917 52.1321ZM434.921 51.0625C435.319 51.0625 435.648 50.9574 435.91 50.7472C436.171 50.5369 436.364 50.2571 436.489 49.9077C436.617 49.5582 436.681 49.1733 436.681 48.7528C436.681 48.3352 436.617 47.9517 436.489 47.6023C436.364 47.25 436.171 46.9673 435.91 46.7543C435.648 46.5412 435.319 46.4347 434.921 46.4347C434.52 46.4347 434.188 46.5412 433.924 46.7543C433.662 46.9673 433.468 47.25 433.34 47.6023C433.215 47.9517 433.153 48.3352 433.153 48.7528C433.153 49.1733 433.215 49.5582 433.34 49.9077C433.468 50.2571 433.662 50.5369 433.924 50.7472C434.188 50.9574 434.52 51.0625 434.921 51.0625ZM440.904 48.1136V52H439.63V45.4545H440.853V46.5199H440.934C441.085 46.1733 441.32 45.8949 441.641 45.6847C441.965 45.4744 442.373 45.3693 442.864 45.3693C443.311 45.3693 443.701 45.4631 444.036 45.6506C444.372 45.8352 444.632 46.1108 444.816 46.4773C445.001 46.8437 445.093 47.2969 445.093 47.8366V52H443.819V47.9901C443.819 47.5156 443.695 47.1449 443.448 46.8778C443.201 46.608 442.862 46.473 442.43 46.473C442.134 46.473 441.872 46.5369 441.641 46.6648C441.414 46.7926 441.234 46.9801 441.1 47.2273C440.97 47.4716 440.904 47.767 440.904 48.1136Z" fill="white"/>
<rect x="293" y="260" width="64" height="64" fill="#040C25"/>
<path fill-rule="evenodd" clip-rule="evenodd" d="M325.504 281.388L325 281.094L324.496 281.388L315.496 286.638L314.016 287.501L315.496 288.365L317.87 289.75L315.496 291.135L314.016 291.999L315.496 292.862L317.873 294.249L315.496 295.635L314.016 296.499L315.496 297.362L324.496 302.612L325 302.906L325.504 302.612L334.504 297.362L335.985 296.499L334.504 295.635L332.128 294.249L334.504 292.862L335.985 291.999L334.504 291.135L332.13 289.75L334.504 288.365L335.985 287.501L334.504 286.638L325.504 281.388ZM330.146 290.908L325.504 293.615L325 293.909L324.496 293.615L319.855 290.908L317.985 291.999L325 296.091L332.016 291.999L330.146 290.908ZM325 291.594L317.985 287.501L325 283.409L332.016 287.501L325 291.594ZM317.985 296.499L319.857 295.406L324.496 298.112L325 298.406L325.504 298.112L330.143 295.406L332.016 296.499L325 300.591L317.985 296.499Z" fill="white"/>
<rect x="293" y="260" width="64" height="64" stroke="#E00000" stroke-width="2"/>
<rect x="381" y="172" width="64" height="64" fill="#040C25"/>
<path d="M420.197 202.2C420.197 206.748 413.001 212.995 413.001 212.995C413.001 212.995 405.805 206.779 405.805 202.2C405.805 197.622 409.027 195.004 413.001 195.004C416.975 195.004 420.197 197.652 420.197 202.2Z" stroke="white" stroke-width="2"/>
<path d="M410.846 205.284V198.984H409.766V205.284H410.846Z" fill="white"/>
<path d="M413.465 205.284V202.89H415.148C416.345 202.89 417.173 202.17 417.173 200.937C417.173 199.695 416.345 198.984 415.148 198.984H412.385V205.284H413.465ZM413.465 199.947H415.013C415.715 199.947 416.093 200.316 416.093 200.937C416.093 201.549 415.715 201.927 415.013 201.927H413.465V199.947Z" fill="white"/>
<path fill-rule="evenodd" clip-rule="evenodd" d="M411.044 205.485H409.564V198.785H411.044V205.485ZM410.844 198.985V205.285H409.764V198.985H410.844ZM413.664 205.485H412.184V198.785H415.147C415.784 198.785 416.343 198.975 416.744 199.35C417.148 199.726 417.372 200.271 417.372 200.938C417.372 201.601 417.148 202.146 416.745 202.523C416.344 202.899 415.785 203.091 415.147 203.091H413.664V205.485ZM413.464 205.285H412.384V198.985H415.147C416.344 198.985 417.172 199.696 417.172 200.938C417.172 202.171 416.344 202.891 415.147 202.891H413.464V205.285ZM415.012 200.148H413.664V201.728H415.012C415.328 201.728 415.543 201.643 415.678 201.517C415.811 201.392 415.892 201.202 415.892 200.938C415.892 200.669 415.811 200.48 415.678 200.357C415.544 200.231 415.329 200.148 415.012 200.148ZM413.464 199.948V201.928H415.012C415.714 201.928 416.092 201.55 416.092 200.938C416.092 200.317 415.714 199.948 415.012 199.948H413.464Z" fill="white"/>
<rect x="381" y="172" width="64" height="64" stroke="#E00000" stroke-width="2"/>
<rect x="293" y="348" width="64" height="64" fill="#040C25"/>
<path fill-rule="evenodd" clip-rule="evenodd" d="M317.78 386.004C317.748 386.577 317.888 386.852 318.019 386.983C318.15 387.114 318.425 387.253 318.997 387.222C319.569 387.191 320.322 386.991 321.217 386.588C321.878 386.29 322.59 385.895 323.33 385.409C322.673 384.862 322.019 384.265 321.378 383.625C320.737 382.984 320.14 382.329 319.593 381.672C319.107 382.412 318.711 383.124 318.414 383.785C318.011 384.68 317.811 385.432 317.78 386.004ZM322.037 388.412C322.979 387.988 323.981 387.407 325.001 386.691C326.022 387.407 327.025 387.989 327.967 388.413C328.991 388.874 329.993 389.171 330.898 389.22C331.801 389.269 332.724 389.072 333.399 388.398C334.073 387.723 334.27 386.8 334.221 385.897C334.172 384.993 333.875 383.99 333.414 382.966C332.99 382.024 332.408 381.021 331.692 380C332.408 378.98 332.99 377.977 333.414 377.035C333.875 376.011 334.172 375.008 334.221 374.104C334.27 373.201 334.073 372.277 333.399 371.603C332.724 370.929 331.801 370.731 330.898 370.781C329.993 370.83 328.991 371.127 327.967 371.588C327.025 372.012 326.022 372.593 325.001 373.31C323.981 372.594 322.979 372.013 322.037 371.589C321.013 371.128 320.01 370.831 319.106 370.782C318.203 370.732 317.279 370.93 316.605 371.604C315.931 372.278 315.733 373.202 315.783 374.105C315.832 375.009 316.129 376.012 316.59 377.036C317.014 377.978 317.595 378.98 318.311 380C317.595 381.021 317.014 382.023 316.59 382.965C316.129 383.989 315.832 384.991 315.783 385.896C315.733 386.799 315.931 387.722 316.605 388.397C317.279 389.071 318.203 389.268 319.106 389.219C320.01 389.17 321.013 388.873 322.037 388.412ZM331.59 383.786C331.292 383.124 330.896 382.412 330.41 381.672C329.863 382.329 329.266 382.983 328.626 383.624C327.985 384.265 327.33 384.862 326.673 385.409C327.413 385.895 328.125 386.291 328.787 386.589C329.682 386.992 330.434 387.192 331.006 387.223C331.579 387.254 331.853 387.115 331.985 386.984C332.116 386.853 332.255 386.578 332.224 386.005C332.193 385.433 331.993 384.681 331.59 383.786ZM327.212 382.21C327.943 381.478 328.606 380.735 329.193 380C328.606 379.266 327.943 378.523 327.212 377.791C326.479 377.059 325.736 376.396 325.001 375.809C324.267 376.396 323.524 377.059 322.792 377.79C322.06 378.522 321.397 379.266 320.81 380C321.397 380.735 322.06 381.479 322.792 382.211C323.524 382.942 324.267 383.605 325.001 384.192C325.736 383.605 326.479 382.942 327.212 382.21ZM331.59 376.215C331.292 376.876 330.896 377.589 330.41 378.329C329.863 377.672 329.266 377.018 328.626 376.377C327.985 375.736 327.33 375.139 326.673 374.592C327.413 374.106 328.125 373.71 328.787 373.412C329.682 373.009 330.434 372.809 331.006 372.778C331.579 372.746 331.853 372.886 331.985 373.017C332.116 373.148 332.255 373.423 332.224 373.995C332.193 374.567 331.993 375.32 331.59 376.215ZM321.217 373.413C321.878 373.711 322.59 374.106 323.33 374.592C322.673 375.139 322.019 375.735 321.378 376.376C320.737 377.017 320.14 377.672 319.593 378.329C319.107 377.589 318.711 376.877 318.414 376.216C318.011 375.321 317.811 374.568 317.78 373.997C317.748 373.424 317.888 373.149 318.019 373.018C318.15 372.887 318.425 372.747 318.997 372.779C319.569 372.81 320.322 373.01 321.217 373.413ZM326.126 380C326.126 380.622 325.622 381.125 325.001 381.125C324.379 381.125 323.876 380.622 323.876 380C323.876 379.379 324.379 378.875 325.001 378.875C325.622 378.875 326.126 379.379 326.126 380Z" fill="white"/>
<rect x="293" y="348" width="64" height="64" stroke="#1D294E" stroke-width="2"/>
<rect x="381" y="260" width="64" height="64" fill="#040C25"/>
<g clip-path="url(#clip1_15417_4072)">
<path d="M413 280.298C406.371 280.298 401 285.673 401 292.298C401 297.602 404.438 302.099 409.203 303.685C409.805 303.798 410.023 303.427 410.023 303.106C410.023 302.821 410.016 302.067 410.011 301.067C406.672 301.79 405.968 299.453 405.968 299.453C405.421 298.07 404.632 297.699 404.632 297.699C403.546 296.957 404.719 296.973 404.719 296.973C405.922 297.055 406.555 298.207 406.555 298.207C407.625 300.043 409.363 299.512 410.05 299.203C410.155 298.43 410.468 297.898 410.809 297.602C408.144 297.301 405.343 296.27 405.343 291.671C405.343 290.358 405.808 289.289 406.577 288.449C406.444 288.148 406.038 286.925 406.683 285.272C406.683 285.272 407.687 284.952 409.983 286.503C410.944 286.237 411.964 286.104 412.983 286.097C414.003 286.104 415.022 286.238 415.983 286.503C418.265 284.952 419.268 285.272 419.268 285.272C419.913 286.925 419.506 288.147 419.389 288.449C420.15 289.289 420.615 290.359 420.615 291.671C420.615 296.28 417.81 297.296 415.143 297.59C415.561 297.949 415.951 298.688 415.951 299.809C415.951 301.414 415.936 302.707 415.936 303.098C415.936 303.41 416.146 303.785 416.764 303.664C421.564 302.094 424.998 297.594 424.998 292.297C424.998 285.672 419.628 280.297 412.998 280.297L413 280.298Z" fill="white"/>
</g>
<rect x="381" y="260" width="64" height="64" stroke="#1D294E" stroke-width="2"/>
<rect x="293" y="172" width="64" height="64" fill="#040C25"/>
<g clip-path="url(#clip2_15417_4072)">
<path d="M325.008 215.068L329.424 201.477H320.592L325.008 215.068Z" fill="#E24329"/>
<path d="M325.007 215.068L320.591 201.477H314.402L325.007 215.068Z" fill="#FC6D26"/>
<path d="M314.402 201.477L313.06 205.607C312.938 205.983 313.072 206.396 313.393 206.629L325.007 215.068L314.402 201.477Z" fill="#FCA326"/>
<path d="M314.402 201.478H320.591L317.931 193.292C317.795 192.871 317.199 192.871 317.062 193.292L314.402 201.478Z" fill="#E24329"/>
<path d="M325.008 215.068L329.424 201.477H335.613L325.008 215.068Z" fill="#FC6D26"/>
<path d="M335.613 201.477L336.955 205.607C337.077 205.983 336.943 206.396 336.623 206.629L325.008 215.068L335.613 201.477Z" fill="#FCA326"/>
<path d="M335.613 201.478H329.424L332.084 193.292C332.22 192.871 332.816 192.871 332.953 193.292L335.613 201.478Z" fill="#E24329"/>
</g>
<rect x="293" y="172" width="64" height="64" stroke="#1D294E" stroke-width="2"/>
<rect x="381" y="348" width="64" height="64" fill="#040C25"/>
<g clip-path="url(#clip3_15417_4072)">
<path d="M401.759 370.375C401.648 370.374 401.538 370.396 401.437 370.442C401.336 370.487 401.247 370.554 401.174 370.638C401.102 370.722 401.049 370.821 401.019 370.927C400.989 371.034 400.982 371.146 401 371.255L404.224 390.806C404.264 391.045 404.388 391.262 404.572 391.42C404.757 391.577 404.991 391.665 405.233 391.667H420.687C420.869 391.669 421.046 391.606 421.185 391.489C421.324 391.372 421.417 391.209 421.446 391.029L424.67 371.263C424.688 371.153 424.681 371.042 424.651 370.935C424.621 370.828 424.568 370.73 424.496 370.646C424.423 370.562 424.334 370.495 424.233 370.45C424.132 370.404 424.022 370.381 423.911 370.383L401.759 370.375ZM415.32 384.501H410.388L409.053 377.522H416.514L415.32 384.501Z" fill="#2684FF"/>
<path d="M423.635 377.527H416.515L415.32 384.507H410.389L404.566 391.414C404.751 391.574 404.986 391.663 405.23 391.665H420.688C420.87 391.667 421.046 391.604 421.186 391.487C421.325 391.37 421.417 391.207 421.446 391.028L423.635 377.527Z" fill="url(#paint0_linear_15417_4072)"/>
</g>
<rect x="381" y="348" width="64" height="64" stroke="#E00000" stroke-width="2"/>
<path d="M583.406 502.879H167.789V59.3125" stroke="url(#paint1_linear_15417_4072)" stroke-width="2"/>
<path fill-rule="evenodd" clip-rule="evenodd" d="M317.556 41.1731L310.078 38L306.629 46.1286L309.655 47.4126L308.102 51.073L315 54L318.426 45.927L315.979 44.8891L317.556 41.1731ZM315.979 44.8891L311.527 43L309.655 47.4126L314.107 49.3017L315.979 44.8891Z" fill="white"/>
<rect x="200" y="20" width="498" height="440" stroke="url(#paint2_linear_15417_4072)" stroke-width="2"/>
<path fill-rule="evenodd" clip-rule="evenodd" d="M297.875 458.375C297.875 454.233 301.233 450.875 305.375 450.875C309.517 450.875 312.875 454.233 312.875 458.375C312.875 462.517 309.517 465.875 305.375 465.875C301.233 465.875 297.875 462.517 297.875 458.375ZM305.375 449.875C300.681 449.875 296.875 453.681 296.875 458.375C296.875 463.069 300.681 466.875 305.375 466.875C310.069 466.875 313.875 463.069 313.875 458.375C313.875 453.681 310.069 449.875 305.375 449.875ZM304.488 454.16V459.16V459.367L304.635 459.514L306.635 461.514L307.342 460.807L305.488 458.953V454.16H304.488Z" fill="#6A7390"/>
<path d="M327.291 465.16C329.403 465.16 331.051 463.608 331.051 461.4C331.051 459.48 329.707 457.992 327.627 457.992C326.699 457.992 325.851 458.312 325.291 458.872L326.155 454.872H330.939V453.8H325.259L323.915 460.312H324.987C325.531 459.464 326.555 459.032 327.387 459.032H327.547C328.971 459.032 329.963 460.04 329.963 461.48C329.963 462.984 328.907 464.12 327.371 464.12H327.211C325.883 464.12 324.763 463.432 324.587 462.12H323.499C323.659 464.12 325.323 465.16 327.291 465.16ZM338.913 465V461C338.913 459.272 339.681 457.72 341.297 457.72H341.393C342.625 457.72 343.233 458.488 343.233 460.088V465H344.273V461C344.273 459.272 345.041 457.72 346.657 457.72H346.753C347.985 457.72 348.593 458.488 348.593 460.088V465H349.633V459.768C349.633 457.848 348.465 456.84 346.913 456.84C345.617 456.84 344.641 457.432 344.081 458.52C343.681 457.416 342.721 456.84 341.553 456.84C340.321 456.84 339.393 457.448 338.913 458.28V457H337.873V465H338.913ZM353.547 455.56V454.2H352.347V455.56H353.547ZM353.467 465V457H352.427V465H353.467ZM357.381 465V461C357.381 459.272 358.197 457.72 359.925 457.72H360.021C361.301 457.72 361.941 458.488 361.941 460.088V465H362.981V459.768C362.981 457.848 361.781 456.84 360.181 456.84C358.869 456.84 357.845 457.464 357.381 458.344V457H356.341V465H357.381ZM372.17 465.16C373.578 465.16 374.682 464.456 375.002 463.72C375.002 464.152 375.018 464.648 375.082 465H376.042C375.962 464.44 375.962 463.72 375.962 463.24V459.88C375.962 458.248 374.954 456.84 372.874 456.84C371.162 456.84 369.898 457.816 369.802 459.24H370.842C370.954 458.232 371.818 457.72 372.842 457.72H372.922C374.154 457.72 374.922 458.504 374.922 459.88V460.2L372.394 460.392C371.162 460.488 369.642 461.032 369.642 462.792C369.642 464.152 370.762 465.16 372.17 465.16ZM372.282 464.28C371.37 464.28 370.682 463.608 370.682 462.728C370.682 461.848 371.466 461.288 372.602 461.208L374.922 461.048V462.12C374.922 463.304 373.546 464.28 372.442 464.28H372.282ZM381.746 468.52C384.066 468.52 385.442 467.016 385.442 464.936V457H384.402V458.28C383.922 457.4 383.026 456.84 381.746 456.84C379.746 456.84 378.29 458.44 378.29 461C378.29 463.56 379.746 465 381.746 465C383.026 465 383.922 464.44 384.402 463.56V464.856C384.402 466.856 383.186 467.64 381.826 467.64H381.666C380.306 467.64 379.378 467.128 379.17 466.12H378.13C378.29 467.512 379.426 468.52 381.746 468.52ZM381.778 464.12C380.338 464.12 379.33 463 379.33 461C379.33 459 380.338 457.72 381.778 457.72H381.938C383.378 457.72 384.402 459 384.402 461C384.402 463 383.378 464.12 381.938 464.12H381.778ZM391.508 465.16C393.572 465.16 395.188 463.48 395.188 461C395.188 458.52 393.572 456.84 391.508 456.84C389.444 456.84 387.828 458.52 387.828 461C387.828 463.48 389.444 465.16 391.508 465.16ZM391.428 464.28C389.988 464.28 388.884 463.048 388.884 461C388.884 458.952 389.988 457.72 391.428 457.72H391.588C393.028 457.72 394.132 458.952 394.132 461C394.132 463.048 393.028 464.28 391.588 464.28H391.428Z" fill="#6A7390"/>
<rect x="58" y="172" width="64" height="64" fill="#040C25"/>
<g clip-path="url(#clip4_15417_4072)">
<path d="M85.5 195.75C79.5 195.75 85.5 204 79.5 204C85.5 204 79.5 212.25 85.5 212.25" stroke="white" stroke-width="2" stroke-linecap="square" stroke-linejoin="bevel"/>
<path d="M94.5 195.75C100.5 195.75 94.5 204 100.5 204C94.5 204 100.5 212.25 94.5 212.25" stroke="white" stroke-width="2" stroke-linecap="square" stroke-linejoin="bevel"/>
</g>
<rect x="58" y="172" width="64" height="64" stroke="#E00000" stroke-width="2"/>
<rect x="78" y="260" width="64" height="64" fill="#040C25"/>
<g clip-path="url(#clip5_15417_4072)">
<path d="M111.875 291L114.125 293.25L111.875 295.5" stroke="white" stroke-width="2" stroke-linecap="square"/>
<path d="M108.125 291L105.875 293.25L108.125 295.5" stroke="white" stroke-width="2" stroke-linecap="square"/>
<path d="M117.5 301C117.5 301 117.5 290.35 117.5 288.25L112.25 283C110.627 283 102.5 283 102.5 283C102.5 286.147 102.5 301 102.5 301C104.965 301 117.5 301 117.5 301Z" stroke="white" stroke-width="2" stroke-linecap="square"/>
</g>
<rect x="78" y="260" width="64" height="64" stroke="#E00000" stroke-width="2"/>
</g>
<defs>
<linearGradient id="paint0_linear_15417_4072" x1="425.281" y1="379.481" x2="413.515" y2="388.664" gradientUnits="userSpaceOnUse">
<stop offset="0.18" stop-color="#0052CC"/>
<stop offset="1" stop-color="#2684FF"/>
</linearGradient>
<linearGradient id="paint1_linear_15417_4072" x1="167.789" y1="23.0376" x2="758.019" y2="633.721" gradientUnits="userSpaceOnUse">
<stop stop-color="#1D32F4" stop-opacity="0"/>
<stop offset="1" stop-color="#1D32F4"/>
</linearGradient>
<linearGradient id="paint2_linear_15417_4072" x1="428" y1="-0.810817" x2="484.352" y2="449.264" gradientUnits="userSpaceOnUse">
<stop stop-color="#1D32F4"/>
<stop offset="0.975773" stop-color="#1D32F4" stop-opacity="0"/>
</linearGradient>
<clipPath id="clip0_15417_4072">
<rect width="584" height="524" fill="white"/>
</clipPath>
<clipPath id="clip1_15417_4072">
<rect width="24" height="24" fill="white" transform="translate(401 280)"/>
</clipPath>
<clipPath id="clip2_15417_4072">
<rect width="24" height="24" fill="white" transform="translate(313 192)"/>
</clipPath>
<clipPath id="clip3_15417_4072">
<rect width="24" height="24" fill="white" transform="translate(401 368)"/>
</clipPath>
<clipPath id="clip4_15417_4072">
<rect width="24" height="24" fill="white" transform="translate(78 192)"/>
</clipPath>
<clipPath id="clip5_15417_4072">
<rect width="24" height="24" fill="white" transform="translate(98 280)"/>
</clipPath>
</defs>
</svg>
