<svg width="792" height="516" viewBox="0 0 792 516" fill="none" xmlns="http://www.w3.org/2000/svg">
<path d="M275 203.867V358M275 203.867L517 358M275 203.867L396 137L517 203.867M517 203.867V358M517 203.867L275 358M517 358H275" stroke="#1D294E" stroke-width="2"/>
<path d="M305.5 104.5V223.5L396 281L485.5 224V104.5H305.5Z" fill="#061030" stroke="#1D32F4" stroke-width="2"/>
<circle cx="345" cy="144" r="18" stroke="white" stroke-width="2"/>
<path d="M337 145L343 151L355 139" stroke="white" stroke-width="2"/>
<path d="M387 136H433" stroke="#1D294E" stroke-width="4"/>
<path d="M387 152H453" stroke="#1D294E" stroke-width="4"/>
<path d="M327 191H431" stroke="#1D294E" stroke-width="4"/>
<path d="M327 209H467" stroke="#1D294E" stroke-width="4"/>
<path d="M218 209L54 209" stroke="url(#paint0_linear_15855_8612)" stroke-width="2"/>
<path d="M397 325H627" stroke="url(#paint1_linear_15855_8612)" stroke-width="2"/>
<path d="M485 395L737 395" stroke="url(#paint2_linear_15855_8612)" stroke-width="2"/>
<path d="M275 203.867L396 280.934L517 203.867" stroke="#1D294E" stroke-width="2"/>
<defs>
<linearGradient id="paint0_linear_15855_8612" x1="218" y1="209" x2="54" y2="209" gradientUnits="userSpaceOnUse">
<stop stop-color="#1C32F1"/>
<stop offset="1" stop-color="#1C32F1" stop-opacity="0"/>
</linearGradient>
<linearGradient id="paint1_linear_15855_8612" x1="397" y1="325" x2="627" y2="325" gradientUnits="userSpaceOnUse">
<stop stop-color="#1C32F1"/>
<stop offset="1" stop-color="#1C32F1" stop-opacity="0"/>
</linearGradient>
<linearGradient id="paint2_linear_15855_8612" x1="485" y1="395" x2="737" y2="395" gradientUnits="userSpaceOnUse">
<stop stop-color="#1C32F1"/>
<stop offset="1" stop-color="#1C32F1" stop-opacity="0"/>
</linearGradient>
</defs>
</svg>
