<svg width="624" height="437" viewBox="0 0 624 437" fill="none" xmlns="http://www.w3.org/2000/svg">
<path d="M310.2 192.547L300.873 187.471L310.2 182.395L319.527 187.471L310.2 192.547Z" fill="white"/>
<path d="M294.656 214.544V204.392L300.874 201.008L310.201 206.084L294.656 214.544Z" fill="white"/>
<path d="M338.176 207.785L328.85 202.709L338.176 197.633L347.503 202.709L338.176 207.785Z" fill="white"/>
<path d="M285.327 206.086L276 201.01L285.327 195.934L294.654 201.01L285.327 206.086Z" fill="white"/>
<path d="M285.327 206.084L276 201.008V217.928L285.327 223.004V206.084Z" fill="white"/>
<path d="M313.313 221.314L303.986 216.238V233.158L313.313 238.234V221.314Z" fill="white"/>
<path d="M310.2 192.553L300.873 187.477V204.397L310.2 206.089V192.553Z" fill="white"/>
<path d="M322.631 229.774V219.622L328.849 216.238L338.176 221.314L322.631 229.774Z" fill="white"/>
<path d="M338.176 207.783L328.85 202.707V216.243L338.176 221.319V207.783Z" fill="white"/>
<path d="M313.313 221.316L303.986 216.24L313.313 211.164L322.64 216.24L313.313 221.316Z" fill="white"/>
<path d="M276 224.703V214.551L313.307 234.855V245.007L276 224.703Z" fill="white"/>
<path d="M347.504 141L347.504 0" stroke="url(#paint0_radial_15492_5353)" stroke-width="2"/>
<path d="M278 437L278 285" stroke="url(#paint1_radial_15492_5353)" stroke-width="2"/>
<rect x="380" y="317" width="64" height="64" fill="#040C25"/>
<path fill-rule="evenodd" clip-rule="evenodd" d="M404.78 355.004C404.748 355.577 404.888 355.852 405.019 355.983C405.15 356.114 405.425 356.253 405.997 356.222C406.569 356.191 407.322 355.991 408.217 355.588C408.878 355.29 409.59 354.895 410.33 354.409C409.673 353.862 409.019 353.265 408.378 352.625C407.737 351.984 407.14 351.329 406.593 350.672C406.107 351.412 405.711 352.124 405.414 352.785C405.011 353.68 404.811 354.432 404.78 355.004ZM409.037 357.412C409.979 356.988 410.981 356.407 412.001 355.691C413.022 356.407 414.025 356.989 414.967 357.413C415.991 357.874 416.993 358.171 417.898 358.22C418.801 358.269 419.724 358.072 420.399 357.398C421.073 356.723 421.27 355.8 421.221 354.897C421.172 353.993 420.875 352.99 420.414 351.966C419.99 351.024 419.408 350.021 418.692 349C419.408 347.98 419.99 346.977 420.414 346.035C420.875 345.011 421.172 344.008 421.221 343.104C421.27 342.201 421.073 341.277 420.399 340.603C419.724 339.929 418.801 339.731 417.898 339.781C416.993 339.83 415.991 340.127 414.967 340.588C414.025 341.012 413.022 341.593 412.001 342.31C410.981 341.594 409.979 341.013 409.037 340.589C408.013 340.128 407.01 339.831 406.106 339.782C405.203 339.732 404.279 339.93 403.605 340.604C402.931 341.278 402.733 342.202 402.783 343.105C402.832 344.009 403.129 345.012 403.59 346.036C404.014 346.978 404.595 347.98 405.311 349C404.595 350.021 404.014 351.023 403.59 351.965C403.129 352.989 402.832 353.991 402.783 354.896C402.733 355.799 402.931 356.722 403.605 357.397C404.279 358.071 405.203 358.268 406.106 358.219C407.01 358.17 408.013 357.873 409.037 357.412ZM418.59 352.786C418.292 352.124 417.896 351.412 417.41 350.672C416.863 351.329 416.266 351.983 415.626 352.624C414.985 353.265 414.33 353.862 413.673 354.409C414.413 354.895 415.125 355.291 415.787 355.589C416.682 355.992 417.434 356.192 418.006 356.223C418.579 356.254 418.853 356.115 418.985 355.984C419.116 355.853 419.255 355.578 419.224 355.005C419.193 354.433 418.993 353.681 418.59 352.786ZM414.212 351.21C414.943 350.478 415.606 349.735 416.193 349C415.606 348.266 414.943 347.523 414.212 346.791C413.479 346.059 412.736 345.396 412.001 344.809C411.267 345.396 410.524 346.059 409.792 346.79C409.06 347.522 408.397 348.266 407.81 349C408.397 349.735 409.06 350.479 409.792 351.211C410.524 351.942 411.267 352.605 412.001 353.192C412.736 352.605 413.479 351.942 414.212 351.21ZM418.59 345.215C418.292 345.876 417.896 346.589 417.41 347.329C416.863 346.672 416.266 346.018 415.626 345.377C414.985 344.736 414.33 344.139 413.673 343.592C414.413 343.106 415.125 342.71 415.787 342.412C416.682 342.009 417.434 341.809 418.006 341.778C418.579 341.746 418.853 341.886 418.985 342.017C419.116 342.148 419.255 342.423 419.224 342.995C419.193 343.567 418.993 344.32 418.59 345.215ZM408.217 342.413C408.878 342.711 409.59 343.106 410.33 343.592C409.673 344.139 409.019 344.735 408.378 345.376C407.737 346.017 407.14 346.672 406.593 347.329C406.107 346.589 405.711 345.877 405.414 345.216C405.011 344.321 404.811 343.568 404.78 342.997C404.748 342.424 404.888 342.149 405.019 342.018C405.15 341.887 405.425 341.747 405.997 341.779C406.569 341.81 407.322 342.01 408.217 342.413ZM413.126 349C413.126 349.622 412.622 350.125 412.001 350.125C411.379 350.125 410.876 349.622 410.876 349C410.876 348.379 411.379 347.875 412.001 347.875C412.622 347.875 413.126 348.379 413.126 349Z" fill="white"/>
<rect x="380" y="317" width="64" height="64" stroke="white" stroke-width="2"/>
<rect x="488" y="214" width="64" height="64" fill="#08143D"/>
<rect x="488" y="214" width="64" height="64" stroke="#1D294E" stroke-width="2"/>
<rect x="78" y="154" width="64" height="64" fill="#08143D"/>
<rect x="78" y="154" width="64" height="64" stroke="#1D294E" stroke-width="2"/>
<rect x="180" y="46" width="64" height="64" fill="#040C25"/>
<g clip-path="url(#clip0_15492_5353)">
<path d="M212 66.2976C205.371 66.2976 200 71.6729 200 78.2976C200 83.6024 203.438 88.0986 208.203 89.6849C208.805 89.7981 209.023 89.4269 209.023 89.1059C209.023 88.8209 209.016 88.0671 209.011 87.0666C205.672 87.7896 204.968 85.4534 204.968 85.4534C204.421 84.0704 203.632 83.6991 203.632 83.6991C202.546 82.9574 203.719 82.9731 203.719 82.9731C204.922 83.0549 205.555 84.2069 205.555 84.2069C206.625 86.0429 208.363 85.5119 209.05 85.2029C209.155 84.4296 209.468 83.8979 209.809 83.6016C207.144 83.3009 204.343 82.2696 204.343 77.6714C204.343 76.3581 204.808 75.2886 205.577 74.4486C205.444 74.1479 205.038 72.9254 205.683 71.2724C205.683 71.2724 206.687 70.9521 208.983 72.5031C209.944 72.2369 210.964 72.1041 211.983 72.0974C213.003 72.1041 214.022 72.2376 214.983 72.5031C217.265 70.9521 218.268 71.2724 218.268 71.2724C218.913 72.9254 218.506 74.1471 218.389 74.4486C219.15 75.2886 219.615 76.3589 219.615 77.6714C219.615 82.2801 216.81 83.2964 214.143 83.5896C214.561 83.9489 214.951 84.6876 214.951 85.8089C214.951 87.4139 214.936 88.7069 214.936 89.0976C214.936 89.4096 215.146 89.7846 215.764 89.6639C220.564 88.0941 223.998 83.5941 223.998 78.2969C223.998 71.6721 218.628 66.2969 211.998 66.2969L212 66.2976Z" fill="white"/>
</g>
<rect x="180" y="46" width="64" height="64" stroke="#1D294E" stroke-width="2"/>
<rect x="110" y="285" width="64" height="64" fill="#040C25"/>
<g clip-path="url(#clip1_15492_5353)">
<path d="M137.5 308.75C131.5 308.75 137.5 317 131.5 317C137.5 317 131.5 325.25 137.5 325.25" stroke="white" stroke-width="2" stroke-linecap="square" stroke-linejoin="bevel"/>
<path d="M146.5 308.75C152.5 308.75 146.5 317 152.5 317C146.5 317 152.5 325.25 146.5 325.25" stroke="white" stroke-width="2" stroke-linecap="square" stroke-linejoin="bevel"/>
</g>
<rect x="110" y="285" width="64" height="64" stroke="#1D32F4" stroke-width="2"/>
<rect x="424" y="90" width="64" height="64" fill="#040C25"/>
<g clip-path="url(#clip2_15492_5353)">
<path d="M457.875 121L460.125 123.25L457.875 125.5" stroke="white" stroke-width="2" stroke-linecap="square"/>
<path d="M454.125 121L451.875 123.25L454.125 125.5" stroke="white" stroke-width="2" stroke-linecap="square"/>
<path d="M463.5 131C463.5 131 463.5 120.35 463.5 118.25L458.25 113C456.627 113 448.5 113 448.5 113C448.5 116.147 448.5 131 448.5 131C450.965 131 463.5 131 463.5 131Z" stroke="white" stroke-width="2" stroke-linecap="square"/>
</g>
<rect x="424" y="90" width="64" height="64" stroke="#E00000" stroke-width="2"/>
<defs>
<radialGradient id="paint0_radial_15492_5353" cx="0" cy="0" r="1" gradientUnits="userSpaceOnUse" gradientTransform="translate(347.504 140.696) rotate(-90) scale(141 141)">
<stop stop-color="#1D32F4"/>
<stop offset="1" stop-color="#1D32F4" stop-opacity="0"/>
</radialGradient>
<radialGradient id="paint1_radial_15492_5353" cx="0" cy="0" r="1" gradientUnits="userSpaceOnUse" gradientTransform="translate(278 438) rotate(-90) scale(153.328 61.3417)">
<stop stop-color="#1D32F4" stop-opacity="0"/>
<stop offset="1" stop-color="#1D32F4"/>
</radialGradient>
<clipPath id="clip0_15492_5353">
<rect width="24" height="24" fill="white" transform="translate(200 66)"/>
</clipPath>
<clipPath id="clip1_15492_5353">
<rect width="24" height="24" fill="white" transform="translate(130 305)"/>
</clipPath>
<clipPath id="clip2_15492_5353">
<rect width="24" height="24" fill="white" transform="translate(444 110)"/>
</clipPath>
</defs>
</svg>
