<svg width="624" height="437" viewBox="0 0 624 437" fill="none" xmlns="http://www.w3.org/2000/svg">
<g clip-path="url(#clip0_14973_3180)">
<mask id="path-1-inside-1_14973_3180" fill="white">
<path d="M342 43H1060V393H342V43Z"/>
</mask>
<path d="M342 43H1060V393H342V43Z" fill="#061030"/>
<g clip-path="url(#clip1_14973_3180)">
<rect x="393" y="129" width="295" height="137" stroke="#1D294E" stroke-width="2"/>
<rect x="482" y="225.961" width="166.466" height="166.466" transform="rotate(-24.8522 482 225.961)" stroke="#1D294E" stroke-width="2"/>
<rect x="343" y="90.2695" width="128.115" height="128.115" transform="rotate(-18.3193 343 90.2695)" stroke="#1D294E" stroke-width="2"/>
</g>
<rect x="391.73" y="310" width="192.71" height="6" fill="#1D294E"/>
<rect x="391.73" y="331.758" width="250.212" height="6" fill="#1D294E"/>
<circle cx="372.73" cy="73.7305" r="6" fill="#E00000"/>
<circle cx="397.164" cy="73.7305" r="5" stroke="white" stroke-width="2"/>
<circle cx="421.598" cy="73.7305" r="5" stroke="white" stroke-width="2"/>
<path d="M342 43V41H340V43H342ZM1060 43H1062V41H1060V43ZM342 45H1060V41H342V45ZM1058 43V393H1062V43H1058ZM344 393V43H340V393H344Z" fill="#1D294E" mask="url(#path-1-inside-1_14973_3180)"/>
<rect x="30" y="250" width="264" height="96" fill="#040C25"/>
<path d="M118.312 306.336C116.264 306.336 114.64 305.76 113.44 304.608C112.24 303.44 111.64 301.76 111.64 299.568V295.632C111.64 293.44 112.24 291.768 113.44 290.616C114.64 289.448 116.264 288.864 118.312 288.864C120.328 288.864 121.88 289.424 122.968 290.544C124.072 291.664 124.624 293.192 124.624 295.128V295.272H122.056V295.056C122.056 293.92 121.744 292.992 121.12 292.272C120.512 291.552 119.576 291.192 118.312 291.192C117.032 291.192 116.032 291.584 115.312 292.368C114.592 293.136 114.232 294.208 114.232 295.584V299.616C114.232 300.976 114.592 302.048 115.312 302.832C116.032 303.616 117.032 304.008 118.312 304.008C119.576 304.008 120.512 303.648 121.12 302.928C121.744 302.192 122.056 301.264 122.056 300.144V299.736H124.624V300.072C124.624 302.008 124.072 303.536 122.968 304.656C121.88 305.776 120.328 306.336 118.312 306.336ZM127.086 306V289.2H129.558V306H127.086ZM132.747 306V294.168H135.219V306H132.747ZM133.995 292.56C133.515 292.56 133.107 292.408 132.771 292.104C132.451 291.784 132.291 291.376 132.291 290.88C132.291 290.384 132.451 289.984 132.771 289.68C133.107 289.36 133.515 289.2 133.995 289.2C134.491 289.2 134.899 289.36 135.219 289.68C135.539 289.984 135.699 290.384 135.699 290.88C135.699 291.376 135.539 291.784 135.219 292.104C134.899 292.408 134.491 292.56 133.995 292.56ZM143.831 306.336C142.631 306.336 141.583 306.088 140.687 305.592C139.791 305.08 139.087 304.368 138.575 303.456C138.079 302.528 137.831 301.456 137.831 300.24V299.952C137.831 298.72 138.079 297.648 138.575 296.736C139.071 295.808 139.759 295.096 140.639 294.6C141.535 294.088 142.567 293.832 143.735 293.832C144.871 293.832 145.863 294.088 146.711 294.6C147.575 295.096 148.247 295.792 148.727 296.688C149.207 297.584 149.447 298.632 149.447 299.832V300.768H140.351C140.383 301.808 140.727 302.64 141.383 303.264C142.055 303.872 142.887 304.176 143.879 304.176C144.807 304.176 145.503 303.968 145.967 303.552C146.447 303.136 146.815 302.656 147.071 302.112L149.111 303.168C148.887 303.616 148.559 304.088 148.127 304.584C147.711 305.08 147.159 305.496 146.471 305.832C145.783 306.168 144.903 306.336 143.831 306.336ZM140.375 298.872H146.927C146.863 297.976 146.543 297.28 145.967 296.784C145.391 296.272 144.639 296.016 143.711 296.016C142.783 296.016 142.023 296.272 141.431 296.784C140.855 297.28 140.503 297.976 140.375 298.872ZM151.943 306V294.168H154.367V295.944H154.751C154.975 295.464 155.375 295.016 155.951 294.6C156.527 294.184 157.383 293.976 158.519 293.976C159.415 293.976 160.207 294.176 160.895 294.576C161.599 294.976 162.151 295.544 162.551 296.28C162.951 297 163.151 297.872 163.151 298.896V306H160.679V299.088C160.679 298.064 160.423 297.312 159.911 296.832C159.399 296.336 158.695 296.088 157.799 296.088C156.775 296.088 155.951 296.424 155.327 297.096C154.719 297.768 154.415 298.744 154.415 300.024V306H151.943ZM170.34 306C169.62 306 169.044 305.784 168.612 305.352C168.196 304.92 167.988 304.344 167.988 303.624V296.256H164.724V294.168H167.988V290.256H170.46V294.168H173.988V296.256H170.46V303.192C170.46 303.672 170.684 303.912 171.132 303.912H173.604V306H170.34ZM180.425 306L185.225 289.2H189.785L194.561 306H191.897L190.793 302.04H184.217L183.113 306H180.425ZM184.865 299.64H190.145L187.697 290.808H187.313L184.865 299.64ZM196.357 306V289.2H203.029C204.053 289.2 204.965 289.408 205.765 289.824C206.581 290.224 207.213 290.8 207.661 291.552C208.125 292.288 208.357 293.176 208.357 294.216V294.528C208.357 295.568 208.117 296.464 207.637 297.216C207.173 297.968 206.541 298.544 205.741 298.944C204.941 299.344 204.037 299.544 203.029 299.544H198.949V306H196.357ZM198.949 297.192H202.765C203.677 297.192 204.405 296.952 204.949 296.472C205.493 295.992 205.765 295.336 205.765 294.504V294.264C205.765 293.416 205.493 292.752 204.949 292.272C204.405 291.792 203.677 291.552 202.765 291.552H198.949V297.192ZM210.338 306V289.2H212.93V306H210.338Z" fill="white"/>
<rect x="30" y="250" width="264" height="96" stroke="url(#paint0_linear_14973_3180)" stroke-width="2"/>
<rect x="30" y="78" width="264" height="148" fill="#040C25"/>
<path d="M88.1802 129.775C89.3066 129.638 91.7906 129.343 92.2329 129.913C92.6749 130.472 91.7382 132.824 91.317 133.869C91.1908 134.185 91.4645 134.312 91.7486 134.069C93.6012 132.508 94.0855 129.248 93.7066 128.773C93.3275 128.309 90.075 127.908 88.0959 129.301C87.7906 129.522 87.8433 129.818 88.1802 129.775Z" fill="#FF9900"/>
<path d="M77.9686 135.484C82.295 135.484 87.3265 134.123 90.7897 131.559C91.3581 131.137 90.8633 130.494 90.2844 130.758C86.4002 132.403 82.1792 133.205 78.337 133.205C72.6423 133.205 67.137 131.633 62.6741 129.038C62.2844 128.806 61.9897 129.207 62.3159 129.502C66.4424 133.237 71.9055 135.484 77.9686 135.484Z" fill="#FF9900"/>
<path d="M71.095 123.404C71.095 123.795 71.1371 124.111 71.2107 124.343C71.3042 124.604 71.4169 124.858 71.5477 125.103C71.6002 125.187 71.6213 125.272 71.6213 125.345C71.6213 125.451 71.5582 125.557 71.4212 125.662L70.7582 126.105C70.6635 126.168 70.5685 126.2 70.4845 126.2C70.3791 126.2 70.2739 126.147 70.1687 126.052C70.0268 125.899 69.8999 125.733 69.7897 125.556C69.672 125.354 69.5631 125.146 69.4633 124.934C68.6423 125.905 67.6107 126.39 66.3686 126.39C65.4844 126.39 64.7793 126.137 64.2635 125.631C63.7476 125.124 63.4844 124.449 63.4844 123.605C63.4844 122.708 63.8001 121.98 64.4422 121.432C65.0844 120.883 65.9371 120.609 67.0214 120.609C67.3792 120.609 67.7476 120.64 68.1372 120.693C68.5265 120.746 68.9265 120.83 69.3476 120.925V120.155C69.3476 119.353 69.1791 118.794 68.8527 118.467C68.5161 118.14 67.9475 117.982 67.1371 117.982C66.7686 117.982 66.3898 118.024 66.0002 118.119C65.6132 118.211 65.2333 118.331 64.8634 118.478C64.7437 118.532 64.6206 118.577 64.4949 118.615C64.4213 118.636 64.3686 118.647 64.3264 118.647C64.1792 118.647 64.1054 118.541 64.1054 118.32V117.803C64.1054 117.634 64.1267 117.507 64.1792 117.434C64.2317 117.36 64.3264 117.286 64.4738 117.212C64.8422 117.022 65.2845 116.864 65.8001 116.737C66.3159 116.6 66.8636 116.537 67.4423 116.537C68.695 116.537 69.6107 116.822 70.2001 117.391C70.7791 117.961 71.0739 118.826 71.0739 119.986V123.404H71.095ZM66.8213 125.008C67.1686 125.008 67.5266 124.945 67.9055 124.818C68.2844 124.691 68.6212 124.459 68.9054 124.143C69.0739 123.942 69.2002 123.721 69.2634 123.468C69.3265 123.215 69.3685 122.909 69.3685 122.55V122.107C69.0494 122.029 68.7261 121.969 68.4002 121.928C68.0721 121.886 67.7416 121.865 67.4108 121.864C66.7055 121.864 66.1897 122.001 65.8423 122.286C65.495 122.571 65.3265 122.972 65.3265 123.499C65.3265 123.995 65.4528 124.364 65.7161 124.618C65.9686 124.881 66.3371 125.008 66.8211 125.008H66.8213ZM75.2738 126.147C75.0844 126.147 74.9581 126.116 74.8738 126.042C74.7898 125.978 74.7159 125.831 74.6528 125.63L72.1792 117.476C72.1161 117.264 72.0845 117.127 72.0845 117.054C72.0845 116.885 72.1685 116.79 72.3371 116.79H73.3685C73.5686 116.79 73.7056 116.822 73.7792 116.895C73.8635 116.959 73.9264 117.107 73.9898 117.307L75.7583 124.291L77.4003 117.307C77.4528 117.096 77.5159 116.959 77.6002 116.895C77.6845 116.832 77.8317 116.79 78.0213 116.79H78.8634C79.0635 116.79 79.2002 116.822 79.2845 116.895C79.3687 116.959 79.4423 117.107 79.4844 117.307L81.1475 124.375L82.9687 117.307C83.0317 117.096 83.1053 116.959 83.1791 116.895C83.2634 116.832 83.4001 116.79 83.5898 116.79H84.5685C84.7371 116.79 84.8318 116.874 84.8318 117.054C84.8318 117.106 84.8213 117.159 84.8107 117.222C84.7942 117.312 84.7696 117.401 84.7371 117.486L82.2003 125.641C82.137 125.852 82.0634 125.989 81.9791 126.052C81.895 126.116 81.7581 126.158 81.5791 126.158H80.6739C80.4738 126.158 80.3369 126.126 80.2528 126.052C80.1687 125.979 80.0949 125.841 80.0529 125.631L78.4213 118.826L76.8002 125.62C76.7475 125.831 76.6844 125.968 76.6001 126.042C76.5161 126.116 76.3686 126.147 76.1792 126.147H75.2738V126.147ZM88.8002 126.432C88.2528 126.432 87.7054 126.369 87.1791 126.242C86.6528 126.116 86.2423 125.978 85.9686 125.82C85.8001 125.725 85.6845 125.62 85.6422 125.525C85.6013 125.432 85.5798 125.331 85.5791 125.229V124.691C85.5791 124.47 85.6634 124.364 85.8212 124.364C85.8844 124.364 85.9475 124.375 86.0107 124.396C86.0738 124.417 86.1685 124.459 86.2739 124.502C86.6457 124.665 87.0339 124.789 87.4319 124.871C87.8528 124.955 88.2635 124.997 88.6844 124.997C89.3476 124.997 89.8635 124.881 90.2212 124.649C90.5792 124.417 90.7686 124.08 90.7686 123.647C90.7686 123.352 90.6739 123.109 90.4845 122.909C90.295 122.708 89.9371 122.529 89.4212 122.36L87.895 121.885C87.1266 121.643 86.5581 121.284 86.2108 120.809C85.8635 120.345 85.6845 119.828 85.6845 119.28C85.6845 118.836 85.7792 118.446 85.9686 118.109C86.1581 117.771 86.4107 117.476 86.7266 117.244C87.0423 117.001 87.4001 116.822 87.8212 116.695C88.2423 116.568 88.6844 116.516 89.1475 116.516C89.3792 116.516 89.6213 116.526 89.8528 116.558C90.0949 116.589 90.3159 116.632 90.537 116.674C90.7475 116.727 90.9476 116.779 91.1371 116.842C91.3265 116.906 91.4739 116.969 91.5791 117.033C91.7265 117.117 91.8319 117.201 91.895 117.296C91.9582 117.381 91.9898 117.497 91.9898 117.644V118.14C91.9898 118.362 91.9055 118.478 91.7476 118.478C91.6634 118.478 91.5266 118.436 91.3476 118.351C90.7475 118.077 90.0738 117.94 89.3265 117.94C88.7266 117.94 88.2528 118.035 87.9266 118.235C87.6002 118.436 87.4319 118.742 87.4319 119.174C87.4319 119.47 87.5371 119.723 87.7476 119.923C87.9582 120.124 88.3475 120.324 88.9054 120.503L90.4002 120.978C91.1582 121.221 91.7054 121.559 92.0318 121.991C92.3582 122.423 92.5161 122.919 92.5161 123.468C92.5161 123.921 92.4213 124.333 92.2423 124.692C92.0529 125.05 91.8003 125.367 91.4739 125.62C91.1475 125.884 90.7582 126.074 90.3055 126.211C89.8319 126.358 89.337 126.432 88.8002 126.432V126.432Z" fill="white"/>
<g clip-path="url(#clip2_14973_3180)">
<path d="M138.363 120.243L139.388 120.26L142.173 117.475L142.308 116.295C140.099 114.327 137.183 113.129 133.996 113.129C128.226 113.129 123.356 117.055 121.914 122.373C122.218 122.161 122.868 122.32 122.868 122.32L128.433 121.405C128.433 121.405 128.719 120.931 128.864 120.955C129.515 120.24 130.308 119.669 131.192 119.278C132.076 118.888 133.032 118.686 133.999 118.686C135.649 118.69 137.169 119.273 138.363 120.237V120.243Z" fill="#EA4335"/>
<path d="M146.086 122.385C145.44 120 144.107 117.894 142.309 116.297L138.365 120.24C139.945 121.515 140.959 123.466 140.959 125.65V126.346C142.877 126.346 144.436 127.908 144.436 129.823C144.436 131.742 142.874 133.3 140.959 133.3H134.005L133.309 134V138.173L134.005 138.866H140.959C143.356 138.863 145.654 137.909 147.349 136.214C149.044 134.519 149.998 132.221 150.001 129.824C149.998 126.746 148.451 124.023 146.086 122.385Z" fill="#4285F4"/>
<path d="M127.042 138.869H133.992V133.299H127.042C126.548 133.299 126.06 133.193 125.611 132.988L124.607 133.296L121.822 136.081L121.578 137.021C123.148 138.218 125.067 138.866 127.041 138.865L127.042 138.869Z" fill="#34A853"/>
<path d="M127.042 120.785C124.645 120.788 122.347 121.742 120.652 123.437C118.957 125.132 118.003 127.43 118 129.827C118 132.764 119.406 135.375 121.583 137.029L125.615 132.997C125.005 132.721 124.487 132.276 124.123 131.714C123.76 131.152 123.566 130.497 123.565 129.827C123.565 127.909 125.127 126.35 127.042 126.35C128.452 126.35 129.664 127.2 130.212 128.4L134.244 124.368C132.591 122.192 129.979 120.785 127.043 120.785H127.042Z" fill="#FBBC05"/>
</g>
<path d="M180.479 118.553C179.313 118.789 178.07 119.724 177.539 120.746C177.008 121.768 177 122.019 177 126.318L177.096 130.8C177.439 132.55 178.807 133.918 180.557 134.261C181.087 134.357 187.989 134.405 187.989 134.3C187.989 134.222 187.402 131.91 187.36 131.891C187.35 131.872 186.126 131.602 184.642 131.283C181.182 130.531 181.288 130.55 180.998 130.213L180.746 129.914V122.916L180.998 122.602C181.287 122.256 181.181 122.284 184.642 121.532L187.36 120.924C187.39 120.895 187.989 118.582 187.989 118.515C187.989 118.424 180.942 118.467 180.479 118.563V118.553ZM191.651 118.568C191.662 118.741 192.201 120.872 192.259 120.92C192.277 120.949 193.599 121.248 195.191 121.585L198.305 122.337C198.475 122.436 198.617 122.575 198.72 122.742C198.874 123.012 198.894 123.302 198.894 126.405L198.72 130.067C198.615 130.233 198.473 130.371 198.305 130.473C198.179 130.54 196.782 130.878 195.191 131.225L192.259 131.89C192.02 132.664 191.817 133.449 191.651 134.242C191.651 134.347 192.346 134.368 195.39 134.338C199.593 134.3 199.642 134.29 200.711 133.568C201.479 133.039 202.06 132.279 202.369 131.398C202.591 130.752 202.591 130.695 202.591 126.406L202.369 121.41C202.06 120.529 201.479 119.77 200.711 119.241C199.64 118.508 199.592 118.508 195.39 118.47C192.345 118.441 191.651 118.456 191.651 118.567V118.568ZM187.35 126.201C187.318 126.304 187.312 126.413 187.331 126.519C187.36 126.682 187.533 126.693 189.798 126.721L192.228 126.74V126.065H189.819C187.805 126.065 187.39 126.084 187.352 126.202L187.35 126.201Z" fill="white"/>
<path fill-rule="evenodd" clip-rule="evenodd" d="M249.867 117.282L245.134 126.815L253.467 136.475L238 138.23L262 138.48L249.867 117.282ZM248.933 113.52L238.067 122.613L230 136.223L236.867 135.523L248.933 113.52Z" fill="#035BDA"/>
<g clip-path="url(#clip3_14973_3180)">
<path fill-rule="evenodd" clip-rule="evenodd" d="M79.0977 163.656C75.8801 163.663 72.7382 164.632 70.0756 166.439C67.413 168.245 65.3514 170.807 64.1556 173.794C62.9598 176.781 62.6845 180.057 63.365 183.202C64.0455 186.347 65.6509 189.216 67.9747 191.442C68.5238 191.966 69.2427 192.276 70.0008 192.315C70.7589 192.355 71.5061 192.121 72.1067 191.657C74.0914 190.185 76.4969 189.39 78.9679 189.39C81.4389 189.39 83.8445 190.185 85.8292 191.657C86.4352 192.136 87.1951 192.379 87.9669 192.34C88.7388 192.3 89.4699 191.981 90.0237 191.442C92.3359 189.228 93.9374 186.376 94.6242 183.25C95.3111 180.123 95.0523 176.863 93.8809 173.884C92.7094 170.905 90.6783 168.342 88.0458 166.52C85.4133 164.699 82.2985 163.702 79.0977 163.656ZM79.0077 187.794C77.9436 187.828 76.8837 187.645 75.8929 187.255C74.9022 186.865 74.0016 186.277 73.2462 185.527C72.4909 184.777 71.8969 183.88 71.5005 182.892C71.1041 181.904 70.9138 180.845 70.9412 179.781C70.9051 178.705 71.0858 177.634 71.4725 176.629C71.8592 175.625 72.444 174.709 73.192 173.935C73.9401 173.162 74.8361 172.547 75.8268 172.127C76.8175 171.707 77.8826 171.49 78.9587 171.49C80.0347 171.49 81.0998 171.707 82.0905 172.127C83.0812 172.547 83.9772 173.162 84.7253 173.935C85.4733 174.709 86.0581 175.625 86.4448 176.629C86.8315 177.634 87.0122 178.705 86.9762 179.781C87.0045 180.841 86.8166 181.895 86.424 182.88C86.0313 183.865 85.4421 184.76 84.6923 185.51C83.9425 186.26 83.0478 186.849 82.0628 187.242C81.0778 187.634 80.0232 187.822 78.9632 187.794" fill="#81B5A1"/>
</g>
<g clip-path="url(#clip4_14973_3180)">
<path d="M149.584 162H134.215C134.215 163.84 134.946 165.605 136.247 166.906C137.548 168.207 139.313 168.938 141.153 168.938H143.984V171.671C143.986 175.499 147.089 178.602 150.917 178.604V163.333C150.917 162.597 150.32 162 149.584 162Z" fill="#2684FF"/>
<path d="M141.978 169.656H126.609C126.612 173.484 129.715 176.587 133.543 176.59H136.374V179.332C136.379 183.16 139.483 186.261 143.312 186.261V170.99C143.312 170.253 142.715 169.656 141.978 169.656Z" fill="url(#paint1_linear_14973_3180)"/>
<path d="M134.369 177.312H119C119 181.144 122.106 184.25 125.938 184.25H128.778V186.984C128.78 190.808 131.878 193.91 135.702 193.917V178.646C135.702 177.909 135.105 177.312 134.369 177.312Z" fill="url(#paint2_linear_14973_3180)"/>
</g>
<g clip-path="url(#clip5_14973_3180)">
<path fill-rule="evenodd" clip-rule="evenodd" d="M186.74 162C184.975 162.001 183.546 163.434 183.548 165.199C183.546 166.965 184.976 168.397 186.742 168.399H189.936V165.201C189.937 163.435 188.507 162.003 186.74 162C186.742 162 186.742 162 186.74 162M186.74 170.533H178.225C176.46 170.535 175.03 171.967 175.031 173.733C175.029 175.498 176.459 176.931 178.224 176.933H186.74C188.506 176.932 189.936 175.499 189.935 173.734C189.936 171.967 188.506 170.535 186.74 170.533Z" fill="#36C5F0"/>
<path fill-rule="evenodd" clip-rule="evenodd" d="M206.966 173.733C206.967 171.967 205.537 170.535 203.772 170.533C202.006 170.535 200.576 171.967 200.578 173.733V176.933H203.772C205.537 176.932 206.967 175.499 206.966 173.733ZM198.449 173.733V165.199C198.451 163.435 197.022 162.003 195.257 162C193.491 162.001 192.061 163.434 192.063 165.199V173.733C192.06 175.498 193.49 176.931 195.255 176.933C197.021 176.932 198.451 175.499 198.449 173.733Z" fill="#2EB67D"/>
<path fill-rule="evenodd" clip-rule="evenodd" d="M195.257 194.001C197.022 194 198.452 192.567 198.451 190.802C198.452 189.036 197.022 187.604 195.257 187.602H192.063V190.802C192.061 192.566 193.491 193.998 195.257 194.001ZM195.257 185.466H203.773C205.538 185.465 206.968 184.032 206.967 182.267C206.97 180.502 205.54 179.069 203.774 179.066H195.258C193.493 179.068 192.063 180.5 192.064 182.266C192.063 184.032 193.491 185.465 195.257 185.466Z" fill="#ECB22E"/>
<path fill-rule="evenodd" clip-rule="evenodd" d="M175.031 182.266C175.03 184.031 176.46 185.464 178.225 185.465C179.991 185.464 181.421 184.031 181.42 182.266V179.066H178.225C176.46 179.068 175.03 180.5 175.031 182.266ZM183.548 182.266V190.799C183.545 192.564 184.975 193.997 186.74 194C188.506 193.998 189.936 192.566 189.935 190.8V182.268C189.937 180.503 188.507 179.07 186.742 179.068C184.975 179.068 183.546 180.5 183.548 182.266C183.548 182.266 183.548 182.267 183.548 182.266Z" fill="#E01E5A"/>
</g>
<rect x="30" y="78" width="264" height="148" stroke="url(#paint3_linear_14973_3180)" stroke-width="2"/>
</g>
<defs>
<linearGradient id="paint0_linear_14973_3180" x1="30" y1="361.5" x2="252.064" y2="164.756" gradientUnits="userSpaceOnUse">
<stop stop-color="#1D32F4"/>
<stop offset="1" stop-color="#1D32F4" stop-opacity="0"/>
</linearGradient>
<linearGradient id="paint1_linear_14973_3180" x1="142.983" y1="169.683" x2="136.485" y2="176.463" gradientUnits="userSpaceOnUse">
<stop offset="0.18" stop-color="#0052CC"/>
<stop offset="1" stop-color="#2684FF"/>
</linearGradient>
<linearGradient id="paint2_linear_14973_3180" x1="135.813" y1="177.388" x2="128.297" y2="184.783" gradientUnits="userSpaceOnUse">
<stop offset="0.18" stop-color="#0052CC"/>
<stop offset="1" stop-color="#2684FF"/>
</linearGradient>
<linearGradient id="paint3_linear_14973_3180" x1="49" y1="78" x2="202.765" y2="182.866" gradientUnits="userSpaceOnUse">
<stop stop-color="#1D32F4"/>
<stop offset="1" stop-color="#1D32F4" stop-opacity="0"/>
</linearGradient>
<clipPath id="clip0_14973_3180">
<rect width="624" height="437" fill="white"/>
</clipPath>
<clipPath id="clip1_14973_3180">
<rect width="297" height="139" fill="white" transform="translate(392 128)"/>
</clipPath>
<clipPath id="clip2_14973_3180">
<rect width="32" height="32" fill="white" transform="translate(118 110)"/>
</clipPath>
<clipPath id="clip3_14973_3180">
<rect width="32" height="32" fill="white" transform="translate(63 162)"/>
</clipPath>
<clipPath id="clip4_14973_3180">
<rect width="32" height="32" fill="white" transform="translate(119 162)"/>
</clipPath>
<clipPath id="clip5_14973_3180">
<rect width="32" height="32" fill="white" transform="translate(175 162)"/>
</clipPath>
</defs>
</svg>
