<svg width="624" height="437" viewBox="0 0 624 437" fill="none" xmlns="http://www.w3.org/2000/svg">
<rect width="624" height="437" fill="#040C25"/>
<rect x="46" y="53" width="80" height="80" fill="#040C25"/>
<g clip-path="url(#clip0_16459_12371)">
<path fill-rule="evenodd" clip-rule="evenodd" d="M86.0018 79.8242L86.5259 80.1467L99.5259 88.1467L102.535 89.9984H99.0018H96.0018V97.9984H98.0018H99.0018V99.9984H98.0018H95.0018H89.0018H83.0018H77.0018H74.0018H73.0018V97.9984H74.0018H76.0018V89.9984H73.0018H69.4688L72.4777 88.1467L85.4777 80.1467L86.0018 79.8242ZM94.0018 89.9984V97.9984H90.0018V89.9984H94.0018ZM88.0018 89.9984V97.9984H84.0018V89.9984H88.0018ZM82.0018 89.9984V97.9984H78.0018V89.9984H82.0018ZM95.0018 87.9984H95.4688L86.0018 82.1726L76.5348 87.9984H77.0018H83.0018H89.0018H95.0018ZM72.0018 101.998H71.0018V103.998H72.0018H100.002H101.002V101.998H100.002H72.0018Z" fill="white"/>
</g>
<rect x="46" y="53" width="80" height="80" stroke="url(#paint0_linear_16459_12371)" stroke-width="2"/>
<rect x="46" y="181" width="80" height="80" fill="#040C25"/>
<path fill-rule="evenodd" clip-rule="evenodd" d="M86.5041 207.138L86.0003 206.844L85.4964 207.138L73.4964 214.138L72.0156 215.001L73.4964 215.865L77.1551 218L73.4964 220.134L72.0156 220.998L73.4964 221.861L77.1585 223.998L73.4964 226.134L72.0156 226.998L73.4964 227.861L85.4964 234.861L86.0003 235.155L86.5041 234.861L98.5041 227.861L99.9849 226.998L98.5041 226.134L94.842 223.998L98.5041 221.861L99.9849 220.998L98.5041 220.134L94.8454 218L98.5041 215.865L99.9849 215.001L98.5041 214.138L86.5041 207.138ZM92.8607 219.157L86.5041 222.865L86.0003 223.159L85.4964 222.865L79.1398 219.157L75.9849 220.998L86.0003 226.84L96.0156 220.998L92.8607 219.157ZM86.0003 220.844L75.9849 215.001L86.0003 209.159L96.0156 215.001L86.0003 220.844ZM75.9849 226.998L79.1431 225.155L85.4964 228.861L86.0003 229.155L86.5041 228.861L92.8574 225.155L96.0156 226.998L86.0003 232.84L75.9849 226.998Z" fill="white"/>
<rect x="46" y="181" width="80" height="80" stroke="url(#paint1_linear_16459_12371)" stroke-width="2"/>
<rect x="46" y="309" width="80" height="80" fill="#040C25"/>
<rect x="79" y="336.996" width="14" height="8" stroke="white" stroke-width="2"/>
<rect x="74" y="355.668" width="5.33333" height="5.33333" stroke="white" stroke-width="2"/>
<rect x="92.668" y="355.668" width="5.33333" height="5.33333" stroke="white" stroke-width="2"/>
<path d="M85.9974 345.594V351.119M85.9974 351.119H76.6641V355.066M85.9974 351.119H95.3307V355.066" stroke="white" stroke-width="2"/>
<rect x="46" y="309" width="80" height="80" stroke="url(#paint2_linear_16459_12371)" stroke-width="2"/>
<rect x="174" y="181" width="80" height="80" fill="#040C25"/>
<path d="M223.596 218.599C223.596 224.663 214.001 232.992 214.001 232.992C214.001 232.992 204.406 224.704 204.406 218.599C204.406 212.494 208.702 209.004 214.001 209.004C219.301 209.004 223.596 212.535 223.596 218.599Z" stroke="white" stroke-width="2"/>
<path d="M211.128 222.713V214.312H209.688V222.713H211.128Z" fill="white"/>
<path d="M214.62 222.713V219.521H216.864C218.46 219.521 219.564 218.561 219.564 216.917C219.564 215.26 218.46 214.312 216.864 214.312H213.18V222.713H214.62ZM214.62 215.597H216.684C217.62 215.597 218.124 216.089 218.124 216.917C218.124 217.733 217.62 218.237 216.684 218.237H214.62V215.597Z" fill="white"/>
<path fill-rule="evenodd" clip-rule="evenodd" d="M211.395 222.976H209.422V214.043H211.395V222.976ZM211.129 214.31V222.71H209.689V214.31H211.129ZM214.887 222.976H212.914V214.043H216.865C217.715 214.043 218.46 214.296 218.995 214.796C219.533 215.298 219.831 216.024 219.831 216.914C219.831 217.798 219.533 218.524 218.996 219.027C218.461 219.528 217.716 219.784 216.865 219.784H214.887V222.976ZM214.621 222.71H213.181V214.31H216.865C218.461 214.31 219.565 215.258 219.565 216.914C219.565 218.558 218.461 219.518 216.865 219.518H214.621V222.71ZM216.685 215.86H214.887V217.967H216.685C217.107 217.967 217.394 217.854 217.573 217.685C217.751 217.519 217.858 217.266 217.858 216.914C217.858 216.555 217.75 216.303 217.574 216.138C217.395 215.971 217.108 215.86 216.685 215.86ZM214.621 215.594V218.234H216.685C217.621 218.234 218.125 217.73 218.125 216.914C218.125 216.086 217.621 215.594 216.685 215.594H214.621Z" fill="white"/>
<rect x="174" y="181" width="80" height="80" stroke="url(#paint3_linear_16459_12371)" stroke-width="2"/>
<rect x="174" y="309" width="80" height="80" fill="#040C25"/>
<path fill-rule="evenodd" clip-rule="evenodd" d="M218.939 338.342L219.281 337.402L217.401 336.719L217.06 337.659L209.06 359.659L208.718 360.598L210.598 361.282L210.939 360.342L218.939 338.342ZM207.408 344.128L206.64 344.769L201.562 349L206.64 353.232L207.408 353.872L206.128 355.409L205.359 354.769L199.359 349.769L198.438 349L199.359 348.232L205.359 343.232L206.128 342.592L207.408 344.128ZM221.872 342.592L222.64 343.232L228.64 348.232L229.562 349L228.64 349.769L222.64 354.769L221.872 355.409L220.591 353.872L221.359 353.232L226.438 349L221.359 344.769L220.591 344.128L221.872 342.592Z" fill="white"/>
<rect x="174" y="309" width="80" height="80" stroke="url(#paint4_linear_16459_12371)" stroke-width="2"/>
<rect x="174" y="53" width="80" height="80" fill="#040C25"/>
<path fill-rule="evenodd" clip-rule="evenodd" d="M204.037 100.988C203.993 101.806 204.189 102.281 204.454 102.546C204.719 102.811 205.194 103.007 206.012 102.963C206.83 102.918 207.875 102.635 209.09 102.088C210.101 101.633 211.195 101.011 212.329 100.24C211.346 99.4422 210.364 98.5576 209.404 97.5975C208.443 96.6369 207.558 95.6542 206.76 94.6712C205.989 95.8046 205.367 96.8991 204.912 97.9103C204.365 99.1252 204.082 100.17 204.037 100.988ZM209.91 103.912C211.203 103.33 212.588 102.519 213.999 101.514C215.41 102.52 216.796 103.331 218.09 103.913C219.434 104.518 220.729 104.898 221.879 104.961C223.029 105.024 224.152 104.77 224.96 103.961C225.769 103.153 226.022 102.03 225.96 100.88C225.897 99.7302 225.517 98.4353 224.912 97.091C224.33 95.7975 223.519 94.4119 222.512 93.0006C223.519 91.5893 224.33 90.2037 224.912 88.9103C225.517 87.566 225.897 86.2711 225.96 85.1208C226.022 83.9712 225.769 82.8484 224.96 82.0398C224.152 81.2312 223.029 80.9778 221.879 81.0403C220.729 81.1029 219.434 81.4831 218.09 82.088C216.796 82.6701 215.41 83.4814 213.999 84.4877C212.588 83.482 211.203 82.6712 209.91 82.0894C208.566 81.4845 207.271 81.1043 206.121 81.0417C204.971 80.9791 203.848 81.2326 203.04 82.0412C202.231 82.8498 201.978 83.9725 202.04 85.1221C202.103 86.2724 202.483 87.5674 203.088 88.9117C203.67 90.2047 204.481 91.5898 205.487 93.0006C204.481 94.4115 203.67 95.7966 203.088 97.0896C202.483 98.4339 202.103 99.7289 202.04 100.879C201.978 102.029 202.231 103.152 203.04 103.96C203.848 104.769 204.971 105.022 206.121 104.96C207.271 104.897 208.566 104.517 209.91 103.912ZM223.088 97.9117C222.633 96.9 222.011 95.805 221.239 94.6711C220.441 95.6536 219.556 96.636 218.596 97.5962C217.635 98.5568 216.653 99.4419 215.67 100.24C216.804 101.012 217.899 101.634 218.91 102.089C220.125 102.636 221.17 102.919 221.988 102.964C222.806 103.008 223.281 102.813 223.546 102.547C223.811 102.282 224.007 101.808 223.963 100.989C223.918 100.171 223.635 99.1266 223.088 97.9117ZM217.182 96.1819C218.234 95.1295 219.183 94.0579 220.014 93.0006C219.183 91.9434 218.234 90.8717 217.182 89.8193C216.129 88.7664 215.057 87.8178 213.999 86.9864C212.942 87.8174 211.87 88.7656 210.818 89.818C209.765 90.8708 208.817 91.9429 207.985 93.0006C208.817 94.0584 209.765 95.1305 210.818 96.1833C211.87 97.2356 212.942 98.1838 213.999 99.0149C215.057 98.1835 216.129 97.2349 217.182 96.1819ZM223.088 88.0896C222.633 89.1013 222.011 90.1963 221.239 91.3302C220.441 90.3477 219.556 89.3653 218.596 88.4051C217.635 87.4445 216.653 86.5594 215.67 85.7612C216.804 84.9893 217.899 84.3672 218.91 83.9119C220.125 83.3652 221.17 83.0819 221.988 83.0374C222.806 82.9928 223.281 83.1887 223.546 83.454C223.811 83.7194 224.007 84.1935 223.963 85.0121C223.918 85.8301 223.635 86.8747 223.088 88.0896ZM209.09 83.9132C210.101 84.3683 211.195 84.99 212.329 85.7613C211.346 86.5591 210.364 87.4437 209.404 88.4038C208.443 89.3643 207.558 90.3471 206.76 91.3301C205.989 90.1967 205.367 89.1022 204.912 88.091C204.365 86.876 204.082 85.8314 204.037 85.0135C203.993 84.1949 204.189 83.7207 204.454 83.4554C204.719 83.19 205.194 82.9942 206.012 83.0387C206.83 83.0832 207.875 83.3665 209.09 83.9132ZM215.498 93.0006C215.498 93.8291 214.827 94.5006 213.998 94.5006C213.17 94.5006 212.498 93.8291 212.498 93.0006C212.498 92.1722 213.17 91.5006 213.998 91.5006C214.827 91.5006 215.498 92.1722 215.498 93.0006Z" fill="white"/>
<rect x="174" y="53" width="80" height="80" stroke="url(#paint5_linear_16459_12371)" stroke-width="2"/>
<g clip-path="url(#clip1_16459_12371)">
<rect x="311" y="53" width="267" height="336" fill="#061030"/>
<path d="M443.152 195.175L432.543 189.088L443.152 183L453.761 189.088L443.152 195.175Z" fill="white"/>
<path d="M425.477 221.538V209.363L432.549 205.305L443.158 211.392L425.477 221.538Z" fill="white"/>
<path d="M474.972 213.433L464.363 207.345L474.972 201.258L485.581 207.345L474.972 213.433Z" fill="white"/>
<path d="M414.859 211.402L404.25 205.314L414.859 199.227L425.468 205.314L414.859 211.402Z" fill="white"/>
<path d="M414.859 211.392L404.25 205.305V225.596L414.859 231.684V211.392Z" fill="white"/>
<path d="M446.691 229.677L436.082 223.59V243.882L446.691 249.969V229.677Z" fill="white"/>
<path d="M443.152 195.17L432.543 189.082V209.374L443.152 211.403V195.17Z" fill="white"/>
<path d="M457.289 239.823V227.648L464.362 223.59L474.971 229.677L457.289 239.823Z" fill="white"/>
<path d="M474.972 213.431L464.363 207.344V223.577L474.972 229.665V213.431Z" fill="white"/>
<path d="M446.691 229.663L436.082 223.576L446.691 217.488L457.3 223.576L446.691 229.663Z" fill="white"/>
<path d="M404.25 233.73V221.555L446.686 245.905V258.08L404.25 233.73Z" fill="white"/>
<rect x="328.172" y="169.789" width="176.862" height="176.862" transform="rotate(-21.7121 328.172 169.789)" stroke="#1D284E" stroke-width="2"/>
<rect x="233" y="237.84" width="302.549" height="302.549" transform="rotate(-49.4369 233 237.84)" stroke="#1D294E" stroke-width="2"/>
</g>
<rect x="312" y="54" width="265" height="334" stroke="#1D284E" stroke-width="2"/>
<defs>
<linearGradient id="paint0_linear_16459_12371" x1="71.5" y1="53" x2="86" y2="115.5" gradientUnits="userSpaceOnUse">
<stop stop-color="#1D32F4"/>
<stop offset="0.975773" stop-color="#1D32F4" stop-opacity="0.1"/>
</linearGradient>
<linearGradient id="paint1_linear_16459_12371" x1="42.5" y1="264" x2="132.5" y2="170" gradientUnits="userSpaceOnUse">
<stop stop-color="#1D32F4"/>
<stop offset="0.975773" stop-color="#1D32F4" stop-opacity="0"/>
</linearGradient>
<linearGradient id="paint2_linear_16459_12371" x1="42.5" y1="392" x2="132.5" y2="298" gradientUnits="userSpaceOnUse">
<stop stop-color="#1D32F4"/>
<stop offset="0.975773" stop-color="#1D32F4" stop-opacity="0"/>
</linearGradient>
<linearGradient id="paint3_linear_16459_12371" x1="263" y1="165.5" x2="185.5" y2="257" gradientUnits="userSpaceOnUse">
<stop stop-color="#1D32F4"/>
<stop offset="0.975773" stop-color="#1D32F4" stop-opacity="0.1"/>
</linearGradient>
<linearGradient id="paint4_linear_16459_12371" x1="263" y1="293.5" x2="185.5" y2="385" gradientUnits="userSpaceOnUse">
<stop stop-color="#1D32F4"/>
<stop offset="0.975773" stop-color="#1D32F4" stop-opacity="0.1"/>
</linearGradient>
<linearGradient id="paint5_linear_16459_12371" x1="167" y1="129" x2="254" y2="50" gradientUnits="userSpaceOnUse">
<stop stop-color="#1D32F4"/>
<stop offset="0.975773" stop-color="#1D32F4" stop-opacity="0.1"/>
</linearGradient>
<clipPath id="clip0_16459_12371">
<rect width="32" height="32" fill="white" transform="translate(70 77)"/>
</clipPath>
<clipPath id="clip1_16459_12371">
<rect x="311" y="53" width="267" height="336" fill="white"/>
</clipPath>
</defs>
</svg>
