<svg width="624" height="437" viewBox="0 0 624 437" fill="none" xmlns="http://www.w3.org/2000/svg">
<rect x="32.5" y="72.5" width="379" height="287" fill="#061030"/>
<mask id="path-3-inside-1_14877_795" fill="white">
<path fill-rule="evenodd" clip-rule="evenodd" d="M105.101 139.073H86.8945C88.1762 142.871 91.7676 145.605 95.9977 145.605C100.228 145.605 103.819 142.871 105.101 139.073ZM105.099 132.922H86.896C88.1789 129.127 91.7692 126.395 95.9977 126.395C100.226 126.395 103.817 129.127 105.099 132.922Z"/>
</mask>
<path d="M105.101 139.073L106.996 139.713L107.887 137.073H105.101V139.073ZM86.8945 139.073V137.073H84.1088L84.9995 139.713L86.8945 139.073ZM86.896 132.922L85.0013 132.282L84.1088 134.922H86.896V132.922ZM105.099 132.922V134.922H107.887L106.994 132.282L105.099 132.922ZM105.101 137.073H86.8945V141.073H105.101V137.073ZM95.9977 143.605C92.6515 143.605 89.8051 141.443 88.7895 138.434L84.9995 139.713C86.5472 144.299 90.8837 147.605 95.9977 147.605V143.605ZM103.206 138.434C102.19 141.443 99.3439 143.605 95.9977 143.605V147.605C101.112 147.605 105.448 144.299 106.996 139.713L103.206 138.434ZM86.896 134.922H105.099V130.922H86.896V134.922ZM88.7907 133.563C89.8073 130.555 92.6528 128.395 95.9977 128.395V124.395C90.8857 124.395 86.5505 127.699 85.0013 132.282L88.7907 133.563ZM95.9977 128.395C99.3427 128.395 102.188 130.555 103.205 133.563L106.994 132.282C105.445 127.699 101.11 124.395 95.9977 124.395V128.395Z" fill="white" mask="url(#path-3-inside-1_14877_795)"/>
<path d="M90.5947 134.025L89.9125 136.625L89.2372 134.026L89.2177 133.951H89.1404H88.1895H88.1111L88.0924 134.027L87.452 136.636L86.7428 134.025L86.7227 133.951H86.6463H85.7344H85.5992L85.6388 134.08L86.8312 137.977L86.8529 138.048H86.9269H87.9323H88.0097L88.0291 137.973L88.6737 135.483L89.3321 137.973L89.3518 138.048H89.4288H90.4264H90.5011L90.5223 137.976L91.6758 134.079L91.7138 133.951H91.5799H90.6914H90.6143L90.5947 134.025Z" fill="white" stroke="white" stroke-width="0.2"/>
<path d="M97.9384 134.025L97.2562 136.625L96.5809 134.026L96.5615 133.951H96.4841H95.5333H95.4548L95.4361 134.027L94.7957 136.636L94.0865 134.025L94.0665 133.951H93.99H93.0781H92.9429L92.9825 134.08L94.175 137.977L94.1966 138.048H94.2706H95.2761H95.3535L95.3729 137.973L96.0175 135.483L96.6758 137.973L96.6955 138.048H96.7725H97.7702H97.8448L97.866 137.976L99.0196 134.079L99.0576 133.951H98.9237H98.0351H97.958L97.9384 134.025Z" fill="white" stroke="white" stroke-width="0.2"/>
<path d="M105.282 134.025L104.6 136.625L103.925 134.026L103.905 133.951H103.828H102.877H102.799L102.78 134.027L102.139 136.636L101.43 134.025L101.41 133.951H101.334H100.422H100.287L100.326 134.08L101.519 137.977L101.54 138.048H101.614H102.62H102.697L102.717 137.973L103.361 135.483L104.02 137.973L104.039 138.048H104.116H105.114H105.189L105.21 137.976L106.363 134.079L106.401 133.951H106.267H105.379H105.302L105.282 134.025Z" fill="white" stroke="white" stroke-width="0.2"/>
<rect x="72" y="112" width="48" height="48" stroke="#1D294E" stroke-width="2"/>
<rect x="90.75" y="206.996" width="10.5" height="6" stroke="white" stroke-width="2"/>
<rect x="87" y="221" width="4" height="4" stroke="white" stroke-width="2"/>
<rect x="101" y="221" width="4" height="4" stroke="white" stroke-width="2"/>
<path d="M96 213.445V217.59M96 217.59H89V220.55M96 217.59H103V220.55" stroke="white" stroke-width="2"/>
<rect x="72" y="192" width="48" height="48" stroke="#E00000" stroke-width="2"/>
<path d="M103.197 294.2C103.197 298.748 96.001 304.995 96.001 304.995C96.001 304.995 88.8047 298.779 88.8047 294.2C88.8047 289.622 92.0266 287.004 96.001 287.004C99.9754 287.004 103.197 289.652 103.197 294.2Z" stroke="white" stroke-width="2"/>
<path d="M93.8456 297.284V290.984H92.7656V297.284H93.8456Z" fill="white"/>
<path d="M96.4648 297.284V294.89H98.1478C99.3448 294.89 100.173 294.17 100.173 292.937C100.173 291.695 99.3448 290.984 98.1478 290.984H95.3848V297.284H96.4648ZM96.4648 291.947H98.0128C98.7148 291.947 99.0928 292.316 99.0928 292.937C99.0928 293.549 98.7148 293.927 98.0128 293.927H96.4648V291.947Z" fill="white"/>
<path fill-rule="evenodd" clip-rule="evenodd" d="M94.0464 297.485H92.5664V290.785H94.0464V297.485ZM93.8464 290.985V297.285H92.7664V290.985H93.8464ZM96.6655 297.485H95.1855V290.785H98.1485C98.786 290.785 99.345 290.975 99.7464 291.35C100.15 291.726 100.374 292.271 100.374 292.938C100.374 293.601 100.15 294.146 99.7467 294.523C99.3455 294.899 98.7866 295.091 98.1485 295.091H96.6655V297.485ZM96.4655 297.285H95.3855V290.985H98.1485C99.3455 290.985 100.174 291.696 100.174 292.938C100.174 294.171 99.3455 294.891 98.1485 294.891H96.4655V297.285ZM98.0135 292.148H96.6655V293.728H98.0135C98.33 293.728 98.5451 293.643 98.6799 293.517C98.8131 293.392 98.8935 293.202 98.8935 292.938C98.8935 292.669 98.8127 292.48 98.6804 292.357C98.5461 292.231 98.3312 292.148 98.0135 292.148ZM96.4655 291.948V293.928H98.0135C98.7155 293.928 99.0935 293.55 99.0935 292.938C99.0935 292.317 98.7155 291.948 98.0135 291.948H96.4655Z" fill="white"/>
<rect x="72" y="272" width="48" height="48" stroke="#1D294E" stroke-width="2"/>
<rect x="137" y="118" width="84" height="4" fill="#1D294E"/>
<rect x="137" y="128" width="112" height="4" fill="#1D294E"/>
<rect x="348" y="118" width="24" height="4" fill="#ADB3C5"/>
<rect x="137" y="150" width="19" height="4" fill="#ADB3C5"/>
<rect x="137" y="198" width="146" height="4" fill="white"/>
<rect x="137" y="208" width="84" height="4" fill="white"/>
<rect x="348" y="198" width="24" height="4" fill="#ADB3C5"/>
<rect x="137" y="230" width="26" height="4" fill="#ADB3C5"/>
<rect x="137" y="278" width="106" height="4" fill="#1D294E"/>
<rect x="137" y="288" width="120" height="4" fill="#1D294E"/>
<rect x="348" y="278" width="24" height="4" fill="#ADB3C5"/>
<rect x="137" y="310" width="30" height="4" fill="#ADB3C5"/>
<rect x="32.5" y="72.5" width="379" height="287" stroke="#1D294E"/>
<path d="M451 72H591V261H451V72Z" fill="#040C25" stroke="url(#paint0_radial_14877_795)" stroke-width="2"/>
<rect x="473" y="169" width="90" height="4" fill="white"/>
<rect x="473" y="181" width="68" height="4" fill="white"/>
<rect x="473" y="149" width="68" height="4" fill="white"/>
<path d="M547 234.5C552.5 234 563.5 235 563.5 241.5C563.5 246.028 554.5 247.5 553.5 242.5C552.5 237.5 560.5 230 568 227" stroke="#1D32F4" stroke-width="2"/>
<circle cx="487" cy="117" r="12" fill="#040C25" stroke="#1D32F4" stroke-width="2"/>
<path d="M482 117.333L485.077 120L492 114" stroke="#1D32F4" stroke-width="2"/>
<path d="M521 271L521 331" stroke="#1D284E" stroke-width="2"/>
<rect width="12" height="12" transform="matrix(-1 0 0 1 527 339)" stroke="#1D284E" stroke-width="2"/>
<path d="M507 345H420" stroke="#1D284E" stroke-width="2"/>
<defs>
<radialGradient id="paint0_radial_14877_795" cx="0" cy="0" r="1" gradientUnits="userSpaceOnUse" gradientTransform="translate(575.5 86) rotate(127.524) scale(236.415 233.587)">
<stop stop-color="#1D32F4"/>
<stop offset="1" stop-color="#1D32F4" stop-opacity="0.1"/>
</radialGradient>
</defs>
</svg>
