<svg width="584" height="524" viewBox="0 0 584 524" fill="none" xmlns="http://www.w3.org/2000/svg">
<g clip-path="url(#clip0_16744_20370)">
<path d="M41.4023 140.453L41.4024 494.555" stroke="url(#paint0_linear_16744_20370)" stroke-width="2"/>
<path d="M88.7107 179.791C92.7238 179.791 95.2734 177.501 95.5094 174.22H92.6766C92.3697 176.132 90.9297 177.265 88.8287 177.265H88.5926C85.571 177.265 83.6824 174.833 83.6824 171.292C83.6824 167.751 85.571 165.32 88.5926 165.32H88.8287C90.9297 165.32 92.3697 166.477 92.6766 168.365H95.5094C95.2734 165.131 92.7238 162.794 88.7107 162.794C83.7296 162.794 80.8496 166.311 80.8496 171.292C80.8496 176.273 83.7296 179.791 88.7107 179.791ZM101.317 179.555V163.03H98.6021V179.555H101.317ZM107.947 165.957V163.03H104.996V165.957H107.947ZM107.829 179.555V167.751H105.114V179.555H107.829ZM116.56 179.791C119.275 179.791 121.211 178.28 121.707 175.919H119.015C118.779 176.911 117.906 177.572 116.749 177.572H116.56C115.215 177.572 113.751 176.439 113.609 174.361H121.707C121.73 173.96 121.754 173.559 121.754 173.157C121.754 169.899 119.865 167.515 116.513 167.515C113.303 167.515 110.965 169.876 110.965 173.653C110.965 177.643 113.609 179.791 116.56 179.791ZM113.68 172.26C113.893 170.537 115.097 169.734 116.371 169.734H116.56C117.859 169.734 118.992 170.56 119.086 172.26H113.68ZM127.631 179.555V172.968C127.631 171.056 128.953 169.734 130.464 169.734H130.653C132.046 169.734 132.754 170.679 132.754 172.26V179.555H135.469V171.859C135.469 169.309 134.076 167.515 131.29 167.515C129.614 167.515 128.339 168.318 127.631 169.451V167.751H124.916V179.555H127.631ZM146.071 179.555V177.218H144.159C143.238 177.218 143.002 176.982 143.002 176.061V169.994H145.717V167.751H143.002V163.927H140.287V167.751H137.785V169.994H140.287V176.698C140.287 178.54 141.302 179.555 143.144 179.555H146.071ZM169.237 179.555L162.816 163.03H159.393L152.854 179.555H155.805L157.363 175.518H164.705L166.263 179.555H169.237ZM161.022 165.981L163.713 172.968H158.331L161.022 165.981ZM174.716 179.555V173.275H179.13C182.27 173.275 184.442 171.387 184.442 168.153C184.442 164.895 182.27 163.03 179.13 163.03H171.883V179.555H174.716ZM174.716 165.556H178.776C180.617 165.556 181.609 166.524 181.609 168.153C181.609 169.758 180.617 170.749 178.776 170.749H174.716V165.556ZM190.518 179.555V163.03H187.686V179.555H190.518Z" fill="white"/>
<path d="M112.026 117.117H113.019L110.537 124.712H109.187L107.434 118.165L105.68 124.712H104.346L101.848 117.117H102.887L105.044 123.831L106.797 117.117H108.085L109.916 123.922L112.026 117.117Z" fill="white"/>
<path d="M113.711 122.619C113.711 120.948 115.185 120.432 116.38 120.341L118.831 120.159V119.855C118.831 118.548 118.087 117.804 116.892 117.804H116.814C115.821 117.804 114.983 118.29 114.875 119.247H113.866C113.959 117.895 115.185 116.969 116.845 116.969C118.862 116.969 119.84 118.305 119.84 119.855V123.045C119.84 123.5 119.84 124.184 119.917 124.715H118.987C118.924 124.381 118.909 123.91 118.909 123.5C118.599 124.199 117.528 124.867 116.163 124.867C114.797 124.867 113.711 123.91 113.711 122.619ZM116.426 124.032C117.497 124.032 118.831 123.105 118.831 121.981V120.964L116.581 121.115C115.48 121.191 114.719 121.723 114.719 122.558C114.719 123.394 115.387 124.032 116.271 124.032H116.426Z" fill="white"/>
<path d="M124.014 124.716C123.006 124.716 122.54 124.336 122.54 123.349V117.956H120.756V117.121H122.54L122.54 115.231L123.549 114.66V117.121H125.488V117.956H123.549V123.273C123.549 123.728 123.704 123.88 124.169 123.88H125.721V124.716H124.014Z" fill="white"/>
<path d="M126.262 120.918C126.262 118.685 127.534 116.969 129.83 116.969C131.506 116.969 132.701 117.956 132.856 119.551H131.848C131.677 118.533 130.948 117.804 129.908 117.804H129.753C128.062 117.804 127.27 119.262 127.27 120.918C127.27 122.574 128.062 124.032 129.753 124.032H129.908C130.948 124.032 131.646 123.257 131.848 122.285H132.856C132.577 123.85 131.506 124.867 129.83 124.867C127.534 124.867 126.262 123.151 126.262 120.918Z" fill="white"/>
<path d="M134.465 124.715V114.082H135.473V118.411C136.001 117.515 136.963 116.968 138.266 116.968C139.989 116.968 140.904 118.107 140.904 119.702V124.715H139.896V120.006C139.896 118.548 139.275 117.803 138.034 117.803H137.878C136.684 117.803 135.473 118.852 135.473 120.613V124.715H134.465Z" fill="white"/>
<path d="M144.651 124.715V115.707H140.85V114.082H150.33V115.707H146.513V124.715H144.651Z" fill="white"/>
<path d="M149.338 120.918C149.338 118.609 150.921 116.969 153.139 116.969C155.374 116.969 156.956 118.609 156.956 120.918C156.956 123.227 155.374 124.867 153.139 124.867C150.921 124.867 149.338 123.227 149.338 120.918ZM153.201 123.439C154.365 123.439 155.157 122.513 155.157 120.918C155.157 119.323 154.365 118.397 153.201 118.397H153.077C151.929 118.397 151.122 119.323 151.122 120.918C151.122 122.513 151.929 123.439 153.077 123.439H153.201Z" fill="white"/>
<path d="M167.183 117.117H168.952L166.655 124.712H164.669L163.164 119.137L161.69 124.712H159.688L157.314 117.117H159.13L160.744 122.935L162.202 117.117H164.095L165.631 122.904L167.183 117.117Z" fill="white"/>
<path d="M170.012 124.714V117.119H171.765V118.699C172.075 117.651 172.929 117.043 174.015 117.043H174.542V118.683H173.875C172.525 118.683 171.796 119.428 171.796 120.81V124.714H170.012Z" fill="white"/>
<path d="M87.5422 115.352L85.5176 114.211L87.5422 113.07L89.5669 114.211L87.5422 115.352Z" fill="white"/>
<path d="M84.168 120.296V118.014L85.5177 117.254L87.5424 118.395L84.168 120.296Z" fill="white"/>
<path d="M93.6145 118.774L91.5898 117.633L93.6145 116.492L95.6392 117.633L93.6145 118.774Z" fill="white"/>
<path d="M82.1418 118.395L80.1172 117.254L82.1418 116.113L84.1665 117.254L82.1418 118.395Z" fill="white"/>
<path d="M82.1418 118.395L80.1172 117.254V121.057L82.1418 122.198V118.395Z" fill="white"/>
<path d="M88.2161 121.817L86.1914 120.676V124.479L88.2161 125.619V121.817Z" fill="white"/>
<path d="M87.5422 115.352L85.5176 114.211V118.014L87.5422 118.394V115.352Z" fill="white"/>
<path d="M90.2402 123.718V121.436L91.59 120.676L93.6147 121.817L90.2402 123.718Z" fill="white"/>
<path d="M93.6145 118.774L91.5898 117.633V120.675L93.6145 121.816V118.774Z" fill="white"/>
<path d="M88.2161 121.817L86.1914 120.676L88.2161 119.535L90.2407 120.676L88.2161 121.817Z" fill="white"/>
<path d="M80.1172 122.579V120.297L88.2158 124.86V127.142L80.1172 122.579Z" fill="white"/>
<rect x="132" y="217" width="81" height="5" fill="#1E2742"/>
<rect x="79.7637" y="216.543" width="42.2956" height="5.90171" fill="#1E2742"/>
<rect x="97.4688" y="234.246" width="24.5904" height="5.90171" fill="#1E2742"/>
<rect x="86.6484" y="271.621" width="35.4102" height="5.90171" fill="#1E2742"/>
<rect x="93.5352" y="290.312" width="28.5249" height="5.90171" fill="#1E2742"/>
<rect x="93.5352" y="327.688" width="28.5249" height="5.90171" fill="#1E2742"/>
<rect x="93.5352" y="404.414" width="28.5249" height="5.90171" fill="#1E2742"/>
<rect x="86.6484" y="378.836" width="35.4102" height="5.90171" fill="#1E2742"/>
<rect x="132" y="328" width="107" height="6" fill="#1E2742"/>
<rect x="132" y="234" width="144" height="6" fill="#1E2742"/>
<rect x="132" y="272" width="120" height="6" fill="#1E2742"/>
<rect x="132" y="379" width="155" height="6" fill="#1E2742"/>
<rect x="132" y="290" width="75" height="6" fill="#1E2742"/>
<rect x="132" y="401" width="114" height="6" fill="#1E2742"/>
<path d="M85 279H222H359V415H85V279Z" fill="url(#paint1_linear_16744_20370)"/>
<rect x="41" y="74.5547" width="685" height="375.533" stroke="url(#paint2_linear_16744_20370)" stroke-width="1.96724"/>
<rect x="317" y="31.9609" width="343.369" height="425.082" fill="#040C25"/>
<circle cx="343.066" cy="55.0779" r="5.4099" fill="#1D32F4"/>
<circle cx="362.738" cy="55.0779" r="4.4099" stroke="#D9D9D9" stroke-width="2"/>
<circle cx="383.394" cy="55.0779" r="4.4099" stroke="#D9D9D9" stroke-width="2"/>
<path d="M428.134 408.626C427.445 408.626 426.83 408.479 426.289 408.186C425.747 407.883 425.32 407.442 425.008 406.864C424.696 406.285 424.54 405.578 424.54 404.743V402.485C424.54 401.227 424.884 400.268 425.573 399.607C426.261 398.936 427.193 398.601 428.368 398.601C429.525 398.601 430.415 398.918 431.04 399.552C431.664 400.176 431.976 401.016 431.976 402.072V402.14H430.502V402.03C430.502 401.635 430.424 401.282 430.268 400.97C430.112 400.649 429.878 400.396 429.566 400.213C429.254 400.029 428.855 399.937 428.368 399.937C427.634 399.937 427.06 400.162 426.647 400.612C426.234 401.053 426.027 401.668 426.027 402.457V404.771C426.027 405.551 426.234 406.171 426.647 406.63C427.06 407.079 427.638 407.304 428.382 407.304C429.116 407.304 429.653 407.102 429.993 406.698C430.333 406.295 430.502 405.771 430.502 405.129V404.95H427.914V403.669H431.976V408.434H430.599V407.456H430.379C430.296 407.63 430.172 407.809 430.007 407.993C429.851 408.177 429.621 408.328 429.318 408.447C429.024 408.567 428.63 408.626 428.134 408.626ZM434.167 408.434V398.794H440.24V400.144H435.655V402.912H439.855V404.261H435.655V407.084H440.309V408.434H434.167ZM444.435 408.434V400.144H441.474V398.794H448.883V400.144H445.922V408.434H444.435ZM453.01 408.434L455.765 398.794H458.381L461.121 408.434H459.593L458.959 406.161H455.186L454.553 408.434H453.01ZM455.558 404.784H458.587L457.183 399.717H456.963L455.558 404.784ZM466.175 408.626C465 408.626 464.069 408.296 463.38 407.635C462.691 406.965 462.347 406.001 462.347 404.743V402.485C462.347 401.227 462.691 400.268 463.38 399.607C464.069 398.936 465 398.601 466.175 398.601C467.332 398.601 468.223 398.923 468.847 399.565C469.48 400.208 469.797 401.085 469.797 402.195V402.278H468.324V402.154C468.324 401.502 468.145 400.97 467.787 400.557C467.438 400.144 466.901 399.937 466.175 399.937C465.441 399.937 464.867 400.162 464.454 400.612C464.041 401.053 463.834 401.668 463.834 402.457V404.771C463.834 405.551 464.041 406.166 464.454 406.616C464.867 407.066 465.441 407.291 466.175 407.291C466.901 407.291 467.438 407.084 467.787 406.671C468.145 406.249 468.324 405.716 468.324 405.074V404.839H469.797V405.032C469.797 406.143 469.48 407.02 468.847 407.662C468.223 408.305 467.332 408.626 466.175 408.626ZM475.3 408.626C474.124 408.626 473.193 408.296 472.504 407.635C471.816 406.965 471.471 406.001 471.471 404.743V402.485C471.471 401.227 471.816 400.268 472.504 399.607C473.193 398.936 474.124 398.601 475.3 398.601C476.456 398.601 477.347 398.923 477.971 399.565C478.605 400.208 478.921 401.085 478.921 402.195V402.278H477.448V402.154C477.448 401.502 477.269 400.97 476.911 400.557C476.562 400.144 476.025 399.937 475.3 399.937C474.565 399.937 473.991 400.162 473.578 400.612C473.165 401.053 472.959 401.668 472.959 402.457V404.771C472.959 405.551 473.165 406.166 473.578 406.616C473.991 407.066 474.565 407.291 475.3 407.291C476.025 407.291 476.562 407.084 476.911 406.671C477.269 406.249 477.448 405.716 477.448 405.074V404.839H478.921V405.032C478.921 406.143 478.605 407.02 477.971 407.662C477.347 408.305 476.456 408.626 475.3 408.626ZM480.843 408.434V398.794H486.916V400.144H482.331V402.912H486.531V404.261H482.331V407.084H486.985V408.434H480.843ZM492.088 408.626C491.363 408.626 490.72 408.498 490.16 408.241C489.6 407.984 489.16 407.607 488.838 407.112C488.526 406.607 488.37 405.996 488.37 405.28V404.936H489.844V405.28C489.844 405.959 490.046 406.469 490.45 406.809C490.863 407.148 491.409 407.318 492.088 407.318C492.777 407.318 493.296 407.176 493.644 406.891C493.993 406.598 494.168 406.221 494.168 405.762C494.168 405.459 494.085 405.211 493.92 405.018C493.755 404.826 493.52 404.674 493.218 404.564C492.915 404.445 492.552 404.335 492.13 404.234L491.62 404.11C491.005 403.963 490.468 403.784 490.009 403.573C489.559 403.352 489.21 403.063 488.962 402.705C488.715 402.347 488.591 401.888 488.591 401.328C488.591 400.759 488.728 400.272 489.004 399.868C489.288 399.464 489.678 399.152 490.174 398.932C490.67 398.712 491.253 398.601 491.923 398.601C492.593 398.601 493.19 398.716 493.713 398.946C494.246 399.175 494.663 399.515 494.966 399.965C495.269 400.414 495.421 400.979 495.421 401.658V402.154H493.947V401.658C493.947 401.245 493.86 400.91 493.686 400.653C493.52 400.396 493.286 400.208 492.983 400.089C492.68 399.969 492.327 399.91 491.923 399.91C491.336 399.91 490.877 400.033 490.546 400.281C490.225 400.52 490.064 400.855 490.064 401.287C490.064 401.58 490.133 401.824 490.271 402.016C490.418 402.2 490.629 402.352 490.904 402.471C491.179 402.59 491.524 402.696 491.937 402.788L492.446 402.912C493.071 403.049 493.621 403.228 494.099 403.449C494.576 403.66 494.953 403.949 495.228 404.316C495.503 404.683 495.641 405.156 495.641 405.735C495.641 406.313 495.494 406.818 495.201 407.249C494.916 407.681 494.507 408.02 493.975 408.268C493.442 408.507 492.814 408.626 492.088 408.626ZM500.755 408.626C500.03 408.626 499.387 408.498 498.827 408.241C498.267 407.984 497.827 407.607 497.505 407.112C497.193 406.607 497.037 405.996 497.037 405.28V404.936H498.511V405.28C498.511 405.959 498.713 406.469 499.117 406.809C499.53 407.148 500.076 407.318 500.755 407.318C501.444 407.318 501.962 407.176 502.311 406.891C502.66 406.598 502.835 406.221 502.835 405.762C502.835 405.459 502.752 405.211 502.587 405.018C502.421 404.826 502.187 404.674 501.884 404.564C501.581 404.445 501.219 404.335 500.797 404.234L500.287 404.11C499.672 403.963 499.135 403.784 498.676 403.573C498.226 403.352 497.877 403.063 497.629 402.705C497.381 402.347 497.258 401.888 497.258 401.328C497.258 400.759 497.395 400.272 497.671 399.868C497.955 399.464 498.345 399.152 498.841 398.932C499.337 398.712 499.92 398.601 500.59 398.601C501.26 398.601 501.857 398.716 502.38 398.946C502.913 399.175 503.33 399.515 503.633 399.965C503.936 400.414 504.088 400.979 504.088 401.658V402.154H502.614V401.658C502.614 401.245 502.527 400.91 502.353 400.653C502.187 400.396 501.953 400.208 501.65 400.089C501.347 399.969 500.994 399.91 500.59 399.91C500.002 399.91 499.543 400.033 499.213 400.281C498.892 400.52 498.731 400.855 498.731 401.287C498.731 401.58 498.8 401.824 498.938 402.016C499.084 402.2 499.296 402.352 499.571 402.471C499.846 402.59 500.191 402.696 500.604 402.788L501.113 402.912C501.738 403.049 502.288 403.228 502.766 403.449C503.243 403.66 503.62 403.949 503.895 404.316C504.17 404.683 504.308 405.156 504.308 405.735C504.308 406.313 504.161 406.818 503.867 407.249C503.583 407.681 503.174 408.02 502.642 408.268C502.109 408.507 501.481 408.626 500.755 408.626Z" fill="white"/>
<rect x="403.789" y="379.68" width="121.345" height="47.5085" stroke="#1D32F4" stroke-width="1.96724"/>
<g clip-path="url(#clip1_16744_20370)">
<rect opacity="0.5" x="401.639" y="187.539" width="128.801" height="128.801" transform="rotate(-21.5585 401.639 187.539)" stroke="#1E2742" stroke-width="2"/>
<rect opacity="0.4" x="291.579" y="187.25" width="278.649" height="278.649" transform="rotate(-34.3194 291.579 187.25)" stroke="#1E2742" stroke-width="2"/>
<path d="M476.392 207.289C464.32 207.289 476.392 223.888 464.32 223.888C476.392 223.888 464.32 240.486 476.392 240.486" stroke="white" stroke-width="2" stroke-linecap="square" stroke-linejoin="bevel"/>
<path d="M494.5 207.289C506.572 207.289 494.5 223.888 506.572 223.888C494.5 223.888 506.572 240.486 494.5 240.486" stroke="white" stroke-width="2" stroke-linecap="square" stroke-linejoin="bevel"/>
</g>
<rect x="338.64" y="96.8781" width="294.102" height="253.773" stroke="#1D294E" stroke-width="1.96724"/>
<rect x="317" y="31.9609" width="343.369" height="425.082" stroke="url(#paint3_linear_16744_20370)" stroke-width="1.96724"/>
</g>
<defs>
<linearGradient id="paint0_linear_16744_20370" x1="41.9023" y1="140.453" x2="41.9024" y2="494.555" gradientUnits="userSpaceOnUse">
<stop offset="0.397701" stop-color="#1D284E"/>
<stop offset="1" stop-color="#1D284E" stop-opacity="0"/>
</linearGradient>
<linearGradient id="paint1_linear_16744_20370" x1="213.81" y1="279" x2="213.81" y2="415" gradientUnits="userSpaceOnUse">
<stop stop-color="#040C25" stop-opacity="0"/>
<stop offset="1" stop-color="#040C25"/>
</linearGradient>
<linearGradient id="paint2_linear_16744_20370" x1="383.5" y1="262.321" x2="383.5" y2="450.088" gradientUnits="userSpaceOnUse">
<stop stop-color="#1D294E"/>
<stop offset="1" stop-color="#1D294E" stop-opacity="0"/>
</linearGradient>
<linearGradient id="paint3_linear_16744_20370" x1="474.205" y1="11.8557" x2="562.543" y2="465.461" gradientUnits="userSpaceOnUse">
<stop stop-color="#1D32F4"/>
<stop offset="0.975773" stop-color="#1D32F4" stop-opacity="0"/>
</linearGradient>
<clipPath id="clip0_16744_20370">
<rect width="584" height="524" fill="white"/>
</clipPath>
<clipPath id="clip1_16744_20370">
<rect x="337.656" y="95.8945" width="296.069" height="255.741" fill="white"/>
</clipPath>
</defs>
</svg>
