<svg width="584" height="242" viewBox="0 0 584 242" fill="none" xmlns="http://www.w3.org/2000/svg">
<path fill-rule="evenodd" clip-rule="evenodd" d="M124.687 203.488V176.831H58.6973V151.522L109.538 69H148.26V155.495H170.256V176.831H148.26V203.488H124.687ZM146.26 174.831H168.256V157.495H146.26V71H110.655L60.6973 152.089V174.831H126.687V201.488H146.26V174.831ZM126.687 157.495H79.7112V154.885L123.704 83.3031H126.687V157.495ZM124.687 85.5241L81.7112 155.45V155.495H124.687V85.5241Z" fill="#283563"/>
<path fill-rule="evenodd" clip-rule="evenodd" d="M419.568 176.315L424.342 150.089L359.42 138.271L363.952 113.372L428.75 41.2885L466.845 48.2229L451.355 133.319L472.996 137.259L469.175 158.25L447.534 154.311L442.76 180.536L419.568 176.315ZM445.925 151.985L467.566 155.924L470.67 138.868L449.029 134.929L464.519 49.8324L429.49 43.4562L365.818 114.287L361.745 136.662L426.668 148.48L421.894 174.705L441.151 178.211L445.925 151.985ZM429.773 131.424L383.557 123.011L384.024 120.443L440.125 57.8973L443.059 58.4314L429.773 131.424ZM440.694 60.2582L385.89 121.358L385.882 121.401L428.163 129.098L440.694 60.2582Z" fill="#283563"/>
<mask id="path-3-outside-1_15856_8942" maskUnits="userSpaceOnUse" x="204.541" y="61" width="112" height="144" fill="black">
<rect fill="white" x="204.541" y="61" width="112" height="144"/>
<path fill-rule="evenodd" clip-rule="evenodd" d="M314.458 63H206.541V203H314.458V63ZM288.102 90.2161L225.381 96.1346L232.897 175.781L295.618 169.862L288.102 90.2161Z"/>
</mask>
<path d="M206.541 63V61H204.541V63H206.541ZM314.458 63H316.458V61H314.458V63ZM206.541 203H204.541V205H206.541V203ZM314.458 203V205H316.458V203H314.458ZM225.381 96.1346L225.193 94.1434L223.202 94.3313L223.39 96.3224L225.381 96.1346ZM288.102 90.2161L290.094 90.0282L289.906 88.0371L287.915 88.2249L288.102 90.2161ZM232.897 175.781L230.905 175.969L231.093 177.96L233.084 177.772L232.897 175.781ZM295.618 169.862L295.806 171.853L297.797 171.666L297.609 169.674L295.618 169.862ZM206.541 65H314.458V61H206.541V65ZM208.541 203V63H204.541V203H208.541ZM314.458 201H206.541V205H314.458V201ZM312.458 63V203H316.458V63H312.458ZM225.569 98.1257L288.29 92.2073L287.915 88.2249L225.193 94.1434L225.569 98.1257ZM234.888 175.593L227.372 95.9467L223.39 96.3224L230.905 175.969L234.888 175.593ZM295.43 167.871L232.709 173.79L233.084 177.772L295.806 171.853L295.43 167.871ZM286.111 90.404L293.627 170.05L297.609 169.674L290.094 90.0282L286.111 90.404Z" fill="url(#paint0_linear_15856_8942)" mask="url(#path-3-outside-1_15856_8942)"/>
<path d="M363 203L527 203" stroke="url(#paint1_linear_15856_8942)" stroke-width="2"/>
<defs>
<linearGradient id="paint0_linear_15856_8942" x1="277.027" y1="44.5278" x2="250.957" y2="215.401" gradientUnits="userSpaceOnUse">
<stop stop-color="#1D32F4"/>
<stop offset="0.249965" stop-color="#1D32F4" stop-opacity="0.1"/>
<stop offset="0.454289" stop-color="#1D32F4" stop-opacity="0.8"/>
<stop offset="0.706025" stop-color="#1D32F4" stop-opacity="0.1"/>
<stop offset="1" stop-color="#1D32F4"/>
</linearGradient>
<linearGradient id="paint1_linear_15856_8942" x1="363" y1="203" x2="527" y2="203" gradientUnits="userSpaceOnUse">
<stop stop-color="#1C32F1"/>
<stop offset="1" stop-color="#1C32F1" stop-opacity="0"/>
</linearGradient>
</defs>
</svg>
