<svg width="584" height="524" viewBox="0 0 584 524" fill="none" xmlns="http://www.w3.org/2000/svg">
<rect width="584" height="524" fill="#040C25"/>
<path d="M178 212H196H214M178 212H214M178 212L160 230V266L178 284H214L232 266V230L214 212" stroke="#1D294E" stroke-width="2"/>
<path d="M274 116H292H310M274 116H310M274 116L256 134V170L274 188H310L328 170V134L310 116" stroke="#1D294E" stroke-width="2"/>
<path d="M502 188H484H466M502 188H466M502 188L520 170V116H466L448 134V170L466 188" stroke="#1D294E" stroke-width="2"/>
<rect x="160" y="404" width="72" height="72" stroke="#1D294E" stroke-width="2"/>
<path d="M205.596 437.599C205.596 443.663 196.001 451.992 196.001 451.992C196.001 451.992 186.406 443.704 186.406 437.599C186.406 431.494 190.702 428.004 196.001 428.004C201.301 428.004 205.596 431.535 205.596 437.599Z" stroke="white" stroke-width="2"/>
<path d="M193.128 441.713V433.312H191.688V441.713H193.128Z" fill="white"/>
<path d="M196.62 441.713V438.521H198.864C200.46 438.521 201.564 437.561 201.564 435.917C201.564 434.26 200.46 433.312 198.864 433.312H195.18V441.713H196.62ZM196.62 434.597H198.684C199.62 434.597 200.124 435.089 200.124 435.917C200.124 436.733 199.62 437.237 198.684 437.237H196.62V434.597Z" fill="white"/>
<path fill-rule="evenodd" clip-rule="evenodd" d="M193.395 441.976H191.422V433.043H193.395V441.976ZM193.129 433.31V441.71H191.689V433.31H193.129ZM196.887 441.976H194.914V433.043H198.865C199.715 433.043 200.46 433.296 200.995 433.796C201.533 434.298 201.831 435.024 201.831 435.914C201.831 436.798 201.533 437.524 200.996 438.027C200.461 438.528 199.716 438.784 198.865 438.784H196.887V441.976ZM196.621 441.71H195.181V433.31H198.865C200.461 433.31 201.565 434.258 201.565 435.914C201.565 437.558 200.461 438.518 198.865 438.518H196.621V441.71ZM198.685 434.86H196.887V436.967H198.685C199.107 436.967 199.394 436.854 199.573 436.685C199.751 436.519 199.858 436.266 199.858 435.914C199.858 435.555 199.75 435.303 199.574 435.138C199.395 434.971 199.108 434.86 198.685 434.86ZM196.621 434.594V437.234H198.685C199.621 437.234 200.125 436.73 200.125 435.914C200.125 435.086 199.621 434.594 198.685 434.594H196.621Z" fill="white"/>
<rect x="352" y="116" width="72" height="72" stroke="#1D294E" stroke-width="2"/>
<g clip-path="url(#clip0_16202_10848)">
<path d="M402.584 136H387.215C387.215 137.84 387.946 139.605 389.247 140.906C390.548 142.207 392.313 142.938 394.153 142.938H396.984V145.671C396.986 149.499 400.089 152.602 403.917 152.604V137.333C403.917 136.597 403.32 136 402.584 136Z" fill="#2684FF"/>
<path d="M394.978 143.656H379.609C379.612 147.484 382.715 150.587 386.543 150.59H389.374V153.332C389.379 157.16 392.483 160.261 396.312 160.261V144.99C396.312 144.253 395.715 143.656 394.978 143.656Z" fill="url(#paint0_linear_16202_10848)"/>
<path d="M387.369 151.312H372C372 155.144 375.106 158.25 378.938 158.25H381.778V160.984C381.78 164.808 384.878 167.91 388.702 167.917V152.646C388.702 151.909 388.105 151.312 387.369 151.312Z" fill="url(#paint1_linear_16202_10848)"/>
</g>
<path d="M82 188H100H118M82 188H118M82 188L64 170V116H118L136 134V170L118 188" stroke="#1D294E" stroke-width="2"/>
<rect x="64" y="212" width="72" height="72" stroke="#1D294E" stroke-width="2"/>
<mask id="path-14-inside-1_16202_10848" fill="white">
<path fill-rule="evenodd" clip-rule="evenodd" d="M112.135 252.1H87.8594C89.5682 257.164 94.3568 260.81 99.9969 260.81C105.637 260.81 110.426 257.164 112.135 252.1ZM112.133 243.899H87.8613C89.5719 238.838 94.359 235.195 99.9969 235.195C105.635 235.195 110.422 238.838 112.133 243.899Z"/>
</mask>
<path d="M112.135 252.1L114.03 252.74L114.92 250.1H112.135V252.1ZM87.8594 252.1V250.1H85.0736L85.9644 252.74L87.8594 252.1ZM87.8613 243.899L85.9666 243.259L85.0741 245.899H87.8613V243.899ZM112.133 243.899V245.899H114.92L114.027 243.259L112.133 243.899ZM112.135 250.1H87.8594V254.1H112.135V250.1ZM99.9969 258.81C95.2407 258.81 91.1971 255.736 89.7544 251.461L85.9644 252.74C87.9393 258.592 93.4729 262.81 99.9969 262.81V258.81ZM110.24 251.461C108.797 255.736 104.753 258.81 99.9969 258.81V262.81C106.521 262.81 112.055 258.592 114.03 252.74L110.24 251.461ZM87.8613 245.899H112.133V241.899H87.8613V245.899ZM89.756 244.539C91.2002 240.267 95.2425 237.195 99.9969 237.195V233.195C93.4754 233.195 87.9435 237.41 85.9666 243.259L89.756 244.539ZM99.9969 237.195C104.751 237.195 108.794 240.267 110.238 244.539L114.027 243.259C112.05 237.41 106.518 233.195 99.9969 233.195V237.195Z" fill="white" mask="url(#path-14-inside-1_16202_10848)"/>
<path d="M92.8212 245.377L91.8792 248.966L90.9467 245.377L90.9273 245.302H90.8499H89.5821H89.5037L89.485 245.379L88.6004 248.983L87.621 245.376L87.6009 245.302H87.5245H86.3086H86.1734L86.213 245.432L87.803 250.628L87.8246 250.698H87.8986H89.2392H89.3166L89.336 250.623L90.2274 247.18L91.1378 250.624L91.1574 250.698H91.2344H92.5646H92.6393L92.6605 250.627L94.1985 245.431L94.2365 245.302H94.1027H92.918H92.8408L92.8212 245.377Z" fill="white" stroke="white" stroke-width="0.2"/>
<path d="M102.618 245.377L101.676 248.966L100.744 245.377L100.724 245.302H100.647H99.379H99.3006L99.2819 245.379L98.3972 248.983L97.4178 245.376L97.3978 245.302H97.3213H96.1055H95.9703L96.0098 245.432L97.5998 250.628L97.6215 250.698H97.6955H99.036H99.1134L99.1328 250.623L100.024 247.18L100.935 250.624L100.954 250.698H101.031H102.362H102.436L102.457 250.627L103.995 245.431L104.033 245.302H103.9H102.715H102.638L102.618 245.377Z" fill="white" stroke="white" stroke-width="0.2"/>
<path d="M112.411 245.377L111.469 248.966L110.537 245.377L110.517 245.302H110.44H109.172H109.094L109.075 245.379L108.19 248.983L107.211 245.376L107.191 245.302H107.114H105.898H105.763L105.803 245.432L107.393 250.628L107.414 250.698H107.488H108.829H108.906L108.926 250.623L109.817 247.18L110.728 250.624L110.747 250.698H110.824H112.154H112.229L112.25 250.627L113.788 245.431L113.826 245.302H113.692H112.508H112.431L112.411 245.377Z" fill="white" stroke="white" stroke-width="0.2"/>
<mask id="path-19-inside-2_16202_10848" fill="white">
<path fill-rule="evenodd" clip-rule="evenodd" d="M304.135 156.1H279.859C281.568 161.164 286.357 164.81 291.997 164.81C297.637 164.81 302.426 161.164 304.135 156.1ZM304.133 147.899H279.861C281.572 142.838 286.359 139.195 291.997 139.195C297.635 139.195 302.422 142.838 304.133 147.899Z"/>
</mask>
<path d="M304.135 156.1L306.03 156.74L306.92 154.1H304.135V156.1ZM279.859 156.1V154.1H277.074L277.964 156.74L279.859 156.1ZM279.861 147.899L277.967 147.259L277.074 149.899H279.861V147.899ZM304.133 147.899V149.899H306.92L306.027 147.259L304.133 147.899ZM304.135 154.1H279.859V158.1H304.135V154.1ZM291.997 162.81C287.241 162.81 283.197 159.736 281.754 155.461L277.964 156.74C279.939 162.592 285.473 166.81 291.997 166.81V162.81ZM302.24 155.461C300.797 159.736 296.753 162.81 291.997 162.81V166.81C298.521 166.81 304.055 162.592 306.03 156.74L302.24 155.461ZM279.861 149.899H304.133V145.899H279.861V149.899ZM281.756 148.539C283.2 144.267 287.243 141.195 291.997 141.195V137.195C285.475 137.195 279.944 141.41 277.967 147.259L281.756 148.539ZM291.997 141.195C296.751 141.195 300.794 144.267 302.238 148.539L306.027 147.259C304.05 141.41 298.518 137.195 291.997 137.195V141.195Z" fill="white" mask="url(#path-19-inside-2_16202_10848)"/>
<path d="M284.821 149.377L283.879 152.966L282.947 149.377L282.927 149.302H282.85H281.582H281.504L281.485 149.379L280.6 152.983L279.621 149.376L279.601 149.302H279.524H278.309H278.173L278.213 149.432L279.803 154.628L279.825 154.698H279.899H281.239H281.317L281.336 154.623L282.227 151.18L283.138 154.624L283.157 154.698H283.234H284.565H284.639L284.661 154.627L286.199 149.431L286.237 149.302H286.103H284.918H284.841L284.821 149.377Z" fill="white" stroke="white" stroke-width="0.2"/>
<path d="M294.618 149.377L293.676 152.966L292.744 149.377L292.724 149.302H292.647H291.379H291.301L291.282 149.379L290.397 152.983L289.418 149.376L289.398 149.302H289.321H288.105H287.97L288.01 149.432L289.6 154.628L289.621 154.698H289.695H291.036H291.113L291.133 154.623L292.024 151.18L292.935 154.624L292.954 154.698H293.031H294.362H294.436L294.457 154.627L295.995 149.431L296.033 149.302H295.9H294.715H294.638L294.618 149.377Z" fill="white" stroke="white" stroke-width="0.2"/>
<path d="M304.411 149.377L303.469 152.966L302.537 149.377L302.517 149.302H302.44H301.172H301.094L301.075 149.379L300.19 152.983L299.211 149.376L299.191 149.302H299.114H297.898H297.763L297.803 149.432L299.393 154.628L299.414 154.698H299.488H300.829H300.906L300.926 154.623L301.817 151.18L302.728 154.624L302.747 154.698H302.824H304.154H304.229L304.25 154.627L305.788 149.431L305.826 149.302H305.692H304.508H304.431L304.411 149.377Z" fill="white" stroke="white" stroke-width="0.2"/>
<path d="M178 116H196H214M178 116H214M178 116L160 134V170L178 188H214L232 170V134L214 116" stroke="#1D294E" stroke-width="2"/>
<path d="M205.596 149.599C205.596 155.663 196.001 163.992 196.001 163.992C196.001 163.992 186.406 155.704 186.406 149.599C186.406 143.494 190.702 140.004 196.001 140.004C201.301 140.004 205.596 143.535 205.596 149.599Z" stroke="white" stroke-width="2"/>
<path d="M193.128 153.713V145.312H191.688V153.713H193.128Z" fill="white"/>
<path d="M196.62 153.713V150.521H198.864C200.46 150.521 201.564 149.561 201.564 147.917C201.564 146.26 200.46 145.312 198.864 145.312H195.18V153.713H196.62ZM196.62 146.597H198.684C199.62 146.597 200.124 147.089 200.124 147.917C200.124 148.733 199.62 149.237 198.684 149.237H196.62V146.597Z" fill="white"/>
<path fill-rule="evenodd" clip-rule="evenodd" d="M193.395 153.976H191.422V145.043H193.395V153.976ZM193.129 145.31V153.71H191.689V145.31H193.129ZM196.887 153.976H194.914V145.043H198.865C199.715 145.043 200.46 145.296 200.995 145.796C201.533 146.298 201.831 147.024 201.831 147.914C201.831 148.798 201.533 149.524 200.996 150.027C200.461 150.528 199.716 150.784 198.865 150.784H196.887V153.976ZM196.621 153.71H195.181V145.31H198.865C200.461 145.31 201.565 146.258 201.565 147.914C201.565 149.558 200.461 150.518 198.865 150.518H196.621V153.71ZM198.685 146.86H196.887V148.967H198.685C199.107 148.967 199.394 148.854 199.573 148.685C199.751 148.519 199.858 148.266 199.858 147.914C199.858 147.555 199.75 147.303 199.574 147.138C199.395 146.971 199.108 146.86 198.685 146.86ZM196.621 146.594V149.234H198.685C199.621 149.234 200.125 148.73 200.125 147.914C200.125 147.086 199.621 146.594 198.685 146.594H196.621Z" fill="white"/>
<path d="M493.596 149.599C493.596 155.663 484.001 163.992 484.001 163.992C484.001 163.992 474.406 155.704 474.406 149.599C474.406 143.494 478.702 140.004 484.001 140.004C489.301 140.004 493.596 143.535 493.596 149.599Z" stroke="white" stroke-width="2"/>
<path d="M481.128 153.713V145.312H479.688V153.713H481.128Z" fill="white"/>
<path d="M484.62 153.713V150.521H486.864C488.46 150.521 489.564 149.561 489.564 147.917C489.564 146.26 488.46 145.312 486.864 145.312H483.18V153.713H484.62ZM484.62 146.597H486.684C487.62 146.597 488.124 147.089 488.124 147.917C488.124 148.733 487.62 149.237 486.684 149.237H484.62V146.597Z" fill="white"/>
<path fill-rule="evenodd" clip-rule="evenodd" d="M481.395 153.976H479.422V145.043H481.395V153.976ZM481.129 145.31V153.71H479.689V145.31H481.129ZM484.887 153.976H482.914V145.043H486.865C487.715 145.043 488.46 145.296 488.995 145.796C489.533 146.298 489.831 147.024 489.831 147.914C489.831 148.798 489.533 149.524 488.996 150.027C488.461 150.528 487.716 150.784 486.865 150.784H484.887V153.976ZM484.621 153.71H483.181V145.31H486.865C488.461 145.31 489.565 146.258 489.565 147.914C489.565 149.558 488.461 150.518 486.865 150.518H484.621V153.71ZM486.685 146.86H484.887V148.967H486.685C487.107 148.967 487.394 148.854 487.573 148.685C487.751 148.519 487.858 148.266 487.858 147.914C487.858 147.555 487.75 147.303 487.574 147.138C487.395 146.971 487.108 146.86 486.685 146.86ZM484.621 146.594V149.234H486.685C487.621 149.234 488.125 148.73 488.125 147.914C488.125 147.086 487.621 146.594 486.685 146.594H484.621Z" fill="white"/>
<path d="M274 212H292H310M274 212H310M274 212L256 230V266L274 284H310L328 266V230L310 212" stroke="#1D294E" stroke-width="2"/>
<g clip-path="url(#clip1_16202_10848)">
<path fill-rule="evenodd" clip-rule="evenodd" d="M287.74 232C285.975 232.001 284.546 233.434 284.548 235.199C284.546 236.965 285.976 238.397 287.742 238.399H290.936V235.201C290.937 233.435 289.507 232.003 287.74 232C287.742 232 287.742 232 287.74 232M287.74 240.533H279.225C277.46 240.535 276.03 241.967 276.031 243.733C276.029 245.498 277.459 246.931 279.224 246.933H287.74C289.506 246.932 290.936 245.499 290.935 243.734C290.936 241.967 289.506 240.535 287.74 240.533V240.533Z" fill="#36C5F0"/>
<path fill-rule="evenodd" clip-rule="evenodd" d="M307.966 243.733C307.967 241.967 306.537 240.535 304.772 240.533C303.006 240.535 301.576 241.967 301.578 243.733V246.933H304.772C306.537 246.932 307.967 245.499 307.966 243.733ZM299.449 243.733V235.199C299.451 233.435 298.022 232.003 296.257 232C294.491 232.001 293.061 233.434 293.063 235.199V243.733C293.06 245.498 294.49 246.931 296.255 246.933C298.021 246.932 299.451 245.499 299.449 243.733Z" fill="#2EB67D"/>
<path fill-rule="evenodd" clip-rule="evenodd" d="M296.257 264.001C298.022 264 299.452 262.567 299.451 260.802C299.452 259.036 298.022 257.604 296.257 257.602H293.063V260.802C293.061 262.566 294.491 263.998 296.257 264.001ZM296.257 255.466H304.773C306.538 255.465 307.968 254.032 307.967 252.267C307.97 250.502 306.54 249.069 304.774 249.066H296.258C294.493 249.068 293.063 250.5 293.064 252.266C293.063 254.032 294.491 255.465 296.257 255.466V255.466Z" fill="#ECB22E"/>
<path fill-rule="evenodd" clip-rule="evenodd" d="M276.031 252.266C276.03 254.031 277.46 255.464 279.225 255.465C280.991 255.464 282.421 254.031 282.42 252.266V249.066H279.225C277.46 249.068 276.03 250.5 276.031 252.266ZM284.548 252.266V260.799C284.545 262.564 285.975 263.997 287.74 264C289.506 263.998 290.936 262.566 290.935 260.8V252.268C290.937 250.503 289.507 249.07 287.742 249.068C285.975 249.068 284.546 250.5 284.548 252.266C284.548 252.267 284.548 252.266 284.548 252.266Z" fill="#E01E5A"/>
</g>
<path d="M370 212H388H406M370 212H406M370 212L352 230V266L370 284H406L424 266V230L406 212" stroke="#1D294E" stroke-width="2"/>
<g clip-path="url(#clip2_16202_10848)">
<path d="M377.946 237.61C378.94 238.418 379.314 238.357 381.183 238.232L398.803 237.174C399.176 237.174 398.866 236.801 398.742 236.74L395.814 234.624C395.254 234.189 394.506 233.69 393.074 233.814L376.014 235.06C375.392 235.121 375.267 235.433 375.515 235.681L377.946 237.61ZM379.003 241.717V260.256C379.003 261.252 379.5 261.625 380.622 261.562L399.986 260.442C401.107 260.381 401.232 259.696 401.232 258.886V240.472C401.232 239.664 400.922 239.228 400.235 239.289L379.999 240.472C379.252 240.534 379.003 240.908 379.003 241.716V241.717ZM398.119 242.71C398.243 243.27 398.119 243.83 397.559 243.894L396.626 244.081V257.766C395.815 258.202 395.068 258.452 394.446 258.452C393.448 258.452 393.199 258.14 392.452 257.208L386.35 247.626V256.896L388.28 257.333C388.28 257.333 388.28 258.453 386.723 258.453L382.427 258.701C382.303 258.453 382.427 257.83 382.863 257.706L383.983 257.396V245.138L382.43 245.013C382.304 244.453 382.616 243.645 383.487 243.582L388.095 243.272L394.447 252.977V244.39L392.827 244.205C392.703 243.52 393.2 243.022 393.823 242.961L398.119 242.71ZM374.582 233.38L392.328 232.073C394.507 231.886 395.068 232.01 396.438 233.006L402.103 236.988C403.036 237.672 403.348 237.858 403.348 238.605V260.442C403.348 261.81 402.851 262.621 401.108 262.744L380.498 263.989C379.191 264.052 378.567 263.865 377.882 262.993L373.71 257.58C372.963 256.584 372.652 255.838 372.652 254.966V235.556C372.652 234.437 373.151 233.502 374.582 233.38V233.38Z" fill="white"/>
</g>
<path d="M502 212H484H466M502 212H466M502 212L520 230V266L502 284H466L448 266V230L466 212" stroke="#1D294E" stroke-width="2"/>
<path fill-rule="evenodd" clip-rule="evenodd" d="M484.504 234.138L484 233.844L483.496 234.138L471.496 241.138L470.016 242.001L471.496 242.865L475.155 245L471.496 247.134L470.016 247.998L471.496 248.861L475.158 250.998L471.496 253.134L470.016 253.998L471.496 254.861L483.496 261.861L484 262.155L484.504 261.861L496.504 254.861L497.985 253.998L496.504 253.134L492.842 250.998L496.504 248.861L497.985 247.998L496.504 247.134L492.845 245L496.504 242.865L497.985 242.001L496.504 241.138L484.504 234.138ZM490.861 246.157L484.504 249.865L484 250.159L483.496 249.865L477.14 246.157L473.985 247.998L484 253.84L494.016 247.998L490.861 246.157ZM484 247.844L473.985 242.001L484 236.159L494.016 242.001L484 247.844ZM473.985 253.998L477.143 252.155L483.496 255.861L484 256.155L484.504 255.861L490.857 252.155L494.016 253.998L484 259.84L473.985 253.998Z" fill="white"/>
<path fill-rule="evenodd" clip-rule="evenodd" d="M100.504 138.138L100 137.844L99.4964 138.138L87.4964 145.138L86.0156 146.001L87.4964 146.865L91.1551 149L87.4964 151.134L86.0156 151.998L87.4964 152.861L91.1585 154.998L87.4964 157.134L86.0156 157.998L87.4964 158.861L99.4964 165.861L100 166.155L100.504 165.861L112.504 158.861L113.985 157.998L112.504 157.134L108.842 154.998L112.504 152.861L113.985 151.998L112.504 151.134L108.845 149L112.504 146.865L113.985 146.001L112.504 145.138L100.504 138.138ZM106.861 150.157L100.504 153.865L100 154.159L99.4964 153.865L93.1398 150.157L89.9849 151.998L100 157.84L110.016 151.998L106.861 150.157ZM100 151.844L89.9849 146.001L100 140.159L110.016 146.001L100 151.844ZM89.9849 157.998L93.1431 156.155L99.4964 159.861L100 160.155L100.504 159.861L106.857 156.155L110.016 157.998L100 163.84L89.9849 157.998Z" fill="white"/>
<path d="M82 308H100H118M82 308H118M82 308L64 326V362L82 380H118L136 362V326L118 308" stroke="#1D294E" stroke-width="2"/>
<path d="M100.009 358.758L105.897 340.637H94.1211L100.009 358.758Z" fill="#E24329"/>
<path d="M100.007 358.758L94.1191 340.637H85.8672L100.007 358.758Z" fill="#FC6D26"/>
<path d="M85.8685 340.637L84.0793 346.144C83.9161 346.646 84.0948 347.196 84.5221 347.507L100.008 358.758L85.8685 340.637Z" fill="#FCA326"/>
<path d="M85.8672 340.636H94.1191L90.5727 329.722C90.3903 329.16 89.5958 329.16 89.4134 329.722L85.8672 340.636Z" fill="#E24329"/>
<path d="M100.008 358.758L105.896 340.637H114.148L100.008 358.758Z" fill="#FC6D26"/>
<path d="M114.148 340.637L115.937 346.144C116.1 346.646 115.921 347.196 115.494 347.507L100.008 358.758L114.148 340.637Z" fill="#FCA326"/>
<path d="M114.146 340.636H105.895L109.441 329.722C109.623 329.16 110.418 329.16 110.6 329.722L114.146 340.636Z" fill="#E24329"/>
<path d="M178 308H196H214M178 308H214M178 308L160 326V362L178 380H214L232 362V326L214 308" stroke="#1D294E" stroke-width="2"/>
<g clip-path="url(#clip3_16202_10848)">
<path d="M196 328.396C187.161 328.396 180 335.563 180 344.396C180 351.469 184.584 357.464 190.937 359.579C191.74 359.73 192.03 359.235 192.03 358.807C192.03 358.427 192.021 357.422 192.015 356.088C187.562 357.052 186.624 353.937 186.624 353.937C185.895 352.093 184.843 351.598 184.843 351.598C183.395 350.609 184.958 350.63 184.958 350.63C186.562 350.739 187.406 352.275 187.406 352.275C188.833 354.723 191.15 354.015 192.067 353.603C192.207 352.572 192.624 351.863 193.078 351.468C189.526 351.067 185.791 349.692 185.791 343.561C185.791 341.81 186.411 340.384 187.436 339.264C187.259 338.863 186.717 337.233 187.577 335.029C187.577 335.029 188.916 334.602 191.977 336.67C193.258 336.315 194.618 336.138 195.977 336.129C197.337 336.138 198.696 336.316 199.977 336.67C203.02 334.602 204.358 335.029 204.358 335.029C205.217 337.233 204.675 338.862 204.519 339.264C205.534 340.384 206.154 341.811 206.154 343.561C206.154 349.706 202.414 351.061 198.858 351.452C199.414 351.931 199.935 352.916 199.935 354.411C199.935 356.551 199.915 358.275 199.915 358.796C199.915 359.212 200.195 359.712 201.019 359.551C207.419 357.458 211.998 351.458 211.998 344.395C211.998 335.562 204.837 328.395 195.998 328.395L196 328.396Z" fill="white"/>
</g>
<rect x="256" y="308" width="72" height="72" stroke="#1D294E" stroke-width="2"/>
<g clip-path="url(#clip4_16202_10848)">
<path d="M277.013 331.168C276.865 331.166 276.719 331.197 276.584 331.257C276.45 331.318 276.33 331.407 276.234 331.519C276.137 331.631 276.067 331.762 276.026 331.904C275.986 332.047 275.978 332.196 276.001 332.341L280.3 358.409C280.354 358.728 280.518 359.018 280.764 359.228C281.01 359.438 281.322 359.554 281.646 359.557H302.251C302.493 359.56 302.729 359.476 302.914 359.32C303.1 359.164 303.223 358.947 303.262 358.707L307.561 332.352C307.585 332.206 307.576 332.057 307.536 331.915C307.496 331.773 307.425 331.641 307.329 331.529C307.233 331.417 307.113 331.328 306.978 331.267C306.844 331.207 306.697 331.176 306.55 331.178L277.013 331.168ZM295.094 350.003H288.519L286.739 340.697H296.687L295.094 350.003Z" fill="#2684FF"/>
<path d="M306.179 340.703H296.686L295.092 350.009H288.517L280.754 359.219C281 359.432 281.314 359.55 281.639 359.553H302.249C302.492 359.556 302.727 359.472 302.913 359.316C303.098 359.16 303.222 358.943 303.261 358.703L306.179 340.703Z" fill="url(#paint2_linear_16202_10848)"/>
</g>
<path d="M370 308H388H406M370 308H406M370 308L352 326V362L370 380H406L424 362V326L406 308" stroke="#1D294E" stroke-width="2"/>
<path d="M202.905 252.176C202.658 252.176 202.417 252.103 202.211 251.966C202.006 251.829 201.846 251.634 201.751 251.405C201.656 251.177 201.632 250.926 201.68 250.683C201.728 250.441 201.847 250.218 202.022 250.044C202.196 249.869 202.419 249.75 202.661 249.702C202.904 249.653 203.155 249.678 203.383 249.773C203.611 249.867 203.807 250.027 203.944 250.233C204.081 250.438 204.154 250.68 204.155 250.927C204.154 251.258 204.022 251.576 203.788 251.81C203.554 252.044 203.237 252.176 202.905 252.176M189.097 252.176C188.85 252.176 188.608 252.103 188.403 251.966C188.197 251.829 188.037 251.634 187.942 251.405C187.848 251.177 187.823 250.926 187.871 250.683C187.919 250.441 188.038 250.218 188.213 250.044C188.388 249.869 188.61 249.75 188.853 249.702C189.095 249.653 189.346 249.678 189.574 249.773C189.803 249.867 189.998 250.027 190.135 250.233C190.273 250.438 190.346 250.68 190.346 250.927C190.346 251.258 190.214 251.576 189.98 251.81C189.746 252.044 189.428 252.176 189.097 252.176M203.353 244.651L205.85 240.327C205.884 240.268 205.906 240.202 205.915 240.135C205.924 240.067 205.92 239.998 205.902 239.933C205.885 239.867 205.854 239.805 205.813 239.751C205.771 239.697 205.719 239.651 205.66 239.617C205.601 239.583 205.536 239.561 205.468 239.552C205.401 239.543 205.332 239.547 205.266 239.565C205.2 239.582 205.138 239.613 205.084 239.654C205.03 239.696 204.985 239.748 204.951 239.807L202.422 244.186C200.489 243.303 198.318 242.812 196.001 242.812C193.684 242.812 191.513 243.304 189.58 244.186L187.052 239.807C187.018 239.748 186.972 239.696 186.918 239.654C186.864 239.613 186.802 239.582 186.736 239.565C186.67 239.547 186.602 239.542 186.534 239.551C186.466 239.56 186.401 239.582 186.342 239.616C186.283 239.651 186.231 239.696 186.19 239.75C186.148 239.804 186.118 239.866 186.1 239.932C186.082 239.998 186.078 240.066 186.087 240.134C186.096 240.202 186.118 240.267 186.152 240.326L188.649 244.651C184.361 246.983 181.429 251.323 181 256.451H211.002C210.573 251.323 207.64 246.983 203.353 244.651" fill="#3DDC84"/>
<rect x="448" y="308" width="72" height="72" stroke="#1D294E" stroke-width="2"/>
<path d="M490.158 328C490.232 328 490.307 328 490.385 328C490.568 330.257 489.707 331.943 488.66 333.164C487.633 334.377 486.226 335.553 483.951 335.374C483.799 333.15 484.662 331.589 485.707 330.371C486.677 329.235 488.455 328.225 490.158 328Z" fill="white"/>
<path d="M497.045 351.487C497.045 351.51 497.045 351.529 497.045 351.55C496.406 353.487 495.494 355.146 494.381 356.686C493.365 358.084 492.12 359.966 489.897 359.966C487.976 359.966 486.701 358.731 484.732 358.697C482.649 358.663 481.504 359.73 479.6 359.998C479.382 359.998 479.165 359.998 478.951 359.998C477.553 359.796 476.425 358.689 475.603 357.691C473.179 354.743 471.306 350.935 470.957 346.062C470.957 345.584 470.957 345.108 470.957 344.63C471.105 341.142 472.799 338.307 475.052 336.932C476.24 336.202 477.875 335.579 479.694 335.857C480.474 335.978 481.271 336.245 481.969 336.509C482.631 336.764 483.459 337.215 484.243 337.191C484.774 337.176 485.302 336.899 485.838 336.703C487.406 336.137 488.943 335.488 490.97 335.793C493.405 336.161 495.133 337.243 496.201 338.912C494.141 340.223 492.512 342.199 492.791 345.573C493.038 348.638 494.82 350.431 497.045 351.487Z" fill="white"/>
<path d="M82 404H100H118M82 404H118M82 404L64 422V476H118L136 458V422L118 404" stroke="#1D294E" stroke-width="2"/>
<g clip-path="url(#clip5_16202_10848)">
<path d="M100 456C108.837 456 116 448.837 116 440C116 431.163 108.837 424 100 424C91.1634 424 84 431.163 84 440C84 448.837 91.1634 456 100 456Z" fill="#0091E2"/>
<path d="M109.855 438.422C109.805 438.381 109.351 438.041 108.395 438.041C108.142 438.041 107.889 438.059 107.639 438.106C107.455 436.834 106.405 436.216 106.358 436.188L106.101 436.038L105.933 436.281C105.72 436.609 105.567 436.969 105.476 437.35C105.305 438.075 105.408 438.756 105.776 439.337C105.333 439.584 104.617 439.647 104.473 439.65H92.6577C92.3483 439.65 92.0983 439.9 92.0983 440.209C92.0858 441.244 92.2608 442.272 92.6139 443.244C93.0202 444.312 93.6264 445.097 94.4139 445.578C95.2952 446.119 96.7295 446.428 98.3577 446.428C99.092 446.431 99.8264 446.362 100.548 446.228C101.551 446.044 102.517 445.694 103.405 445.191C104.136 444.766 104.795 444.228 105.355 443.594C106.289 442.534 106.848 441.353 107.264 440.306H107.43C108.455 440.306 109.086 439.897 109.433 439.553C109.664 439.334 109.845 439.069 109.961 438.772L110.033 438.556L109.855 438.422V438.422ZM93.7514 439.309H95.3358C95.4108 439.309 95.4733 439.247 95.4733 439.172V437.762C95.4733 437.687 95.4108 437.625 95.3358 437.622H93.7514C93.6764 437.622 93.6139 437.684 93.6139 437.759V439.172C93.6139 439.25 93.6764 439.309 93.7514 439.309M95.9358 439.309H97.5202C97.5952 439.309 97.6577 439.247 97.6577 439.172V437.762C97.6577 437.687 97.5952 437.625 97.5202 437.622H95.9358C95.8577 437.622 95.7952 437.684 95.7952 437.762V439.172C95.7952 439.25 95.8577 439.309 95.9358 439.309ZM98.1483 439.312H99.7327C99.8077 439.312 99.8702 439.25 99.8702 439.175V437.766C99.8702 437.691 99.8077 437.628 99.7327 437.625H98.1483C98.0733 437.625 98.0108 437.687 98.0108 437.762V439.175C98.0108 439.25 98.0733 439.309 98.1483 439.312M100.339 439.312H101.923C101.998 439.312 102.061 439.25 102.064 439.175V437.766C102.064 437.688 102.001 437.625 101.923 437.625H100.339C100.264 437.625 100.201 437.687 100.201 437.762V439.175C100.201 439.25 100.261 439.312 100.339 439.312M95.9327 437.281H97.517C97.592 437.281 97.6545 437.219 97.6545 437.141V435.731C97.6545 435.656 97.592 435.594 97.517 435.594H95.9327C95.8545 435.594 95.7952 435.656 95.792 435.731V437.141C95.7952 437.219 95.8577 437.281 95.9327 437.281ZM98.1483 437.281H99.7327C99.8077 437.281 99.8702 437.219 99.8702 437.141V435.731C99.8702 435.656 99.8077 435.594 99.7327 435.594H98.1483C98.0733 435.594 98.0108 435.656 98.0108 435.731V437.141C98.0108 437.219 98.0733 437.281 98.1483 437.281ZM100.339 437.281H101.923C102.001 437.281 102.061 437.219 102.064 437.141V435.731C102.064 435.653 102.001 435.594 101.923 435.594H100.339C100.264 435.594 100.201 435.656 100.201 435.731V437.141C100.201 437.219 100.261 437.281 100.339 437.281ZM100.339 435.253H101.923C102.001 435.253 102.064 435.191 102.064 435.113V433.7C102.064 433.625 102.001 433.562 101.923 433.562H100.339C100.264 433.562 100.201 433.625 100.201 433.7V435.113C100.201 435.191 100.261 435.253 100.339 435.253ZM102.545 439.312H104.13C104.205 439.312 104.267 439.25 104.267 439.175V437.766C104.267 437.688 104.205 437.628 104.13 437.625H102.545C102.47 437.625 102.408 437.687 102.408 437.762V439.175C102.408 439.25 102.47 439.312 102.545 439.312" fill="white"/>
</g>
<path d="M274 404H292H310M274 404H310M274 404L256 422V458L274 476H310L328 458V422L310 404" stroke="#1D294E" stroke-width="2"/>
<g clip-path="url(#clip6_16202_10848)">
<path d="M277.115 449.82H277.109V445.84H281.089V449.82H285.84V443.64H292.02V449.8C298.589 449.792 303.66 443.29 301.156 436.379C300.225 433.819 298.183 431.779 295.623 430.851C288.703 428.34 282.196 433.424 282.196 440H276C276 429.526 286.12 421.366 297.099 424.794C301.899 426.294 305.707 430.103 307.205 434.9C310.632 445.88 302.477 456 292 456V449.82H285.836V454.567H281.089V449.82H277.111H277.113H277.115Z" fill="#035BDA"/>
</g>
<path d="M370 404H388H406M370 404H406M370 404L352 422V458L370 476H406L424 458V422L406 404" stroke="#1D294E" stroke-width="2"/>
<path d="M398.18 443.775C399.307 443.638 401.791 443.343 402.233 443.913C402.675 444.472 401.738 446.824 401.317 447.869C401.191 448.185 401.464 448.312 401.749 448.069C403.601 446.508 404.085 443.248 403.707 442.773C403.327 442.309 400.075 441.908 398.096 443.301C397.791 443.522 397.843 443.818 398.18 443.775V443.775Z" fill="white"/>
<path d="M387.969 449.484C392.295 449.484 397.326 448.123 400.79 445.559C401.358 445.137 400.863 444.494 400.284 444.758C396.4 446.403 392.179 447.205 388.337 447.205C382.642 447.205 377.137 445.633 372.674 443.038C372.284 442.806 371.99 443.207 372.316 443.502C376.442 447.237 381.905 449.484 387.969 449.484V449.484Z" fill="#FF9900"/>
<path d="M381.095 437.404C381.095 437.795 381.137 438.111 381.211 438.343C381.304 438.604 381.417 438.858 381.548 439.103C381.6 439.187 381.621 439.272 381.621 439.345C381.621 439.451 381.558 439.557 381.421 439.662L380.758 440.105C380.663 440.168 380.569 440.2 380.484 440.2C380.379 440.2 380.274 440.147 380.169 440.052C380.027 439.9 379.9 439.733 379.79 439.556C379.672 439.354 379.563 439.146 379.463 438.934C378.642 439.905 377.611 440.39 376.369 440.39C375.484 440.39 374.779 440.137 374.263 439.631C373.748 439.124 373.484 438.449 373.484 437.605C373.484 436.708 373.8 435.98 374.442 435.432C375.084 434.883 375.937 434.609 377.021 434.609C377.379 434.609 377.748 434.64 378.137 434.693C378.527 434.746 378.927 434.83 379.348 434.925V434.155C379.348 433.353 379.179 432.794 378.853 432.467C378.516 432.14 377.948 431.982 377.137 431.982C376.769 431.982 376.39 432.024 376 432.119C375.613 432.211 375.233 432.331 374.863 432.478C374.744 432.532 374.621 432.577 374.495 432.615C374.421 432.636 374.369 432.647 374.326 432.647C374.179 432.647 374.105 432.541 374.105 432.32V431.803C374.105 431.634 374.127 431.507 374.179 431.434C374.232 431.36 374.326 431.286 374.474 431.212C374.842 431.022 375.284 430.864 375.8 430.737C376.316 430.6 376.864 430.537 377.442 430.537C378.695 430.537 379.611 430.822 380.2 431.391C380.779 431.961 381.074 432.826 381.074 433.986V437.404H381.095V437.404ZM376.821 439.008C377.169 439.008 377.527 438.945 377.905 438.818C378.284 438.691 378.621 438.459 378.905 438.143C379.074 437.942 379.2 437.721 379.263 437.468C379.327 437.215 379.369 436.909 379.369 436.55V436.107C379.049 436.029 378.726 435.969 378.4 435.928C378.072 435.886 377.742 435.865 377.411 435.864C376.705 435.864 376.19 436.001 375.842 436.286C375.495 436.571 375.327 436.972 375.327 437.499C375.327 437.995 375.453 438.364 375.716 438.618C375.969 438.881 376.337 439.008 376.821 439.008H376.821ZM385.274 440.147C385.084 440.147 384.958 440.116 384.874 440.042C384.79 439.978 384.716 439.831 384.653 439.63L382.179 431.476C382.116 431.264 382.084 431.127 382.084 431.054C382.084 430.885 382.169 430.79 382.337 430.79H383.369C383.569 430.79 383.706 430.822 383.779 430.895C383.863 430.959 383.926 431.107 383.99 431.307L385.758 438.291L387.4 431.307C387.453 431.096 387.516 430.959 387.6 430.895C387.684 430.832 387.832 430.79 388.021 430.79H388.863C389.063 430.79 389.2 430.822 389.284 430.895C389.369 430.959 389.442 431.107 389.484 431.307L391.148 438.375L392.969 431.307C393.032 431.096 393.105 430.959 393.179 430.895C393.263 430.832 393.4 430.79 393.59 430.79H394.569C394.737 430.79 394.832 430.874 394.832 431.054C394.832 431.106 394.821 431.159 394.811 431.222C394.794 431.312 394.77 431.401 394.737 431.486L392.2 439.641C392.137 439.852 392.063 439.989 391.979 440.052C391.895 440.116 391.758 440.158 391.579 440.158H390.674C390.474 440.158 390.337 440.126 390.253 440.052C390.169 439.979 390.095 439.841 390.053 439.631L388.421 432.826L386.8 439.62C386.748 439.831 386.684 439.968 386.6 440.042C386.516 440.116 386.369 440.147 386.179 440.147H385.274V440.147ZM398.8 440.432C398.253 440.432 397.705 440.369 397.179 440.242C396.653 440.116 396.242 439.978 395.969 439.82C395.8 439.725 395.684 439.62 395.642 439.525C395.601 439.432 395.58 439.331 395.579 439.229V438.691C395.579 438.47 395.663 438.364 395.821 438.364C395.884 438.364 395.948 438.375 396.011 438.396C396.074 438.417 396.169 438.459 396.274 438.502C396.646 438.665 397.034 438.789 397.432 438.871C397.853 438.955 398.263 438.997 398.684 438.997C399.348 438.997 399.863 438.881 400.221 438.649C400.579 438.417 400.769 438.08 400.769 437.647C400.769 437.352 400.674 437.109 400.484 436.909C400.295 436.708 399.937 436.529 399.421 436.36L397.895 435.885C397.127 435.643 396.558 435.284 396.211 434.809C395.863 434.345 395.684 433.828 395.684 433.28C395.684 432.836 395.779 432.446 395.969 432.109C396.158 431.771 396.411 431.476 396.727 431.244C397.042 431.001 397.4 430.822 397.821 430.695C398.242 430.568 398.684 430.516 399.148 430.516C399.379 430.516 399.621 430.526 399.853 430.558C400.095 430.589 400.316 430.632 400.537 430.674C400.748 430.727 400.948 430.779 401.137 430.842C401.327 430.906 401.474 430.969 401.579 431.033C401.727 431.117 401.832 431.201 401.895 431.296C401.958 431.381 401.99 431.497 401.99 431.644V432.14C401.99 432.362 401.905 432.478 401.748 432.478C401.663 432.478 401.527 432.436 401.348 432.351C400.748 432.077 400.074 431.94 399.327 431.94C398.727 431.94 398.253 432.035 397.927 432.235C397.6 432.436 397.432 432.742 397.432 433.174C397.432 433.47 397.537 433.723 397.748 433.923C397.958 434.124 398.348 434.324 398.905 434.503L400.4 434.978C401.158 435.221 401.705 435.559 402.032 435.991C402.358 436.423 402.516 436.919 402.516 437.468C402.516 437.921 402.421 438.333 402.242 438.692C402.053 439.05 401.8 439.367 401.474 439.62C401.148 439.884 400.758 440.074 400.305 440.211C399.832 440.358 399.337 440.432 398.8 440.432V440.432Z" fill="white"/>
<path d="M502 404H484H466M502 404H466M502 404L520 422V476H466L448 458V422L466 404" stroke="#1D294E" stroke-width="2"/>
<path fill-rule="evenodd" clip-rule="evenodd" d="M487.867 431.282L483.134 440.815L491.467 450.475L476 452.23L500 452.48L487.867 431.282ZM486.933 427.52L476.067 436.613L468 450.223L474.867 449.523L486.933 427.52Z" fill="#035BDA"/>
<path fill-rule="evenodd" clip-rule="evenodd" d="M410 36.25C405.917 36.25 403.052 38.0966 401.23 39.9179C400.323 40.8257 399.668 41.7317 399.24 42.4125C399.025 42.7537 398.865 43.0405 398.758 43.246C398.704 43.3487 398.663 43.4313 398.635 43.4904C398.62 43.5199 398.609 43.5436 398.601 43.561L398.591 43.5823L398.588 43.5893L398.587 43.5919L398.587 43.593C398.586 43.5934 398.586 43.5939 399.5 44L398.586 43.5939C398.471 43.8524 398.471 44.1476 398.586 44.4061L399.5 44C398.586 44.4061 398.586 44.4066 398.587 44.407L398.587 44.4081L398.588 44.4107L398.591 44.4177L398.601 44.439C398.609 44.4564 398.62 44.4801 398.635 44.5096C398.663 44.5687 398.704 44.6513 398.758 44.754C398.865 44.9595 399.025 45.2463 399.24 45.5875C399.668 46.2683 400.323 47.1743 401.23 48.0821C403.052 49.9034 405.917 51.75 410 51.75C414.083 51.75 416.948 49.9034 418.77 48.0821C419.677 47.1743 420.332 46.2683 420.76 45.5875C420.975 45.2463 421.135 44.9595 421.242 44.754C421.296 44.6513 421.337 44.5687 421.365 44.5096C421.38 44.4801 421.391 44.4564 421.399 44.439L421.409 44.4177L421.412 44.4107L421.413 44.4081L421.413 44.407C421.414 44.4066 421.414 44.4061 420.5 44L421.414 44.4061C421.529 44.1476 421.529 43.8524 421.414 43.5939L420.5 44C421.414 43.5939 421.414 43.5934 421.413 43.593L421.413 43.5919L421.412 43.5893L421.409 43.5823L421.399 43.561C421.391 43.5436 421.38 43.5199 421.365 43.4904C421.337 43.4313 421.296 43.3487 421.242 43.246C421.135 43.0405 420.975 42.7537 420.76 42.4125C420.332 41.7317 419.677 40.8257 418.77 39.9179C416.948 38.0966 414.083 36.25 410 36.25ZM400.932 44.5219C400.806 44.3208 400.703 44.144 400.623 44C400.703 43.856 400.806 43.6792 400.932 43.4781C401.3 42.8933 401.865 42.1118 402.645 41.3321C404.198 39.7784 406.583 38.25 410 38.25C413.417 38.25 415.802 39.7784 417.355 41.3321C418.135 42.1118 418.7 42.8933 419.068 43.4781C419.194 43.6792 419.297 43.856 419.377 44C419.297 44.144 419.194 44.3208 419.068 44.5219C418.7 45.1067 418.135 45.8882 417.355 46.6679C415.802 48.2216 413.417 49.75 410 49.75C406.583 49.75 404.198 48.2216 402.645 46.6679C401.865 45.8882 401.3 45.1067 400.932 44.5219ZM407.25 44C407.25 42.4812 408.481 41.25 410 41.25C411.519 41.25 412.75 42.4812 412.75 44C412.75 45.5188 411.519 46.75 410 46.75C408.481 46.75 407.25 45.5188 407.25 44ZM410 39.25C407.377 39.25 405.25 41.3766 405.25 44C405.25 46.6234 407.377 48.75 410 48.75C412.623 48.75 414.75 46.6234 414.75 44C414.75 41.3766 412.623 39.25 410 39.25Z" fill="#E00000"/>
<path d="M444.688 48.5L440.128 37.3H438.72L434.128 48.5H435.28L436.528 45.412H442.256L443.504 48.5H444.688ZM439.392 38.324L441.84 44.372H436.944L439.392 38.324ZM449.509 48.5V47.62H447.909C447.429 47.62 447.269 47.46 447.269 46.98V41.38H449.269V40.5H447.269V37.908H446.229V40.5H444.389V41.38H446.229V47.06C446.229 48.1 446.709 48.5 447.749 48.5H449.509ZM454.892 48.5V47.62H453.292C452.812 47.62 452.652 47.46 452.652 46.98V41.38H454.652V40.5H452.652V37.908H451.612V40.5H449.772V41.38H451.612V47.06C451.612 48.1 452.092 48.5 453.132 48.5H454.892ZM458.259 48.66C459.667 48.66 460.771 47.956 461.091 47.22C461.091 47.652 461.107 48.148 461.171 48.5H462.131C462.051 47.94 462.051 47.22 462.051 46.74V43.38C462.051 41.748 461.043 40.34 458.963 40.34C457.251 40.34 455.987 41.316 455.891 42.74H456.931C457.043 41.732 457.907 41.22 458.931 41.22H459.011C460.243 41.22 461.011 42.004 461.011 43.38V43.7L458.483 43.892C457.251 43.988 455.731 44.532 455.731 46.292C455.731 47.652 456.851 48.66 458.259 48.66ZM458.371 47.78C457.459 47.78 456.771 47.108 456.771 46.228C456.771 45.348 457.555 44.788 458.691 44.708L461.011 44.548V45.62C461.011 46.804 459.635 47.78 458.531 47.78H458.371ZM467.419 48.66C469.147 48.66 470.251 47.588 470.539 45.94H469.499C469.291 46.964 468.571 47.78 467.499 47.78H467.339C465.595 47.78 464.779 46.244 464.779 44.5C464.779 42.756 465.595 41.22 467.339 41.22H467.499C468.571 41.22 469.323 41.988 469.499 43.06H470.539C470.379 41.38 469.147 40.34 467.419 40.34C465.051 40.34 463.739 42.148 463.739 44.5C463.739 46.852 465.051 48.66 467.419 48.66ZM473.283 48.5V45.94L474.899 44.404L477.827 48.5H479.123L475.635 43.684L478.963 40.5H477.539L473.283 44.644V37.3H472.243V48.5H473.283ZM482.995 48.66C484.627 48.66 485.859 47.812 486.211 46.212H485.171C484.867 47.284 484.163 47.78 483.075 47.78H482.979C481.667 47.78 480.499 46.836 480.467 44.58H486.227V43.94C486.227 41.892 484.947 40.34 482.995 40.34C481.155 40.34 479.427 41.684 479.427 44.484C479.427 47.22 480.995 48.66 482.995 48.66ZM480.499 43.7C480.723 41.796 481.891 41.22 482.899 41.22H483.059C484.323 41.22 485.139 42.276 485.187 43.7H480.499ZM489.049 48.5V44.612C489.049 42.596 489.993 41.38 491.529 41.38H492.169V40.42H491.449C490.345 40.42 489.337 41.044 488.969 42.324V40.5H488.009V48.5H489.049ZM500.483 47.252L496.259 37.3H495.059L499.843 48.5H501.091L505.699 37.3H504.499L500.483 47.252ZM507.934 39.06V37.7H506.734V39.06H507.934ZM507.854 48.5V40.5H506.814V48.5H507.854ZM512.648 48.66C514.408 48.66 515.576 47.78 515.576 46.26C515.576 44.9 514.664 44.388 513.528 44.148L512.28 43.876C511.256 43.652 510.824 43.316 510.824 42.596C510.824 41.892 511.448 41.22 512.568 41.22H512.728C513.832 41.22 514.52 42.02 514.616 42.9H515.656C515.576 41.588 514.648 40.34 512.648 40.34C511.128 40.34 509.784 41.172 509.784 42.692C509.784 44.052 510.776 44.596 511.96 44.852L513.128 45.108C514.2 45.348 514.536 45.716 514.536 46.34C514.536 47.22 513.848 47.78 512.728 47.78H512.568C511.464 47.78 510.616 47.204 510.504 46.1H509.464C509.544 47.572 510.584 48.66 512.648 48.66ZM518.513 39.06V37.7H517.313V39.06H518.513ZM518.433 48.5V40.5H517.393V48.5H518.433ZM524.379 48.66C526.459 48.66 527.947 47.06 527.947 44.5C527.947 41.94 526.459 40.34 524.379 40.34C523.339 40.34 522.187 40.9 521.707 41.78V37.3H520.667V48.5H521.707V47.22C522.187 48.1 523.339 48.66 524.379 48.66ZM524.267 47.78C522.539 47.78 521.707 46.228 521.707 44.5C521.707 42.772 522.539 41.22 524.267 41.22H524.347C526.059 41.22 526.891 42.772 526.891 44.5C526.891 46.228 526.059 47.78 524.347 47.78H524.267ZM530.826 39.06V37.7H529.626V39.06H530.826ZM530.746 48.5V40.5H529.706V48.5H530.746ZM534.02 48.5V37.3H532.98V48.5H534.02ZM537.374 39.06V37.7H536.174V39.06H537.374ZM537.294 48.5V40.5H536.254V48.5H537.294ZM543.607 48.5V47.62H542.007C541.527 47.62 541.367 47.46 541.367 46.98V41.38H543.367V40.5H541.367V37.908H540.327V40.5H538.487V41.38H540.327V47.06C540.327 48.1 540.807 48.5 541.847 48.5H543.607ZM550.639 40.5L547.887 46.98L545.135 40.5H543.999L547.391 48.276V49.62C547.391 50.1 547.231 50.26 546.751 50.26H544.479V51.14H546.911C547.951 51.14 548.431 50.724 548.431 49.748V48.228L551.727 40.5H550.639Z" fill="white"/>
<mask id="path-72-inside-3_16202_10848" fill="white">
<path fill-rule="evenodd" clip-rule="evenodd" d="M400.135 348.1H375.859C377.568 353.164 382.357 356.81 387.997 356.81C393.637 356.81 398.426 353.164 400.135 348.1ZM400.133 339.899H375.861C377.572 334.838 382.359 331.195 387.997 331.195C393.635 331.195 398.422 334.838 400.133 339.899Z"/>
</mask>
<path d="M400.135 348.1L402.03 348.74L402.92 346.1H400.135V348.1ZM375.859 348.1V346.1H373.074L373.964 348.74L375.859 348.1ZM375.861 339.899L373.967 339.259L373.074 341.899H375.861V339.899ZM400.133 339.899V341.899H402.92L402.027 339.259L400.133 339.899ZM400.135 346.1H375.859V350.1H400.135V346.1ZM387.997 354.81C383.241 354.81 379.197 351.736 377.754 347.461L373.964 348.74C375.939 354.592 381.473 358.81 387.997 358.81V354.81ZM398.24 347.461C396.797 351.736 392.753 354.81 387.997 354.81V358.81C394.521 358.81 400.055 354.592 402.03 348.74L398.24 347.461ZM375.861 341.899H400.133V337.899H375.861V341.899ZM377.756 340.539C379.2 336.267 383.243 333.195 387.997 333.195V329.195C381.475 329.195 375.944 333.41 373.967 339.259L377.756 340.539ZM387.997 333.195C392.751 333.195 396.794 336.267 398.238 340.539L402.027 339.259C400.05 333.41 394.518 329.195 387.997 329.195V333.195Z" fill="white" mask="url(#path-72-inside-3_16202_10848)"/>
<path d="M380.821 341.377L379.879 344.966L378.947 341.377L378.927 341.302H378.85H377.582H377.504L377.485 341.379L376.6 344.983L375.621 341.376L375.601 341.302H375.524H374.309H374.173L374.213 341.432L375.803 346.628L375.825 346.698H375.899H377.239H377.317L377.336 346.623L378.227 343.18L379.138 346.624L379.157 346.698H379.234H380.565H380.639L380.661 346.627L382.199 341.431L382.237 341.302H382.103H380.918H380.841L380.821 341.377Z" fill="white" stroke="white" stroke-width="0.2"/>
<path d="M390.618 341.377L389.676 344.966L388.744 341.377L388.724 341.302H388.647H387.379H387.301L387.282 341.379L386.397 344.983L385.418 341.376L385.398 341.302H385.321H384.105H383.97L384.01 341.432L385.6 346.628L385.621 346.698H385.695H387.036H387.113L387.133 346.623L388.024 343.18L388.935 346.624L388.954 346.698H389.031H390.362H390.436L390.457 346.627L391.995 341.431L392.033 341.302H391.9H390.715H390.638L390.618 341.377Z" fill="white" stroke="white" stroke-width="0.2"/>
<path d="M400.411 341.377L399.469 344.966L398.537 341.377L398.517 341.302H398.44H397.172H397.094L397.075 341.379L396.19 344.983L395.211 341.376L395.191 341.302H395.114H393.898H393.763L393.803 341.432L395.393 346.628L395.414 346.698H395.488H396.829H396.906L396.926 346.623L397.817 343.18L398.728 346.624L398.747 346.698H398.824H400.154H400.229L400.25 346.627L401.788 341.431L401.826 341.302H401.692H400.508H400.431L400.411 341.377Z" fill="white" stroke="white" stroke-width="0.2"/>
<defs>
<linearGradient id="paint0_linear_16202_10848" x1="395.983" y1="143.683" x2="389.485" y2="150.463" gradientUnits="userSpaceOnUse">
<stop offset="0.18" stop-color="#0052CC"/>
<stop offset="1" stop-color="#2684FF"/>
</linearGradient>
<linearGradient id="paint1_linear_16202_10848" x1="388.813" y1="151.388" x2="381.297" y2="158.783" gradientUnits="userSpaceOnUse">
<stop offset="0.18" stop-color="#0052CC"/>
<stop offset="1" stop-color="#2684FF"/>
</linearGradient>
<linearGradient id="paint2_linear_16202_10848" x1="308.374" y1="343.308" x2="292.685" y2="355.553" gradientUnits="userSpaceOnUse">
<stop offset="0.18" stop-color="#0052CC"/>
<stop offset="1" stop-color="#2684FF"/>
</linearGradient>
<clipPath id="clip0_16202_10848">
<rect width="32" height="32" fill="white" transform="translate(372 136)"/>
</clipPath>
<clipPath id="clip1_16202_10848">
<rect width="32" height="32" fill="white" transform="translate(276 232)"/>
</clipPath>
<clipPath id="clip2_16202_10848">
<rect width="32" height="32" fill="white" transform="translate(372 232)"/>
</clipPath>
<clipPath id="clip3_16202_10848">
<rect width="32" height="32" fill="white" transform="translate(180 328)"/>
</clipPath>
<clipPath id="clip4_16202_10848">
<rect width="32" height="32" fill="white" transform="translate(276 328)"/>
</clipPath>
<clipPath id="clip5_16202_10848">
<rect width="32" height="32" fill="white" transform="translate(84 424)"/>
</clipPath>
<clipPath id="clip6_16202_10848">
<rect width="32" height="32" fill="white" transform="translate(276 424)"/>
</clipPath>
</defs>
</svg>
