<svg width="584" height="524" viewBox="0 0 584 524" fill="none" xmlns="http://www.w3.org/2000/svg">
<rect width="584" height="524" fill="#040C25"/>
<path d="M178 212H196H214M178 212H214M178 212L160 230V266L178 284H214L232 266V230L214 212" stroke="#1D294E" stroke-width="2"/>
<path d="M274 116H292H310M274 116H310M274 116L256 134V170L274 188H310L328 170V134L310 116" stroke="#1D294E" stroke-width="2"/>
<path d="M502 188H484H466M502 188H466M502 188L520 170V116H466L448 134V170L466 188" stroke="#1D294E" stroke-width="2"/>
<rect x="160" y="404" width="72" height="72" stroke="#1D294E" stroke-width="2"/>
<path d="M205.596 437.599C205.596 443.663 196.001 451.992 196.001 451.992C196.001 451.992 186.406 443.704 186.406 437.599C186.406 431.494 190.702 428.004 196.001 428.004C201.301 428.004 205.596 431.535 205.596 437.599Z" stroke="white" stroke-width="2"/>
<path d="M193.128 441.713V433.312H191.688V441.713H193.128Z" fill="white"/>
<path d="M196.62 441.713V438.521H198.864C200.46 438.521 201.564 437.561 201.564 435.917C201.564 434.26 200.46 433.312 198.864 433.312H195.18V441.713H196.62ZM196.62 434.597H198.684C199.62 434.597 200.124 435.089 200.124 435.917C200.124 436.733 199.62 437.237 198.684 437.237H196.62V434.597Z" fill="white"/>
<path fill-rule="evenodd" clip-rule="evenodd" d="M193.395 441.976H191.422V433.043H193.395V441.976ZM193.129 433.31V441.71H191.689V433.31H193.129ZM196.887 441.976H194.914V433.043H198.865C199.715 433.043 200.46 433.296 200.995 433.796C201.533 434.298 201.831 435.024 201.831 435.914C201.831 436.798 201.533 437.524 200.996 438.027C200.461 438.528 199.716 438.784 198.865 438.784H196.887V441.976ZM196.621 441.71H195.181V433.31H198.865C200.461 433.31 201.565 434.258 201.565 435.914C201.565 437.558 200.461 438.518 198.865 438.518H196.621V441.71ZM198.685 434.86H196.887V436.967H198.685C199.107 436.967 199.394 436.854 199.573 436.685C199.751 436.519 199.858 436.266 199.858 435.914C199.858 435.555 199.75 435.303 199.574 435.138C199.395 434.971 199.108 434.86 198.685 434.86ZM196.621 434.594V437.234H198.685C199.621 437.234 200.125 436.73 200.125 435.914C200.125 435.086 199.621 434.594 198.685 434.594H196.621Z" fill="white"/>
<rect x="64" y="212" width="72" height="72" stroke="#1D294E" stroke-width="2"/>
<rect x="352" y="116" width="72" height="72" stroke="#1D294E" stroke-width="2"/>
<path d="M178 116H196H214M178 116H214M178 116L160 134V170L178 188H214L232 170V134L214 116" stroke="#1D294E" stroke-width="2"/>
<path d="M205.596 149.599C205.596 155.663 196.001 163.992 196.001 163.992C196.001 163.992 186.406 155.704 186.406 149.599C186.406 143.494 190.702 140.004 196.001 140.004C201.301 140.004 205.596 143.535 205.596 149.599Z" stroke="white" stroke-width="2"/>
<path d="M193.128 153.713V145.312H191.688V153.713H193.128Z" fill="white"/>
<path d="M196.62 153.713V150.521H198.864C200.46 150.521 201.564 149.561 201.564 147.917C201.564 146.26 200.46 145.312 198.864 145.312H195.18V153.713H196.62ZM196.62 146.597H198.684C199.62 146.597 200.124 147.089 200.124 147.917C200.124 148.733 199.62 149.237 198.684 149.237H196.62V146.597Z" fill="white"/>
<path fill-rule="evenodd" clip-rule="evenodd" d="M193.395 153.976H191.422V145.043H193.395V153.976ZM193.129 145.31V153.71H191.689V145.31H193.129ZM196.887 153.976H194.914V145.043H198.865C199.715 145.043 200.46 145.296 200.995 145.796C201.533 146.298 201.831 147.024 201.831 147.914C201.831 148.798 201.533 149.524 200.996 150.027C200.461 150.528 199.716 150.784 198.865 150.784H196.887V153.976ZM196.621 153.71H195.181V145.31H198.865C200.461 145.31 201.565 146.258 201.565 147.914C201.565 149.558 200.461 150.518 198.865 150.518H196.621V153.71ZM198.685 146.86H196.887V148.967H198.685C199.107 148.967 199.394 148.854 199.573 148.685C199.751 148.519 199.858 148.266 199.858 147.914C199.858 147.555 199.75 147.303 199.574 147.138C199.395 146.971 199.108 146.86 198.685 146.86ZM196.621 146.594V149.234H198.685C199.621 149.234 200.125 148.73 200.125 147.914C200.125 147.086 199.621 146.594 198.685 146.594H196.621Z" fill="white"/>
<path d="M370 212H388H406M370 212H406M370 212L352 230V266L370 284H406L424 266V230L406 212" stroke="#1D294E" stroke-width="2"/>
<path d="M82 308H100H118M82 308H118M82 308L64 326V362L82 380H118L136 362V326L118 308" stroke="#1D294E" stroke-width="2"/>
<rect x="256" y="308" width="72" height="72" stroke="#1D294E" stroke-width="2"/>
<path d="M370 308H388H406M370 308H406M370 308L352 326V362L370 380H406L424 362V326L406 308" stroke="#1D294E" stroke-width="2"/>
<rect x="448" y="308" width="72" height="72" stroke="#1D294E" stroke-width="2"/>
<path d="M82 404H100H118M82 404H118M82 404L64 422V476H118L136 458V422L118 404" stroke="#1D294E" stroke-width="2"/>
<path d="M82 188H100H118M82 188H118M82 188L64 170V116H118L136 134V170L118 188" stroke="#1D294E" stroke-width="2"/>
<mask id="path-21-inside-1_16250_11029" fill="white">
<path fill-rule="evenodd" clip-rule="evenodd" d="M400.135 348.1H375.859C377.568 353.164 382.357 356.81 387.997 356.81C393.637 356.81 398.426 353.164 400.135 348.1ZM400.133 339.899H375.861C377.572 334.838 382.359 331.195 387.997 331.195C393.635 331.195 398.422 334.838 400.133 339.899Z"/>
</mask>
<path d="M400.135 348.1L402.03 348.74L402.92 346.1H400.135V348.1ZM375.859 348.1V346.1H373.074L373.964 348.74L375.859 348.1ZM375.861 339.899L373.967 339.259L373.074 341.899H375.861V339.899ZM400.133 339.899V341.899H402.92L402.027 339.259L400.133 339.899ZM400.135 346.1H375.859V350.1H400.135V346.1ZM387.997 354.81C383.241 354.81 379.197 351.736 377.754 347.461L373.964 348.74C375.939 354.592 381.473 358.81 387.997 358.81V354.81ZM398.24 347.461C396.797 351.736 392.753 354.81 387.997 354.81V358.81C394.521 358.81 400.055 354.592 402.03 348.74L398.24 347.461ZM375.861 341.899H400.133V337.899H375.861V341.899ZM377.756 340.539C379.2 336.267 383.243 333.195 387.997 333.195V329.195C381.475 329.195 375.944 333.41 373.967 339.259L377.756 340.539ZM387.997 333.195C392.751 333.195 396.794 336.267 398.238 340.539L402.027 339.259C400.05 333.41 394.518 329.195 387.997 329.195V333.195Z" fill="white" mask="url(#path-21-inside-1_16250_11029)"/>
<path d="M380.821 341.377L379.879 344.966L378.947 341.377L378.927 341.302H378.85H377.582H377.504L377.485 341.379L376.6 344.983L375.621 341.376L375.601 341.302H375.524H374.309H374.173L374.213 341.432L375.803 346.628L375.825 346.698H375.899H377.239H377.317L377.336 346.623L378.227 343.18L379.138 346.624L379.157 346.698H379.234H380.565H380.639L380.661 346.627L382.199 341.431L382.237 341.302H382.103H380.918H380.841L380.821 341.377Z" fill="white" stroke="white" stroke-width="0.2"/>
<path d="M390.618 341.377L389.676 344.966L388.744 341.377L388.724 341.302H388.647H387.379H387.301L387.282 341.379L386.397 344.983L385.418 341.376L385.398 341.302H385.321H384.105H383.97L384.01 341.432L385.6 346.628L385.621 346.698H385.695H387.036H387.113L387.133 346.623L388.024 343.18L388.935 346.624L388.954 346.698H389.031H390.362H390.436L390.457 346.627L391.995 341.431L392.033 341.302H391.9H390.715H390.638L390.618 341.377Z" fill="white" stroke="white" stroke-width="0.2"/>
<path d="M400.411 341.377L399.469 344.966L398.537 341.377L398.517 341.302H398.44H397.172H397.094L397.075 341.379L396.19 344.983L395.211 341.376L395.191 341.302H395.114H393.898H393.763L393.803 341.432L395.393 346.628L395.414 346.698H395.488H396.829H396.906L396.926 346.623L397.817 343.18L398.728 346.624L398.747 346.698H398.824H400.154H400.229L400.25 346.627L401.788 341.431L401.826 341.302H401.692H400.508H400.431L400.411 341.377Z" fill="white" stroke="white" stroke-width="0.2"/>
<mask id="path-26-inside-2_16250_11029" fill="white">
<path fill-rule="evenodd" clip-rule="evenodd" d="M112.135 252.1H87.8594C89.5682 257.164 94.3568 260.81 99.9969 260.81C105.637 260.81 110.426 257.164 112.135 252.1ZM112.133 243.899H87.8613C89.5719 238.838 94.359 235.195 99.9969 235.195C105.635 235.195 110.422 238.838 112.133 243.899Z"/>
</mask>
<path d="M112.135 252.1L114.03 252.74L114.92 250.1H112.135V252.1ZM87.8594 252.1V250.1H85.0736L85.9644 252.74L87.8594 252.1ZM87.8613 243.899L85.9666 243.259L85.0741 245.899H87.8613V243.899ZM112.133 243.899V245.899H114.92L114.027 243.259L112.133 243.899ZM112.135 250.1H87.8594V254.1H112.135V250.1ZM99.9969 258.81C95.2407 258.81 91.1971 255.736 89.7544 251.461L85.9644 252.74C87.9393 258.592 93.4729 262.81 99.9969 262.81V258.81ZM110.24 251.461C108.797 255.736 104.753 258.81 99.9969 258.81V262.81C106.521 262.81 112.055 258.592 114.03 252.74L110.24 251.461ZM87.8613 245.899H112.133V241.899H87.8613V245.899ZM89.756 244.539C91.2002 240.267 95.2425 237.195 99.9969 237.195V233.195C93.4754 233.195 87.9435 237.41 85.9666 243.259L89.756 244.539ZM99.9969 237.195C104.751 237.195 108.794 240.267 110.238 244.539L114.027 243.259C112.05 237.41 106.518 233.195 99.9969 233.195V237.195Z" fill="white" mask="url(#path-26-inside-2_16250_11029)"/>
<path d="M92.8212 245.377L91.8792 248.966L90.9467 245.377L90.9273 245.302H90.8499H89.5821H89.5037L89.485 245.379L88.6004 248.983L87.621 245.376L87.6009 245.302H87.5245H86.3086H86.1734L86.213 245.432L87.803 250.628L87.8246 250.698H87.8986H89.2392H89.3166L89.336 250.623L90.2274 247.18L91.1378 250.624L91.1574 250.698H91.2344H92.5646H92.6393L92.6605 250.627L94.1985 245.431L94.2365 245.302H94.1027H92.918H92.8408L92.8212 245.377Z" fill="white" stroke="white" stroke-width="0.2"/>
<path d="M102.618 245.377L101.676 248.966L100.744 245.377L100.724 245.302H100.647H99.379H99.3006L99.2819 245.379L98.3972 248.983L97.4178 245.376L97.3978 245.302H97.3213H96.1055H95.9703L96.0098 245.432L97.5998 250.628L97.6215 250.698H97.6955H99.036H99.1134L99.1328 250.623L100.024 247.18L100.935 250.624L100.954 250.698H101.031H102.362H102.436L102.457 250.627L103.995 245.431L104.033 245.302H103.9H102.715H102.638L102.618 245.377Z" fill="white" stroke="white" stroke-width="0.2"/>
<path d="M112.411 245.377L111.469 248.966L110.537 245.377L110.517 245.302H110.44H109.172H109.094L109.075 245.379L108.19 248.983L107.211 245.376L107.191 245.302H107.114H105.898H105.763L105.803 245.432L107.393 250.628L107.414 250.698H107.488H108.829H108.906L108.926 250.623L109.817 247.18L110.728 250.624L110.747 250.698H110.824H112.154H112.229L112.25 250.627L113.788 245.431L113.826 245.302H113.692H112.508H112.431L112.411 245.377Z" fill="white" stroke="white" stroke-width="0.2"/>
<path d="M274 212H292H310M274 212H310M274 212L256 230V266L274 284H310L328 266V230L310 212" stroke="#1D294E" stroke-width="2"/>
<path d="M502 212H484H466M502 212H466M502 212L520 230V266L502 284H466L448 266V230L466 212" stroke="#1D294E" stroke-width="2"/>
<path fill-rule="evenodd" clip-rule="evenodd" d="M484.504 234.138L484 233.844L483.496 234.138L471.496 241.138L470.016 242.001L471.496 242.865L475.155 245L471.496 247.134L470.016 247.998L471.496 248.861L475.158 250.998L471.496 253.134L470.016 253.998L471.496 254.861L483.496 261.861L484 262.155L484.504 261.861L496.504 254.861L497.985 253.998L496.504 253.134L492.842 250.998L496.504 248.861L497.985 247.998L496.504 247.134L492.845 245L496.504 242.865L497.985 242.001L496.504 241.138L484.504 234.138ZM490.861 246.157L484.504 249.865L484 250.159L483.496 249.865L477.14 246.157L473.985 247.998L484 253.84L494.016 247.998L490.861 246.157ZM484 247.844L473.985 242.001L484 236.159L494.016 242.001L484 247.844ZM473.985 253.998L477.143 252.155L483.496 255.861L484 256.155L484.504 255.861L490.857 252.155L494.016 253.998L484 259.84L473.985 253.998Z" fill="white"/>
<path d="M178 308H196H214M178 308H214M178 308L160 326V362L178 380H214L232 362V326L214 308" stroke="#1D294E" stroke-width="2"/>
<path d="M274 404H292H310M274 404H310M274 404L256 422V458L274 476H310L328 458V422L310 404" stroke="#1D294E" stroke-width="2"/>
<path d="M370 404H388H406M370 404H406M370 404L352 422V458L370 476H406L424 458V422L406 404" stroke="#1D294E" stroke-width="2"/>
<path d="M502 404H484H466M502 404H466M502 404L520 422V476H466L448 458V422L466 404" stroke="#1D294E" stroke-width="2"/>
<path fill-rule="evenodd" clip-rule="evenodd" d="M44 36.25C39.9174 36.25 37.0517 38.0966 35.2304 39.9179C34.3226 40.8257 33.6683 41.7317 33.2397 42.4125C33.0249 42.7537 32.8653 43.0405 32.7577 43.246C32.7039 43.3487 32.663 43.4313 32.6345 43.4904C32.6203 43.5199 32.6092 43.5436 32.6012 43.561L32.5914 43.5823L32.5882 43.5893L32.5871 43.5919L32.5866 43.593C32.5864 43.5934 32.5862 43.5939 33.5 44L32.5862 43.5939C32.4713 43.8524 32.4713 44.1476 32.5862 44.4061L33.5 44C32.5862 44.4061 32.5864 44.4066 32.5866 44.407L32.5871 44.4081L32.5882 44.4107L32.5914 44.4177L32.6012 44.439C32.6092 44.4564 32.6203 44.4801 32.6345 44.5096C32.663 44.5687 32.7039 44.6513 32.7577 44.754C32.8653 44.9595 33.0249 45.2463 33.2397 45.5875C33.6683 46.2683 34.3226 47.1743 35.2304 48.0821C37.0517 49.9034 39.9174 51.75 44 51.75C48.0826 51.75 50.9483 49.9034 52.7696 48.0821C53.6774 47.1743 54.3317 46.2683 54.7603 45.5875C54.9751 45.2463 55.1347 44.9595 55.2423 44.754C55.2961 44.6513 55.337 44.5687 55.3655 44.5096C55.3797 44.4801 55.3908 44.4564 55.3988 44.439L55.4086 44.4177L55.4118 44.4107L55.4129 44.4081L55.4134 44.407C55.4136 44.4066 55.4138 44.4061 54.5 44L55.4138 44.4061C55.5287 44.1476 55.5287 43.8524 55.4138 43.5939L54.5 44C55.4138 43.5939 55.4136 43.5934 55.4134 43.593L55.4129 43.5919L55.4118 43.5893L55.4086 43.5823L55.3988 43.561C55.3908 43.5436 55.3797 43.5199 55.3655 43.4904C55.337 43.4313 55.2961 43.3487 55.2423 43.246C55.1347 43.0405 54.9751 42.7537 54.7603 42.4125C54.3317 41.7317 53.6774 40.8257 52.7696 39.9179C50.9483 38.0966 48.0826 36.25 44 36.25ZM34.9322 44.5219C34.8056 44.3208 34.7028 44.144 34.6231 44C34.7028 43.856 34.8056 43.6792 34.9322 43.4781C35.3004 42.8933 35.8649 42.1118 36.6446 41.3321C38.1983 39.7784 40.5826 38.25 44 38.25C47.4174 38.25 49.8017 39.7784 51.3554 41.3321C52.1351 42.1118 52.6996 42.8933 53.0678 43.4781C53.1944 43.6792 53.2972 43.856 53.3769 44C53.2972 44.144 53.1944 44.3208 53.0678 44.5219C52.6996 45.1067 52.1351 45.8882 51.3554 46.6679C49.8017 48.2216 47.4174 49.75 44 49.75C40.5826 49.75 38.1983 48.2216 36.6446 46.6679C35.8649 45.8882 35.3004 45.1067 34.9322 44.5219ZM41.25 44C41.25 42.4812 42.4812 41.25 44 41.25C45.5188 41.25 46.75 42.4812 46.75 44C46.75 45.5188 45.5188 46.75 44 46.75C42.4812 46.75 41.25 45.5188 41.25 44ZM44 39.25C41.3766 39.25 39.25 41.3766 39.25 44C39.25 46.6234 41.3766 48.75 44 48.75C46.6234 48.75 48.75 46.6234 48.75 44C48.75 41.3766 46.6234 39.25 44 39.25Z" fill="#8991AA"/>
<path d="M77.376 48.5V47.46H70.672V37.3H69.552V48.5H77.376ZM79.705 39.06V37.7H78.505V39.06H79.705ZM79.625 48.5V40.5H78.585V48.5H79.625ZM82.8987 48.5V44.5C82.8987 42.772 83.6667 41.22 85.2827 41.22H85.3787C86.6107 41.22 87.2188 41.988 87.2188 43.588V48.5H88.2587V44.5C88.2587 42.772 89.0267 41.22 90.6427 41.22H90.7388C91.9707 41.22 92.5788 41.988 92.5788 43.588V48.5H93.6188V43.268C93.6188 41.348 92.4508 40.34 90.8988 40.34C89.6027 40.34 88.6267 40.932 88.0668 42.02C87.6667 40.916 86.7067 40.34 85.5387 40.34C84.3067 40.34 83.3787 40.948 82.8987 41.78V40.5H81.8587V48.5H82.8987ZM96.8931 39.06V37.7H95.6931V39.06H96.8931ZM96.8131 48.5V40.5H95.7731V48.5H96.8131ZM103.127 48.5V47.62H101.527C101.047 47.62 100.887 47.46 100.887 46.98V41.38H102.887V40.5H100.887V37.908H99.8469V40.5H98.0069V41.38H99.8469V47.06C99.8469 48.1 100.327 48.5 101.367 48.5H103.127ZM107.424 48.66C109.056 48.66 110.288 47.812 110.64 46.212H109.6C109.296 47.284 108.592 47.78 107.504 47.78H107.408C106.096 47.78 104.928 46.836 104.896 44.58H110.656V43.94C110.656 41.892 109.376 40.34 107.424 40.34C105.584 40.34 103.856 41.684 103.856 44.484C103.856 47.22 105.424 48.66 107.424 48.66ZM104.928 43.7C105.152 41.796 106.32 41.22 107.328 41.22H107.488C108.752 41.22 109.568 42.276 109.616 43.7H104.928ZM115.526 48.66C116.566 48.66 117.718 48.1 118.198 47.22V48.5H119.238V37.3H118.198V41.78C117.718 40.9 116.566 40.34 115.526 40.34C113.446 40.34 111.958 41.94 111.958 44.5C111.958 47.06 113.446 48.66 115.526 48.66ZM115.558 47.78C113.846 47.78 113.014 46.228 113.014 44.5C113.014 42.772 113.846 41.22 115.558 41.22H115.638C117.366 41.22 118.198 42.772 118.198 44.5C118.198 46.228 117.366 47.78 115.638 47.78H115.558ZM128.944 47.252L124.72 37.3H123.52L128.304 48.5H129.552L134.16 37.3H132.96L128.944 47.252ZM136.395 39.06V37.7H135.195V39.06H136.395ZM136.315 48.5V40.5H135.275V48.5H136.315ZM141.109 48.66C142.869 48.66 144.037 47.78 144.037 46.26C144.037 44.9 143.125 44.388 141.989 44.148L140.741 43.876C139.717 43.652 139.285 43.316 139.285 42.596C139.285 41.892 139.909 41.22 141.029 41.22H141.189C142.293 41.22 142.981 42.02 143.077 42.9H144.117C144.037 41.588 143.109 40.34 141.109 40.34C139.589 40.34 138.245 41.172 138.245 42.692C138.245 44.052 139.237 44.596 140.421 44.852L141.589 45.108C142.661 45.348 142.997 45.716 142.997 46.34C142.997 47.22 142.309 47.78 141.189 47.78H141.029C139.925 47.78 139.077 47.204 138.965 46.1H137.925C138.005 47.572 139.045 48.66 141.109 48.66ZM146.974 39.06V37.7H145.774V39.06H146.974ZM146.894 48.5V40.5H145.854V48.5H146.894ZM152.84 48.66C154.92 48.66 156.408 47.06 156.408 44.5C156.408 41.94 154.92 40.34 152.84 40.34C151.8 40.34 150.648 40.9 150.168 41.78V37.3H149.128V48.5H150.168V47.22C150.648 48.1 151.8 48.66 152.84 48.66ZM152.728 47.78C151 47.78 150.168 46.228 150.168 44.5C150.168 42.772 151 41.22 152.728 41.22H152.808C154.52 41.22 155.352 42.772 155.352 44.5C155.352 46.228 154.52 47.78 152.808 47.78H152.728ZM159.287 39.06V37.7H158.087V39.06H159.287ZM159.207 48.5V40.5H158.167V48.5H159.207ZM162.481 48.5V37.3H161.441V48.5H162.481ZM165.834 39.06V37.7H164.634V39.06H165.834ZM165.754 48.5V40.5H164.714V48.5H165.754ZM172.068 48.5V47.62H170.468C169.988 47.62 169.828 47.46 169.828 46.98V41.38H171.828V40.5H169.828V37.908H168.788V40.5H166.948V41.38H168.788V47.06C168.788 48.1 169.268 48.5 170.308 48.5H172.068ZM179.099 40.5L176.347 46.98L173.595 40.5H172.459L175.851 48.276V49.62C175.851 50.1 175.691 50.26 175.211 50.26H172.939V51.14H175.371C176.411 51.14 176.891 50.724 176.891 49.748V48.228L180.187 40.5H179.099Z" fill="#8991AA"/>
</svg>
